<svg width="412" height="31" viewBox="0 0 412 31" fill="none" xmlns="http://www.w3.org/2000/svg">
<path d="M7.04 14.752V12.544C5.696 14.816 4.224 16.608 2.304 18.304C1.568 16.768 1.504 16.64 0.704 15.488C3.328 13.12 4.992 11.008 6.528 8.128H4.032C3.168 8.128 2.176 8.16 1.472 8.192V5.248C2.208 5.28 3.36 5.28 4.032 5.28H7.04C7.04 3.2 7.008 1.984 6.944 1.184L10.144 1.408C10.496 1.44 10.688 1.568 10.688 1.728C10.688 1.92 10.528 2.112 10.08 2.368V5.28H12.736C13.408 5.28 14.56 5.28 15.296 5.248V8.192C14.592 8.16 13.6 8.128 12.736 8.128H10.08V9.088C12.288 10.4 13.44 11.232 15.008 12.736L13.088 15.36C11.616 13.792 11.2 13.344 10.08 12.48V14.752C10.08 16.864 10.112 18.496 10.144 19.424H6.944C7.008 18.336 7.04 16.864 7.04 14.752ZM25.824 17.984H19.68C19.68 18.592 19.68 19.072 19.712 19.424H16.512C16.576 18.688 16.608 17.632 16.608 16.064V5.056C16.608 4.032 16.576 2.816 16.512 2.24C17.248 2.272 17.888 2.304 18.848 2.304H26.656C27.584 2.304 28.256 2.272 28.96 2.24C28.896 2.816 28.864 4.032 28.864 5.056V15.872C28.864 17.376 28.896 18.464 28.96 19.2H25.76C25.792 18.912 25.824 18.496 25.824 17.984ZM25.856 15.2V13.536H19.648V15.2H25.856ZM25.856 10.912V9.344H19.648V10.912H25.856ZM25.856 6.72V5.024H19.648V6.72H25.856ZM8.768 20.416L12.192 20.704C12.48 20.736 12.704 20.896 12.704 21.088C12.704 21.312 12.512 21.504 12.064 21.696C12 22.08 12 22.528 12 23.04V25.728C12 26.496 12.128 26.72 12.704 26.848C13.152 26.944 14.56 27.04 15.584 27.04C19.872 27.04 20.576 26.944 20.928 26.304C21.152 25.92 21.28 24.992 21.28 23.936C22.496 24.352 22.592 24.384 24.352 24.736C24.16 29.568 23.584 29.952 16.096 29.952C9.696 29.952 8.928 29.696 8.928 27.424V23.36C8.928 21.632 8.896 20.896 8.768 20.416ZM4.416 21.216L7.136 22.4C7.36 22.496 7.456 22.624 7.456 22.816C7.456 23.04 7.328 23.136 6.848 23.264C5.76 26.304 5.216 27.232 3.328 29.184C2.752 28.352 2.112 27.712 1.12 26.976C2.976 25.088 3.808 23.648 4.416 21.216ZM14.016 21.408L15.808 19.424C17.696 20.736 18.784 21.728 20.288 23.456L18.08 25.632C16.576 23.712 15.968 23.104 14.016 21.408ZM23.904 22.944L26.08 21.12C27.2 22.08 27.84 22.752 28.896 24.064C29.312 24.576 29.984 25.568 30.912 27.04L28.192 29.12C27.136 26.88 25.504 24.544 23.904 22.944ZM59.712 3.296H64.384L64.928 2.72L66.848 4.48C67.136 4.736 67.168 4.832 67.168 4.96C67.168 5.248 66.912 5.408 66.272 5.536C65.76 6.336 65.248 7.104 64.64 7.84H67.904C69.344 7.84 70.336 7.84 71.424 7.808C71.392 8.384 71.36 9.6 71.36 10.624V11.84C71.36 13.344 71.392 14.432 71.424 15.168H68.416V14.528H64.672C65.056 15.872 65.472 17.184 66.08 18.464C67.488 17.536 68.256 16.864 69.856 15.392L72.192 16.96C72.448 17.12 72.48 17.184 72.48 17.344C72.48 17.568 72.32 17.664 71.68 17.728C70.048 18.848 69.056 19.52 67.264 20.512L67.52 20.864C68.928 22.816 70.272 24 73.184 25.856C72.224 26.528 71.872 27.008 71.04 28.576C67.904 26.208 66.528 24.736 65.056 22.272C63.808 20.16 63.04 18.176 62.208 14.688C61.568 15.232 60.896 15.776 60.192 16.256C63.136 18.88 64.448 21.632 64.448 25.152C64.448 27.68 63.712 29.28 62.208 30.048C61.376 30.464 60 30.688 58.144 30.688H57.504C57.44 29.312 57.344 28.672 56.96 27.424H58.048C59.392 27.424 59.936 27.36 60.384 27.072C61.088 26.592 61.376 25.856 61.408 24.352C58.336 26.432 55.328 27.776 51.104 28.928C50.688 27.616 50.624 27.52 50.048 26.304C54.528 25.184 57.28 24.032 60.928 21.6C60.768 21.248 60.576 20.896 60.352 20.544L60.288 20.448C57.664 22.176 54.784 23.424 51.04 24.448C50.688 23.36 50.368 22.592 49.952 21.92C53.92 20.896 56.736 19.808 58.88 18.432C58.624 18.144 58.368 17.856 58.112 17.6C56.032 18.752 53.76 19.584 50.912 20.32C50.56 19.264 50.304 18.656 49.792 17.728C53.504 16.928 55.968 16 58.304 14.528H55.68V15.232H52.64C52.704 14.496 52.736 13.408 52.736 11.84V9.888C52.192 10.24 51.616 10.624 51.008 11.008C50.368 9.824 50.016 9.28 49.472 8.608C53.472 6.304 56.352 3.616 58.048 0.543999L60.832 1.504C61.088 1.6 61.184 1.696 61.184 1.824C61.184 2.048 61.152 2.08 60.448 2.336C60.192 2.656 59.968 2.976 59.712 3.296ZM62.752 5.824H57.568C56.864 6.528 56.16 7.2 55.424 7.84H61.504C61.952 7.2 62.368 6.528 62.752 5.824ZM60.64 12.128V10.24H55.68V12.128H60.64ZM63.52 12.128H68.416V10.24H63.52V12.128ZM48.16 10.112L48.864 10.144C49.184 10.144 49.376 10.304 49.376 10.464C49.376 10.688 49.184 10.848 48.736 11.104V24.192C48.736 27.072 48.768 29.344 48.8 30.752H45.536C45.6 29.312 45.632 27.136 45.632 24.192V15.808C45.184 16.8 44.768 17.568 44.096 18.752C43.36 17.152 43.04 16.672 42.176 15.68C44.864 11.232 46.656 6.56 47.936 0.703999L51.008 1.888C51.296 1.984 51.456 2.144 51.456 2.336C51.456 2.592 51.36 2.656 50.688 2.88C49.76 6.048 49.312 7.36 48.16 10.112ZM109.6 3.68V9.344C109.6 15.072 109.248 18.368 108.288 20.896C111.232 22.72 112.512 24 114.592 27.008L112.096 29.664C110.048 26.624 108.864 25.248 106.816 23.68C104.48 26.976 100.576 28.992 94.368 30.176C94.08 28.896 93.632 27.904 92.864 26.976C97.376 26.08 98.048 25.92 99.904 25.024C102.88 23.584 104.768 21.504 105.6 18.752C106.24 16.576 106.496 13.728 106.496 8.448C106.496 5.344 106.464 3.616 106.4 2.24L109.728 2.624C110.016 2.656 110.304 2.88 110.304 3.04C110.304 3.296 110.176 3.424 109.6 3.68ZM91.2 9.92V21.696C94.464 20.32 97.44 18.88 100.896 16.96L101.664 19.744C97.152 22.24 96.128 22.816 94.048 23.744C88.32 26.304 87.744 26.528 86.4 27.104L86.336 27.392C86.24 27.776 86.112 27.904 85.92 27.904C85.664 27.904 85.44 27.68 85.248 27.296L83.872 24.48C85.312 23.968 86.656 23.488 87.936 23.008V9.92C87.936 6.144 87.872 3.136 87.776 2.368L91.328 2.592C91.616 2.624 91.808 2.72 91.808 2.912C91.808 3.104 91.648 3.264 91.232 3.52C91.232 4.192 91.2 6.08 91.2 9.92ZM94.08 5.888L95.936 3.776C99.264 6.016 100.448 7.04 102.944 9.888L100.608 12.16C98.08 9.12 96.8 7.904 94.08 5.888ZM138.816 26.048V8C138.816 4.832 138.752 3.168 138.688 2.24L142.144 2.464C142.496 2.496 142.72 2.624 142.72 2.784C142.72 2.976 142.528 3.168 142.08 3.424V11.84H148.864C150.08 11.84 151.744 11.808 152.704 11.744V14.88C151.712 14.848 149.92 14.816 148.864 14.816H142.08V26.048H149.216C151.232 26.048 153.952 25.984 155.584 25.92V29.152C153.888 29.088 151.168 29.024 149.216 29.024H132.384C130.624 29.024 127.744 29.088 126.016 29.152V25.92C127.68 25.984 130.56 26.048 132.384 26.048H138.816ZM180.352 0.863998L183.584 1.536C183.776 1.568 183.904 1.728 183.904 1.888C183.904 2.08 183.776 2.208 183.296 2.4C182.656 3.84 182.432 4.32 181.856 5.28C185.184 5.056 187.232 4.768 189.056 4.288L189.824 7.168C186.944 7.68 183.648 8.064 180.288 8.224C179.616 9.376 178.496 11.136 177.888 11.968C179.296 11.456 179.776 11.36 180.864 11.36C183.2 11.36 184.832 12.736 185.152 14.976C186.688 14.368 189.376 13.12 192.064 11.808L194.336 14.08C194.464 14.208 194.528 14.4 194.528 14.528C194.528 14.72 194.336 14.816 194.08 14.816H193.664C190.72 15.872 189.056 16.544 185.376 18.176V24.256H182.24V19.456C180.288 20.544 179.68 20.928 179.04 21.504C177.856 22.56 177.28 23.552 177.28 24.608C177.28 26.336 178.752 26.944 182.88 26.944C186.944 26.944 189.696 26.656 193.184 25.92C193.056 26.976 192.992 27.808 192.992 28.448C192.992 28.736 192.992 28.96 193.056 29.408C190.048 29.888 186.816 30.144 183.328 30.144C179.808 30.144 178.112 29.92 176.672 29.28C174.944 28.544 173.952 26.88 173.952 24.736C173.952 23.136 174.496 21.824 175.712 20.48C176.992 19.072 178.4 18.144 182.08 16.256C181.792 14.464 181.248 13.856 179.744 13.856C177.504 13.856 174.624 15.872 172.256 19.136L169.472 16.768C172.448 14.24 173.856 12.608 176.864 8.32C175.552 8.384 175.2 8.384 174.528 8.384C173.44 8.384 172.864 8.352 171.648 8.224L171.776 5.216C173.536 5.44 174.176 5.472 176.096 5.472C177.152 5.472 177.6 5.44 178.336 5.376C179.392 3.584 180.128 1.92 180.352 0.863998ZM209.344 23.296L211.84 21.12C214.528 23.648 215.936 25.28 218.112 28.32L215.2 30.528C213.408 27.712 211.424 25.248 209.344 23.296ZM253.216 1.216L256.512 2.144C256.704 2.208 256.832 2.368 256.832 2.496C256.832 2.656 256.64 2.816 256.224 3.008C255.648 4.384 255.584 4.544 254.24 7.84C253.856 8.832 253.472 9.76 252.832 11.168C255.104 11.04 257.408 10.88 259.68 10.592C258.784 9.344 257.792 8.192 256.736 7.104L258.784 5.28C261.728 7.904 263.36 10.08 264.896 13.408L262.208 15.296C261.888 14.56 261.536 13.792 261.152 13.088C258.592 13.472 257.024 13.696 255.584 13.856C251.008 14.304 250.784 14.336 249.184 14.528C248.896 14.848 248.768 14.944 248.64 14.944C248.48 14.944 248.32 14.784 248.256 14.528L247.36 11.392C248.192 11.36 249.056 11.36 249.888 11.328C250.56 9.696 251.2 8.064 251.776 6.432C252.352 4.704 252.8 2.976 253.216 1.216ZM247.456 24.576L245.536 27.52C244.448 26.368 243.52 25.472 242.464 24.608C241.056 26.976 239.36 28.896 237.024 30.816C235.968 29.312 235.84 29.184 234.816 28.32C236.928 26.72 238.688 24.864 240 22.816C239.392 22.432 238.816 22.048 238.208 21.696C238.112 22.016 238.048 22.304 237.952 22.56L234.976 21.728C236.128 18.432 236.864 15.488 237.728 10.752H237.408C236.544 10.752 235.52 10.752 234.848 10.784V7.776L237.408 7.808H238.272C238.784 4.896 239.04 3.04 239.2 1.312L242.528 2.08C242.752 2.144 242.944 2.336 242.944 2.528C242.944 2.72 242.752 2.944 242.496 3.04L242.112 3.2C241.952 4.032 241.92 4.224 241.6 6.176C241.504 6.688 241.408 7.232 241.312 7.808H244.64L245.088 7.232L247.136 9.12C247.328 9.312 247.424 9.44 247.424 9.6C247.424 9.856 247.264 10.016 246.912 10.176L246.592 10.336C246.368 12.544 246.016 14.784 245.504 16.96C245.12 18.592 244.64 20.16 244 21.696C245.216 22.56 246.304 23.488 247.456 24.576ZM243.68 10.752H240.768C240.224 13.408 239.648 16.064 239.008 18.688C239.808 19.104 240.64 19.584 241.44 20.032C242.08 18.528 242.56 16.928 242.88 15.328C243.2 13.824 243.488 12.288 243.68 10.752ZM252.352 28.288V30.208H249.184C249.248 28.928 249.28 27.072 249.28 24.576V21.792C249.28 19.872 249.248 17.728 249.184 16.704C250.048 16.736 250.816 16.768 251.904 16.768H259.808C260.928 16.768 261.696 16.736 262.528 16.704C262.464 17.76 262.432 18.592 262.432 21.792V24.128C262.432 26.688 262.464 28.544 262.528 29.76H259.392V28.288H252.352ZM259.392 25.344V19.712H252.352V25.344H259.392ZM292.032 2.816L295.424 3.392C295.616 3.424 295.808 3.616 295.808 3.776C295.808 3.968 295.648 4.096 295.2 4.288C294.976 5.696 294.88 6.368 294.56 8.064C296.64 8.096 298.176 8.416 299.808 9.12C303.616 10.784 305.6 13.792 305.6 17.92C305.6 21.344 304.224 24.32 301.728 26.4C300.16 27.68 298.784 28.416 296.096 29.504C295.744 28.448 295.136 27.296 294.432 26.432C299.872 24.48 302.112 22.016 302.112 17.952C302.112 13.696 299.008 10.944 294.144 10.88C293.12 15.456 291.616 19.68 290.144 22.112C290.4 22.464 291.04 23.264 292.032 24.32C290.976 25.056 290.272 25.728 289.44 26.784C288.64 25.76 288.16 25.152 287.968 24.896C285.824 27.2 284.512 27.936 282.368 27.936C279.232 27.936 277.248 25.504 277.248 21.632C277.248 17.984 279.2 14.304 282.432 11.808C282.272 11.008 282.08 10.208 281.952 9.472C281.28 5.984 281.184 5.44 280.928 4.608L284.384 4.736C284.736 4.736 284.96 4.928 284.96 5.12C284.96 5.312 284.864 5.44 284.448 5.728C284.768 8.352 284.896 9.12 285.12 10.208C286.624 9.344 289.568 8.384 291.424 8.16C291.744 5.792 291.872 4.704 292.032 2.816ZM283.296 15.008C281.376 16.928 280.32 19.232 280.32 21.568C280.32 23.648 281.152 24.992 282.368 24.992C283.68 24.992 285.12 23.968 286.336 22.208C285.248 20.256 283.904 17.12 283.296 15.008ZM288.192 19.36C288.736 18.432 289.344 16.832 290.08 14.592C290.4 13.632 290.88 11.68 291.04 11.008C289.504 11.168 287.36 12.032 285.856 13.088C286.528 15.552 287.712 18.72 288.192 19.36ZM330.848 2.528L334.24 2.656C334.656 2.656 334.912 2.848 334.912 3.136C334.912 3.328 334.816 3.456 334.4 3.776C334.368 5.568 334.368 6.112 334.368 7.2C334.368 7.936 334.4 8.384 334.4 8.96C338.496 8.8 340.416 8.48 343.008 7.456L343.776 10.688C341.376 11.52 337.664 12.064 334.4 12.064C334.464 14.944 334.496 16.16 334.624 19.808C337.728 20.928 338.176 21.12 340.768 22.4C342.432 23.232 344.224 24.224 344.928 24.736C344 25.696 343.648 26.176 342.784 27.648C342.624 27.552 342.464 27.456 342.144 27.232C340.32 25.952 336.992 24.192 334.656 23.264C334.592 24.8 334.464 25.376 334.144 26.08C333.216 28.032 331.168 28.992 328.032 28.992C325.76 28.992 323.776 28.48 322.688 27.584C321.568 26.656 320.96 25.312 320.96 23.84C320.96 20.768 323.616 18.72 327.712 18.72C328.832 18.72 330.304 18.88 331.36 19.136C331.328 15.616 331.328 15.136 331.232 12.64C331.104 8.416 331.136 8.352 331.072 5.216C331.072 4.256 330.976 3.456 330.848 2.528ZM331.392 22.624V22.176C330.24 21.792 328.8 21.568 327.52 21.568C325.472 21.568 324.224 22.432 324.224 23.84C324.224 25.184 325.6 26.048 327.744 26.048C329.28 26.048 330.4 25.6 330.88 24.736C331.2 24.16 331.392 23.488 331.392 22.624ZM365.76 16.032L363.904 12.736C364.736 12.448 365.152 12.288 366.528 11.776C371.168 10.048 374.112 9.28 376.224 9.28C378.432 9.28 380.608 10.176 381.952 11.584C383.072 12.768 383.68 14.72 383.68 17.184C383.68 23.68 379.072 28.256 370.048 30.752C369.632 29.408 369.216 28.512 368.576 27.456C376.352 25.504 380.16 22.112 380.16 17.152C380.16 14.24 378.624 12.448 376.16 12.448C374.368 12.448 373.184 12.768 369.504 14.304C367.552 15.104 367.072 15.328 365.76 16.032ZM368.032 4.704L369.088 1.472C374.368 2.272 376.064 2.656 379.392 3.68L378.112 6.848C375.488 5.92 371.776 5.12 368.032 4.704ZM406.176 20.8C408.864 20.8 411.04 22.976 411.04 25.664C411.04 28.384 408.864 30.56 406.176 30.56C403.456 30.56 401.28 28.384 401.28 25.664C401.28 22.976 403.456 20.8 406.176 20.8ZM406.176 23.104C404.736 23.104 403.584 24.256 403.584 25.664C403.584 27.104 404.736 28.256 406.176 28.256C407.584 28.256 408.736 27.104 408.736 25.664C408.736 24.256 407.584 23.104 406.176 23.104Z" fill="#182346"/>
</svg>
