<svg width="360" height="180" viewBox="0 0 360 180" fill="none" xmlns="http://www.w3.org/2000/svg">
<path d="M40.2 45.22V46.62H43.72V45.22H40.2ZM40.2 42V43.38H43.72V42H40.2ZM49.7 43.38V42H46.12V43.38H49.7ZM49.7 46.62V45.22H46.12V46.62H49.7ZM45.6 49.96H52.88C52.88 49.96 52.84 50.6 52.8 50.92C52.48 54.56 52.08 56.2 51.44 56.84C50.88 57.4 50.28 57.56 49.44 57.62C48.74 57.68 47.52 57.66 46.26 57.64C46.22 56.96 45.9 56.06 45.48 55.46C46.72 55.56 47.98 55.58 48.52 55.58C48.94 55.58 49.18 55.56 49.4 55.38C49.76 55.08 50.06 54.08 50.28 52.1H45.02C44.02 54.68 41.9 56.62 36.86 57.72C36.68 57.1 36.1 56.16 35.62 55.64C39.52 54.88 41.38 53.7 42.32 52.1H36.48V49.96H43.1C43.18 49.52 43.26 49.06 43.32 48.58H37.82V40.04H52.2V48.58H45.82C45.76 49.06 45.68 49.5 45.6 49.96ZM71.52 54.84H76.24V57.1H63.8V54.84H69.14V50.84H65.28V48.62H69.14V45.34H66.94C66.64 46.38 66.24 47.34 65.82 48.1C65.34 47.8 64.26 47.26 63.7 47.02C63.9 46.66 64.1 46.28 64.3 45.86L63.16 46.38C63.04 45.78 62.74 44.9 62.4 44.08V57.74H60.02V43.44C59.9 45.12 59.58 47.32 59.12 48.74L57.36 48.1C57.84 46.78 58.2 44.54 58.34 42.9L60.02 43.14V39.06H62.4V42.84L63.56 42.36C63.96 43.14 64.38 44.1 64.66 44.88C65.16 43.42 65.52 41.7 65.72 40L68.04 40.32C67.9 41.26 67.74 42.2 67.54 43.1H69.14V39.18H71.52V43.1H75.6V45.34H71.52V48.62H75.18V50.84H71.52V54.84Z" fill="#0050B5"/>
<path d="M296.42 45.98H291.16C290.64 47.28 290.1 48.54 289.6 49.72C290.96 50.2 292.46 50.78 293.96 51.44C295.1 50.08 295.88 48.3 296.42 45.98ZM302.1 45.98H299.14C298.54 48.76 297.7 50.9 296.46 52.56C298.54 53.56 300.46 54.64 301.78 55.6L299.96 57.84C298.68 56.82 296.72 55.64 294.54 54.52C292.38 56.22 289.42 57.18 285.38 57.78C285.16 57.02 284.62 56.04 284.12 55.4C287.48 55.02 289.98 54.38 291.86 53.22C290.78 52.72 289.7 52.26 288.64 51.84L288.3 52.58L285.9 51.7C286.66 50.14 287.56 48.12 288.44 45.98H283.96V43.56H289.42C290.02 42 290.6 40.46 291.08 39.08L293.7 39.52C293.22 40.8 292.7 42.18 292.14 43.56H302.1V45.98ZM319.52 54.84H324.24V57.1H311.8V54.84H317.14V50.84H313.28V48.62H317.14V45.34H314.94C314.64 46.38 314.24 47.34 313.82 48.1C313.34 47.8 312.26 47.26 311.7 47.02C311.9 46.66 312.1 46.28 312.3 45.86L311.16 46.38C311.04 45.78 310.74 44.9 310.4 44.08V57.74H308.02V43.44C307.9 45.12 307.58 47.32 307.12 48.74L305.36 48.1C305.84 46.78 306.2 44.54 306.34 42.9L308.02 43.14V39.06H310.4V42.84L311.56 42.36C311.96 43.14 312.38 44.1 312.66 44.88C313.16 43.42 313.52 41.7 313.72 40L316.04 40.32C315.9 41.26 315.74 42.2 315.54 43.1H317.14V39.18H319.52V43.1H323.6V45.34H319.52V48.62H323.18V50.84H319.52V54.84Z" fill="#0050B5"/>
<path d="M2.12 89.04C2.12 84.4267 2.94667 80.8133 4.6 78.2C6.28 75.5867 9.05333 74.28 12.92 74.28C16.7867 74.28 19.5467 75.5867 21.2 78.2C22.88 80.8133 23.72 84.4267 23.72 89.04C23.72 93.68 22.88 97.32 21.2 99.96C19.5467 102.6 16.7867 103.92 12.92 103.92C9.05333 103.92 6.28 102.6 4.6 99.96C2.94667 97.32 2.12 93.68 2.12 89.04ZM18.2 89.04C18.2 87.0667 18.0667 85.4133 17.8 84.08C17.56 82.72 17.0533 81.6133 16.28 80.76C15.5333 79.9067 14.4133 79.48 12.92 79.48C11.4267 79.48 10.2933 79.9067 9.52 80.76C8.77333 81.6133 8.26667 82.72 8 84.08C7.76 85.4133 7.64 87.0667 7.64 89.04C7.64 91.0667 7.76 92.7733 8 94.16C8.24 95.52 8.74667 96.6267 9.52 97.48C10.2933 98.3067 11.4267 98.72 12.92 98.72C14.4133 98.72 15.5467 98.3067 16.32 97.48C17.0933 96.6267 17.6 95.52 17.84 94.16C18.08 92.7733 18.2 91.0667 18.2 89.04ZM27.9794 89.04C27.9794 84.4267 28.806 80.8133 30.4594 78.2C32.1394 75.5867 34.9127 74.28 38.7794 74.28C42.646 74.28 45.406 75.5867 47.0594 78.2C48.7394 80.8133 49.5794 84.4267 49.5794 89.04C49.5794 93.68 48.7394 97.32 47.0594 99.96C45.406 102.6 42.646 103.92 38.7794 103.92C34.9127 103.92 32.1394 102.6 30.4594 99.96C28.806 97.32 27.9794 93.68 27.9794 89.04ZM44.0594 89.04C44.0594 87.0667 43.926 85.4133 43.6594 84.08C43.4194 82.72 42.9127 81.6133 42.1394 80.76C41.3927 79.9067 40.2727 79.48 38.7794 79.48C37.286 79.48 36.1527 79.9067 35.3794 80.76C34.6327 81.6133 34.126 82.72 33.8594 84.08C33.6194 85.4133 33.4994 87.0667 33.4994 89.04C33.4994 91.0667 33.6194 92.7733 33.8594 94.16C34.0994 95.52 34.606 96.6267 35.3794 97.48C36.1527 98.3067 37.286 98.72 38.7794 98.72C40.2727 98.72 41.406 98.3067 42.1794 97.48C42.9527 96.6267 43.4594 95.52 43.6994 94.16C43.9394 92.7733 44.0594 91.0667 44.0594 89.04ZM56.9588 104.28C55.9454 104.28 55.1054 103.973 54.4388 103.36C53.7988 102.72 53.4788 101.933 53.4788 101C53.4788 100.067 53.7988 99.2933 54.4388 98.68C55.1054 98.04 55.9454 97.72 56.9588 97.72C57.9454 97.72 58.7588 98.04 59.3988 98.68C60.0388 99.2933 60.3588 100.067 60.3588 101C60.3588 101.933 60.0388 102.72 59.3988 103.36C58.7588 103.973 57.9454 104.28 56.9588 104.28ZM64.2294 89.04C64.2294 84.4267 65.056 80.8133 66.7094 78.2C68.3894 75.5867 71.1627 74.28 75.0294 74.28C78.896 74.28 81.656 75.5867 83.3094 78.2C84.9894 80.8133 85.8294 84.4267 85.8294 89.04C85.8294 93.68 84.9894 97.32 83.3094 99.96C81.656 102.6 78.896 103.92 75.0294 103.92C71.1627 103.92 68.3894 102.6 66.7094 99.96C65.056 97.32 64.2294 93.68 64.2294 89.04ZM80.3094 89.04C80.3094 87.0667 80.176 85.4133 79.9094 84.08C79.6694 82.72 79.1627 81.6133 78.3894 80.76C77.6427 79.9067 76.5227 79.48 75.0294 79.48C73.536 79.48 72.4027 79.9067 71.6294 80.76C70.8827 81.6133 70.376 82.72 70.1094 84.08C69.8694 85.4133 69.7494 87.0667 69.7494 89.04C69.7494 91.0667 69.8694 92.7733 70.1094 94.16C70.3494 95.52 70.856 96.6267 71.6294 97.48C72.4027 98.3067 73.536 98.72 75.0294 98.72C76.5227 98.72 77.656 98.3067 78.4294 97.48C79.2027 96.6267 79.7094 95.52 79.9494 94.16C80.1894 92.7733 80.3094 91.0667 80.3094 89.04Z" fill="#0050B5"/>
<path d="M92.888 90.8C92.888 89.584 93.24 88.632 93.944 87.944C94.664 87.256 95.584 86.912 96.704 86.912C97.824 86.912 98.736 87.256 99.44 87.944C100.16 88.632 100.52 89.584 100.52 90.8C100.52 92.032 100.16 92.992 99.44 93.68C98.736 94.368 97.824 94.712 96.704 94.712C95.584 94.712 94.664 94.368 93.944 93.68C93.24 92.992 92.888 92.032 92.888 90.8ZM108.296 87.2L98.864 104H95.6L105.008 87.2H108.296ZM96.68 88.928C95.8 88.928 95.36 89.552 95.36 90.8C95.36 92.064 95.8 92.696 96.68 92.696C97.112 92.696 97.448 92.544 97.688 92.24C97.928 91.92 98.048 91.44 98.048 90.8C98.048 89.552 97.592 88.928 96.68 88.928ZM103.424 100.376C103.424 99.144 103.776 98.192 104.48 97.52C105.2 96.832 106.12 96.488 107.24 96.488C108.36 96.488 109.264 96.832 109.952 97.52C110.656 98.192 111.008 99.144 111.008 100.376C111.008 101.608 110.656 102.568 109.952 103.256C109.264 103.944 108.36 104.288 107.24 104.288C106.104 104.288 105.184 103.944 104.48 103.256C103.776 102.568 103.424 101.608 103.424 100.376ZM107.216 98.504C106.304 98.504 105.848 99.128 105.848 100.376C105.848 101.64 106.304 102.272 107.216 102.272C108.112 102.272 108.56 101.64 108.56 100.376C108.56 99.128 108.112 98.504 107.216 98.504Z" fill="#0050B5"/>
<path d="M250.12 89.04C250.12 84.4267 250.947 80.8133 252.6 78.2C254.28 75.5867 257.053 74.28 260.92 74.28C264.787 74.28 267.547 75.5867 269.2 78.2C270.88 80.8133 271.72 84.4267 271.72 89.04C271.72 93.68 270.88 97.32 269.2 99.96C267.547 102.6 264.787 103.92 260.92 103.92C257.053 103.92 254.28 102.6 252.6 99.96C250.947 97.32 250.12 93.68 250.12 89.04ZM266.2 89.04C266.2 87.0667 266.067 85.4133 265.8 84.08C265.56 82.72 265.053 81.6133 264.28 80.76C263.533 79.9067 262.413 79.48 260.92 79.48C259.427 79.48 258.293 79.9067 257.52 80.76C256.773 81.6133 256.267 82.72 256 84.08C255.76 85.4133 255.64 87.0667 255.64 89.04C255.64 91.0667 255.76 92.7733 256 94.16C256.24 95.52 256.747 96.6267 257.52 97.48C258.293 98.3067 259.427 98.72 260.92 98.72C262.413 98.72 263.547 98.3067 264.32 97.48C265.093 96.6267 265.6 95.52 265.84 94.16C266.08 92.7733 266.2 91.0667 266.2 89.04ZM275.979 89.04C275.979 84.4267 276.806 80.8133 278.459 78.2C280.139 75.5867 282.913 74.28 286.779 74.28C290.646 74.28 293.406 75.5867 295.059 78.2C296.739 80.8133 297.579 84.4267 297.579 89.04C297.579 93.68 296.739 97.32 295.059 99.96C293.406 102.6 290.646 103.92 286.779 103.92C282.913 103.92 280.139 102.6 278.459 99.96C276.806 97.32 275.979 93.68 275.979 89.04ZM292.059 89.04C292.059 87.0667 291.926 85.4133 291.659 84.08C291.419 82.72 290.913 81.6133 290.139 80.76C289.393 79.9067 288.273 79.48 286.779 79.48C285.286 79.48 284.153 79.9067 283.379 80.76C282.633 81.6133 282.126 82.72 281.859 84.08C281.619 85.4133 281.499 87.0667 281.499 89.04C281.499 91.0667 281.619 92.7733 281.859 94.16C282.099 95.52 282.606 96.6267 283.379 97.48C284.153 98.3067 285.286 98.72 286.779 98.72C288.273 98.72 289.406 98.3067 290.179 97.48C290.953 96.6267 291.459 95.52 291.699 94.16C291.939 92.7733 292.059 91.0667 292.059 89.04ZM304.959 104.28C303.945 104.28 303.105 103.973 302.439 103.36C301.799 102.72 301.479 101.933 301.479 101C301.479 100.067 301.799 99.2933 302.439 98.68C303.105 98.04 303.945 97.72 304.959 97.72C305.945 97.72 306.759 98.04 307.399 98.68C308.039 99.2933 308.359 100.067 308.359 101C308.359 101.933 308.039 102.72 307.399 103.36C306.759 103.973 305.945 104.28 304.959 104.28ZM312.229 89.04C312.229 84.4267 313.056 80.8133 314.709 78.2C316.389 75.5867 319.163 74.28 323.029 74.28C326.896 74.28 329.656 75.5867 331.309 78.2C332.989 80.8133 333.829 84.4267 333.829 89.04C333.829 93.68 332.989 97.32 331.309 99.96C329.656 102.6 326.896 103.92 323.029 103.92C319.163 103.92 316.389 102.6 314.709 99.96C313.056 97.32 312.229 93.68 312.229 89.04ZM328.309 89.04C328.309 87.0667 328.176 85.4133 327.909 84.08C327.669 82.72 327.163 81.6133 326.389 80.76C325.643 79.9067 324.523 79.48 323.029 79.48C321.536 79.48 320.403 79.9067 319.629 80.76C318.883 81.6133 318.376 82.72 318.109 84.08C317.869 85.4133 317.749 87.0667 317.749 89.04C317.749 91.0667 317.869 92.7733 318.109 94.16C318.349 95.52 318.856 96.6267 319.629 97.48C320.403 98.3067 321.536 98.72 323.029 98.72C324.523 98.72 325.656 98.3067 326.429 97.48C327.203 96.6267 327.709 95.52 327.949 94.16C328.189 92.7733 328.309 91.0667 328.309 89.04Z" fill="#0050B5"/>
<path d="M340.888 90.8C340.888 89.584 341.24 88.632 341.944 87.944C342.664 87.256 343.584 86.912 344.704 86.912C345.824 86.912 346.736 87.256 347.44 87.944C348.16 88.632 348.52 89.584 348.52 90.8C348.52 92.032 348.16 92.992 347.44 93.68C346.736 94.368 345.824 94.712 344.704 94.712C343.584 94.712 342.664 94.368 341.944 93.68C341.24 92.992 340.888 92.032 340.888 90.8ZM356.296 87.2L346.864 104H343.6L353.008 87.2H356.296ZM344.68 88.928C343.8 88.928 343.36 89.552 343.36 90.8C343.36 92.064 343.8 92.696 344.68 92.696C345.112 92.696 345.448 92.544 345.688 92.24C345.928 91.92 346.048 91.44 346.048 90.8C346.048 89.552 345.592 88.928 344.68 88.928ZM351.424 100.376C351.424 99.144 351.776 98.192 352.48 97.52C353.2 96.832 354.12 96.488 355.24 96.488C356.36 96.488 357.264 96.832 357.952 97.52C358.656 98.192 359.008 99.144 359.008 100.376C359.008 101.608 358.656 102.568 357.952 103.256C357.264 103.944 356.36 104.288 355.24 104.288C354.104 104.288 353.184 103.944 352.48 103.256C351.776 102.568 351.424 101.608 351.424 100.376ZM355.216 98.504C354.304 98.504 353.848 99.128 353.848 100.376C353.848 101.64 354.304 102.272 355.216 102.272C356.112 102.272 356.56 101.64 356.56 100.376C356.56 99.128 356.112 98.504 355.216 98.504Z" fill="#0050B5"/>
<path opacity="0.2" d="M180 180C229.706 180 270 139.706 270 90C270 40.2944 229.706 0 180 0V180Z" fill="#0050B5"/>
<path opacity="0.4" d="M180 180C130.294 180 90 139.706 90 90C90 40.2944 130.294 0 180 0V180Z" fill="#0050B5"/>
</svg>
