<svg width="244" height="64" viewBox="0 0 244 64" fill="none" xmlns="http://www.w3.org/2000/svg">
<path d="M29.28 32.48V30.2H10.72V32.48H29.28ZM29.28 37.16V34.84H10.72V37.16H29.28ZM33 27.68V39.64H7.16V27.68H33ZM31.8 49.52H24.8C25.6 51.36 26.76 53.08 28.16 54.56C29.64 53.08 30.88 51.4 31.8 49.52ZM9.16 57.08L15.44 56.48V54.48H9.16V57.08ZM9.16 49.44V51.8H15.44V49.44H9.16ZM15.44 44.56H9.16V46.8H15.44V44.56ZM34.04 46.52L36.32 47.4C35.16 51.2 33.2 54.32 30.76 56.8C32.92 58.36 35.52 59.52 38.4 60.24C37.64 60.88 36.64 62.24 36.2 63.12C33.16 62.24 30.48 60.84 28.24 59C26 60.72 23.48 62.04 20.84 63C20.48 62.2 19.68 61 19 60.28V63.12H15.44V59.56C10.72 60.08 6 60.6 2.36 60.96L2.08 57.72C3.16 57.64 4.4 57.52 5.72 57.4V44.56H2.44V41.52H37.48V44.56H19V60C21.36 59.28 23.68 58.12 25.72 56.64C24.08 54.76 22.72 52.56 21.68 50.12L23.84 49.52H20.24V46.64H33.4L34.04 46.52ZM81.88 28.12V31.56H61.64V28.12H81.88ZM76.76 44.72V38.64H66.64V44.72H76.76ZM80.4 35.36V47.96H63.2V35.36H80.4ZM76.12 58.36L73 57.56C73.96 55.32 75.08 51.6 75.64 49L79.32 49.8C78.28 52.8 77.12 56.24 76.12 58.36ZM69.52 57.28L66.16 58.16C66 55.96 65.16 52.56 64.28 50L67.44 49.24C68.48 51.76 69.28 55.08 69.52 57.28ZM62.24 54.8L59.84 57.88C58.88 56.28 56.84 53.56 55.2 51.48C54.04 55.68 51.92 59.84 48.16 63.04C47.64 62.32 46.32 60.88 45.6 60.44C50.64 56.16 52.28 50.56 52.76 45.48H45.88V42H52.96V40.92V34.84H51.16C50.4 37.04 49.48 39 48.48 40.6C47.76 40.08 46.16 39.2 45.28 38.84C47.4 35.88 48.88 31.2 49.64 26.56L53.16 27.2C52.92 28.64 52.6 30.04 52.24 31.4H61.36V34.84H56.48V40.96V42H61.84V45.48H56.28C56.2 46.2 56.12 46.96 56 47.68C57.6 49.32 61.32 53.68 62.24 54.8ZM59.88 58.88H82.36V62.36H59.88V58.88Z" fill="#0050B5"/>
<path d="M96.24 30.08C96.24 20.8533 97.8933 13.6267 101.2 8.4C104.56 3.17333 110.107 0.559998 117.84 0.559998C125.573 0.559998 131.093 3.17333 134.4 8.4C137.76 13.6267 139.44 20.8533 139.44 30.08C139.44 39.36 137.76 46.64 134.4 51.92C131.093 57.2 125.573 59.84 117.84 59.84C110.107 59.84 104.56 57.2 101.2 51.92C97.8933 46.64 96.24 39.36 96.24 30.08ZM128.4 30.08C128.4 26.1333 128.133 22.8267 127.6 20.16C127.12 17.44 126.107 15.2267 124.56 13.52C123.067 11.8133 120.827 10.96 117.84 10.96C114.853 10.96 112.587 11.8133 111.04 13.52C109.547 15.2267 108.533 17.44 108 20.16C107.52 22.8267 107.28 26.1333 107.28 30.08C107.28 34.1333 107.52 37.5467 108 40.32C108.48 43.04 109.493 45.2533 111.04 46.96C112.587 48.6133 114.853 49.44 117.84 49.44C120.827 49.44 123.093 48.6133 124.64 46.96C126.187 45.2533 127.2 43.04 127.68 40.32C128.16 37.5467 128.4 34.1333 128.4 30.08ZM147.959 30.08C147.959 20.8533 149.612 13.6267 152.919 8.4C156.279 3.17333 161.825 0.559998 169.559 0.559998C177.292 0.559998 182.812 3.17333 186.119 8.4C189.479 13.6267 191.159 20.8533 191.159 30.08C191.159 39.36 189.479 46.64 186.119 51.92C182.812 57.2 177.292 59.84 169.559 59.84C161.825 59.84 156.279 57.2 152.919 51.92C149.612 46.64 147.959 39.36 147.959 30.08ZM180.119 30.08C180.119 26.1333 179.852 22.8267 179.319 20.16C178.839 17.44 177.825 15.2267 176.279 13.52C174.785 11.8133 172.545 10.96 169.559 10.96C166.572 10.96 164.305 11.8133 162.759 13.52C161.265 15.2267 160.252 17.44 159.719 20.16C159.239 22.8267 158.999 26.1333 158.999 30.08C158.999 34.1333 159.239 37.5467 159.719 40.32C160.199 43.04 161.212 45.2533 162.759 46.96C164.305 48.6133 166.572 49.44 169.559 49.44C172.545 49.44 174.812 48.6133 176.359 46.96C177.905 45.2533 178.919 43.04 179.399 40.32C179.879 37.5467 180.119 34.1333 180.119 30.08Z" fill="#0050B5"/>
<path d="M216.12 50.72H224.16V43.64H216.12V50.72ZM242.04 50.72V54.32H228V63.16H224.16V54.32H205.96V50.72H212.4V40.16H224.16V34.64H215C213.28 37.6 211.28 40.24 209.24 42.24C208.52 41.6 206.92 40.4 206 39.84C209.68 36.68 212.88 31.6 214.72 26.28L218.48 27.28C218 28.52 217.44 29.84 216.92 31.04H240.08V34.64H228V40.16H239.16V43.64H228V50.72H242.04Z" fill="#0050B5"/>
</svg>
