<svg width="218" height="61" viewBox="0 0 218 61" fill="none" xmlns="http://www.w3.org/2000/svg">
<path d="M4.24 30.08C4.24 20.8533 5.89333 13.6267 9.2 8.4C12.56 3.17333 18.1067 0.559998 25.84 0.559998C33.5733 0.559998 39.0933 3.17333 42.4 8.4C45.76 13.6267 47.44 20.8533 47.44 30.08C47.44 39.36 45.76 46.64 42.4 51.92C39.0933 57.2 33.5733 59.84 25.84 59.84C18.1067 59.84 12.56 57.2 9.2 51.92C5.89333 46.64 4.24 39.36 4.24 30.08ZM36.4 30.08C36.4 26.1333 36.1333 22.8267 35.6 20.16C35.12 17.44 34.1067 15.2267 32.56 13.52C31.0667 11.8133 28.8267 10.96 25.84 10.96C22.8533 10.96 20.5867 11.8133 19.04 13.52C17.5467 15.2267 16.5333 17.44 16 20.16C15.52 22.8267 15.28 26.1333 15.28 30.08C15.28 34.1333 15.52 37.5467 16 40.32C16.48 43.04 17.4933 45.2533 19.04 46.96C20.5867 48.6133 22.8533 49.44 25.84 49.44C28.8267 49.44 31.0933 48.6133 32.64 46.96C34.1867 45.2533 35.2 43.04 35.68 40.32C36.16 37.5467 36.4 34.1333 36.4 30.08ZM55.9588 30.08C55.9588 20.8533 57.6121 13.6267 60.9188 8.4C64.2788 3.17333 69.8254 0.559998 77.5588 0.559998C85.2921 0.559998 90.8121 3.17333 94.1188 8.4C97.4788 13.6267 99.1588 20.8533 99.1588 30.08C99.1588 39.36 97.4788 46.64 94.1188 51.92C90.8121 57.2 85.2921 59.84 77.5588 59.84C69.8254 59.84 64.2788 57.2 60.9188 51.92C57.6121 46.64 55.9588 39.36 55.9588 30.08ZM88.1188 30.08C88.1188 26.1333 87.8521 22.8267 87.3188 20.16C86.8388 17.44 85.8254 15.2267 84.2788 13.52C82.7854 11.8133 80.5454 10.96 77.5588 10.96C74.5721 10.96 72.3054 11.8133 70.7588 13.52C69.2654 15.2267 68.2521 17.44 67.7188 20.16C67.2388 22.8267 66.9988 26.1333 66.9988 30.08C66.9988 34.1333 67.2388 37.5467 67.7188 40.32C68.1988 43.04 69.2121 45.2533 70.7588 46.96C72.3054 48.6133 74.5721 49.44 77.5588 49.44C80.5454 49.44 82.8121 48.6133 84.3588 46.96C85.9054 45.2533 86.9188 43.04 87.3988 40.32C87.8788 37.5467 88.1188 34.1333 88.1188 30.08ZM113.918 60.56C111.891 60.56 110.211 59.9467 108.878 58.72C107.598 57.44 106.958 55.8667 106.958 54C106.958 52.1333 107.598 50.5867 108.878 49.36C110.211 48.08 111.891 47.44 113.918 47.44C115.891 47.44 117.518 48.08 118.798 49.36C120.078 50.5867 120.718 52.1333 120.718 54C120.718 55.8667 120.078 57.44 118.798 58.72C117.518 59.9467 115.891 60.56 113.918 60.56ZM128.459 30.08C128.459 20.8533 130.112 13.6267 133.419 8.4C136.779 3.17333 142.325 0.559998 150.059 0.559998C157.792 0.559998 163.312 3.17333 166.619 8.4C169.979 13.6267 171.659 20.8533 171.659 30.08C171.659 39.36 169.979 46.64 166.619 51.92C163.312 57.2 157.792 59.84 150.059 59.84C142.325 59.84 136.779 57.2 133.419 51.92C130.112 46.64 128.459 39.36 128.459 30.08ZM160.619 30.08C160.619 26.1333 160.352 22.8267 159.819 20.16C159.339 17.44 158.325 15.2267 156.779 13.52C155.285 11.8133 153.045 10.96 150.059 10.96C147.072 10.96 144.805 11.8133 143.259 13.52C141.765 15.2267 140.752 17.44 140.219 20.16C139.739 22.8267 139.499 26.1333 139.499 30.08C139.499 34.1333 139.739 37.5467 140.219 40.32C140.699 43.04 141.712 45.2533 143.259 46.96C144.805 48.6133 147.072 49.44 150.059 49.44C153.045 49.44 155.312 48.6133 156.859 46.96C158.405 45.2533 159.419 43.04 159.899 40.32C160.379 37.5467 160.619 34.1333 160.619 30.08Z" fill="#0050B5"/>
<path d="M185.48 38C185.48 35.9733 186.067 34.3867 187.24 33.24C188.44 32.0933 189.973 31.52 191.84 31.52C193.707 31.52 195.227 32.0933 196.4 33.24C197.6 34.3867 198.2 35.9733 198.2 38C198.2 40.0533 197.6 41.6533 196.4 42.8C195.227 43.9467 193.707 44.52 191.84 44.52C189.973 44.52 188.44 43.9467 187.24 42.8C186.067 41.6533 185.48 40.0533 185.48 38ZM211.16 32L195.44 60H190L205.68 32H211.16ZM191.8 34.88C190.333 34.88 189.6 35.92 189.6 38C189.6 40.1067 190.333 41.16 191.8 41.16C192.52 41.16 193.08 40.9067 193.48 40.4C193.88 39.8667 194.08 39.0667 194.08 38C194.08 35.92 193.32 34.88 191.8 34.88ZM203.04 53.96C203.04 51.9067 203.627 50.32 204.8 49.2C206 48.0533 207.533 47.48 209.4 47.48C211.267 47.48 212.773 48.0533 213.92 49.2C215.093 50.32 215.68 51.9067 215.68 53.96C215.68 56.0133 215.093 57.6133 213.92 58.76C212.773 59.9067 211.267 60.48 209.4 60.48C207.507 60.48 205.973 59.9067 204.8 58.76C203.627 57.6133 203.04 56.0133 203.04 53.96ZM209.36 50.84C207.84 50.84 207.08 51.88 207.08 53.96C207.08 56.0667 207.84 57.12 209.36 57.12C210.853 57.12 211.6 56.0667 211.6 53.96C211.6 51.88 210.853 50.84 209.36 50.84Z" fill="#0050B5"/>
</svg>
