<svg width="376" height="293" viewBox="0 0 376 293" fill="none" xmlns="http://www.w3.org/2000/svg">
<rect width="376" height="293" fill="#ECF3F5"/>
<path d="M168.052 30.624H169.588V37.232H168.052V36.288H158.596V37.264H157.092V30.624H158.596V34.832H162.452V29.664H157.7V24.08H159.188V28.224H162.452V22.688H163.972V28.224H167.396V24.064H168.964V29.664H163.972V34.832H168.052V30.624ZM176.932 30.096V31.488C178.66 31.392 180.564 31.296 182.452 31.168C182.644 31.008 182.836 30.848 183.028 30.672V30.096H176.932ZM183.028 25.408H176.932V26.656H183.028V25.408ZM183.028 29.008V27.744H176.932V29.008H183.028ZM185.764 27.52L187.204 28.24C186.436 29.376 185.556 30.4 184.564 31.328V35.328C184.564 36.256 184.372 36.736 183.732 37.008C183.092 37.248 182.052 37.264 180.484 37.264C180.42 36.832 180.18 36.128 179.956 35.696C181.092 35.744 182.26 35.728 182.596 35.728C182.916 35.712 183.028 35.616 183.028 35.312V32.624C180.404 34.656 177.236 36.128 173.844 37.136C173.636 36.784 173.14 36.112 172.836 35.776C175.62 35.056 178.196 34.016 180.404 32.624C177.748 32.848 175.188 33.04 173.236 33.168L173.012 31.696L175.444 31.568V24.112H178.724C178.964 23.568 179.172 22.992 179.3 22.528L181.108 22.768C180.868 23.232 180.612 23.696 180.356 24.112H184.564V29.12C184.996 28.608 185.396 28.08 185.764 27.52ZM199.092 26.544H194.788C195.076 27.008 195.364 27.584 195.476 27.968L195.012 28.064H198.388C198.628 27.632 198.884 27.056 199.092 26.544ZM203.908 33.552H198.9C200.308 34.544 202.372 35.36 204.324 35.728C203.988 36.048 203.556 36.656 203.332 37.056C201.252 36.496 199.108 35.424 197.604 34.048V37.264H196.148V34.16C194.628 35.44 192.468 36.48 190.468 37.04C190.244 36.656 189.828 36.096 189.492 35.776C191.396 35.376 193.476 34.544 194.884 33.552H189.94V32.304H196.148V31.328H191.428V30.208H196.148V29.248H190.644V28.064H193.924C193.78 27.616 193.508 27.04 193.252 26.608L193.636 26.544H190.004V25.296H192.372C192.132 24.672 191.652 23.792 191.204 23.136L192.5 22.704C192.996 23.392 193.556 24.368 193.78 24.992L192.964 25.296H194.724V22.56H196.116V25.296H197.7V22.56H199.108V25.296H200.836L200.228 25.104C200.612 24.464 201.108 23.456 201.348 22.736L202.884 23.12C202.452 23.904 201.972 24.704 201.556 25.296H203.86V26.544H200.772C200.468 27.088 200.148 27.616 199.876 28.064H203.268V29.248H197.604V30.208H202.516V31.328H197.604V32.304H203.908V33.552ZM209.668 26.928V28.416H212.932V26.928H209.668ZM209.668 24.32V25.776H212.932V24.32H209.668ZM217.732 25.776V24.32H214.436V25.776H217.732ZM217.732 28.416V26.928H214.436V28.416H217.732ZM219.268 29.632H216.356C217.524 30.752 219.284 31.664 221.092 32.128C220.756 32.432 220.308 33.008 220.084 33.392C219.028 33.056 218.004 32.544 217.076 31.936V37.232H215.54V31.68H216.724C215.924 31.088 215.188 30.384 214.628 29.632H212.916C212.34 30.368 211.604 31.072 210.788 31.664H212.116V32.688C212.116 34.208 211.732 36.16 208.58 37.376C208.404 36.992 207.908 36.448 207.572 36.16C210.292 35.216 210.596 33.76 210.596 32.64V31.808C209.604 32.496 208.516 33.056 207.412 33.456C207.188 33.072 206.756 32.528 206.42 32.224C208.132 31.728 209.908 30.768 211.092 29.632H208.196V23.104H219.268V29.632Z" fill="#182346"/>
<path d="M101.176 71.696C101.176 74.672 100.456 76.484 97.564 77.756L96.28 76.544C98.596 75.74 99.616 74.708 99.616 71.756V71.3H96.772V72.932C96.772 73.46 96.808 73.952 96.82 74.192H95.14C95.176 73.952 95.212 73.472 95.212 72.932V71.3H94.192C93.592 71.3 93.16 71.324 92.896 71.348V69.716C93.1 69.752 93.592 69.824 94.192 69.824H95.212V68.636C95.212 68.288 95.176 67.916 95.14 67.556H96.844C96.808 67.784 96.772 68.168 96.772 68.636V69.824H99.616V68.564C99.616 68.084 99.58 67.688 99.544 67.448H101.26C101.224 67.688 101.176 68.084 101.176 68.564V69.824H102.064C102.7 69.824 103.06 69.8 103.384 69.74V71.336C103.12 71.312 102.7 71.3 102.064 71.3H101.176V71.696ZM105.904 71.444C106.336 71.48 107.212 71.516 107.836 71.516H114.28C114.844 71.516 115.372 71.468 115.684 71.444V73.328C115.396 73.316 114.784 73.268 114.28 73.268H107.836C107.152 73.268 106.348 73.292 105.904 73.328V71.444ZM126.256 67.28C126.556 67.724 126.988 68.48 127.216 68.924L126.244 69.332C126.004 68.84 125.632 68.132 125.308 67.664L126.256 67.28ZM127.672 66.74C127.996 67.184 128.44 67.952 128.644 68.372L127.696 68.78C127.444 68.276 127.06 67.58 126.724 67.124L127.672 66.74ZM121.084 67.796C121.024 68.156 120.988 68.708 120.988 69.044V71.312C122.404 70.964 124.072 70.436 125.14 69.98C125.572 69.812 125.98 69.62 126.448 69.332L127.096 70.856C126.628 71.048 126.088 71.276 125.692 71.42C124.48 71.9 122.548 72.5 120.988 72.884V75.104C120.988 75.62 121.228 75.752 121.768 75.86C122.128 75.908 122.62 75.932 123.16 75.932C124.408 75.932 126.352 75.776 127.336 75.512V77.264C126.208 77.432 124.384 77.516 123.064 77.516C122.284 77.516 121.564 77.468 121.048 77.384C120.004 77.192 119.404 76.616 119.404 75.584V69.044C119.404 68.78 119.368 68.156 119.308 67.796H121.084ZM140.008 68.864C139.912 68.996 139.696 69.368 139.588 69.608C139.18 70.544 138.508 71.828 137.704 72.908C138.892 73.94 140.344 75.476 141.052 76.34L139.684 77.528C138.904 76.448 137.788 75.224 136.66 74.132C135.388 75.476 133.792 76.724 132.148 77.504L130.912 76.208C132.844 75.488 134.704 74.024 135.832 72.764C136.624 71.864 137.356 70.676 137.62 69.824H133.552C133.048 69.824 132.388 69.896 132.136 69.908V68.204C132.46 68.252 133.192 68.288 133.552 68.288H137.788C138.304 68.288 138.784 68.216 139.024 68.132L140.008 68.864Z" fill="#182346"/>
<path d="M102.316 94.18C102.16 94.456 101.932 94.984 101.812 95.26C101.452 96.208 100.912 97.42 100.204 98.524C101.26 99.388 102.268 100.312 103.084 101.176L101.848 102.544C101.008 101.56 100.144 100.72 99.184 99.892C98.128 101.164 96.748 102.496 94.72 103.6L93.376 102.388C95.332 101.44 96.748 100.276 97.936 98.848C97.072 98.164 95.92 97.312 94.696 96.568L95.716 95.344C96.676 95.932 97.936 96.796 98.908 97.516C99.52 96.556 99.928 95.608 100.24 94.66C100.348 94.348 100.48 93.868 100.528 93.556L102.316 94.18ZM105.904 97.444C106.336 97.48 107.212 97.516 107.836 97.516H114.28C114.844 97.516 115.372 97.468 115.684 97.444V99.328C115.396 99.316 114.784 99.268 114.28 99.268H107.836C107.152 99.268 106.348 99.292 105.904 99.328V97.444ZM123.784 93.376C123.748 93.652 123.724 94.156 123.712 94.444C123.7 94.816 123.688 95.176 123.664 95.524H125.92C126.22 95.524 126.532 95.488 126.82 95.44L127.864 95.944C127.828 96.136 127.78 96.448 127.78 96.58C127.732 97.876 127.588 101.224 127.072 102.448C126.808 103.06 126.352 103.372 125.524 103.372C124.84 103.372 124.12 103.324 123.544 103.276L123.352 101.668C123.94 101.776 124.564 101.836 125.032 101.836C125.416 101.836 125.584 101.704 125.716 101.416C126.064 100.66 126.22 98.26 126.22 96.964H123.52C123.076 100.132 121.936 102.016 119.788 103.54L118.396 102.412C118.888 102.136 119.488 101.728 119.968 101.236C121.084 100.132 121.684 98.788 121.948 96.964H120.364C119.956 96.964 119.296 96.964 118.78 97.012V95.44C119.284 95.488 119.908 95.524 120.364 95.524H122.08C122.092 95.188 122.104 94.84 122.104 94.48C122.104 94.216 122.068 93.664 122.02 93.376H123.784ZM131.104 97.444C131.536 97.48 132.412 97.516 133.036 97.516H139.48C140.044 97.516 140.572 97.468 140.884 97.444V99.328C140.596 99.316 139.984 99.268 139.48 99.268H133.036C132.352 99.268 131.548 99.292 131.104 99.328V97.444Z" fill="#182346"/>
<path d="M51.1865 129V120.108H52.9625V129H51.1865ZM57.5115 129V121.596H55.0155V120.108H61.8075V121.596H59.2875V129H57.5115ZM61.9157 131.184L64.9037 119.328H66.0677L63.0917 131.184H61.9157ZM69.928 128.304C71.872 127.488 73.168 126.3 74.032 125.04C74.92 123.756 75.256 122.4 75.448 121.416C75.568 120.864 75.616 120.264 75.604 119.964L77.548 120.228C77.404 120.696 77.272 121.284 77.188 121.632C76.876 123.036 76.396 124.5 75.52 125.844C74.584 127.296 73.252 128.604 71.356 129.528L69.928 128.304ZM69.676 120.024C70.276 120.864 71.308 122.7 71.752 123.54L70.168 124.44C69.568 123.156 68.692 121.584 68.14 120.816L69.676 120.024ZM90.268 121.008C90.16 121.248 90.064 121.596 90.004 121.848C89.728 123.024 89.2 124.884 88.204 126.216C87.112 127.656 85.516 128.844 83.38 129.528L82.072 128.1C84.448 127.536 85.804 126.492 86.776 125.28C87.568 124.284 88.024 122.916 88.18 121.896H82.588C82.048 121.896 81.472 121.92 81.16 121.944V120.252C81.52 120.288 82.204 120.348 82.6 120.348H88.144C88.384 120.348 88.768 120.336 89.092 120.252L90.268 121.008ZM95.968 127.848V120.948C95.968 120.528 95.932 119.928 95.848 119.508H97.72C97.672 119.928 97.612 120.456 97.612 120.948V122.724C99.22 123.192 101.524 124.044 102.628 124.584L101.944 126.24C100.708 125.592 98.908 124.896 97.612 124.452V127.848C97.612 128.196 97.672 129.036 97.72 129.528H95.848C95.92 129.048 95.968 128.328 95.968 127.848ZM111.664 119.196C111.604 119.712 111.58 119.964 111.58 120.3V121.224H113.668C114.172 121.224 114.46 121.164 114.664 121.092L115.708 121.728C115.612 121.992 115.516 122.448 115.468 122.688C115.264 123.84 114.94 124.992 114.352 126.084C113.392 127.86 111.592 129.132 109.456 129.684L108.208 128.244C108.748 128.148 109.408 127.968 109.9 127.776C110.896 127.404 111.952 126.696 112.624 125.724C113.236 124.848 113.548 123.708 113.692 122.64H107.74V124.392C107.74 124.668 107.752 125.04 107.776 125.28H106.12C106.156 124.98 106.18 124.596 106.18 124.272V122.196C106.18 121.932 106.168 121.452 106.12 121.164C106.528 121.212 106.888 121.224 107.344 121.224H109.912V120.3C109.912 119.964 109.9 119.712 109.816 119.196H111.664ZM119.764 122.496C120.028 122.544 120.448 122.556 120.712 122.556H126.208C126.496 122.556 126.856 122.532 127.144 122.496V124.008C126.844 123.984 126.484 123.96 126.208 123.96H124.156V127.824H126.772C127.096 127.824 127.432 127.776 127.684 127.752V129.324C127.42 129.276 126.976 129.264 126.772 129.264H120.136C119.848 129.264 119.476 129.276 119.152 129.324V127.752C119.464 127.788 119.836 127.824 120.136 127.824H122.584V123.96H120.712C120.46 123.96 120.028 123.984 119.764 124.008V122.496ZM141.46 120.876C141.328 121.032 141.1 121.32 140.992 121.5C140.428 122.436 139.288 123.948 138.112 124.788L136.864 123.792C137.824 123.204 138.76 122.148 139.072 121.56H132.82C132.316 121.56 131.92 121.596 131.356 121.644V119.976C131.812 120.048 132.316 120.096 132.82 120.096H139.288C139.624 120.096 140.284 120.06 140.512 119.988L141.46 120.876ZM136.564 122.496C136.564 125.472 136.504 127.92 133.24 129.672L131.836 128.532C132.22 128.4 132.652 128.196 133.096 127.872C134.62 126.816 134.908 125.544 134.908 123.576C134.908 123.204 134.884 122.88 134.824 122.496H136.564Z" fill="#182346"/>
<path d="M122.668 145.004H124.216V154.256C124.216 155.132 124.012 155.528 123.484 155.756C122.92 155.984 122.104 156.032 120.94 156.032C120.856 155.612 120.592 154.94 120.376 154.544C121.156 154.58 122.044 154.58 122.308 154.568C122.572 154.568 122.668 154.484 122.668 154.256V145.004ZM125.524 148.136L126.928 147.608C127.9 149.312 128.884 151.484 129.184 152.984L127.624 153.596C127.384 152.144 126.472 149.888 125.524 148.136ZM119.524 147.74L121.156 148.016C120.748 149.804 120.1 152.036 119.104 153.356C118.744 153.116 118.084 152.78 117.712 152.612C118.672 151.4 119.272 149.3 119.524 147.74ZM135.208 147.872V147.092H130.72V145.796H135.208V144.848H136.684V145.796H141.292V147.092H136.684V147.872H140.188V149.12H131.86V147.872H135.208ZM141.136 152.264H139.696V150.992H132.256V152.264H130.876V149.708H141.136V152.264ZM133.684 151.364H135.172C134.98 153.776 134.452 155.3 131.176 156.08C131.044 155.708 130.684 155.144 130.396 154.844C133.24 154.292 133.54 153.212 133.684 151.364ZM138.568 154.616H139.768C140.164 154.616 140.236 154.412 140.284 153.188C140.572 153.416 141.184 153.632 141.568 153.728C141.412 155.456 141.04 155.9 139.912 155.9H138.364C136.972 155.9 136.624 155.492 136.624 154.208V151.364H138.064V154.196C138.064 154.568 138.136 154.616 138.568 154.616Z" fill="#182346"/>
<path d="M122.248 173.98H124.42C124.564 173.692 124.732 173.356 124.864 173.044H121.864C122.02 173.356 122.176 173.716 122.248 173.98ZM127 175.924V175.204H125.008V175.96C125.008 176.212 125.044 176.248 125.248 176.248H125.872C126.076 176.248 126.124 176.164 126.16 175.588C126.34 175.708 126.7 175.84 127 175.924ZM119.92 175.204V176.716C121.204 176.464 121.48 176.032 121.564 175.204H119.92ZM124.516 179.788V178.78H122.356V179.788H124.516ZM128.656 173.044H126.52C126.328 173.392 126.148 173.716 125.992 173.98H128.38V180.484C128.38 181.192 128.236 181.576 127.768 181.804C127.3 182.02 126.628 182.044 125.692 182.044C125.632 181.708 125.452 181.192 125.284 180.832H122.356V181.492H121.096V177.724H125.8V180.7C126.22 180.712 126.592 180.712 126.736 180.712C126.94 180.712 127 180.652 127 180.472V176.788C126.82 177.148 126.52 177.268 126.04 177.268H125.068C124 177.268 123.784 176.944 123.784 175.972V175.204H122.812C122.704 176.536 122.26 177.304 120.436 177.724C120.352 177.484 120.136 177.124 119.92 176.884V182.02H118.564V173.98H120.7C120.604 173.68 120.46 173.32 120.328 173.044H118.156V171.748H122.62V170.848H124.072V171.748H128.656V173.044ZM135.7 177.616L134.836 178.78C134.584 178.444 134.176 177.964 133.768 177.52V182.044H132.352V177.904C131.872 178.348 131.368 178.744 130.864 179.056C130.744 178.672 130.408 177.976 130.192 177.7C131.5 176.992 132.76 175.732 133.54 174.352H130.648V173.056H132.352V170.848H133.768V173.056H134.308L134.56 172.996L135.364 173.512C135.004 174.424 134.524 175.288 133.948 176.08C134.524 176.548 135.448 177.376 135.7 177.616ZM139.156 180.304H141.712V181.696H134.92V180.304H137.692V175.912H135.412V174.532H137.692V170.944H139.156V174.532H141.424V175.912H139.156V180.304Z" fill="#182346"/>
<path d="M122.584 204.072H120.844C121.3 204.684 121.768 205.5 121.948 206.052L120.964 206.472H122.584V204.072ZM121.228 200.412H125.56C124.672 199.692 123.88 198.912 123.352 198.192C122.836 198.912 122.092 199.692 121.228 200.412ZM125.752 204.072L127.12 204.576C126.664 205.236 126.196 205.968 125.776 206.472H128.488V207.696H118.336V206.472H120.676C120.496 205.932 120.1 205.128 119.68 204.54L120.772 204.072H118.936V202.848H122.584V201.66H120.376V201.072C119.812 201.48 119.2 201.864 118.588 202.188C118.408 201.852 118.012 201.336 117.7 201.036C119.74 200.04 121.66 198.24 122.548 196.8H124.024C125.32 198.612 127.252 200.124 129.148 200.892C128.788 201.252 128.464 201.732 128.2 202.176C127.6 201.864 126.976 201.468 126.376 201.036V201.66H124.084V202.848H127.78V204.072H124.084V206.472H125.392L124.612 206.148C125.008 205.584 125.488 204.708 125.752 204.072ZM134.656 203.796H134.968C135.088 203.796 135.112 203.772 135.148 203.712V202.968H134.512V203.592C134.512 203.784 134.536 203.796 134.656 203.796ZM131.836 202.968V204.276C132.34 203.904 132.436 203.376 132.448 202.968H131.836ZM136.264 201.96V206.856C136.264 207.36 136.18 207.648 135.856 207.828C135.544 208.008 135.124 208.02 134.524 208.02C134.488 207.72 134.356 207.276 134.224 206.976C134.548 206.988 134.896 206.988 135.004 206.988C135.112 206.988 135.148 206.952 135.148 206.832V204.54H135.1H134.536C133.864 204.54 133.708 204.336 133.708 203.592V202.968H133.24C133.228 203.628 133.12 204.372 132.4 204.912H134.824V205.836H133.972V207.72H132.964V205.836H132.136V204.912H132.268C132.16 204.792 131.992 204.648 131.836 204.528V208.008H130.744V201.96H136.264ZM134.536 200.58V199.836H132.448V200.58H134.536ZM135.832 198.912V201.516H131.248V198.912H135.832ZM130.672 198.468V197.292H136.36V198.468H130.672ZM137.74 200.316V202.8H138.376V200.316H137.74ZM140.092 202.8V200.316H139.408V202.8H140.092ZM141.712 207.732L140.56 208.044C140.548 207.804 140.512 207.516 140.452 207.204C139.132 207.468 137.764 207.708 136.672 207.9L136.384 206.556C136.912 206.496 137.56 206.4 138.268 206.292V204.024H136.612V199.104H138.256V197.004H139.492V199.104H141.28V204.024H139.504V206.112L140.188 206.004C140.068 205.548 139.936 205.104 139.792 204.708L140.848 204.456C141.28 205.512 141.64 206.88 141.712 207.732Z" fill="#182346"/>
<path d="M49.708 231.248H45.364V232.304H49.708V231.248ZM48.988 227.096H45.364V228.02H48.988V227.096ZM45.364 229.232V230.012H51.136V233.972H49.708V233.552H45.364V234.02H43.948V225.872H50.416V229.232H45.364ZM47.92 223.736H52.336V226.688H50.872V225.08H43.432V226.688H42.028V223.736H46.408V222.86H47.92V223.736ZM60.724 223.712L62.152 223.124C62.848 224.528 64.216 226.208 65.308 227.216C64.936 227.516 64.384 228.068 64.108 228.464C62.98 227.252 61.6 225.356 60.724 223.712ZM57.352 223.1L58.984 223.568C58.216 225.452 56.956 227.312 55.732 228.452C55.444 228.152 54.736 227.612 54.364 227.384C55.6 226.412 56.728 224.768 57.352 223.1ZM60.928 229.832L62.32 229.184C63.364 230.48 64.492 232.172 65.08 233.324L63.592 234.104C63.472 233.816 63.304 233.492 63.1 233.144C60.22 233.336 57.196 233.516 55.084 233.612L54.892 232.112L56.56 232.052C57.328 230.624 58.156 228.704 58.612 227.204L60.328 227.6C59.704 229.076 58.924 230.684 58.192 231.98C59.488 231.92 60.892 231.848 62.284 231.776C61.852 231.104 61.372 230.42 60.928 229.832ZM69.664 228.344V227H77.764V228.344H74.62V232.46C74.62 233.24 74.44 233.624 73.888 233.828C73.336 234.044 72.532 234.056 71.44 234.056C71.368 233.648 71.14 233.036 70.936 232.652C71.704 232.688 72.604 232.676 72.844 232.676C73.072 232.676 73.156 232.616 73.156 232.424V228.344H69.664ZM73.48 224.228H77.884V225.596H69.088V227.288C69.088 229.196 68.92 232.136 67.9 233.996C67.624 233.756 67 233.336 66.652 233.204C67.588 231.488 67.66 229.004 67.66 227.288V224.228H71.992V222.848H73.48V224.228ZM82 226.904C82.84 226.904 83.536 227.6 83.536 228.44C83.536 229.28 82.84 229.976 82 229.976C81.16 229.976 80.464 229.28 80.464 228.44C80.464 227.6 81.16 226.904 82 226.904ZM92.524 223.712L93.952 223.124C94.648 224.528 96.016 226.208 97.108 227.216C96.736 227.516 96.184 228.068 95.908 228.464C94.78 227.252 93.4 225.356 92.524 223.712ZM89.152 223.1L90.784 223.568C90.016 225.452 88.756 227.312 87.532 228.452C87.244 228.152 86.536 227.612 86.164 227.384C87.4 226.412 88.528 224.768 89.152 223.1ZM92.728 229.832L94.12 229.184C95.164 230.48 96.292 232.172 96.88 233.324L95.392 234.104C95.272 233.816 95.104 233.492 94.9 233.144C92.02 233.336 88.996 233.516 86.884 233.612L86.692 232.112L88.36 232.052C89.128 230.624 89.956 228.704 90.412 227.204L92.128 227.6C91.504 229.076 90.724 230.684 89.992 231.98C91.288 231.92 92.692 231.848 94.084 231.776C93.652 231.104 93.172 230.42 92.728 229.832ZM103.9 229.616L103.036 230.78C102.784 230.444 102.376 229.964 101.968 229.52V234.044H100.552V229.904C100.072 230.348 99.568 230.744 99.064 231.056C98.944 230.672 98.608 229.976 98.392 229.7C99.7 228.992 100.96 227.732 101.74 226.352H98.848V225.056H100.552V222.848H101.968V225.056H102.508L102.76 224.996L103.564 225.512C103.204 226.424 102.724 227.288 102.148 228.08C102.724 228.548 103.648 229.376 103.9 229.616ZM107.356 232.304H109.912V233.696H103.12V232.304H105.892V227.912H103.612V226.532H105.892V222.944H107.356V226.532H109.624V227.912H107.356V232.304ZM113.8 226.904C114.64 226.904 115.336 227.6 115.336 228.44C115.336 229.28 114.64 229.976 113.8 229.976C112.96 229.976 112.264 229.28 112.264 228.44C112.264 227.6 112.96 226.904 113.8 226.904ZM120.736 228.224L121.72 227.684C122.26 228.272 122.824 229.064 123.052 229.64L121.984 230.228C121.792 229.676 121.264 228.824 120.736 228.224ZM126.676 226.208V227.42H125.344V230.516C125.344 231.164 125.212 231.488 124.792 231.68C124.36 231.872 123.772 231.884 122.884 231.884C122.836 231.536 122.68 231.032 122.524 230.684C123.04 230.708 123.628 230.708 123.808 230.696C123.976 230.696 124.024 230.648 124.024 230.492V227.42H120.172V226.208H124.024V225.02H125.344V226.208H126.676ZM119.716 232.172H127.048V224.72H119.716V232.172ZM118.3 223.352H128.536V234.02H127.048V233.552H119.716V234.02H118.3V223.352ZM132.676 222.884L134.032 223.292C133.768 224.06 133.444 224.84 133.072 225.608V234.02H131.716V227.924C131.476 228.248 131.224 228.572 130.984 228.86C130.852 228.512 130.456 227.732 130.192 227.372C131.2 226.28 132.136 224.576 132.676 222.884ZM138.184 230.756H139.66C139.096 229.832 138.592 228.752 138.184 227.624V230.756ZM135.328 230.756H136.792V227.708C136.396 228.812 135.892 229.868 135.328 230.756ZM141.496 226.328H138.892C139.552 228.176 140.656 230.048 141.82 231.14C141.496 231.392 141.004 231.872 140.752 232.244C140.416 231.872 140.104 231.452 139.792 230.972V232.028H138.184V233.96H136.792V232.028H135.22V230.924C134.884 231.44 134.536 231.896 134.152 232.28C133.912 231.944 133.456 231.44 133.132 231.2C134.344 230.12 135.46 228.224 136.12 226.328H133.756V224.972H136.792V222.896H138.184V224.972H141.496V226.328Z" fill="#182346"/>
<path d="M31.432 251.728V253.384C31.432 255.28 31.24 258.208 30.112 260.02C29.848 259.78 29.224 259.36 28.888 259.228C29.92 257.536 30.004 255.076 30.004 253.384V250.36H34.228V248.848H35.716V250.36H40.048V251.728H31.432ZM40.312 259.408L38.836 260.068C38.74 259.756 38.608 259.408 38.428 259.036C35.896 259.24 33.208 259.432 31.348 259.54L31.216 258.064C31.636 258.052 32.104 258.028 32.62 258.016C33.22 256.408 33.868 254.104 34.192 252.292L35.824 252.616C35.356 254.428 34.732 256.432 34.156 257.944C35.296 257.896 36.556 257.836 37.792 257.764C37.372 256.996 36.868 256.216 36.388 255.544L37.72 254.968C38.752 256.336 39.88 258.148 40.312 259.408ZM49.804 256.564H44.764V258.184H49.804V256.564ZM43.3 260.092V255.244H51.34V260.056H49.804V259.504H44.764V260.092H43.3ZM48.256 253.072H52.492V254.392H41.92V253.072H46.744V251.692H44.128C43.816 252.22 43.48 252.676 43.144 253.048C42.844 252.82 42.196 252.448 41.836 252.292C42.7 251.476 43.456 250.156 43.876 248.86L45.304 249.22C45.172 249.616 45.016 250 44.836 250.384H46.744V248.824H48.256V250.384H51.76V251.692H48.256V253.072ZM56.8 252.904C57.64 252.904 58.336 253.6 58.336 254.44C58.336 255.28 57.64 255.976 56.8 255.976C55.96 255.976 55.264 255.28 55.264 254.44C55.264 253.6 55.96 252.904 56.8 252.904ZM69.736 254.956H71.224V260.032H69.736V259.348H63.088V260.044H61.636V254.956H63.088V257.944H65.596V254.32H62.116V249.964H63.532V252.928H65.596V248.956H67.06V252.928H69.244V249.964H70.744V254.32H67.06V257.944H69.736V254.956ZM82.768 253.708H81.016C81.256 254.548 81.556 255.328 81.952 256.048C82.3 255.34 82.588 254.548 82.768 253.708ZM83.44 252.376L84.328 252.64C84.064 254.524 83.56 256.084 82.828 257.344C83.38 257.992 84.016 258.52 84.772 258.892C84.448 259.156 84.016 259.696 83.8 260.056C83.104 259.66 82.516 259.144 82 258.532C81.508 259.12 80.944 259.612 80.308 260.02C80.128 259.672 79.708 259.132 79.408 258.868C80.068 258.496 80.656 257.968 81.16 257.308C80.692 256.492 80.32 255.568 80.02 254.56C79.924 256.384 79.636 258.508 78.868 260.008C78.628 259.792 78.076 259.48 77.74 259.336V260.008H76.444V255.844H75.304C75.196 257.38 74.908 258.928 74.188 260.056C73.972 259.792 73.516 259.384 73.228 259.192C74.008 257.752 74.104 255.472 74.104 253.744V249.148H75.364V251.992H76.228V248.836H77.512V251.992H78.352V253.252H75.364V253.756C75.364 254.02 75.364 254.308 75.352 254.584H77.74V259.228C78.664 257.356 78.736 254.716 78.736 252.844V249.352H84.316V250.636H80.056V252.412H83.2L83.44 252.376ZM88.6 252.904C89.44 252.904 90.136 253.6 90.136 254.44C90.136 255.28 89.44 255.976 88.6 255.976C87.76 255.976 87.064 255.28 87.064 254.44C87.064 253.6 87.76 252.904 88.6 252.904ZM103.636 251.44C103.468 251.632 103.324 251.788 103.228 251.944C102.364 253.348 100.828 255.268 99.136 256.636C99.82 257.32 100.528 258.1 100.996 258.664L99.592 259.78C99.088 259.108 98.08 257.98 97.3 257.188C96.604 256.48 95.38 255.4 94.66 254.884L95.932 253.864C96.412 254.224 97.204 254.872 97.96 255.532C99.316 254.452 100.444 253.06 101.008 252.076H94.66C94.18 252.076 93.532 252.136 93.28 252.16V250.48C93.592 250.528 94.252 250.588 94.66 250.588H101.32C101.776 250.588 102.184 250.54 102.436 250.456L103.636 251.44ZM114.808 250.864C114.712 250.996 114.496 251.368 114.388 251.608C113.98 252.544 113.308 253.828 112.504 254.908C113.692 255.94 115.144 257.476 115.852 258.34L114.484 259.528C113.704 258.448 112.588 257.224 111.46 256.132C110.188 257.476 108.592 258.724 106.948 259.504L105.712 258.208C107.644 257.488 109.504 256.024 110.632 254.764C111.424 253.864 112.156 252.676 112.42 251.824H108.352C107.848 251.824 107.188 251.896 106.936 251.908V250.204C107.26 250.252 107.992 250.288 108.352 250.288H112.588C113.104 250.288 113.584 250.216 113.824 250.132L114.808 250.864ZM119.284 250.48C119.728 250.528 120.352 250.552 120.76 250.552H126.808C127.156 250.552 127.66 250.54 127.864 250.528C127.852 250.804 127.828 251.284 127.828 251.632V257.848C127.828 258.268 127.852 258.904 127.876 259.264H126.136C126.148 259.072 126.148 258.868 126.148 258.64H120.676C120.208 258.64 119.524 258.676 119.128 258.712V256.996C119.548 257.032 120.088 257.068 120.628 257.068H126.16V252.1H120.772C120.268 252.1 119.62 252.124 119.284 252.148V250.48ZM133.42 249.604C134.992 249.796 138.448 250.492 139.96 251.02L139.348 252.52C137.956 252.004 134.548 251.236 132.856 251.02L133.42 249.604ZM132.868 252.832C134.584 253.12 137.632 253.768 139.144 254.296L138.556 255.796C137.176 255.268 134.104 254.572 132.316 254.284L132.868 252.832ZM132.256 256.264C134.308 256.588 138.004 257.452 139.648 258.064L138.988 259.564C137.368 258.892 133.576 258.064 131.656 257.776L132.256 256.264Z" fill="#182346"/>
<path d="M291.06 71.52C291.06 69.2133 291.473 67.4067 292.3 66.1C293.14 64.7933 294.527 64.14 296.46 64.14C298.393 64.14 299.773 64.7933 300.6 66.1C301.44 67.4067 301.86 69.2133 301.86 71.52C301.86 73.84 301.44 75.66 300.6 76.98C299.773 78.3 298.393 78.96 296.46 78.96C294.527 78.96 293.14 78.3 292.3 76.98C291.473 75.66 291.06 73.84 291.06 71.52ZM299.1 71.52C299.1 70.5333 299.033 69.7067 298.9 69.04C298.78 68.36 298.527 67.8067 298.14 67.38C297.767 66.9533 297.207 66.74 296.46 66.74C295.713 66.74 295.147 66.9533 294.76 67.38C294.387 67.8067 294.133 68.36 294 69.04C293.88 69.7067 293.82 70.5333 293.82 71.52C293.82 72.5333 293.88 73.3867 294 74.08C294.12 74.76 294.373 75.3133 294.76 75.74C295.147 76.1533 295.713 76.36 296.46 76.36C297.207 76.36 297.773 76.1533 298.16 75.74C298.547 75.3133 298.8 74.76 298.92 74.08C299.04 73.3867 299.1 72.5333 299.1 71.52ZM303.99 71.52C303.99 69.2133 304.403 67.4067 305.23 66.1C306.07 64.7933 307.456 64.14 309.39 64.14C311.323 64.14 312.703 64.7933 313.53 66.1C314.37 67.4067 314.79 69.2133 314.79 71.52C314.79 73.84 314.37 75.66 313.53 76.98C312.703 78.3 311.323 78.96 309.39 78.96C307.456 78.96 306.07 78.3 305.23 76.98C304.403 75.66 303.99 73.84 303.99 71.52ZM312.03 71.52C312.03 70.5333 311.963 69.7067 311.83 69.04C311.71 68.36 311.456 67.8067 311.07 67.38C310.696 66.9533 310.136 66.74 309.39 66.74C308.643 66.74 308.076 66.9533 307.69 67.38C307.316 67.8067 307.063 68.36 306.93 69.04C306.81 69.7067 306.75 70.5333 306.75 71.52C306.75 72.5333 306.81 73.3867 306.93 74.08C307.05 74.76 307.303 75.3133 307.69 75.74C308.076 76.1533 308.643 76.36 309.39 76.36C310.136 76.36 310.703 76.1533 311.09 75.74C311.476 75.3133 311.73 74.76 311.85 74.08C311.97 73.3867 312.03 72.5333 312.03 71.52ZM318.479 79.14C317.973 79.14 317.553 78.9867 317.219 78.68C316.899 78.36 316.739 77.9667 316.739 77.5C316.739 77.0333 316.899 76.6467 317.219 76.34C317.553 76.02 317.973 75.86 318.479 75.86C318.973 75.86 319.379 76.02 319.699 76.34C320.019 76.6467 320.179 77.0333 320.179 77.5C320.179 77.9667 320.019 78.36 319.699 78.68C319.379 78.9867 318.973 79.14 318.479 79.14ZM322.115 71.52C322.115 69.2133 322.528 67.4067 323.355 66.1C324.195 64.7933 325.581 64.14 327.515 64.14C329.448 64.14 330.828 64.7933 331.655 66.1C332.495 67.4067 332.915 69.2133 332.915 71.52C332.915 73.84 332.495 75.66 331.655 76.98C330.828 78.3 329.448 78.96 327.515 78.96C325.581 78.96 324.195 78.3 323.355 76.98C322.528 75.66 322.115 73.84 322.115 71.52ZM330.155 71.52C330.155 70.5333 330.088 69.7067 329.955 69.04C329.835 68.36 329.581 67.8067 329.195 67.38C328.821 66.9533 328.261 66.74 327.515 66.74C326.768 66.74 326.201 66.9533 325.815 67.38C325.441 67.8067 325.188 68.36 325.055 69.04C324.935 69.7067 324.875 70.5333 324.875 71.52C324.875 72.5333 324.935 73.3867 325.055 74.08C325.175 74.76 325.428 75.3133 325.815 75.74C326.201 76.1533 326.768 76.36 327.515 76.36C328.261 76.36 328.828 76.1533 329.215 75.74C329.601 75.3133 329.855 74.76 329.975 74.08C330.095 73.3867 330.155 72.5333 330.155 71.52Z" fill="#0050B5"/>
<path d="M338.592 70.2C338.592 69.3893 338.827 68.7547 339.296 68.296C339.776 67.8373 340.389 67.608 341.136 67.608C341.883 67.608 342.491 67.8373 342.96 68.296C343.44 68.7547 343.68 69.3893 343.68 70.2C343.68 71.0213 343.44 71.6613 342.96 72.12C342.491 72.5787 341.883 72.808 341.136 72.808C340.389 72.808 339.776 72.5787 339.296 72.12C338.827 71.6613 338.592 71.0213 338.592 70.2ZM348.864 67.8L342.576 79H340.4L346.672 67.8H348.864ZM341.12 68.952C340.533 68.952 340.24 69.368 340.24 70.2C340.24 71.0427 340.533 71.464 341.12 71.464C341.408 71.464 341.632 71.3627 341.792 71.16C341.952 70.9467 342.032 70.6267 342.032 70.2C342.032 69.368 341.728 68.952 341.12 68.952ZM345.616 76.584C345.616 75.7627 345.851 75.128 346.32 74.68C346.8 74.2213 347.413 73.992 348.16 73.992C348.907 73.992 349.509 74.2213 349.968 74.68C350.437 75.128 350.672 75.7627 350.672 76.584C350.672 77.4053 350.437 78.0453 349.968 78.504C349.509 78.9627 348.907 79.192 348.16 79.192C347.403 79.192 346.789 78.9627 346.32 78.504C345.851 78.0453 345.616 77.4053 345.616 76.584ZM348.144 75.336C347.536 75.336 347.232 75.752 347.232 76.584C347.232 77.4267 347.536 77.848 348.144 77.848C348.741 77.848 349.04 77.4267 349.04 76.584C349.04 75.752 348.741 75.336 348.144 75.336Z" fill="#0050B5"/>
<path d="M291.06 97.52C291.06 95.2133 291.473 93.4067 292.3 92.1C293.14 90.7933 294.527 90.14 296.46 90.14C298.393 90.14 299.773 90.7933 300.6 92.1C301.44 93.4067 301.86 95.2133 301.86 97.52C301.86 99.84 301.44 101.66 300.6 102.98C299.773 104.3 298.393 104.96 296.46 104.96C294.527 104.96 293.14 104.3 292.3 102.98C291.473 101.66 291.06 99.84 291.06 97.52ZM299.1 97.52C299.1 96.5333 299.033 95.7067 298.9 95.04C298.78 94.36 298.527 93.8067 298.14 93.38C297.767 92.9533 297.207 92.74 296.46 92.74C295.713 92.74 295.147 92.9533 294.76 93.38C294.387 93.8067 294.133 94.36 294 95.04C293.88 95.7067 293.82 96.5333 293.82 97.52C293.82 98.5333 293.88 99.3867 294 100.08C294.12 100.76 294.373 101.313 294.76 101.74C295.147 102.153 295.713 102.36 296.46 102.36C297.207 102.36 297.773 102.153 298.16 101.74C298.547 101.313 298.8 100.76 298.92 100.08C299.04 99.3867 299.1 98.5333 299.1 97.52ZM303.99 97.52C303.99 95.2133 304.403 93.4067 305.23 92.1C306.07 90.7933 307.456 90.14 309.39 90.14C311.323 90.14 312.703 90.7933 313.53 92.1C314.37 93.4067 314.79 95.2133 314.79 97.52C314.79 99.84 314.37 101.66 313.53 102.98C312.703 104.3 311.323 104.96 309.39 104.96C307.456 104.96 306.07 104.3 305.23 102.98C304.403 101.66 303.99 99.84 303.99 97.52ZM312.03 97.52C312.03 96.5333 311.963 95.7067 311.83 95.04C311.71 94.36 311.456 93.8067 311.07 93.38C310.696 92.9533 310.136 92.74 309.39 92.74C308.643 92.74 308.076 92.9533 307.69 93.38C307.316 93.8067 307.063 94.36 306.93 95.04C306.81 95.7067 306.75 96.5333 306.75 97.52C306.75 98.5333 306.81 99.3867 306.93 100.08C307.05 100.76 307.303 101.313 307.69 101.74C308.076 102.153 308.643 102.36 309.39 102.36C310.136 102.36 310.703 102.153 311.09 101.74C311.476 101.313 311.73 100.76 311.85 100.08C311.97 99.3867 312.03 98.5333 312.03 97.52ZM318.479 105.14C317.973 105.14 317.553 104.987 317.219 104.68C316.899 104.36 316.739 103.967 316.739 103.5C316.739 103.033 316.899 102.647 317.219 102.34C317.553 102.02 317.973 101.86 318.479 101.86C318.973 101.86 319.379 102.02 319.699 102.34C320.019 102.647 320.179 103.033 320.179 103.5C320.179 103.967 320.019 104.36 319.699 104.68C319.379 104.987 318.973 105.14 318.479 105.14ZM322.115 97.52C322.115 95.2133 322.528 93.4067 323.355 92.1C324.195 90.7933 325.581 90.14 327.515 90.14C329.448 90.14 330.828 90.7933 331.655 92.1C332.495 93.4067 332.915 95.2133 332.915 97.52C332.915 99.84 332.495 101.66 331.655 102.98C330.828 104.3 329.448 104.96 327.515 104.96C325.581 104.96 324.195 104.3 323.355 102.98C322.528 101.66 322.115 99.84 322.115 97.52ZM330.155 97.52C330.155 96.5333 330.088 95.7067 329.955 95.04C329.835 94.36 329.581 93.8067 329.195 93.38C328.821 92.9533 328.261 92.74 327.515 92.74C326.768 92.74 326.201 92.9533 325.815 93.38C325.441 93.8067 325.188 94.36 325.055 95.04C324.935 95.7067 324.875 96.5333 324.875 97.52C324.875 98.5333 324.935 99.3867 325.055 100.08C325.175 100.76 325.428 101.313 325.815 101.74C326.201 102.153 326.768 102.36 327.515 102.36C328.261 102.36 328.828 102.153 329.215 101.74C329.601 101.313 329.855 100.76 329.975 100.08C330.095 99.3867 330.155 98.5333 330.155 97.52Z" fill="#0050B5"/>
<path d="M338.592 96.2C338.592 95.3893 338.827 94.7547 339.296 94.296C339.776 93.8373 340.389 93.608 341.136 93.608C341.883 93.608 342.491 93.8373 342.96 94.296C343.44 94.7547 343.68 95.3893 343.68 96.2C343.68 97.0213 343.44 97.6613 342.96 98.12C342.491 98.5787 341.883 98.808 341.136 98.808C340.389 98.808 339.776 98.5787 339.296 98.12C338.827 97.6613 338.592 97.0213 338.592 96.2ZM348.864 93.8L342.576 105H340.4L346.672 93.8H348.864ZM341.12 94.952C340.533 94.952 340.24 95.368 340.24 96.2C340.24 97.0427 340.533 97.464 341.12 97.464C341.408 97.464 341.632 97.3627 341.792 97.16C341.952 96.9467 342.032 96.6267 342.032 96.2C342.032 95.368 341.728 94.952 341.12 94.952ZM345.616 102.584C345.616 101.763 345.851 101.128 346.32 100.68C346.8 100.221 347.413 99.992 348.16 99.992C348.907 99.992 349.509 100.221 349.968 100.68C350.437 101.128 350.672 101.763 350.672 102.584C350.672 103.405 350.437 104.045 349.968 104.504C349.509 104.963 348.907 105.192 348.16 105.192C347.403 105.192 346.789 104.963 346.32 104.504C345.851 104.045 345.616 103.405 345.616 102.584ZM348.144 101.336C347.536 101.336 347.232 101.752 347.232 102.584C347.232 103.427 347.536 103.848 348.144 103.848C348.741 103.848 349.04 103.427 349.04 102.584C349.04 101.752 348.741 101.336 348.144 101.336Z" fill="#0050B5"/>
<path d="M291.06 123.52C291.06 121.213 291.473 119.407 292.3 118.1C293.14 116.793 294.527 116.14 296.46 116.14C298.393 116.14 299.773 116.793 300.6 118.1C301.44 119.407 301.86 121.213 301.86 123.52C301.86 125.84 301.44 127.66 300.6 128.98C299.773 130.3 298.393 130.96 296.46 130.96C294.527 130.96 293.14 130.3 292.3 128.98C291.473 127.66 291.06 125.84 291.06 123.52ZM299.1 123.52C299.1 122.533 299.033 121.707 298.9 121.04C298.78 120.36 298.527 119.807 298.14 119.38C297.767 118.953 297.207 118.74 296.46 118.74C295.713 118.74 295.147 118.953 294.76 119.38C294.387 119.807 294.133 120.36 294 121.04C293.88 121.707 293.82 122.533 293.82 123.52C293.82 124.533 293.88 125.387 294 126.08C294.12 126.76 294.373 127.313 294.76 127.74C295.147 128.153 295.713 128.36 296.46 128.36C297.207 128.36 297.773 128.153 298.16 127.74C298.547 127.313 298.8 126.76 298.92 126.08C299.04 125.387 299.1 124.533 299.1 123.52ZM303.99 123.52C303.99 121.213 304.403 119.407 305.23 118.1C306.07 116.793 307.456 116.14 309.39 116.14C311.323 116.14 312.703 116.793 313.53 118.1C314.37 119.407 314.79 121.213 314.79 123.52C314.79 125.84 314.37 127.66 313.53 128.98C312.703 130.3 311.323 130.96 309.39 130.96C307.456 130.96 306.07 130.3 305.23 128.98C304.403 127.66 303.99 125.84 303.99 123.52ZM312.03 123.52C312.03 122.533 311.963 121.707 311.83 121.04C311.71 120.36 311.456 119.807 311.07 119.38C310.696 118.953 310.136 118.74 309.39 118.74C308.643 118.74 308.076 118.953 307.69 119.38C307.316 119.807 307.063 120.36 306.93 121.04C306.81 121.707 306.75 122.533 306.75 123.52C306.75 124.533 306.81 125.387 306.93 126.08C307.05 126.76 307.303 127.313 307.69 127.74C308.076 128.153 308.643 128.36 309.39 128.36C310.136 128.36 310.703 128.153 311.09 127.74C311.476 127.313 311.73 126.76 311.85 126.08C311.97 125.387 312.03 124.533 312.03 123.52ZM318.479 131.14C317.973 131.14 317.553 130.987 317.219 130.68C316.899 130.36 316.739 129.967 316.739 129.5C316.739 129.033 316.899 128.647 317.219 128.34C317.553 128.02 317.973 127.86 318.479 127.86C318.973 127.86 319.379 128.02 319.699 128.34C320.019 128.647 320.179 129.033 320.179 129.5C320.179 129.967 320.019 130.36 319.699 130.68C319.379 130.987 318.973 131.14 318.479 131.14ZM322.115 123.52C322.115 121.213 322.528 119.407 323.355 118.1C324.195 116.793 325.581 116.14 327.515 116.14C329.448 116.14 330.828 116.793 331.655 118.1C332.495 119.407 332.915 121.213 332.915 123.52C332.915 125.84 332.495 127.66 331.655 128.98C330.828 130.3 329.448 130.96 327.515 130.96C325.581 130.96 324.195 130.3 323.355 128.98C322.528 127.66 322.115 125.84 322.115 123.52ZM330.155 123.52C330.155 122.533 330.088 121.707 329.955 121.04C329.835 120.36 329.581 119.807 329.195 119.38C328.821 118.953 328.261 118.74 327.515 118.74C326.768 118.74 326.201 118.953 325.815 119.38C325.441 119.807 325.188 120.36 325.055 121.04C324.935 121.707 324.875 122.533 324.875 123.52C324.875 124.533 324.935 125.387 325.055 126.08C325.175 126.76 325.428 127.313 325.815 127.74C326.201 128.153 326.768 128.36 327.515 128.36C328.261 128.36 328.828 128.153 329.215 127.74C329.601 127.313 329.855 126.76 329.975 126.08C330.095 125.387 330.155 124.533 330.155 123.52Z" fill="#0050B5"/>
<path d="M338.592 122.2C338.592 121.389 338.827 120.755 339.296 120.296C339.776 119.837 340.389 119.608 341.136 119.608C341.883 119.608 342.491 119.837 342.96 120.296C343.44 120.755 343.68 121.389 343.68 122.2C343.68 123.021 343.44 123.661 342.96 124.12C342.491 124.579 341.883 124.808 341.136 124.808C340.389 124.808 339.776 124.579 339.296 124.12C338.827 123.661 338.592 123.021 338.592 122.2ZM348.864 119.8L342.576 131H340.4L346.672 119.8H348.864ZM341.12 120.952C340.533 120.952 340.24 121.368 340.24 122.2C340.24 123.043 340.533 123.464 341.12 123.464C341.408 123.464 341.632 123.363 341.792 123.16C341.952 122.947 342.032 122.627 342.032 122.2C342.032 121.368 341.728 120.952 341.12 120.952ZM345.616 128.584C345.616 127.763 345.851 127.128 346.32 126.68C346.8 126.221 347.413 125.992 348.16 125.992C348.907 125.992 349.509 126.221 349.968 126.68C350.437 127.128 350.672 127.763 350.672 128.584C350.672 129.405 350.437 130.045 349.968 130.504C349.509 130.963 348.907 131.192 348.16 131.192C347.403 131.192 346.789 130.963 346.32 130.504C345.851 130.045 345.616 129.405 345.616 128.584ZM348.144 127.336C347.536 127.336 347.232 127.752 347.232 128.584C347.232 129.427 347.536 129.848 348.144 129.848C348.741 129.848 349.04 129.427 349.04 128.584C349.04 127.752 348.741 127.336 348.144 127.336Z" fill="#0050B5"/>
<path d="M291.06 149.52C291.06 147.213 291.473 145.407 292.3 144.1C293.14 142.793 294.527 142.14 296.46 142.14C298.393 142.14 299.773 142.793 300.6 144.1C301.44 145.407 301.86 147.213 301.86 149.52C301.86 151.84 301.44 153.66 300.6 154.98C299.773 156.3 298.393 156.96 296.46 156.96C294.527 156.96 293.14 156.3 292.3 154.98C291.473 153.66 291.06 151.84 291.06 149.52ZM299.1 149.52C299.1 148.533 299.033 147.707 298.9 147.04C298.78 146.36 298.527 145.807 298.14 145.38C297.767 144.953 297.207 144.74 296.46 144.74C295.713 144.74 295.147 144.953 294.76 145.38C294.387 145.807 294.133 146.36 294 147.04C293.88 147.707 293.82 148.533 293.82 149.52C293.82 150.533 293.88 151.387 294 152.08C294.12 152.76 294.373 153.313 294.76 153.74C295.147 154.153 295.713 154.36 296.46 154.36C297.207 154.36 297.773 154.153 298.16 153.74C298.547 153.313 298.8 152.76 298.92 152.08C299.04 151.387 299.1 150.533 299.1 149.52ZM303.99 149.52C303.99 147.213 304.403 145.407 305.23 144.1C306.07 142.793 307.456 142.14 309.39 142.14C311.323 142.14 312.703 142.793 313.53 144.1C314.37 145.407 314.79 147.213 314.79 149.52C314.79 151.84 314.37 153.66 313.53 154.98C312.703 156.3 311.323 156.96 309.39 156.96C307.456 156.96 306.07 156.3 305.23 154.98C304.403 153.66 303.99 151.84 303.99 149.52ZM312.03 149.52C312.03 148.533 311.963 147.707 311.83 147.04C311.71 146.36 311.456 145.807 311.07 145.38C310.696 144.953 310.136 144.74 309.39 144.74C308.643 144.74 308.076 144.953 307.69 145.38C307.316 145.807 307.063 146.36 306.93 147.04C306.81 147.707 306.75 148.533 306.75 149.52C306.75 150.533 306.81 151.387 306.93 152.08C307.05 152.76 307.303 153.313 307.69 153.74C308.076 154.153 308.643 154.36 309.39 154.36C310.136 154.36 310.703 154.153 311.09 153.74C311.476 153.313 311.73 152.76 311.85 152.08C311.97 151.387 312.03 150.533 312.03 149.52ZM318.479 157.14C317.973 157.14 317.553 156.987 317.219 156.68C316.899 156.36 316.739 155.967 316.739 155.5C316.739 155.033 316.899 154.647 317.219 154.34C317.553 154.02 317.973 153.86 318.479 153.86C318.973 153.86 319.379 154.02 319.699 154.34C320.019 154.647 320.179 155.033 320.179 155.5C320.179 155.967 320.019 156.36 319.699 156.68C319.379 156.987 318.973 157.14 318.479 157.14ZM322.115 149.52C322.115 147.213 322.528 145.407 323.355 144.1C324.195 142.793 325.581 142.14 327.515 142.14C329.448 142.14 330.828 142.793 331.655 144.1C332.495 145.407 332.915 147.213 332.915 149.52C332.915 151.84 332.495 153.66 331.655 154.98C330.828 156.3 329.448 156.96 327.515 156.96C325.581 156.96 324.195 156.3 323.355 154.98C322.528 153.66 322.115 151.84 322.115 149.52ZM330.155 149.52C330.155 148.533 330.088 147.707 329.955 147.04C329.835 146.36 329.581 145.807 329.195 145.38C328.821 144.953 328.261 144.74 327.515 144.74C326.768 144.74 326.201 144.953 325.815 145.38C325.441 145.807 325.188 146.36 325.055 147.04C324.935 147.707 324.875 148.533 324.875 149.52C324.875 150.533 324.935 151.387 325.055 152.08C325.175 152.76 325.428 153.313 325.815 153.74C326.201 154.153 326.768 154.36 327.515 154.36C328.261 154.36 328.828 154.153 329.215 153.74C329.601 153.313 329.855 152.76 329.975 152.08C330.095 151.387 330.155 150.533 330.155 149.52Z" fill="#0050B5"/>
<path d="M338.592 148.2C338.592 147.389 338.827 146.755 339.296 146.296C339.776 145.837 340.389 145.608 341.136 145.608C341.883 145.608 342.491 145.837 342.96 146.296C343.44 146.755 343.68 147.389 343.68 148.2C343.68 149.021 343.44 149.661 342.96 150.12C342.491 150.579 341.883 150.808 341.136 150.808C340.389 150.808 339.776 150.579 339.296 150.12C338.827 149.661 338.592 149.021 338.592 148.2ZM348.864 145.8L342.576 157H340.4L346.672 145.8H348.864ZM341.12 146.952C340.533 146.952 340.24 147.368 340.24 148.2C340.24 149.043 340.533 149.464 341.12 149.464C341.408 149.464 341.632 149.363 341.792 149.16C341.952 148.947 342.032 148.627 342.032 148.2C342.032 147.368 341.728 146.952 341.12 146.952ZM345.616 154.584C345.616 153.763 345.851 153.128 346.32 152.68C346.8 152.221 347.413 151.992 348.16 151.992C348.907 151.992 349.509 152.221 349.968 152.68C350.437 153.128 350.672 153.763 350.672 154.584C350.672 155.405 350.437 156.045 349.968 156.504C349.509 156.963 348.907 157.192 348.16 157.192C347.403 157.192 346.789 156.963 346.32 156.504C345.851 156.045 345.616 155.405 345.616 154.584ZM348.144 153.336C347.536 153.336 347.232 153.752 347.232 154.584C347.232 155.427 347.536 155.848 348.144 155.848C348.741 155.848 349.04 155.427 349.04 154.584C349.04 153.752 348.741 153.336 348.144 153.336Z" fill="#0050B5"/>
<path d="M291.06 175.52C291.06 173.213 291.473 171.407 292.3 170.1C293.14 168.793 294.527 168.14 296.46 168.14C298.393 168.14 299.773 168.793 300.6 170.1C301.44 171.407 301.86 173.213 301.86 175.52C301.86 177.84 301.44 179.66 300.6 180.98C299.773 182.3 298.393 182.96 296.46 182.96C294.527 182.96 293.14 182.3 292.3 180.98C291.473 179.66 291.06 177.84 291.06 175.52ZM299.1 175.52C299.1 174.533 299.033 173.707 298.9 173.04C298.78 172.36 298.527 171.807 298.14 171.38C297.767 170.953 297.207 170.74 296.46 170.74C295.713 170.74 295.147 170.953 294.76 171.38C294.387 171.807 294.133 172.36 294 173.04C293.88 173.707 293.82 174.533 293.82 175.52C293.82 176.533 293.88 177.387 294 178.08C294.12 178.76 294.373 179.313 294.76 179.74C295.147 180.153 295.713 180.36 296.46 180.36C297.207 180.36 297.773 180.153 298.16 179.74C298.547 179.313 298.8 178.76 298.92 178.08C299.04 177.387 299.1 176.533 299.1 175.52ZM303.99 175.52C303.99 173.213 304.403 171.407 305.23 170.1C306.07 168.793 307.456 168.14 309.39 168.14C311.323 168.14 312.703 168.793 313.53 170.1C314.37 171.407 314.79 173.213 314.79 175.52C314.79 177.84 314.37 179.66 313.53 180.98C312.703 182.3 311.323 182.96 309.39 182.96C307.456 182.96 306.07 182.3 305.23 180.98C304.403 179.66 303.99 177.84 303.99 175.52ZM312.03 175.52C312.03 174.533 311.963 173.707 311.83 173.04C311.71 172.36 311.456 171.807 311.07 171.38C310.696 170.953 310.136 170.74 309.39 170.74C308.643 170.74 308.076 170.953 307.69 171.38C307.316 171.807 307.063 172.36 306.93 173.04C306.81 173.707 306.75 174.533 306.75 175.52C306.75 176.533 306.81 177.387 306.93 178.08C307.05 178.76 307.303 179.313 307.69 179.74C308.076 180.153 308.643 180.36 309.39 180.36C310.136 180.36 310.703 180.153 311.09 179.74C311.476 179.313 311.73 178.76 311.85 178.08C311.97 177.387 312.03 176.533 312.03 175.52ZM318.479 183.14C317.973 183.14 317.553 182.987 317.219 182.68C316.899 182.36 316.739 181.967 316.739 181.5C316.739 181.033 316.899 180.647 317.219 180.34C317.553 180.02 317.973 179.86 318.479 179.86C318.973 179.86 319.379 180.02 319.699 180.34C320.019 180.647 320.179 181.033 320.179 181.5C320.179 181.967 320.019 182.36 319.699 182.68C319.379 182.987 318.973 183.14 318.479 183.14ZM322.115 175.52C322.115 173.213 322.528 171.407 323.355 170.1C324.195 168.793 325.581 168.14 327.515 168.14C329.448 168.14 330.828 168.793 331.655 170.1C332.495 171.407 332.915 173.213 332.915 175.52C332.915 177.84 332.495 179.66 331.655 180.98C330.828 182.3 329.448 182.96 327.515 182.96C325.581 182.96 324.195 182.3 323.355 180.98C322.528 179.66 322.115 177.84 322.115 175.52ZM330.155 175.52C330.155 174.533 330.088 173.707 329.955 173.04C329.835 172.36 329.581 171.807 329.195 171.38C328.821 170.953 328.261 170.74 327.515 170.74C326.768 170.74 326.201 170.953 325.815 171.38C325.441 171.807 325.188 172.36 325.055 173.04C324.935 173.707 324.875 174.533 324.875 175.52C324.875 176.533 324.935 177.387 325.055 178.08C325.175 178.76 325.428 179.313 325.815 179.74C326.201 180.153 326.768 180.36 327.515 180.36C328.261 180.36 328.828 180.153 329.215 179.74C329.601 179.313 329.855 178.76 329.975 178.08C330.095 177.387 330.155 176.533 330.155 175.52Z" fill="#0050B5"/>
<path d="M338.592 174.2C338.592 173.389 338.827 172.755 339.296 172.296C339.776 171.837 340.389 171.608 341.136 171.608C341.883 171.608 342.491 171.837 342.96 172.296C343.44 172.755 343.68 173.389 343.68 174.2C343.68 175.021 343.44 175.661 342.96 176.12C342.491 176.579 341.883 176.808 341.136 176.808C340.389 176.808 339.776 176.579 339.296 176.12C338.827 175.661 338.592 175.021 338.592 174.2ZM348.864 171.8L342.576 183H340.4L346.672 171.8H348.864ZM341.12 172.952C340.533 172.952 340.24 173.368 340.24 174.2C340.24 175.043 340.533 175.464 341.12 175.464C341.408 175.464 341.632 175.363 341.792 175.16C341.952 174.947 342.032 174.627 342.032 174.2C342.032 173.368 341.728 172.952 341.12 172.952ZM345.616 180.584C345.616 179.763 345.851 179.128 346.32 178.68C346.8 178.221 347.413 177.992 348.16 177.992C348.907 177.992 349.509 178.221 349.968 178.68C350.437 179.128 350.672 179.763 350.672 180.584C350.672 181.405 350.437 182.045 349.968 182.504C349.509 182.963 348.907 183.192 348.16 183.192C347.403 183.192 346.789 182.963 346.32 182.504C345.851 182.045 345.616 181.405 345.616 180.584ZM348.144 179.336C347.536 179.336 347.232 179.752 347.232 180.584C347.232 181.427 347.536 181.848 348.144 181.848C348.741 181.848 349.04 181.427 349.04 180.584C349.04 179.752 348.741 179.336 348.144 179.336Z" fill="#0050B5"/>
<path d="M291.06 201.52C291.06 199.213 291.473 197.407 292.3 196.1C293.14 194.793 294.527 194.14 296.46 194.14C298.393 194.14 299.773 194.793 300.6 196.1C301.44 197.407 301.86 199.213 301.86 201.52C301.86 203.84 301.44 205.66 300.6 206.98C299.773 208.3 298.393 208.96 296.46 208.96C294.527 208.96 293.14 208.3 292.3 206.98C291.473 205.66 291.06 203.84 291.06 201.52ZM299.1 201.52C299.1 200.533 299.033 199.707 298.9 199.04C298.78 198.36 298.527 197.807 298.14 197.38C297.767 196.953 297.207 196.74 296.46 196.74C295.713 196.74 295.147 196.953 294.76 197.38C294.387 197.807 294.133 198.36 294 199.04C293.88 199.707 293.82 200.533 293.82 201.52C293.82 202.533 293.88 203.387 294 204.08C294.12 204.76 294.373 205.313 294.76 205.74C295.147 206.153 295.713 206.36 296.46 206.36C297.207 206.36 297.773 206.153 298.16 205.74C298.547 205.313 298.8 204.76 298.92 204.08C299.04 203.387 299.1 202.533 299.1 201.52ZM303.99 201.52C303.99 199.213 304.403 197.407 305.23 196.1C306.07 194.793 307.456 194.14 309.39 194.14C311.323 194.14 312.703 194.793 313.53 196.1C314.37 197.407 314.79 199.213 314.79 201.52C314.79 203.84 314.37 205.66 313.53 206.98C312.703 208.3 311.323 208.96 309.39 208.96C307.456 208.96 306.07 208.3 305.23 206.98C304.403 205.66 303.99 203.84 303.99 201.52ZM312.03 201.52C312.03 200.533 311.963 199.707 311.83 199.04C311.71 198.36 311.456 197.807 311.07 197.38C310.696 196.953 310.136 196.74 309.39 196.74C308.643 196.74 308.076 196.953 307.69 197.38C307.316 197.807 307.063 198.36 306.93 199.04C306.81 199.707 306.75 200.533 306.75 201.52C306.75 202.533 306.81 203.387 306.93 204.08C307.05 204.76 307.303 205.313 307.69 205.74C308.076 206.153 308.643 206.36 309.39 206.36C310.136 206.36 310.703 206.153 311.09 205.74C311.476 205.313 311.73 204.76 311.85 204.08C311.97 203.387 312.03 202.533 312.03 201.52ZM318.479 209.14C317.973 209.14 317.553 208.987 317.219 208.68C316.899 208.36 316.739 207.967 316.739 207.5C316.739 207.033 316.899 206.647 317.219 206.34C317.553 206.02 317.973 205.86 318.479 205.86C318.973 205.86 319.379 206.02 319.699 206.34C320.019 206.647 320.179 207.033 320.179 207.5C320.179 207.967 320.019 208.36 319.699 208.68C319.379 208.987 318.973 209.14 318.479 209.14ZM322.115 201.52C322.115 199.213 322.528 197.407 323.355 196.1C324.195 194.793 325.581 194.14 327.515 194.14C329.448 194.14 330.828 194.793 331.655 196.1C332.495 197.407 332.915 199.213 332.915 201.52C332.915 203.84 332.495 205.66 331.655 206.98C330.828 208.3 329.448 208.96 327.515 208.96C325.581 208.96 324.195 208.3 323.355 206.98C322.528 205.66 322.115 203.84 322.115 201.52ZM330.155 201.52C330.155 200.533 330.088 199.707 329.955 199.04C329.835 198.36 329.581 197.807 329.195 197.38C328.821 196.953 328.261 196.74 327.515 196.74C326.768 196.74 326.201 196.953 325.815 197.38C325.441 197.807 325.188 198.36 325.055 199.04C324.935 199.707 324.875 200.533 324.875 201.52C324.875 202.533 324.935 203.387 325.055 204.08C325.175 204.76 325.428 205.313 325.815 205.74C326.201 206.153 326.768 206.36 327.515 206.36C328.261 206.36 328.828 206.153 329.215 205.74C329.601 205.313 329.855 204.76 329.975 204.08C330.095 203.387 330.155 202.533 330.155 201.52Z" fill="#0050B5"/>
<path d="M338.592 200.2C338.592 199.389 338.827 198.755 339.296 198.296C339.776 197.837 340.389 197.608 341.136 197.608C341.883 197.608 342.491 197.837 342.96 198.296C343.44 198.755 343.68 199.389 343.68 200.2C343.68 201.021 343.44 201.661 342.96 202.12C342.491 202.579 341.883 202.808 341.136 202.808C340.389 202.808 339.776 202.579 339.296 202.12C338.827 201.661 338.592 201.021 338.592 200.2ZM348.864 197.8L342.576 209H340.4L346.672 197.8H348.864ZM341.12 198.952C340.533 198.952 340.24 199.368 340.24 200.2C340.24 201.043 340.533 201.464 341.12 201.464C341.408 201.464 341.632 201.363 341.792 201.16C341.952 200.947 342.032 200.627 342.032 200.2C342.032 199.368 341.728 198.952 341.12 198.952ZM345.616 206.584C345.616 205.763 345.851 205.128 346.32 204.68C346.8 204.221 347.413 203.992 348.16 203.992C348.907 203.992 349.509 204.221 349.968 204.68C350.437 205.128 350.672 205.763 350.672 206.584C350.672 207.405 350.437 208.045 349.968 208.504C349.509 208.963 348.907 209.192 348.16 209.192C347.403 209.192 346.789 208.963 346.32 208.504C345.851 208.045 345.616 207.405 345.616 206.584ZM348.144 205.336C347.536 205.336 347.232 205.752 347.232 206.584C347.232 207.427 347.536 207.848 348.144 207.848C348.741 207.848 349.04 207.427 349.04 206.584C349.04 205.752 348.741 205.336 348.144 205.336Z" fill="#0050B5"/>
<path d="M291.06 227.52C291.06 225.213 291.473 223.407 292.3 222.1C293.14 220.793 294.527 220.14 296.46 220.14C298.393 220.14 299.773 220.793 300.6 222.1C301.44 223.407 301.86 225.213 301.86 227.52C301.86 229.84 301.44 231.66 300.6 232.98C299.773 234.3 298.393 234.96 296.46 234.96C294.527 234.96 293.14 234.3 292.3 232.98C291.473 231.66 291.06 229.84 291.06 227.52ZM299.1 227.52C299.1 226.533 299.033 225.707 298.9 225.04C298.78 224.36 298.527 223.807 298.14 223.38C297.767 222.953 297.207 222.74 296.46 222.74C295.713 222.74 295.147 222.953 294.76 223.38C294.387 223.807 294.133 224.36 294 225.04C293.88 225.707 293.82 226.533 293.82 227.52C293.82 228.533 293.88 229.387 294 230.08C294.12 230.76 294.373 231.313 294.76 231.74C295.147 232.153 295.713 232.36 296.46 232.36C297.207 232.36 297.773 232.153 298.16 231.74C298.547 231.313 298.8 230.76 298.92 230.08C299.04 229.387 299.1 228.533 299.1 227.52ZM303.99 227.52C303.99 225.213 304.403 223.407 305.23 222.1C306.07 220.793 307.456 220.14 309.39 220.14C311.323 220.14 312.703 220.793 313.53 222.1C314.37 223.407 314.79 225.213 314.79 227.52C314.79 229.84 314.37 231.66 313.53 232.98C312.703 234.3 311.323 234.96 309.39 234.96C307.456 234.96 306.07 234.3 305.23 232.98C304.403 231.66 303.99 229.84 303.99 227.52ZM312.03 227.52C312.03 226.533 311.963 225.707 311.83 225.04C311.71 224.36 311.456 223.807 311.07 223.38C310.696 222.953 310.136 222.74 309.39 222.74C308.643 222.74 308.076 222.953 307.69 223.38C307.316 223.807 307.063 224.36 306.93 225.04C306.81 225.707 306.75 226.533 306.75 227.52C306.75 228.533 306.81 229.387 306.93 230.08C307.05 230.76 307.303 231.313 307.69 231.74C308.076 232.153 308.643 232.36 309.39 232.36C310.136 232.36 310.703 232.153 311.09 231.74C311.476 231.313 311.73 230.76 311.85 230.08C311.97 229.387 312.03 228.533 312.03 227.52ZM318.479 235.14C317.973 235.14 317.553 234.987 317.219 234.68C316.899 234.36 316.739 233.967 316.739 233.5C316.739 233.033 316.899 232.647 317.219 232.34C317.553 232.02 317.973 231.86 318.479 231.86C318.973 231.86 319.379 232.02 319.699 232.34C320.019 232.647 320.179 233.033 320.179 233.5C320.179 233.967 320.019 234.36 319.699 234.68C319.379 234.987 318.973 235.14 318.479 235.14ZM322.115 227.52C322.115 225.213 322.528 223.407 323.355 222.1C324.195 220.793 325.581 220.14 327.515 220.14C329.448 220.14 330.828 220.793 331.655 222.1C332.495 223.407 332.915 225.213 332.915 227.52C332.915 229.84 332.495 231.66 331.655 232.98C330.828 234.3 329.448 234.96 327.515 234.96C325.581 234.96 324.195 234.3 323.355 232.98C322.528 231.66 322.115 229.84 322.115 227.52ZM330.155 227.52C330.155 226.533 330.088 225.707 329.955 225.04C329.835 224.36 329.581 223.807 329.195 223.38C328.821 222.953 328.261 222.74 327.515 222.74C326.768 222.74 326.201 222.953 325.815 223.38C325.441 223.807 325.188 224.36 325.055 225.04C324.935 225.707 324.875 226.533 324.875 227.52C324.875 228.533 324.935 229.387 325.055 230.08C325.175 230.76 325.428 231.313 325.815 231.74C326.201 232.153 326.768 232.36 327.515 232.36C328.261 232.36 328.828 232.153 329.215 231.74C329.601 231.313 329.855 230.76 329.975 230.08C330.095 229.387 330.155 228.533 330.155 227.52Z" fill="#0050B5"/>
<path d="M338.592 226.2C338.592 225.389 338.827 224.755 339.296 224.296C339.776 223.837 340.389 223.608 341.136 223.608C341.883 223.608 342.491 223.837 342.96 224.296C343.44 224.755 343.68 225.389 343.68 226.2C343.68 227.021 343.44 227.661 342.96 228.12C342.491 228.579 341.883 228.808 341.136 228.808C340.389 228.808 339.776 228.579 339.296 228.12C338.827 227.661 338.592 227.021 338.592 226.2ZM348.864 223.8L342.576 235H340.4L346.672 223.8H348.864ZM341.12 224.952C340.533 224.952 340.24 225.368 340.24 226.2C340.24 227.043 340.533 227.464 341.12 227.464C341.408 227.464 341.632 227.363 341.792 227.16C341.952 226.947 342.032 226.627 342.032 226.2C342.032 225.368 341.728 224.952 341.12 224.952ZM345.616 232.584C345.616 231.763 345.851 231.128 346.32 230.68C346.8 230.221 347.413 229.992 348.16 229.992C348.907 229.992 349.509 230.221 349.968 230.68C350.437 231.128 350.672 231.763 350.672 232.584C350.672 233.405 350.437 234.045 349.968 234.504C349.509 234.963 348.907 235.192 348.16 235.192C347.403 235.192 346.789 234.963 346.32 234.504C345.851 234.045 345.616 233.405 345.616 232.584ZM348.144 231.336C347.536 231.336 347.232 231.752 347.232 232.584C347.232 233.427 347.536 233.848 348.144 233.848C348.741 233.848 349.04 233.427 349.04 232.584C349.04 231.752 348.741 231.336 348.144 231.336Z" fill="#0050B5"/>
<path d="M291.06 253.52C291.06 251.213 291.473 249.407 292.3 248.1C293.14 246.793 294.527 246.14 296.46 246.14C298.393 246.14 299.773 246.793 300.6 248.1C301.44 249.407 301.86 251.213 301.86 253.52C301.86 255.84 301.44 257.66 300.6 258.98C299.773 260.3 298.393 260.96 296.46 260.96C294.527 260.96 293.14 260.3 292.3 258.98C291.473 257.66 291.06 255.84 291.06 253.52ZM299.1 253.52C299.1 252.533 299.033 251.707 298.9 251.04C298.78 250.36 298.527 249.807 298.14 249.38C297.767 248.953 297.207 248.74 296.46 248.74C295.713 248.74 295.147 248.953 294.76 249.38C294.387 249.807 294.133 250.36 294 251.04C293.88 251.707 293.82 252.533 293.82 253.52C293.82 254.533 293.88 255.387 294 256.08C294.12 256.76 294.373 257.313 294.76 257.74C295.147 258.153 295.713 258.36 296.46 258.36C297.207 258.36 297.773 258.153 298.16 257.74C298.547 257.313 298.8 256.76 298.92 256.08C299.04 255.387 299.1 254.533 299.1 253.52ZM303.99 253.52C303.99 251.213 304.403 249.407 305.23 248.1C306.07 246.793 307.456 246.14 309.39 246.14C311.323 246.14 312.703 246.793 313.53 248.1C314.37 249.407 314.79 251.213 314.79 253.52C314.79 255.84 314.37 257.66 313.53 258.98C312.703 260.3 311.323 260.96 309.39 260.96C307.456 260.96 306.07 260.3 305.23 258.98C304.403 257.66 303.99 255.84 303.99 253.52ZM312.03 253.52C312.03 252.533 311.963 251.707 311.83 251.04C311.71 250.36 311.456 249.807 311.07 249.38C310.696 248.953 310.136 248.74 309.39 248.74C308.643 248.74 308.076 248.953 307.69 249.38C307.316 249.807 307.063 250.36 306.93 251.04C306.81 251.707 306.75 252.533 306.75 253.52C306.75 254.533 306.81 255.387 306.93 256.08C307.05 256.76 307.303 257.313 307.69 257.74C308.076 258.153 308.643 258.36 309.39 258.36C310.136 258.36 310.703 258.153 311.09 257.74C311.476 257.313 311.73 256.76 311.85 256.08C311.97 255.387 312.03 254.533 312.03 253.52ZM318.479 261.14C317.973 261.14 317.553 260.987 317.219 260.68C316.899 260.36 316.739 259.967 316.739 259.5C316.739 259.033 316.899 258.647 317.219 258.34C317.553 258.02 317.973 257.86 318.479 257.86C318.973 257.86 319.379 258.02 319.699 258.34C320.019 258.647 320.179 259.033 320.179 259.5C320.179 259.967 320.019 260.36 319.699 260.68C319.379 260.987 318.973 261.14 318.479 261.14ZM322.115 253.52C322.115 251.213 322.528 249.407 323.355 248.1C324.195 246.793 325.581 246.14 327.515 246.14C329.448 246.14 330.828 246.793 331.655 248.1C332.495 249.407 332.915 251.213 332.915 253.52C332.915 255.84 332.495 257.66 331.655 258.98C330.828 260.3 329.448 260.96 327.515 260.96C325.581 260.96 324.195 260.3 323.355 258.98C322.528 257.66 322.115 255.84 322.115 253.52ZM330.155 253.52C330.155 252.533 330.088 251.707 329.955 251.04C329.835 250.36 329.581 249.807 329.195 249.38C328.821 248.953 328.261 248.74 327.515 248.74C326.768 248.74 326.201 248.953 325.815 249.38C325.441 249.807 325.188 250.36 325.055 251.04C324.935 251.707 324.875 252.533 324.875 253.52C324.875 254.533 324.935 255.387 325.055 256.08C325.175 256.76 325.428 257.313 325.815 257.74C326.201 258.153 326.768 258.36 327.515 258.36C328.261 258.36 328.828 258.153 329.215 257.74C329.601 257.313 329.855 256.76 329.975 256.08C330.095 255.387 330.155 254.533 330.155 253.52Z" fill="#0050B5"/>
<path d="M338.592 252.2C338.592 251.389 338.827 250.755 339.296 250.296C339.776 249.837 340.389 249.608 341.136 249.608C341.883 249.608 342.491 249.837 342.96 250.296C343.44 250.755 343.68 251.389 343.68 252.2C343.68 253.021 343.44 253.661 342.96 254.12C342.491 254.579 341.883 254.808 341.136 254.808C340.389 254.808 339.776 254.579 339.296 254.12C338.827 253.661 338.592 253.021 338.592 252.2ZM348.864 249.8L342.576 261H340.4L346.672 249.8H348.864ZM341.12 250.952C340.533 250.952 340.24 251.368 340.24 252.2C340.24 253.043 340.533 253.464 341.12 253.464C341.408 253.464 341.632 253.363 341.792 253.16C341.952 252.947 342.032 252.627 342.032 252.2C342.032 251.368 341.728 250.952 341.12 250.952ZM345.616 258.584C345.616 257.763 345.851 257.128 346.32 256.68C346.8 256.221 347.413 255.992 348.16 255.992C348.907 255.992 349.509 256.221 349.968 256.68C350.437 257.128 350.672 257.763 350.672 258.584C350.672 259.405 350.437 260.045 349.968 260.504C349.509 260.963 348.907 261.192 348.16 261.192C347.403 261.192 346.789 260.963 346.32 260.504C345.851 260.045 345.616 259.405 345.616 258.584ZM348.144 257.336C347.536 257.336 347.232 257.752 347.232 258.584C347.232 259.427 347.536 259.848 348.144 259.848C348.741 259.848 349.04 259.427 349.04 258.584C349.04 257.752 348.741 257.336 348.144 257.336Z" fill="#0050B5"/>
<rect x="150" y="65" width="132" height="14" fill="#0050B5"/>
<rect x="150" y="91" width="112" height="14" fill="#0050B5"/>
<rect x="150" y="117" width="104" height="14" fill="#0050B5"/>
<rect x="150" y="143" width="72" height="14" fill="#0050B5"/>
<rect x="150" y="169" width="61" height="14" fill="#0050B5"/>
<rect x="150" y="195" width="42" height="14" fill="#0050B5"/>
<rect x="150" y="221" width="31" height="14" fill="#0050B5"/>
<rect x="150" y="247" width="14" height="14" fill="#0050B5"/>
</svg>
