<svg width="120" height="120" viewBox="0 0 120 120" fill="none" xmlns="http://www.w3.org/2000/svg">
<g clip-path="url(#clip0_1031_814)">
<path d="M80 104H40V108H80V104Z" stroke="#182346" stroke-width="2" stroke-linecap="round" stroke-linejoin="round"/>
<path d="M76 104H44L46 92H74L76 104Z" stroke="#182346" stroke-width="2" stroke-linecap="round" stroke-linejoin="round"/>
<path d="M60 35.6094C64.4183 35.6094 68 32.0277 68 27.6094C68 23.1911 64.4183 19.6094 60 19.6094C55.5817 19.6094 52 23.1911 52 27.6094C52 32.0277 55.5817 35.6094 60 35.6094Z" stroke="#182346" stroke-width="2" stroke-linecap="round" stroke-linejoin="round"/>
<path d="M60 56V80" stroke="#182346" stroke-width="2" stroke-linecap="round" stroke-linejoin="round"/>
<path d="M48 68L60 80L72 68" stroke="#182346" stroke-width="2" stroke-linecap="round" stroke-linejoin="round"/>
<path d="M74.79 21.8798C74.29 20.6698 75.28 18.4298 76.18 16.2698C74.94 14.5698 73.44 13.0698 71.74 11.8298C69.58 12.7298 67.35 13.7198 66.13 13.2198C64.96 12.7298 64.11 10.4598 63.22 8.28977C62.17 8.11977 61.1 8.00977 60.01 8.00977C58.92 8.00977 57.85 8.11977 56.8 8.28977C55.91 10.4598 55.06 12.7398 53.89 13.2198C52.68 13.7198 50.44 12.7298 48.28 11.8298C46.58 13.0698 45.08 14.5698 43.84 16.2698C44.74 18.4298 45.73 20.6598 45.23 21.8798C44.74 23.0498 42.47 23.8998 40.3 24.7898C40.13 25.8398 40.02 26.9098 40.02 27.9998C40.02 29.0898 40.13 30.1598 40.3 31.2098C42.47 32.0998 44.75 32.9498 45.23 34.1198C45.73 35.3298 44.74 37.5698 43.84 39.7298C45.08 41.4298 46.58 42.9298 48.28 44.1698C50.44 43.2698 52.67 42.2798 53.89 42.7798C55.06 43.2698 55.91 45.5398 56.8 47.7098C57.85 47.8798 58.92 47.9898 60.01 47.9898C61.1 47.9898 62.17 47.8798 63.22 47.7098C64.11 45.5398 64.96 43.2598 66.13 42.7798C67.34 42.2798 69.58 43.2698 71.74 44.1698C73.44 42.9298 74.94 41.4298 76.18 39.7298C75.28 37.5698 74.29 35.3398 74.79 34.1198C75.28 32.9498 77.55 32.0998 79.72 31.2098C79.89 30.1598 80 29.0898 80 27.9998C80 26.9098 79.89 25.8398 79.72 24.7898C77.55 23.8998 75.27 23.0498 74.79 21.8798Z" stroke="#182346" stroke-width="2" stroke-linecap="round" stroke-linejoin="round"/>
<path d="M32 36H20C17.8 36 16 37.8 16 40V88C16 90.2 17.8 92 20 92H100C102.2 92 104 90.2 104 88V40C104 37.8 102.2 36 100 36H88" stroke="#182346" stroke-width="2" stroke-linecap="round" stroke-linejoin="round"/>
</g>
<defs>
<clipPath id="clip0_1031_814">
<rect width="120" height="120" fill="white"/>
</clipPath>
</defs>
</svg>
