<svg width="120" height="120" viewBox="0 0 120 120" fill="none" xmlns="http://www.w3.org/2000/svg">
<g clip-path="url(#clip0_1031_825)">
<path d="M60 67.6094C64.4183 67.6094 68 64.0277 68 59.6094C68 55.1911 64.4183 51.6094 60 51.6094C55.5817 51.6094 52 55.1911 52 59.6094C52 64.0277 55.5817 67.6094 60 67.6094Z" stroke="#182346" stroke-width="2" stroke-linecap="round" stroke-linejoin="round"/>
<path d="M74.79 53.8798C74.29 52.6698 75.28 50.4298 76.18 48.2698C74.94 46.5698 73.44 45.0698 71.74 43.8298C69.58 44.7298 67.35 45.7198 66.13 45.2198C64.96 44.7298 64.11 42.4598 63.22 40.2898C62.17 40.1198 61.1 40.0098 60.01 40.0098C58.92 40.0098 57.85 40.1198 56.8 40.2898C55.91 42.4598 55.06 44.7398 53.89 45.2198C52.68 45.7198 50.44 44.7298 48.28 43.8298C46.58 45.0698 45.08 46.5698 43.84 48.2698C44.74 50.4298 45.73 52.6598 45.23 53.8798C44.74 55.0498 42.47 55.8998 40.3 56.7898C40.13 57.8398 40.02 58.9098 40.02 59.9998C40.02 61.0898 40.13 62.1598 40.3 63.2098C42.47 64.0998 44.75 64.9498 45.23 66.1198C45.73 67.3298 44.74 69.5698 43.84 71.7298C45.08 73.4298 46.58 74.9298 48.28 76.1698C50.44 75.2698 52.67 74.2798 53.89 74.7798C55.06 75.2698 55.91 77.5398 56.8 79.7098C57.85 79.8798 58.92 79.9898 60.01 79.9898C61.1 79.9898 62.17 79.8798 63.22 79.7098C64.11 77.5398 64.96 75.2598 66.13 74.7798C67.34 74.2798 69.58 75.2698 71.74 76.1698C73.44 74.9298 74.94 73.4298 76.18 71.7298C75.28 69.5698 74.29 67.3398 74.79 66.1198C75.28 64.9498 77.55 64.0998 79.72 63.2098C79.89 62.1598 80 61.0898 80 59.9998C80 58.9098 79.89 57.8398 79.72 56.7898C77.55 55.8998 75.27 55.0498 74.79 53.8798Z" stroke="#182346" stroke-width="2" stroke-linecap="round" stroke-linejoin="round"/>
<path d="M100 64V28C100 23.58 96.42 20 92 20H76" stroke="#182346" stroke-width="2" stroke-linecap="round" stroke-linejoin="round"/>
<path d="M64 20H28C23.58 20 20 23.58 20 28V40" stroke="#182346" stroke-width="2" stroke-linecap="round" stroke-linejoin="round"/>
<path d="M20 56V92C20 96.42 23.58 100 28 100H44" stroke="#182346" stroke-width="2" stroke-linecap="round" stroke-linejoin="round"/>
<path d="M56 100H92C96.42 100 100 96.42 100 92V80" stroke="#182346" stroke-width="2" stroke-linecap="round" stroke-linejoin="round"/>
<path d="M56 12L64 20L56 28" stroke="#182346" stroke-width="2" stroke-linecap="round" stroke-linejoin="round"/>
<path d="M64 92L56 100L64 108" stroke="#182346" stroke-width="2" stroke-linecap="round" stroke-linejoin="round"/>
<path d="M108 56L100 64L92 56" stroke="#182346" stroke-width="2" stroke-linecap="round" stroke-linejoin="round"/>
<path d="M28 64L20 56L12 64" stroke="#182346" stroke-width="2" stroke-linecap="round" stroke-linejoin="round"/>
</g>
<defs>
<clipPath id="clip0_1031_825">
<rect width="120" height="120" fill="white"/>
</clipPath>
</defs>
</svg>
