<svg xmlns="http://www.w3.org/2000/svg" width="426" height="205" viewBox="0 0 426 205">
  <g id="グループ_114" data-name="グループ 114" transform="translate(-740 -948)">
    <rect id="_29335928_l" data-name="29335928_l" width="426" height="205" transform="translate(740 948)" fill="#f8f9fa"/>
    <g id="レイヤー_1" data-name="レイヤー 1" transform="translate(867 1003)">
      <rect id="長方形_794" data-name="長方形 794" width="5.498" height="0.402" transform="translate(0.181 79.286)" fill="#221815"/>
      <path id="パス_3" data-name="パス 3" d="M3.587,334.759,3,333.69H2.51l.588,1.069Z" transform="translate(-1.842 -244.938)" fill="#221815"/>
      <path id="パス_4" data-name="パス 4" d="M2.437,339.753l-.588-.963H1.36l.588.963Z" transform="translate(-0.998 -248.682)" fill="#221815"/>
      <path id="パス_5" data-name="パス 5" d="M11.772,338.119l-.593-1.378h-.489l.436,1.013h-2.6l.8-1.721h2.149v-.372H9.971v-1.053h1.245v-.372H9.971V333.18H9.554v1.056H8.394v.372h1.16v1.053H8.125v.372H8.8l-.931,2.085h3.9Z" transform="translate(-5.777 -244.564)" fill="#221815"/>
      <path id="パス_6" data-name="パス 6" d="M.56,345.9h.489l1.338-2.12H1.9Z" transform="translate(-0.411 -252.345)" fill="#221815"/>
      <path id="パス_7" data-name="パス 7" d="M32.246,338.127l-2.732-3.2,1.215-1.782h-.564l-3.4,4.987h.564l1.915-2.814,2.431,2.814Z" transform="translate(-19.65 -244.535)" fill="#221815"/>
      <path id="パス_8" data-name="パス 8" d="M30.53,315.494h2.117v1.944h-.825v.367h1.242v-2.311h.707v-.364h-.707v-.449h-.418v.449H30.53Z" transform="translate(-22.41 -230.984)" fill="#221815"/>
      <path id="パス_9" data-name="パス 9" d="M26.74,311.22v5H32v-5Zm4.838,4.631h-4.42v-4.293h4.42Z" transform="translate(-19.628 -228.445)" fill="#221815"/>
      <path id="パス_10" data-name="パス 10" d="M32.029,319.42H31.54l.537,1.181h.489Z" transform="translate(-23.151 -234.464)" fill="#221815"/>
      <path id="パス_11" data-name="パス 11" d="M28.629,290.972h-.367V288.86H27.35v-.54h-.42v.54h-.912v2.112H25.65v.367h.367v2.011h.41v-2.011h.521v1.285h.38v-1.285h.521v2.011h.41v-2.011h.367v-.367Zm-2.2-1.806H27.85v1.806H26.427Z" transform="translate(-18.828 -211.635)" fill="#221815"/>
      <path id="パス_12" data-name="パス 12" d="M30.165,292.94H29.75l.388,1.043h.415Z" transform="translate(-21.837 -215.027)" fill="#221815"/>
      <path id="パス_13" data-name="パス 13" d="M39.812,299.313l-1.106-1.285.973-1.141v-.367H37.21v.367l1,1.146-1.09,1.277h.489l.848-.995.864.992h.489Zm-2.088-2.426h1.468l-.731.856Z" transform="translate(-27.247 -217.654)" fill="#221815"/>
      <path id="パス_14" data-name="パス 14" d="M38.241,289.107h.907v1.237h.8v-.367h-.412V288.74H37.943l-.463,1.6h.4Z" transform="translate(-27.511 -211.944)" fill="#221815"/>
      <path id="パス_15" data-name="パス 15" d="M71.207,288.74H61.06v16.4h.008v.457H71.614V288.74h-.4Zm-.535,6.588H62v-5.7h8.671Zm-8.671.9h8.671V304.7H62Z" transform="translate(-44.82 -211.944)" fill="#221815"/>
      <path id="パス_16" data-name="パス 16" d="M121.488,303.568l1.12,0-5.67-11.825h5.053v-.973H116.6V288.74h-.987v2.032h-5.365v.973h5.029l-5.67,11.825,1.12,0,4.886-10.189v9.309h-3.567v.891h3.567V305.7h.987v-2.125h3.567v-.891H116.6v-9.3Z" transform="translate(-80.457 -211.944)" fill="#221815"/>
      <path id="パス_17" data-name="パス 17" d="M208.626,319.83l-.266,1.019H216.3l.263-1.019Z" transform="translate(-152.942 -234.765)" fill="#221815"/>
      <path id="パス_18" data-name="パス 18" d="M257.624,297.7l-7.168-2.349V288.74l-1.186.215V305.5l1.186.2V296.48l6.641,2.04Z" transform="translate(-182.972 -211.944)" fill="#221815"/>
      <path id="パス_19" data-name="パス 19" d="M291.355,288.74h-.92v2.21H288.11v.875h5.266v-.875h-2.021Z" transform="translate(-211.481 -211.944)" fill="#221815"/>
      <rect id="長方形_795" data-name="長方形 795" width="4.016" height="0.851" transform="translate(77.405 82.044)" fill="#221815"/>
      <rect id="長方形_796" data-name="長方形 796" width="4.016" height="0.854" transform="translate(77.405 85.116)" fill="#221815"/>
      <path id="パス_20" data-name="パス 20" d="M294.229,330.68H289.45v4.865h0v.838h4.779v-5.647h0v-.053Zm-3.838.838h2.915v4.027h-2.915Z" transform="translate(-212.465 -242.729)" fill="#221815"/>
      <path id="パス_21" data-name="パス 21" d="M317.759,291.27h-7.9v.894h3.423v8.761h-3.122v.894h3.122v5.742h1.053v-5.742h3.122v-.894h-3.122v-8.761h3.423Z" transform="translate(-227.446 -213.801)" fill="#221815"/>
      <path id="パス_22" data-name="パス 22" d="M312.9,301.95H311.75l.561,4.9h1.152Z" transform="translate(-228.834 -221.64)" fill="#221815"/>
      <path id="パス_23" data-name="パス 23" d="M332.389,306.854l.561-4.9H331.8l-.559,4.9Z" transform="translate(-243.14 -221.64)" fill="#221815"/>
      <path id="パス_24" data-name="パス 24" d="M165.917,290.96l-.277,1.045H175.5l-3.279,6.6,1.045.535,3.553-7.136V290.96Z" transform="translate(-121.585 -213.573)" fill="#221815"/>
      <path id="パス_25" data-name="パス 25" d="M175.383,312.631l-2.8,5.014,1.184.213,2.8-5.224V305.71l-1.184.322Z" transform="translate(-126.679 -224.4)" fill="#221815"/>
      <path id="パス_26" data-name="パス 26" d="M599,288.78h-1.157l-6.508,8.471h1.287l5.8-7.7,5.764,7.7h1.29Z" transform="translate(-434.054 -211.973)" fill="#221815"/>
      <rect id="長方形_797" data-name="長方形 797" width="5.756" height="0.947" transform="translate(161.412 83.339)" fill="#221815"/>
      <path id="パス_27" data-name="パス 27" d="M606.771,328.416l1.013,2.266H600.3l2.287-5.628h5.819v-.9h-9.181v.9h2.245l-2.66,6.532h10.453l-1.418-3.17Z" transform="translate(-439.544 -237.936)" fill="#221815"/>
      <path id="パス_28" data-name="パス 28" d="M377.121,292.176v-.9H368.48v.9H371v3.958H368.48v11.325h8.641V296.134h-2.452v-3.958Zm-7.721,4.859H371v9.511h-1.6Zm2.524,0h1.825v9.511h-1.825Zm4.277,9.511h-1.532v-9.511H376.2Zm-2.452-10.413h-1.825v-3.958h1.825Z" transform="translate(-270.475 -213.808)" fill="#221815"/>
      <path id="パス_29" data-name="パス 29" d="M350.566,288.78l-3.9,9.306h1.149l1.386-3.226v10.873l1.075,0V292.36l1.54-3.58Z" transform="translate(-254.466 -211.973)" fill="#221815"/>
      <path id="パス_30" data-name="パス 30" d="M439.212,306.732l-3.386-8.195h3.12v-.9h-3.641v-1.383h3.186V290.29h-7.3v5.968h3.061v1.383h-3.641v.9h3.122l-3.386,8.195h.987l2.92-7.24v7.24h1.053v-7.25l2.92,7.25h.987Zm-7.1-15.549h5.452v4.184h-5.452Z" transform="translate(-315.89 -213.081)" fill="#221815"/>
      <path id="パス_31" data-name="パス 31" d="M414.316,288.78l-3.9,9.306h1.149l1.4-3.25v10.9l1.056,0V292.384l1.548-3.6Z" transform="translate(-301.26 -211.973)" fill="#221815"/>
      <path id="パス_32" data-name="パス 32" d="M12.48,315.684v-3.154h1.032v-.372H12.48V311h-.42v1.157H11.027v.372h1.032v3.154H10.82v.372h2.9v-.372Z" transform="translate(-7.942 -228.283)" fill="#221815"/>
      <path id="パス_33" data-name="パス 33" d="M3.048,315.019l-1.162-1.793.8-1.157v-.375H1.755v-.7h-.42v.7H.324v.375H2.2L0,315.246H.489l.846-1.221v1.995h.42v-2.213l.8,1.213Z" transform="translate(0 -228.276)" fill="#221815"/>
      <path id="パス_34" data-name="パス 34" d="M535.463,292.666v-.907h-1.755V288.78H532.6v2.979H530.84v.907H532.6v13.067h1.109V292.666Z" transform="translate(-389.652 -211.973)" fill="#221815"/>
      <path id="パス_35" data-name="パス 35" d="M548.124,318.42h-1.008v1.1h-.886v.976h.886l0,6.881h1.011V320.5h2.138v2.83l-1.524,4.051,1.011,0,1.524-4.053v-3.806h-3.149Z" transform="translate(-400.949 -233.73)" fill="#221815"/>
      <path id="パス_36" data-name="パス 36" d="M554.673,296.022h1.011v-5.011h3.186v1.838l-1.747,3.107,1,0,1.747-3.109h0v-2.814h-4.189V288.78h-1.011v1.255h-2v.976h2Z" transform="translate(-405.676 -211.973)" fill="#221815"/>
      <path id="パス_37" data-name="パス 37" d="M569.3,319.524v-1.1h-1.019v1.1H567.4v.976h.883v6.881H569.3V320.5h2.136v2.83l-1.524,4.051,1,0,1.524-4.053v-3.806Z" transform="translate(-416.488 -233.73)" fill="#221815"/>
      <path id="パス_38" data-name="パス 38" d="M499.329,309.972h-2.918l2.091-4.261v-.891h-6.734v.891H497.4l-2.168,4.261H490.72v.894H495.2v3.192l-1.6,3.341h1.165l.348-.729v0l1.245-2.6v-3.208h2.974Z" transform="translate(-360.203 -223.747)" fill="#221815"/>
      <path id="パス_39" data-name="パス 39" d="M477.19,290.972h7.676V290H477.7l.673-1.271h-1.255L476.445,290H472.3v.971h3.628l-4.189,7.9h1.282l1.1-2.1v8.921H475.2V294.738Z" transform="translate(-346.271 -211.936)" fill="#221815"/>
      <rect id="長方形_798" data-name="長方形 798" width="44.683" height="48.202" transform="translate(85.627)" fill="#e60012"/>
      <path id="パス_40" data-name="パス 40" d="M344.414,6.9a22.26,22.26,0,1,0,22.259,22.264A22.268,22.268,0,0,0,344.414,6.9" transform="translate(-236.467 -5.065)" fill="#fff"/>
      <path id="パス_41" data-name="パス 41" d="M176.814,6.93a22.263,22.263,0,1,0,22.264,22.259A22.255,22.255,0,0,0,176.814,6.93" transform="translate(-113.452 -5.087)" fill="#e60012"/>
      <path id="パス_42" data-name="パス 42" d="M245.693,200.33a3.005,3.005,0,0,0-3,2.942h0v5.944h.777V206.29h4.452v2.926h.777v-5.883a3.006,3.006,0,0,0-3-3m2.226,3.064v2.122h-4.452v-2.184a2.226,2.226,0,1,1,4.452,0Z" transform="translate(-178.142 -147.048)" fill="#e60012"/>
      <path id="パス_43" data-name="パス 43" d="M384.613,203.333a3,3,0,0,0-3-3h-.061a3.012,3.012,0,0,0-2.944,3v.061h0v2.165h0v.777h0v2.883h.774v-2.883h2.229a3,3,0,0,0,2.995-2.942h0v-.061Zm-3,2.226h-2.229v-2.226a2.226,2.226,0,1,1,2.229,2.226" transform="translate(-277.911 -147.048)" fill="#e60012"/>
      <path id="パス_44" data-name="パス 44" d="M313.755,206.211h.005a3.039,3.039,0,0,0,1.878-5.426,3.024,3.024,0,0,0-4.928,2.269v.059h.777v-.053a2.267,2.267,0,1,1,2.266,2.375H313.7a3.036,3.036,0,0,0-2.984,2.9v.721H316.8v-.777h-5.3a2.277,2.277,0,0,1,2.263-2.061" transform="translate(-228.07 -146.887)" fill="#e60012"/>
      <path id="パス_45" data-name="パス 45" d="M178.566,200.33v6.213a2.225,2.225,0,1,1-4.45,0v-.061h-.777v.061a3,3,0,1,0,6.006,0V200.33h-.777Z" transform="translate(-127.237 -147.048)" fill="#e60012"/>
      <path id="パス_46" data-name="パス 46" d="M445.16,200.33a3.006,3.006,0,0,0-3,3v5.883h.777v-2.883h4.45v2.883h.777v-5.883a3.006,3.006,0,0,0-3-3m2.226,3.064h0v2.165h-4.45v-2.226a2.225,2.225,0,1,1,4.45,0Z" transform="translate(-324.558 -147.048)" fill="#e60012"/>
    </g>
  </g>
</svg>
