<svg xmlns="http://www.w3.org/2000/svg" width="18.791" height="16.358" viewBox="0 0 18.791 16.358">
  <path id="heart-svgrepo-com" d="M7.99,16.848l.406-.515ZM10.646,5.127l-.472.455a.656.656,0,0,0,.945,0ZM13.3,16.848l.406.515ZM8.4,16.333a29.3,29.3,0,0,1-3.922-3.358,6.819,6.819,0,0,1-1.913-4.67H1.25a8.124,8.124,0,0,0,2.243,5.54,30.337,30.337,0,0,0,4.091,3.517ZM2.561,8.305A4.49,4.49,0,0,1,5.073,4.186c1.409-.644,3.3-.473,5.1,1.4l.945-.909C8.984,2.455,6.506,2.089,4.528,2.994A5.8,5.8,0,0,0,1.25,8.305Zm5.023,9.057A12.889,12.889,0,0,0,9,18.376a3.3,3.3,0,0,0,1.646.516V17.581a2.019,2.019,0,0,1-.984-.337A11.716,11.716,0,0,1,8.4,16.333Zm6.123,0A30.339,30.339,0,0,0,17.8,13.845a8.124,8.124,0,0,0,2.243-5.54H18.73a6.819,6.819,0,0,1-1.913,4.67A29.307,29.307,0,0,1,12.9,16.333Zm6.334-9.057a5.8,5.8,0,0,0-3.278-5.312c-1.978-.9-4.455-.539-6.59,1.679l.945.909c1.8-1.869,3.691-2.039,5.1-1.4A4.49,4.49,0,0,1,18.73,8.305ZM12.9,16.333a11.722,11.722,0,0,1-1.265.912,2.019,2.019,0,0,1-.984.337v1.311a3.3,3.3,0,0,0,1.646-.516,12.892,12.892,0,0,0,1.415-1.014Z" transform="translate(-1.25 -2.534)" fill="#dd4344"/>
</svg>
