<svg id="megaphone-6-svgrepo-com" xmlns="http://www.w3.org/2000/svg" width="17.506" height="15.053" viewBox="0 0 17.506 15.053">
  <path id="パス_19" data-name="パス 19" d="M.382,38.938A.711.711,0,0,1,.7,38.861a.694.694,0,0,1,.411.134l1.861,1.344,13.614-4.429a.7.7,0,0,1,.919.668V50.226a.7.7,0,0,1-.7.7.7.7,0,0,1-.217-.034L2.975,46.465,1.113,47.808a.692.692,0,0,1-.411.134.711.711,0,0,1-.32-.077A.7.7,0,0,1,0,47.24V39.563A.7.7,0,0,1,.382,38.938ZM1.4,45.867l1.037-.749a.7.7,0,0,1,.628-.1L16.1,49.259V37.543L3.07,41.783a.688.688,0,0,1-.218.035.7.7,0,0,1-.411-.133L1.4,40.936Z" transform="translate(0 -35.875)" fill="#fff"/>
</svg>
