<svg id="グループ_77" data-name="グループ 77" xmlns="http://www.w3.org/2000/svg" width="18.592" height="18.592" viewBox="0 0 18.592 18.592">
  <path id="パス_16" data-name="パス 16" d="M0,138.24a.519.519,0,0,0,.521.521H13.113l-2.7,2.7a.523.523,0,0,0,.367.892.509.509,0,0,0,.367-.154l3.591-3.591a.52.52,0,0,0,0-.738l-3.591-3.591a.522.522,0,0,0-.738.738l2.7,2.7H.521A.525.525,0,0,0,0,138.24Z" transform="translate(0 -128.946)" fill="#dd4344"/>
  <path id="パス_17" data-name="パス 17" d="M14.766,0H3.823A3.827,3.827,0,0,0,0,3.823V6.07a.521.521,0,0,0,1.043,0V3.823a2.783,2.783,0,0,1,2.78-2.78H14.77a2.783,2.783,0,0,1,2.78,2.78V14.77a2.783,2.783,0,0,1-2.78,2.78H3.823a2.783,2.783,0,0,1-2.78-2.78v-2.22a.521.521,0,0,0-1.043,0v2.22a3.827,3.827,0,0,0,3.823,3.823H14.77a3.827,3.827,0,0,0,3.823-3.823V3.823A3.832,3.832,0,0,0,14.766,0Z" fill="#dd4344"/>
</svg>
