<svg width="131" height="40" viewBox="0 0 131 40" fill="none" xmlns="http://www.w3.org/2000/svg">
<path d="M33.7017 25.7736C35.0913 26.4034 36.6009 26.7233 38.1206 26.7133C40.6699 26.7133 42.1496 25.7336 42.1496 24.264C42.1496 22.7943 41.0698 22.1045 38.5305 21.4147C35.3812 20.5349 33.5017 19.3152 33.5017 17.2957C33.5017 15.0463 35.9811 13.3767 39.7202 13.3767C41.1598 13.3367 42.5994 13.5766 43.9491 14.0865L43.2393 15.6261C42.0896 15.1462 40.8499 14.9063 39.6102 14.9363C36.9808 14.9363 35.9911 16.116 35.9911 17.0957C35.9911 18.4454 37.1608 19.1052 39.8201 19.8751C43.0593 20.8448 44.6989 22.0345 44.6989 24.124C44.6989 26.2135 42.5395 28.2929 38.0006 28.2929C36.311 28.3129 34.6414 27.983 33.0818 27.3432L33.7217 25.7836L33.7017 25.7736Z" fill="#182346"/>
<path d="M59.1552 21.5147H51.707V26.7334H60.035V28.273H49.1977V13.8566H59.6151V15.4263H51.707V19.9851H59.1552V21.5147Z" fill="#182346"/>
<path d="M64.4038 14.0466C65.9834 13.8366 67.573 13.7366 69.1726 13.7566C71.832 13.7566 73.5715 14.1365 74.7612 14.9463C75.701 15.5362 76.2709 16.5759 76.2709 17.6957C76.2709 19.5752 74.6513 20.8449 72.6518 21.3447V21.4047C74.0514 21.7946 75.1311 22.9044 75.4711 24.324C75.831 25.6837 76.3208 27.0133 76.9307 28.283H74.3713C73.8115 27.2033 73.3816 26.0436 73.1216 24.8539C72.5418 22.8644 71.4921 22.1145 69.2326 22.0546H66.8932V28.303H64.4038V14.0466ZM66.8932 20.6049H69.4326C72.0819 20.6049 73.7515 19.5252 73.7515 17.8656C73.7515 15.9961 71.9619 15.1863 69.3326 15.1863C68.5128 15.1763 67.693 15.2263 66.8832 15.3462V20.5949L66.8932 20.6049Z" fill="#182346"/>
<path d="M84.1491 23.7742L82.1396 28.283H79.5802L86.1186 13.8566H89.1278L95.6862 28.283H93.0268L90.9774 23.7742H84.1591H84.1491ZM90.4675 22.3345L88.548 18.1756C88.1581 17.2358 87.8681 16.386 87.5882 15.5462H87.5582C87.2983 16.376 86.9883 17.2758 86.6184 18.1556L84.7389 22.3345H90.4775H90.4675Z" fill="#182346"/>
<path d="M99.6352 13.8566H102.125V20.8149H102.215C102.734 20.255 103.294 19.7352 103.724 19.2753L109.603 13.8666H112.682L105.724 19.9951L113.222 28.293H110.243L103.944 21.2148L102.085 22.7944V28.293H99.5952L99.6352 13.8466V13.8566Z" fill="#182346"/>
<path d="M118.74 13.6167V22.1746C118.74 25.4138 120.65 26.7534 123.229 26.7534C126.049 26.7534 127.908 25.3338 127.908 22.1746V13.6167H130.417V22.0446C130.417 26.4835 127.308 28.283 123.129 28.283C119.19 28.283 116.231 26.6035 116.231 22.1246V13.6167H118.74Z" fill="#182346"/>
<path d="M5.32867 0H23.994C23.994 0 17.7656 5.32867 17.7656 11.5571C17.7656 17.7856 23.994 22.2244 23.994 28.4429C23.994 34.6613 18.6653 40 18.6653 40H0C0 40 6.22844 34.6713 6.22844 28.4429C6.22844 22.2144 0 17.7656 0 11.5571C0.129968 7.13822 2.04949 2.96926 5.32867 0Z" fill="#182346"/>
</svg>
