<svg id="megaphone-6-svgrepo-com" xmlns="http://www.w3.org/2000/svg" width="20.816" height="17.899" viewBox="0 0 20.816 17.899">
  <path id="パス_19" data-name="パス 19" d="M.455,39.517a.845.845,0,0,1,.38-.091.825.825,0,0,1,.489.159l2.213,1.6,16.188-5.266a.835.835,0,0,1,1.093.794V52.94a.833.833,0,0,1-.835.834.83.83,0,0,1-.258-.041L3.537,48.468l-2.213,1.6a.822.822,0,0,1-.489.159.846.846,0,0,1-.381-.091A.832.832,0,0,1,0,49.389V40.261A.833.833,0,0,1,.455,39.517Zm1.215,8.239L2.9,46.866a.832.832,0,0,1,.747-.117l15.5,5.041V37.859L3.65,42.9a.819.819,0,0,1-.259.041.828.828,0,0,1-.489-.158l-1.233-.891Z" transform="translate(0 -35.875)" fill="#e21c43"/>
</svg>
