<svg width="1200" height="892" viewBox="0 0 1200 892" fill="none" xmlns="http://www.w3.org/2000/svg">
<line x1="600.5" y1="-2.18557e-08" x2="600.5" y2="892" stroke="#C2C9D2" stroke-dasharray="2 2"/>
<line y1="429.5" x2="1200" y2="429.5" stroke="#C2C9D2" stroke-dasharray="2 2"/>
<circle cx="600" cy="430" r="120" fill="white" stroke="#C2C9D2" stroke-dasharray="2 2"/>
<path d="M569.401 484.363C570.3 484.77 571.277 484.977 572.26 484.971C573.91 484.971 574.868 484.337 574.868 483.386C574.868 482.435 574.169 481.988 572.526 481.542C570.488 480.973 569.272 480.183 569.272 478.877C569.272 477.421 570.876 476.341 573.296 476.341C574.227 476.315 575.159 476.47 576.032 476.8L575.573 477.796C574.829 477.486 574.027 477.33 573.224 477.35C571.523 477.35 570.883 478.113 570.883 478.747C570.883 479.621 571.639 480.048 573.36 480.546C575.456 481.173 576.517 481.943 576.517 483.295C576.517 484.647 575.12 485.993 572.183 485.993C571.09 486.006 570.009 485.792 569 485.378L569.414 484.369L569.401 484.363Z" fill="#182346"/>
<path d="M585.871 481.606H581.051V484.983H586.44V485.979H579.428V476.65H586.169V477.666H581.051V480.616H585.871V481.606Z" fill="#182346"/>
<path d="M589.267 476.773C590.289 476.637 591.318 476.573 592.353 476.586C594.074 476.586 595.199 476.831 595.969 477.355C596.577 477.737 596.946 478.41 596.946 479.134C596.946 480.351 595.898 481.172 594.604 481.496V481.535C595.51 481.787 596.208 482.505 596.428 483.424C596.661 484.303 596.978 485.164 597.373 485.985H595.717C595.354 485.287 595.076 484.536 594.908 483.766C594.533 482.479 593.854 481.994 592.392 481.955H590.878V485.998H589.267V476.773ZM590.878 481.017H592.521C594.235 481.017 595.316 480.318 595.316 479.244C595.316 478.035 594.158 477.511 592.456 477.511C591.926 477.504 591.395 477.537 590.871 477.614V481.011L590.878 481.017Z" fill="#182346"/>
<path d="M602.046 483.068L600.746 485.985H599.089L603.32 476.65H605.268L609.511 485.985H607.791L606.464 483.068H602.052H602.046ZM606.134 482.136L604.892 479.445C604.64 478.837 604.452 478.287 604.271 477.744H604.252C604.084 478.281 603.883 478.863 603.644 479.432L602.428 482.136H606.141H606.134Z" fill="#182346"/>
<path d="M612.066 476.651H613.677V481.154H613.735C614.072 480.791 614.434 480.455 614.712 480.157L618.516 476.657H620.509L616.006 480.623L620.858 485.993H618.93L614.855 481.412L613.651 482.434V485.993H612.041L612.066 476.645V476.651Z" fill="#182346"/>
<path d="M624.428 476.496V482.034C624.428 484.13 625.664 484.997 627.333 484.997C629.157 484.997 630.361 484.078 630.361 482.034V476.496H631.984V481.95C631.984 484.822 629.973 485.986 627.268 485.986C624.72 485.986 622.805 484.9 622.805 482.001V476.496H624.428Z" fill="#182346"/>
<path d="M584.978 374H630.828C630.828 374 615.528 387.163 615.528 402.549C615.528 417.935 630.828 428.9 630.828 444.261C630.828 459.622 617.739 472.81 617.739 472.81H571.889C571.889 472.81 587.188 459.647 587.188 444.261C587.188 428.875 571.889 417.886 571.889 402.549C572.208 391.633 576.923 381.335 584.978 374Z" fill="#182346"/>
</svg>
