<svg width="242" height="242" viewBox="0 0 242 242" fill="none" xmlns="http://www.w3.org/2000/svg">
<circle cx="121" cy="121" r="120" fill="white" stroke="#C2C9D2" stroke-dasharray="2 2"/>
<path d="M90.4011 175.363C91.3003 175.77 92.2772 175.977 93.2605 175.971C94.9101 175.971 95.8676 175.337 95.8676 174.386C95.8676 173.435 95.1689 172.988 93.5257 172.542C91.4879 171.973 90.2717 171.183 90.2717 169.877C90.2717 168.421 91.8761 167.341 94.2956 167.341C95.2271 167.315 96.1587 167.47 97.032 167.8L96.5727 168.796C95.8288 168.486 95.0266 168.33 94.2244 168.35C92.523 168.35 91.8825 169.113 91.8825 169.747C91.8825 170.621 92.6394 171.048 94.3603 171.546C96.4563 172.173 97.5172 172.943 97.5172 174.295C97.5172 175.647 96.1199 176.993 93.1829 176.993C92.0896 177.006 91.0092 176.792 90 176.378L90.414 175.369L90.4011 175.363Z" fill="#182346"/>
<path d="M106.871 172.606H102.051V175.983H107.44V176.979H100.428V167.65H107.169V168.666H102.051V171.616H106.871V172.606Z" fill="#182346"/>
<path d="M110.267 167.773C111.289 167.637 112.318 167.573 113.353 167.586C115.074 167.586 116.199 167.831 116.969 168.355C117.577 168.737 117.946 169.41 117.946 170.134C117.946 171.351 116.898 172.172 115.604 172.496V172.535C116.51 172.787 117.208 173.505 117.428 174.424C117.661 175.303 117.978 176.164 118.373 176.985H116.717C116.354 176.287 116.076 175.536 115.908 174.766C115.533 173.479 114.854 172.994 113.392 172.955H111.878V176.998H110.267V167.773ZM111.878 172.017H113.521C115.235 172.017 116.316 171.318 116.316 170.244C116.316 169.035 115.158 168.511 113.456 168.511C112.926 168.504 112.395 168.537 111.871 168.614V172.011L111.878 172.017Z" fill="#182346"/>
<path d="M123.046 174.068L121.746 176.985H120.089L124.32 167.65H126.268L130.511 176.985H128.791L127.464 174.068H123.052H123.046ZM127.134 173.136L125.892 170.445C125.64 169.837 125.452 169.287 125.271 168.744H125.252C125.084 169.281 124.883 169.863 124.644 170.432L123.428 173.136H127.141H127.134Z" fill="#182346"/>
<path d="M133.066 167.651H134.677V172.154H134.735C135.072 171.791 135.434 171.455 135.712 171.157L139.516 167.657H141.509L137.006 171.623L141.858 176.993H139.93L135.855 172.412L134.651 173.434V176.993H133.041L133.066 167.645V167.651Z" fill="#182346"/>
<path d="M145.428 167.496V173.034C145.428 175.13 146.664 175.997 148.333 175.997C150.157 175.997 151.361 175.078 151.361 173.034V167.496H152.984V172.95C152.984 175.822 150.973 176.986 148.268 176.986C145.72 176.986 143.805 175.9 143.805 173.001V167.496H145.428Z" fill="#182346"/>
<path d="M105.978 65H151.828C151.828 65 136.528 78.1632 136.528 93.5491C136.528 108.935 151.828 119.9 151.828 135.261C151.828 150.622 138.739 163.81 138.739 163.81H92.8886C92.8886 163.81 108.188 150.647 108.188 135.261C108.188 119.875 92.8886 108.886 92.8886 93.5491C93.2078 82.6332 97.923 72.3348 105.978 65Z" fill="#182346"/>
</svg>
