<svg width="576" height="202" viewBox="0 0 576 202" fill="none" xmlns="http://www.w3.org/2000/svg">
<rect width="576" height="202" fill="#ECF3F5"/>
<path d="M39.448 30.772C39.406 31.094 39.378 31.682 39.364 32.018C39.35 32.452 39.336 32.872 39.308 33.278H41.94C42.29 33.278 42.654 33.236 42.99 33.18L44.208 33.768C44.166 33.992 44.11 34.356 44.11 34.51C44.054 36.022 43.886 39.928 43.284 41.356C42.976 42.07 42.444 42.434 41.478 42.434C40.68 42.434 39.84 42.378 39.168 42.322L38.944 40.446C39.63 40.572 40.358 40.642 40.904 40.642C41.352 40.642 41.548 40.488 41.702 40.152C42.108 39.27 42.29 36.47 42.29 34.958H39.14C38.622 38.654 37.292 40.852 34.786 42.63L33.162 41.314C33.736 40.992 34.436 40.516 34.996 39.942C36.298 38.654 36.998 37.086 37.306 34.958H35.458C34.982 34.958 34.212 34.958 33.61 35.014V33.18C34.198 33.236 34.926 33.278 35.458 33.278H37.46C37.474 32.886 37.488 32.48 37.488 32.06C37.488 31.752 37.446 31.108 37.39 30.772H39.448ZM57.242 31.136C57.214 31.528 57.186 31.976 57.186 32.536V35.308C57.186 38.318 56.598 39.62 55.562 40.768C54.638 41.776 53.182 42.462 52.16 42.784L50.704 41.244C52.09 40.922 53.224 40.39 54.064 39.48C55.03 38.43 55.212 37.38 55.212 35.196V32.536C55.212 31.976 55.184 31.528 55.128 31.136H57.242ZM50.746 31.248C50.718 31.57 50.704 31.878 50.704 32.326V37.058C50.704 37.408 50.718 37.954 50.746 38.276H48.716C48.73 38.01 48.786 37.464 48.786 37.044V32.326C48.786 32.06 48.772 31.57 48.73 31.248H50.746ZM65.096 32.004C65.012 31.598 64.914 31.276 64.816 30.94L66.79 30.618C66.832 30.898 66.874 31.374 66.944 31.71C66.972 31.906 67.056 32.368 67.168 32.998C68.358 32.802 69.422 32.634 69.926 32.536C70.374 32.452 70.906 32.34 71.242 32.242L71.578 34.076C71.27 34.104 70.71 34.188 70.29 34.244C69.716 34.342 68.652 34.51 67.49 34.692C67.63 35.392 67.77 36.162 67.924 36.932C69.184 36.722 70.332 36.526 70.962 36.4C71.508 36.288 72.026 36.176 72.39 36.064L72.768 37.912C72.39 37.94 71.816 38.038 71.284 38.122C70.612 38.234 69.478 38.416 68.246 38.612C68.47 39.76 68.666 40.698 68.75 41.132C68.848 41.552 68.988 42.056 69.114 42.504L67.098 42.868C67.028 42.35 66.986 41.86 66.902 41.454C66.832 41.048 66.65 40.082 66.426 38.906C64.998 39.144 63.682 39.368 63.08 39.48C62.478 39.592 62.002 39.69 61.68 39.774L61.288 37.898C61.666 37.884 62.296 37.8 62.744 37.744C63.388 37.66 64.69 37.45 66.104 37.226C65.964 36.47 65.81 35.686 65.684 34.972C64.452 35.168 63.374 35.35 62.94 35.42C62.492 35.518 62.128 35.588 61.652 35.714L61.274 33.782C61.722 33.768 62.142 33.74 62.576 33.684C63.066 33.628 64.144 33.474 65.348 33.278C65.236 32.69 65.138 32.228 65.096 32.004ZM84.626 35.322C84.556 35.504 84.514 35.77 84.486 35.91C84.374 36.736 84.01 39.144 83.8 40.474H84.696C85.06 40.474 85.704 40.46 86.068 40.418V42.224C85.788 42.21 85.102 42.182 84.724 42.182H77.36C76.856 42.182 76.506 42.196 75.974 42.224V40.404C76.352 40.446 76.87 40.474 77.36 40.474H81.896C82.092 39.284 82.4 37.296 82.442 36.512H78.662C78.214 36.512 77.668 36.554 77.262 36.582V34.734C77.626 34.776 78.27 34.818 78.648 34.818H82.232C82.526 34.818 83.1 34.762 83.268 34.664L84.626 35.322ZM91.122 31.262C91.514 31.318 92.102 31.332 92.578 31.332H97.968C98.402 31.332 99.088 31.318 99.48 31.262V33.068C99.102 33.04 98.444 33.026 97.94 33.026H92.578C92.13 33.026 91.528 33.04 91.122 33.068V31.262ZM100.656 35.322C100.558 35.504 100.446 35.756 100.39 35.91C99.97 37.268 99.368 38.626 98.318 39.788C96.904 41.356 95.112 42.308 93.32 42.812L91.934 41.23C94.034 40.796 95.714 39.872 96.778 38.78C97.534 38.01 97.968 37.142 98.22 36.358H91.458C91.122 36.358 90.422 36.372 89.834 36.428V34.608C90.422 34.65 91.024 34.692 91.458 34.692H98.388C98.836 34.692 99.214 34.636 99.41 34.552L100.656 35.322ZM109.346 31.444C109.164 31.864 108.954 32.382 108.744 32.998C108.296 34.37 107.162 37.926 106.462 39.802C108.17 39.634 110.158 39.41 111.572 39.242C111.082 38.234 110.564 37.296 110.102 36.68L111.852 35.966C112.846 37.478 114.274 40.222 114.918 41.79L113.028 42.63C112.846 42.154 112.622 41.58 112.356 40.978C110.088 41.244 105.846 41.692 104.082 41.874C103.732 41.916 103.214 41.986 102.766 42.042L102.444 39.998C102.92 39.998 103.522 39.998 103.984 39.984C104.096 39.984 104.236 39.97 104.362 39.97C105.174 37.898 106.378 34.062 106.784 32.606C106.98 31.892 107.064 31.458 107.12 30.982L109.346 31.444Z" fill="#0050B5"/>
<path d="M56.262 68.87C56.612 69.374 57.102 70.242 57.382 70.788L56.472 71.18C56.192 70.62 55.73 69.78 55.352 69.248L56.262 68.87ZM57.844 68.282C58.208 68.8 58.74 69.668 58.992 70.186L58.082 70.578C57.788 69.976 57.34 69.178 56.948 68.66L57.844 68.282ZM50.074 69.388C50.032 69.766 49.99 70.27 49.99 70.676V73.602C51.642 73.196 53.742 72.538 55.1 71.964C55.562 71.782 55.996 71.572 56.458 71.278L57.074 72.692C56.612 72.874 56.052 73.126 55.604 73.294C54.106 73.896 51.754 74.596 49.99 75.058V77.914C49.99 78.586 50.284 78.754 50.942 78.894C51.362 78.964 52.02 78.992 52.692 78.992C54.162 78.992 56.36 78.838 57.522 78.53V80.14C56.248 80.322 54.148 80.42 52.608 80.42C51.74 80.42 50.9 80.378 50.312 80.28C49.178 80.07 48.534 79.51 48.534 78.334V70.676C48.534 70.34 48.506 69.766 48.436 69.388H50.074ZM70.108 69.416C70.486 69.962 71.074 70.942 71.396 71.6L70.416 72.02C70.052 71.222 69.646 70.494 69.156 69.822L70.108 69.416ZM71.984 68.744C72.376 69.262 72.964 70.228 73.314 70.872L72.334 71.306C71.942 70.508 71.508 69.808 71.018 69.15L71.984 68.744ZM64.088 69.178C64.956 69.668 66.524 70.704 67.196 71.18L66.356 72.384C65.642 71.866 64.144 70.886 63.29 70.396L64.088 69.178ZM61.764 79.16C63.318 78.894 65.026 78.376 66.496 77.564C68.834 76.234 70.738 74.358 71.858 72.37L72.712 73.854C71.452 75.758 69.506 77.55 67.238 78.88C65.824 79.692 63.864 80.364 62.59 80.602L61.764 79.16ZM61.946 72.356C62.828 72.832 64.424 73.812 65.082 74.274L64.27 75.52C63.542 74.988 62.044 74.036 61.162 73.56L61.946 72.356ZM81.882 68.688C81.84 69.01 81.798 69.542 81.798 69.948V70.774H83.842C84.206 70.774 84.57 70.732 84.836 70.662L85.76 71.544C85.466 71.852 85.102 72.244 84.85 72.524C84.136 73.35 83.002 74.484 81.77 75.366V79.034C81.77 79.552 81.812 80.252 81.84 80.686H80.244C80.3 80.28 80.342 79.552 80.342 79.034V76.276C79.04 76.99 77.528 77.606 75.806 78.11L74.952 76.808C77.626 76.192 79.404 75.254 80.65 74.442C81.826 73.686 82.834 72.72 83.282 72.09H77.794C77.29 72.09 76.464 72.118 76.03 72.146V70.69C76.506 70.746 77.29 70.774 77.766 70.774H80.37V69.948C80.37 69.528 80.342 69.01 80.286 68.688H81.882ZM86.222 78.278C85.004 77.354 84.122 76.78 82.862 76.094L83.772 75.044C85.074 75.744 85.816 76.164 87.146 77.06L86.222 78.278ZM99.41 70.578C99.312 70.718 99.102 71.068 99.004 71.306C98.514 72.454 97.688 74.036 96.708 75.296C98.15 76.528 99.844 78.334 100.712 79.398L99.48 80.49C98.556 79.23 97.156 77.69 95.77 76.402C94.272 77.998 92.382 79.496 90.38 80.434L89.246 79.244C91.514 78.376 93.614 76.696 95 75.142C95.952 74.078 96.89 72.538 97.226 71.446H92.088C91.542 71.446 90.786 71.516 90.562 71.53V69.948C90.842 69.99 91.654 70.046 92.088 70.046H97.282C97.8 70.046 98.262 69.99 98.5 69.906L99.41 70.578ZM105.192 69.444C105.556 69.486 106.074 69.514 106.536 69.514H111.982C112.43 69.514 113.004 69.486 113.354 69.444V70.886C113.004 70.858 112.444 70.844 111.968 70.844H106.536C106.088 70.844 105.584 70.858 105.192 70.886V69.444ZM114.46 73.294C114.376 73.448 114.264 73.658 114.236 73.784C113.844 75.142 113.214 76.556 112.178 77.704C110.736 79.3 108.958 80.182 107.166 80.686L106.074 79.426C108.118 79.006 109.826 78.096 110.974 76.906C111.772 76.08 112.276 75.03 112.528 74.106H105.402C105.066 74.106 104.45 74.12 103.918 74.162V72.706C104.464 72.762 104.996 72.804 105.402 72.804H112.57C112.948 72.804 113.284 72.748 113.466 72.678L114.46 73.294ZM117.064 74.778C119.514 74.12 121.614 73.168 123.168 72.202C124.624 71.306 126.108 70.004 127.06 68.87L128.236 69.99C127.172 71.068 125.856 72.146 124.47 73.056V78.866C124.47 79.44 124.498 80.21 124.568 80.518H122.832C122.874 80.21 122.916 79.44 122.916 78.866V73.994C121.446 74.792 119.598 75.604 117.75 76.164L117.064 74.778ZM132.653 69.472C133.073 69.528 133.563 69.57 134.011 69.57H139.667C140.101 69.57 140.619 69.528 141.067 69.472V70.914C140.619 70.886 140.101 70.872 139.667 70.872H134.025C133.563 70.872 133.045 70.886 132.653 70.914V69.472ZM131.001 73.028C131.393 73.07 131.841 73.098 132.275 73.098H141.431C141.725 73.098 142.257 73.07 142.607 73.028V74.47C142.285 74.442 141.795 74.428 141.431 74.428H137.833C137.777 75.912 137.497 77.144 136.965 78.166C136.461 79.118 135.397 80.154 134.179 80.77L132.891 79.832C133.927 79.398 134.921 78.6 135.481 77.746C136.083 76.808 136.265 75.688 136.321 74.428H132.275C131.855 74.428 131.379 74.442 131.001 74.47V73.028ZM144.503 76.22C146.337 75.8 148.409 74.848 149.543 74.162C150.873 73.336 152.217 72.146 152.945 71.25L154.037 72.314C153.337 73.056 152.133 74.064 150.887 74.89V79.804C150.887 80.252 150.901 80.91 150.957 81.148H149.333C149.361 80.91 149.389 80.252 149.389 79.804V75.772C148.185 76.402 146.575 77.088 145.175 77.536L144.503 76.22ZM160.155 69.57C161.135 70.228 162.955 71.684 163.739 72.496L162.633 73.63C161.905 72.888 160.169 71.362 159.133 70.662L160.155 69.57ZM158.713 78.936C161.051 78.586 162.871 77.802 164.215 76.976C166.469 75.59 168.219 73.49 169.073 71.698L169.927 73.224C168.919 75.044 167.197 76.948 165.013 78.292C163.599 79.16 161.821 79.986 159.651 80.378L158.713 78.936ZM181.687 68.688C182.037 69.192 182.541 70.06 182.821 70.606L181.897 70.998C181.617 70.438 181.169 69.598 180.791 69.066L181.687 68.688ZM183.269 68.086C183.647 68.604 184.179 69.486 184.431 69.99L183.521 70.396C183.227 69.794 182.765 68.996 182.373 68.464L183.269 68.086ZM178.131 69.444C177.851 69.864 177.557 70.396 177.403 70.676C177.333 70.802 177.277 70.914 177.193 71.04H180.567C180.959 71.04 181.351 70.984 181.617 70.9L182.765 71.6C182.625 71.824 182.471 72.174 182.373 72.454C181.995 73.798 181.169 75.674 179.909 77.214C178.621 78.796 176.927 80.084 174.309 81.092L173.007 79.916C175.709 79.118 177.375 77.872 178.621 76.43C179.657 75.24 180.497 73.476 180.749 72.3H176.367C175.485 73.504 174.281 74.736 172.825 75.716L171.593 74.806C174.029 73.336 175.331 71.404 175.989 70.172C176.157 69.878 176.395 69.318 176.507 68.912L178.131 69.444ZM189.247 78.236V74.386H187.623V78.236H189.247ZM185.621 70.144V68.968H190.577V70.144H188.477C188.267 71.208 188.001 72.244 187.665 73.224H190.367V79.384H187.623V80.462H186.531V75.73C186.321 76.08 186.111 76.402 185.873 76.696C185.817 76.36 185.551 75.576 185.355 75.226C186.279 73.98 186.881 72.132 187.245 70.144H185.621ZM193.587 73.952H195.561V70.2H193.587V73.952ZM198.319 73.952V75.184H196.807V81.106H195.561V75.184H193.573C193.503 77.284 193.139 79.608 191.627 81.176C191.403 80.966 190.927 80.588 190.633 80.42C191.963 79.034 192.285 76.976 192.355 75.184H190.913V73.952H192.369V70.2H191.291V68.982H198.039V70.2H196.807V73.952H198.319ZM202.057 68.324L203.261 68.66C202.953 69.57 202.589 70.494 202.183 71.39V81.092H200.951V73.672C200.587 74.246 200.223 74.764 199.831 75.226C199.719 74.904 199.369 74.176 199.173 73.854C200.335 72.496 201.413 70.424 202.057 68.324ZM204.339 72.132V74.246C205.487 73.966 206.537 73.56 207.433 73.014C206.915 72.58 206.495 72.118 206.145 71.642C205.809 72.062 205.459 72.426 205.109 72.748C204.941 72.594 204.605 72.328 204.339 72.132ZM209.715 70.774H206.775L206.761 70.788C207.139 71.348 207.657 71.894 208.329 72.384C208.889 71.922 209.351 71.39 209.715 70.774ZM212.165 70.774H211.073C210.625 71.642 210.037 72.384 209.337 73.014C210.247 73.504 211.339 73.882 212.613 74.106C212.389 74.372 212.053 74.848 211.899 75.17C210.527 74.862 209.365 74.344 208.399 73.728C207.419 74.4 206.271 74.904 205.025 75.282C204.899 75.044 204.577 74.624 204.339 74.358V78.796H203.205V69.948H204.339V71.81C205.347 70.914 206.229 69.612 206.733 68.24L207.923 68.534C207.769 68.94 207.587 69.332 207.377 69.724H212.165V70.774ZM209.925 75.884L210.891 76.276C209.813 77.466 207.965 78.306 206.089 78.81C205.935 78.558 205.669 78.194 205.445 77.97C207.181 77.578 209.001 76.85 209.925 75.884ZM208.595 74.582L209.575 74.988C208.707 75.856 207.307 76.556 206.005 76.976C205.837 76.752 205.543 76.416 205.291 76.22C206.495 75.884 207.867 75.282 208.595 74.582ZM211.101 77.438L212.221 77.9C210.821 79.552 208.273 80.518 205.375 81.036C205.235 80.728 204.955 80.28 204.703 80.014C207.405 79.622 209.883 78.81 211.101 77.438Z" fill="#182346"/>
<circle cx="37" cy="75" r="5" fill="#0050B5"/>
<path d="M336.262 68.87C336.612 69.374 337.102 70.242 337.382 70.788L336.472 71.18C336.192 70.62 335.73 69.78 335.352 69.248L336.262 68.87ZM337.844 68.282C338.208 68.8 338.74 69.668 338.992 70.186L338.082 70.578C337.788 69.976 337.34 69.178 336.948 68.66L337.844 68.282ZM330.074 69.388C330.032 69.766 329.99 70.27 329.99 70.676V73.602C331.642 73.196 333.742 72.538 335.1 71.964C335.562 71.782 335.996 71.572 336.458 71.278L337.074 72.692C336.612 72.874 336.052 73.126 335.604 73.294C334.106 73.896 331.754 74.596 329.99 75.058V77.914C329.99 78.586 330.284 78.754 330.942 78.894C331.362 78.964 332.02 78.992 332.692 78.992C334.162 78.992 336.36 78.838 337.522 78.53V80.14C336.248 80.322 334.148 80.42 332.608 80.42C331.74 80.42 330.9 80.378 330.312 80.28C329.178 80.07 328.534 79.51 328.534 78.334V70.676C328.534 70.34 328.506 69.766 328.436 69.388H330.074ZM350.108 69.416C350.486 69.962 351.074 70.942 351.396 71.6L350.416 72.02C350.052 71.222 349.646 70.494 349.156 69.822L350.108 69.416ZM351.984 68.744C352.376 69.262 352.964 70.228 353.314 70.872L352.334 71.306C351.942 70.508 351.508 69.808 351.018 69.15L351.984 68.744ZM344.088 69.178C344.956 69.668 346.524 70.704 347.196 71.18L346.356 72.384C345.642 71.866 344.144 70.886 343.29 70.396L344.088 69.178ZM341.764 79.16C343.318 78.894 345.026 78.376 346.496 77.564C348.834 76.234 350.738 74.358 351.858 72.37L352.712 73.854C351.452 75.758 349.506 77.55 347.238 78.88C345.824 79.692 343.864 80.364 342.59 80.602L341.764 79.16ZM341.946 72.356C342.828 72.832 344.424 73.812 345.082 74.274L344.27 75.52C343.542 74.988 342.044 74.036 341.162 73.56L341.946 72.356ZM361.882 68.688C361.84 69.01 361.798 69.542 361.798 69.948V70.774H363.842C364.206 70.774 364.57 70.732 364.836 70.662L365.76 71.544C365.466 71.852 365.102 72.244 364.85 72.524C364.136 73.35 363.002 74.484 361.77 75.366V79.034C361.77 79.552 361.812 80.252 361.84 80.686H360.244C360.3 80.28 360.342 79.552 360.342 79.034V76.276C359.04 76.99 357.528 77.606 355.806 78.11L354.952 76.808C357.626 76.192 359.404 75.254 360.65 74.442C361.826 73.686 362.834 72.72 363.282 72.09H357.794C357.29 72.09 356.464 72.118 356.03 72.146V70.69C356.506 70.746 357.29 70.774 357.766 70.774H360.37V69.948C360.37 69.528 360.342 69.01 360.286 68.688H361.882ZM366.222 78.278C365.004 77.354 364.122 76.78 362.862 76.094L363.772 75.044C365.074 75.744 365.816 76.164 367.146 77.06L366.222 78.278ZM379.41 70.578C379.312 70.718 379.102 71.068 379.004 71.306C378.514 72.454 377.688 74.036 376.708 75.296C378.15 76.528 379.844 78.334 380.712 79.398L379.48 80.49C378.556 79.23 377.156 77.69 375.77 76.402C374.272 77.998 372.382 79.496 370.38 80.434L369.246 79.244C371.514 78.376 373.614 76.696 375 75.142C375.952 74.078 376.89 72.538 377.226 71.446H372.088C371.542 71.446 370.786 71.516 370.562 71.53V69.948C370.842 69.99 371.654 70.046 372.088 70.046H377.282C377.8 70.046 378.262 69.99 378.5 69.906L379.41 70.578ZM394.722 71.152C394.568 71.334 394.414 71.502 394.316 71.642C393.308 73.294 391.516 75.562 389.374 77.242C390.2 78.068 391.11 79.048 391.67 79.72L390.382 80.756C389.822 80 388.688 78.74 387.792 77.816C386.952 76.99 385.426 75.646 384.642 75.1L385.79 74.162C386.322 74.554 387.372 75.408 388.31 76.234C390.158 74.82 391.628 72.944 392.314 71.74H384.446C383.886 71.74 383.228 71.796 382.934 71.824V70.256C383.312 70.312 383.97 70.368 384.446 70.368H392.538C392.986 70.368 393.378 70.326 393.616 70.242L394.722 71.152ZM402.198 70.564C402.198 70.116 402.142 69.416 402.044 69.052H403.808C403.752 69.416 403.71 70.144 403.71 70.564V72.286H407.182C407.728 72.286 408.274 72.258 408.526 72.216V73.728C408.274 73.7 407.658 73.686 407.168 73.686H403.71C403.654 76.64 402.688 78.922 399.776 80.644L398.404 79.622C401.092 78.376 402.128 76.332 402.198 73.686H398.32C397.76 73.686 397.228 73.7 396.878 73.742V72.202C397.214 72.244 397.76 72.286 398.292 72.286H402.198V70.564ZM410.934 73.756C411.396 73.784 412.264 73.84 413.02 73.84H420.636C421.308 73.84 421.854 73.784 422.204 73.756V75.492C421.896 75.478 421.252 75.422 420.636 75.422H413.02C412.25 75.422 411.41 75.45 410.934 75.492V73.756ZM427.93 78.236V74.386H426.306V78.236H427.93ZM424.304 70.144V68.968H429.26V70.144H427.16C426.95 71.208 426.684 72.244 426.348 73.224H429.05V79.384H426.306V80.462H425.214V75.73C425.004 76.08 424.794 76.402 424.556 76.696C424.5 76.36 424.234 75.576 424.038 75.226C424.962 73.98 425.564 72.132 425.928 70.144H424.304ZM432.27 73.952H434.244V70.2H432.27V73.952ZM437.002 73.952V75.184H435.49V81.106H434.244V75.184H432.256C432.186 77.284 431.822 79.608 430.31 81.176C430.086 80.966 429.61 80.588 429.316 80.42C430.646 79.034 430.968 76.976 431.038 75.184H429.596V73.952H431.052V70.2H429.974V68.982H436.722V70.2H435.49V73.952H437.002ZM440.74 68.324L441.944 68.66C441.636 69.57 441.272 70.494 440.866 71.39V81.092H439.634V73.672C439.27 74.246 438.906 74.764 438.514 75.226C438.402 74.904 438.052 74.176 437.856 73.854C439.018 72.496 440.096 70.424 440.74 68.324ZM443.022 72.132V74.246C444.17 73.966 445.22 73.56 446.116 73.014C445.598 72.58 445.178 72.118 444.828 71.642C444.492 72.062 444.142 72.426 443.792 72.748C443.624 72.594 443.288 72.328 443.022 72.132ZM448.398 70.774H445.458L445.444 70.788C445.822 71.348 446.34 71.894 447.012 72.384C447.572 71.922 448.034 71.39 448.398 70.774ZM450.848 70.774H449.756C449.308 71.642 448.72 72.384 448.02 73.014C448.93 73.504 450.022 73.882 451.296 74.106C451.072 74.372 450.736 74.848 450.582 75.17C449.21 74.862 448.048 74.344 447.082 73.728C446.102 74.4 444.954 74.904 443.708 75.282C443.582 75.044 443.26 74.624 443.022 74.358V78.796H441.888V69.948H443.022V71.81C444.03 70.914 444.912 69.612 445.416 68.24L446.606 68.534C446.452 68.94 446.27 69.332 446.06 69.724H450.848V70.774ZM448.608 75.884L449.574 76.276C448.496 77.466 446.648 78.306 444.772 78.81C444.618 78.558 444.352 78.194 444.128 77.97C445.864 77.578 447.684 76.85 448.608 75.884ZM447.278 74.582L448.258 74.988C447.39 75.856 445.99 76.556 444.688 76.976C444.52 76.752 444.226 76.416 443.974 76.22C445.178 75.884 446.55 75.282 447.278 74.582ZM449.784 77.438L450.904 77.9C449.504 79.552 446.956 80.518 444.058 81.036C443.918 80.728 443.638 80.28 443.386 80.014C446.088 79.622 448.566 78.81 449.784 77.438Z" fill="#182346"/>
<circle cx="317" cy="75" r="5" fill="#0050B5"/>
<path d="M47.358 110V99.682H48.982V110H47.358ZM54.6183 110.182C53.2043 110.182 51.8883 109.622 50.9503 108.67L51.9023 107.55C52.6443 108.292 53.6523 108.768 54.6463 108.768C55.8923 108.768 56.5923 108.18 56.5923 107.312C56.5923 106.374 55.8923 106.08 54.9403 105.66L53.5123 105.044C52.5183 104.624 51.4123 103.84 51.4123 102.342C51.4123 100.718 52.8403 99.5 54.8003 99.5C56.0043 99.5 57.1383 100.004 57.9223 100.802L57.0683 101.838C56.4243 101.264 55.7103 100.914 54.8003 100.914C53.7503 100.914 53.0643 101.418 53.0643 102.23C53.0643 103.126 53.8903 103.462 54.7303 103.798L56.1443 104.4C57.3623 104.918 58.2443 105.674 58.2443 107.186C58.2443 108.838 56.8723 110.182 54.6183 110.182ZM60.1959 110V99.682H62.0579L63.9479 104.904C64.1859 105.59 64.3959 106.29 64.6339 106.976H64.7039C64.9419 106.29 65.1379 105.59 65.3759 104.904L67.2379 99.682H69.1139V110H67.6019V104.904C67.6019 103.98 67.7279 102.65 67.8119 101.712H67.7559L66.9299 104.092L65.1379 109.006H64.1299L62.3239 104.092L61.5119 101.712H61.4559C61.5259 102.65 61.6519 103.98 61.6519 104.904V110H60.1959ZM74.757 110.182C73.343 110.182 72.027 109.622 71.089 108.67L72.041 107.55C72.783 108.292 73.791 108.768 74.785 108.768C76.031 108.768 76.731 108.18 76.731 107.312C76.731 106.374 76.031 106.08 75.079 105.66L73.651 105.044C72.657 104.624 71.551 103.84 71.551 102.342C71.551 100.718 72.979 99.5 74.939 99.5C76.143 99.5 77.277 100.004 78.061 100.802L77.207 101.838C76.563 101.264 75.849 100.914 74.939 100.914C73.889 100.914 73.203 101.418 73.203 102.23C73.203 103.126 74.029 103.462 74.869 103.798L76.283 104.4C77.501 104.918 78.383 105.674 78.383 107.186C78.383 108.838 77.011 110.182 74.757 110.182ZM83.3306 108.236V104.386H81.7066V108.236H83.3306ZM79.7046 100.144V98.968H84.6606V100.144H82.5606C82.3506 101.208 82.0846 102.244 81.7486 103.224H84.4506V109.384H81.7066V110.462H80.6146V105.73C80.4046 106.08 80.1946 106.402 79.9566 106.696C79.9006 106.36 79.6346 105.576 79.4386 105.226C80.3626 103.98 80.9646 102.132 81.3286 100.144H79.7046ZM87.6706 103.952H89.6446V100.2H87.6706V103.952ZM92.4026 103.952V105.184H90.8906V111.106H89.6446V105.184H87.6566C87.5866 107.284 87.2226 109.608 85.7106 111.176C85.4866 110.966 85.0106 110.588 84.7166 110.42C86.0466 109.034 86.3686 106.976 86.4386 105.184H84.9966V103.952H86.4526V100.2H85.3746V98.982H92.1226V100.2H90.8906V103.952H92.4026ZM96.1406 98.324L97.3446 98.66C97.0366 99.57 96.6726 100.494 96.2666 101.39V111.092H95.0346V103.672C94.6706 104.246 94.3066 104.764 93.9146 105.226C93.8026 104.904 93.4526 104.176 93.2566 103.854C94.4186 102.496 95.4966 100.424 96.1406 98.324ZM98.4226 102.132V104.246C99.5706 103.966 100.621 103.56 101.517 103.014C100.999 102.58 100.579 102.118 100.229 101.642C99.8926 102.062 99.5426 102.426 99.1926 102.748C99.0246 102.594 98.6886 102.328 98.4226 102.132ZM103.799 100.774H100.859L100.845 100.788C101.223 101.348 101.741 101.894 102.413 102.384C102.973 101.922 103.435 101.39 103.799 100.774ZM106.249 100.774H105.157C104.709 101.642 104.121 102.384 103.421 103.014C104.331 103.504 105.423 103.882 106.697 104.106C106.473 104.372 106.137 104.848 105.983 105.17C104.611 104.862 103.449 104.344 102.483 103.728C101.503 104.4 100.355 104.904 99.1086 105.282C98.9826 105.044 98.6606 104.624 98.4226 104.358V108.796H97.2886V99.948H98.4226V101.81C99.4306 100.914 100.313 99.612 100.817 98.24L102.007 98.534C101.853 98.94 101.671 99.332 101.461 99.724H106.249V100.774ZM104.009 105.884L104.975 106.276C103.897 107.466 102.049 108.306 100.173 108.81C100.019 108.558 99.7526 108.194 99.5286 107.97C101.265 107.578 103.085 106.85 104.009 105.884ZM102.679 104.582L103.659 104.988C102.791 105.856 101.391 106.556 100.089 106.976C99.9206 106.752 99.6266 106.416 99.3746 106.22C100.579 105.884 101.951 105.282 102.679 104.582ZM105.185 107.438L106.305 107.9C104.905 109.552 102.357 110.518 99.4586 111.036C99.3186 110.728 99.0386 110.28 98.7866 110.014C101.489 109.622 103.967 108.81 105.185 107.438Z" fill="#182346"/>
<circle cx="37" cy="105" r="5" fill="#0050B5"/>
<path d="M328.478 99.906C328.87 99.934 329.29 99.962 329.78 99.962H336.472C336.934 99.962 337.354 99.948 337.676 99.906V101.306C337.326 101.292 336.976 101.264 336.472 101.264H332.986V103.966H337.494C337.788 103.966 338.404 103.938 338.74 103.91L338.754 105.338C338.39 105.31 337.83 105.31 337.522 105.31H332.986V107.816C332.986 108.558 333.476 108.908 334.694 108.908C335.982 108.908 337.172 108.852 338.334 108.712L338.25 110.21C337.228 110.28 335.786 110.336 334.456 110.336C332.146 110.336 331.502 109.524 331.502 108.264V105.31H328.968C328.59 105.31 327.96 105.338 327.554 105.366V103.896C327.946 103.938 328.562 103.966 328.968 103.966H331.502V101.264H329.78C329.29 101.264 328.87 101.278 328.478 101.306V99.906ZM343.192 99.444C343.556 99.486 344.074 99.514 344.536 99.514H349.982C350.43 99.514 351.004 99.486 351.354 99.444V100.886C351.004 100.858 350.444 100.844 349.968 100.844H344.536C344.088 100.844 343.584 100.858 343.192 100.886V99.444ZM352.46 103.294C352.376 103.448 352.264 103.658 352.236 103.784C351.844 105.142 351.214 106.556 350.178 107.704C348.736 109.3 346.958 110.182 345.166 110.686L344.074 109.426C346.118 109.006 347.826 108.096 348.974 106.906C349.772 106.08 350.276 105.03 350.528 104.106H343.402C343.066 104.106 342.45 104.12 341.918 104.162V102.706C342.464 102.762 342.996 102.804 343.402 102.804H350.57C350.948 102.804 351.284 102.748 351.466 102.678L352.46 103.294ZM361.21 109.692C361.266 109.454 361.308 109.132 361.308 108.81V100.522C361.308 99.948 361.224 99.486 361.224 99.402H362.848C362.834 99.486 362.778 99.948 362.778 100.522V108.264C363.996 107.718 365.578 106.528 366.586 105.044L367.44 106.248C366.25 107.83 364.276 109.3 362.666 110.112C362.414 110.252 362.246 110.378 362.134 110.462L361.21 109.692ZM354.756 109.566C355.974 108.726 356.772 107.452 357.178 106.164C357.584 104.918 357.584 102.188 357.584 100.578C357.584 100.102 357.556 99.766 357.472 99.444H359.096C359.082 99.556 359.026 100.074 359.026 100.564C359.026 102.16 358.97 105.142 358.592 106.542C358.172 108.082 357.29 109.454 356.1 110.462L354.756 109.566ZM370.037 100.256C370.527 100.298 371.199 100.34 371.661 100.34H378.619C378.997 100.34 379.487 100.326 379.739 100.312C379.725 100.62 379.711 101.124 379.711 101.488V108.726C379.711 109.216 379.739 109.902 379.767 110.21H378.171C378.171 110.014 378.185 109.748 378.185 109.454H371.549C370.975 109.454 370.275 109.482 369.869 109.51V107.928C370.275 107.956 370.891 107.998 371.493 107.998H378.199V101.754H371.661C371.115 101.754 370.401 101.782 370.037 101.81V100.256ZM384.989 99.57C385.969 100.228 387.789 101.684 388.573 102.496L387.467 103.63C386.739 102.888 385.003 101.362 383.967 100.662L384.989 99.57ZM383.547 108.936C385.885 108.586 387.705 107.802 389.049 106.976C391.303 105.59 393.053 103.49 393.907 101.698L394.761 103.224C393.753 105.044 392.031 106.948 389.847 108.292C388.433 109.16 386.655 109.986 384.485 110.378L383.547 108.936ZM406.573 99.85C406.573 100.326 406.965 100.718 407.441 100.718C407.917 100.718 408.323 100.326 408.323 99.85C408.323 99.374 407.917 98.968 407.441 98.968C406.965 98.968 406.573 99.374 406.573 99.85ZM405.831 99.85C405.831 98.968 406.545 98.24 407.441 98.24C408.337 98.24 409.065 98.968 409.065 99.85C409.065 100.746 408.337 101.46 407.441 101.46C407.315 101.46 407.189 101.446 407.063 101.418C407.049 101.502 407.021 101.6 407.007 101.684C406.685 103.112 406.041 105.324 404.907 106.822C403.633 108.474 401.883 109.818 399.349 110.616L398.145 109.3C400.875 108.628 402.457 107.424 403.619 105.968C404.571 104.736 405.173 102.944 405.369 101.67H398.481C397.893 101.67 397.333 101.698 396.969 101.726V100.158C397.361 100.2 398.019 100.256 398.481 100.256H405.271C405.439 100.256 405.649 100.256 405.873 100.228C405.845 100.102 405.831 99.976 405.831 99.85ZM412.495 99.444C412.859 99.486 413.377 99.514 413.839 99.514H419.285C419.733 99.514 420.307 99.486 420.657 99.444V100.886C420.307 100.858 419.747 100.844 419.271 100.844H413.839C413.391 100.844 412.887 100.858 412.495 100.886V99.444ZM421.763 103.294C421.679 103.448 421.567 103.658 421.539 103.784C421.147 105.142 420.517 106.556 419.481 107.704C418.039 109.3 416.261 110.182 414.469 110.686L413.377 109.426C415.421 109.006 417.129 108.096 418.277 106.906C419.075 106.08 419.579 105.03 419.831 104.106H412.705C412.369 104.106 411.753 104.12 411.221 104.162V102.706C411.767 102.762 412.299 102.804 412.705 102.804H419.873C420.251 102.804 420.587 102.748 420.769 102.678L421.763 103.294ZM424.367 104.778C426.817 104.12 428.917 103.168 430.471 102.202C431.927 101.306 433.411 100.004 434.363 98.87L435.539 99.99C434.475 101.068 433.159 102.146 431.773 103.056V108.866C431.773 109.44 431.801 110.21 431.871 110.518H430.135C430.177 110.21 430.219 109.44 430.219 108.866V103.994C428.749 104.792 426.901 105.604 425.053 106.164L424.367 104.778ZM450.491 100.536C450.365 100.69 450.141 100.956 450.029 101.124C449.427 102.146 448.097 103.924 446.599 104.988L445.437 104.05C446.669 103.336 447.887 101.95 448.293 101.152H440.621C440.061 101.152 439.571 101.194 438.969 101.236V99.682C439.487 99.752 440.061 99.808 440.621 99.808H448.447C448.755 99.808 449.385 99.766 449.609 99.71L450.491 100.536ZM444.835 102.398C444.835 106.052 444.625 108.74 440.943 110.63L439.655 109.58C440.061 109.44 440.551 109.216 440.999 108.894C443.001 107.606 443.323 105.842 443.323 103.518C443.323 103.14 443.309 102.804 443.239 102.398H444.835ZM454.004 99.57C454.984 100.228 456.804 101.684 457.588 102.496L456.482 103.63C455.754 102.888 454.018 101.362 452.982 100.662L454.004 99.57ZM452.562 108.936C454.9 108.586 456.72 107.802 458.064 106.976C460.318 105.59 462.068 103.49 462.922 101.698L463.776 103.224C462.768 105.044 461.046 106.948 458.862 108.292C457.448 109.16 455.67 109.986 453.5 110.378L452.562 108.936ZM475.879 100.578C475.781 100.718 475.571 101.068 475.473 101.306C474.983 102.454 474.157 104.036 473.177 105.296C474.619 106.528 476.313 108.334 477.181 109.398L475.949 110.49C475.025 109.23 473.625 107.69 472.239 106.402C470.741 107.998 468.851 109.496 466.849 110.434L465.715 109.244C467.983 108.376 470.083 106.696 471.469 105.142C472.421 104.078 473.359 102.538 473.695 101.446H468.557C468.011 101.446 467.255 101.516 467.031 101.53V99.948C467.311 99.99 468.123 100.046 468.557 100.046H473.751C474.269 100.046 474.731 99.99 474.969 99.906L475.879 100.578ZM482.823 108.236V104.386H481.199V108.236H482.823ZM479.197 100.144V98.968H484.153V100.144H482.053C481.843 101.208 481.577 102.244 481.241 103.224H483.943V109.384H481.199V110.462H480.107V105.73C479.897 106.08 479.687 106.402 479.449 106.696C479.393 106.36 479.127 105.576 478.931 105.226C479.855 103.98 480.457 102.132 480.821 100.144H479.197ZM487.163 103.952H489.137V100.2H487.163V103.952ZM491.895 103.952V105.184H490.383V111.106H489.137V105.184H487.149C487.079 107.284 486.715 109.608 485.203 111.176C484.979 110.966 484.503 110.588 484.209 110.42C485.539 109.034 485.861 106.976 485.931 105.184H484.489V103.952H485.945V100.2H484.867V98.982H491.615V100.2H490.383V103.952H491.895ZM495.633 98.324L496.837 98.66C496.529 99.57 496.165 100.494 495.759 101.39V111.092H494.527V103.672C494.163 104.246 493.799 104.764 493.407 105.226C493.295 104.904 492.945 104.176 492.749 103.854C493.911 102.496 494.989 100.424 495.633 98.324ZM497.915 102.132V104.246C499.063 103.966 500.113 103.56 501.009 103.014C500.491 102.58 500.071 102.118 499.721 101.642C499.385 102.062 499.035 102.426 498.685 102.748C498.517 102.594 498.181 102.328 497.915 102.132ZM503.291 100.774H500.351L500.337 100.788C500.715 101.348 501.233 101.894 501.905 102.384C502.465 101.922 502.927 101.39 503.291 100.774ZM505.741 100.774H504.649C504.201 101.642 503.613 102.384 502.913 103.014C503.823 103.504 504.915 103.882 506.189 104.106C505.965 104.372 505.629 104.848 505.475 105.17C504.103 104.862 502.941 104.344 501.975 103.728C500.995 104.4 499.847 104.904 498.601 105.282C498.475 105.044 498.153 104.624 497.915 104.358V108.796H496.781V99.948H497.915V101.81C498.923 100.914 499.805 99.612 500.309 98.24L501.499 98.534C501.345 98.94 501.163 99.332 500.953 99.724H505.741V100.774ZM503.501 105.884L504.467 106.276C503.389 107.466 501.541 108.306 499.665 108.81C499.511 108.558 499.245 108.194 499.021 107.97C500.757 107.578 502.577 106.85 503.501 105.884ZM502.171 104.582L503.151 104.988C502.283 105.856 500.883 106.556 499.581 106.976C499.413 106.752 499.119 106.416 498.867 106.22C500.071 105.884 501.443 105.282 502.171 104.582ZM504.677 107.438L505.797 107.9C504.397 109.552 501.849 110.518 498.951 111.036C498.811 110.728 498.531 110.28 498.279 110.014C500.981 109.622 503.459 108.81 504.677 107.438Z" fill="#182346"/>
<circle cx="317" cy="105" r="5" fill="#0050B5"/>
<path d="M56.262 128.87C56.612 129.374 57.102 130.242 57.382 130.788L56.472 131.18C56.192 130.62 55.73 129.78 55.352 129.248L56.262 128.87ZM57.844 128.282C58.208 128.8 58.74 129.668 58.992 130.186L58.082 130.578C57.788 129.976 57.34 129.178 56.948 128.66L57.844 128.282ZM50.074 129.388C50.032 129.766 49.99 130.27 49.99 130.676V133.602C51.642 133.196 53.742 132.538 55.1 131.964C55.562 131.782 55.996 131.572 56.458 131.278L57.074 132.692C56.612 132.874 56.052 133.126 55.604 133.294C54.106 133.896 51.754 134.596 49.99 135.058V137.914C49.99 138.586 50.284 138.754 50.942 138.894C51.362 138.964 52.02 138.992 52.692 138.992C54.162 138.992 56.36 138.838 57.522 138.53V140.14C56.248 140.322 54.148 140.42 52.608 140.42C51.74 140.42 50.9 140.378 50.312 140.28C49.178 140.07 48.534 139.51 48.534 138.334V130.676C48.534 130.34 48.506 129.766 48.436 129.388H50.074ZM70.108 129.416C70.486 129.962 71.074 130.942 71.396 131.6L70.416 132.02C70.052 131.222 69.646 130.494 69.156 129.822L70.108 129.416ZM71.984 128.744C72.376 129.262 72.964 130.228 73.314 130.872L72.334 131.306C71.942 130.508 71.508 129.808 71.018 129.15L71.984 128.744ZM64.088 129.178C64.956 129.668 66.524 130.704 67.196 131.18L66.356 132.384C65.642 131.866 64.144 130.886 63.29 130.396L64.088 129.178ZM61.764 139.16C63.318 138.894 65.026 138.376 66.496 137.564C68.834 136.234 70.738 134.358 71.858 132.37L72.712 133.854C71.452 135.758 69.506 137.55 67.238 138.88C65.824 139.692 63.864 140.364 62.59 140.602L61.764 139.16ZM61.946 132.356C62.828 132.832 64.424 133.812 65.082 134.274L64.27 135.52C63.542 134.988 62.044 134.036 61.162 133.56L61.946 132.356ZM81.882 128.688C81.84 129.01 81.798 129.542 81.798 129.948V130.774H83.842C84.206 130.774 84.57 130.732 84.836 130.662L85.76 131.544C85.466 131.852 85.102 132.244 84.85 132.524C84.136 133.35 83.002 134.484 81.77 135.366V139.034C81.77 139.552 81.812 140.252 81.84 140.686H80.244C80.3 140.28 80.342 139.552 80.342 139.034V136.276C79.04 136.99 77.528 137.606 75.806 138.11L74.952 136.808C77.626 136.192 79.404 135.254 80.65 134.442C81.826 133.686 82.834 132.72 83.282 132.09H77.794C77.29 132.09 76.464 132.118 76.03 132.146V130.69C76.506 130.746 77.29 130.774 77.766 130.774H80.37V129.948C80.37 129.528 80.342 129.01 80.286 128.688H81.882ZM86.222 138.278C85.004 137.354 84.122 136.78 82.862 136.094L83.772 135.044C85.074 135.744 85.816 136.164 87.146 137.06L86.222 138.278ZM99.41 130.578C99.312 130.718 99.102 131.068 99.004 131.306C98.514 132.454 97.688 134.036 96.708 135.296C98.15 136.528 99.844 138.334 100.712 139.398L99.48 140.49C98.556 139.23 97.156 137.69 95.77 136.402C94.272 137.998 92.382 139.496 90.38 140.434L89.246 139.244C91.514 138.376 93.614 136.696 95 135.142C95.952 134.078 96.89 132.538 97.226 131.446H92.088C91.542 131.446 90.786 131.516 90.562 131.53V129.948C90.842 129.99 91.654 130.046 92.088 130.046H97.282C97.8 130.046 98.262 129.99 98.5 129.906L99.41 130.578ZM104.31 130.256C104.8 130.298 105.472 130.34 105.934 130.34H112.892C113.27 130.34 113.76 130.326 114.012 130.312C113.998 130.62 113.984 131.124 113.984 131.488V138.726C113.984 139.216 114.012 139.902 114.04 140.21H112.444C112.444 140.014 112.458 139.748 112.458 139.454H105.822C105.248 139.454 104.548 139.482 104.142 139.51V137.928C104.548 137.956 105.164 137.998 105.766 137.998H112.472V131.754H105.934C105.388 131.754 104.674 131.782 104.31 131.81V130.256ZM120.004 129.234C121.838 129.472 125.716 130.27 127.48 130.886L126.906 132.258C125.24 131.642 121.446 130.802 119.486 130.55L120.004 129.234ZM119.374 132.972C121.32 133.294 124.792 134.036 126.542 134.666L125.996 136.024C124.372 135.408 120.886 134.61 118.856 134.302L119.374 132.972ZM118.632 137.018C120.998 137.382 125.17 138.362 127.088 139.104L126.472 140.476C124.61 139.678 120.326 138.726 118.072 138.39L118.632 137.018ZM140.444 133.336C140.402 133.49 140.36 133.7 140.332 133.84C140.22 134.736 139.828 137.354 139.632 138.656H140.808C141.13 138.656 141.704 138.628 142.026 138.6V140.028C141.76 140.014 141.172 140 140.836 140H133.29C132.828 140 132.506 140.014 132.03 140.028V138.586C132.394 138.628 132.842 138.656 133.29 138.656H138.134C138.33 137.466 138.694 135.058 138.736 134.274H134.578C134.158 134.274 133.71 134.302 133.332 134.316V132.86C133.682 132.902 134.214 132.93 134.564 132.93H138.54C138.792 132.93 139.24 132.888 139.38 132.818L140.444 133.336ZM146.45 130.718C146.912 130.76 147.472 130.788 147.934 130.788H153.842C154.374 130.788 154.92 130.76 155.298 130.718V132.314C154.906 132.286 154.318 132.272 153.842 132.272H147.948C147.444 132.272 146.898 132.286 146.45 132.314V130.718ZM145.246 137.606C145.764 137.648 146.324 137.69 146.842 137.69H155.074C155.522 137.69 156.026 137.662 156.474 137.606V139.3C156.012 139.258 155.466 139.23 155.074 139.23H146.842C146.324 139.23 145.75 139.258 145.246 139.3V137.606ZM163.992 129.108C163.852 129.444 163.698 129.878 163.586 130.172C163.46 130.522 163.306 130.956 163.124 131.404H169.48C169.83 131.404 170.432 131.39 170.852 131.32V132.832C170.376 132.804 169.802 132.79 169.48 132.79H167.296C167.058 136.668 165.532 139.09 163.068 140.644L161.584 139.636C162.018 139.454 162.48 139.188 162.802 138.936C164.216 137.858 165.574 136.066 165.784 132.79H162.466C161.892 133.826 160.996 135.072 160.17 135.772L158.784 134.932C159.778 134.204 160.744 132.832 161.248 131.978C161.626 131.292 161.878 130.578 162.046 130.032C162.172 129.626 162.256 129.178 162.284 128.786L163.992 129.108ZM173.358 133.756C173.82 133.784 174.688 133.84 175.444 133.84H183.06C183.732 133.84 184.278 133.784 184.628 133.756V135.492C184.32 135.478 183.676 135.422 183.06 135.422H175.444C174.674 135.422 173.834 135.45 173.358 135.492V133.756ZM189.983 129.094C190.851 129.584 192.433 130.62 193.091 131.096L192.265 132.3C191.551 131.782 190.053 130.788 189.185 130.298L189.983 129.094ZM187.673 139.076C189.227 138.81 190.935 138.292 192.405 137.48C194.743 136.15 196.633 134.274 197.767 132.286L198.621 133.77C197.361 135.674 195.415 137.466 193.147 138.782C191.733 139.608 189.773 140.28 188.499 140.518L187.673 139.076ZM187.855 132.272C188.737 132.734 190.333 133.728 190.991 134.19L190.179 135.436C189.437 134.904 187.953 133.952 187.057 133.476L187.855 132.272ZM202.779 132.216C203.101 132.258 203.913 132.272 204.347 132.272H209.709C210.031 132.272 210.465 132.258 210.661 132.258C210.647 132.426 210.647 132.79 210.647 133.07V140.056C210.647 140.28 210.661 140.672 210.675 140.896H209.275C209.289 140.77 209.289 140.56 209.289 140.336H203.801C203.381 140.336 202.863 140.364 202.625 140.378V138.992C202.863 139.02 203.311 139.048 203.801 139.048H209.289V136.836H204.501C203.997 136.836 203.423 136.836 203.115 136.864V135.534C203.437 135.548 203.997 135.576 204.487 135.576H209.289V133.532H204.347C203.913 133.532 203.073 133.56 202.779 133.574V132.216ZM216.989 129.57C217.969 130.228 219.789 131.684 220.573 132.496L219.467 133.63C218.739 132.888 217.003 131.362 215.967 130.662L216.989 129.57ZM215.547 138.936C217.885 138.586 219.705 137.802 221.049 136.976C223.303 135.59 225.053 133.49 225.907 131.698L226.761 133.224C225.753 135.044 224.031 136.948 221.847 138.292C220.433 139.16 218.655 139.986 216.485 140.378L215.547 138.936ZM232.081 138.236V134.386H230.457V138.236H232.081ZM228.455 130.144V128.968H233.411V130.144H231.311C231.101 131.208 230.835 132.244 230.499 133.224H233.201V139.384H230.457V140.462H229.365V135.73C229.155 136.08 228.945 136.402 228.707 136.696C228.651 136.36 228.385 135.576 228.189 135.226C229.113 133.98 229.715 132.132 230.079 130.144H228.455ZM236.421 133.952H238.395V130.2H236.421V133.952ZM241.153 133.952V135.184H239.641V141.106H238.395V135.184H236.407C236.337 137.284 235.973 139.608 234.461 141.176C234.237 140.966 233.761 140.588 233.467 140.42C234.797 139.034 235.119 136.976 235.189 135.184H233.747V133.952H235.203V130.2H234.125V128.982H240.873V130.2H239.641V133.952H241.153ZM244.891 128.324L246.095 128.66C245.787 129.57 245.423 130.494 245.017 131.39V141.092H243.785V133.672C243.421 134.246 243.057 134.764 242.665 135.226C242.553 134.904 242.203 134.176 242.007 133.854C243.169 132.496 244.247 130.424 244.891 128.324ZM247.173 132.132V134.246C248.321 133.966 249.371 133.56 250.267 133.014C249.749 132.58 249.329 132.118 248.979 131.642C248.643 132.062 248.293 132.426 247.943 132.748C247.775 132.594 247.439 132.328 247.173 132.132ZM252.549 130.774H249.609L249.595 130.788C249.973 131.348 250.491 131.894 251.163 132.384C251.723 131.922 252.185 131.39 252.549 130.774ZM254.999 130.774H253.907C253.459 131.642 252.871 132.384 252.171 133.014C253.081 133.504 254.173 133.882 255.447 134.106C255.223 134.372 254.887 134.848 254.733 135.17C253.361 134.862 252.199 134.344 251.233 133.728C250.253 134.4 249.105 134.904 247.859 135.282C247.733 135.044 247.411 134.624 247.173 134.358V138.796H246.039V129.948H247.173V131.81C248.181 130.914 249.063 129.612 249.567 128.24L250.757 128.534C250.603 128.94 250.421 129.332 250.211 129.724H254.999V130.774ZM252.759 135.884L253.725 136.276C252.647 137.466 250.799 138.306 248.923 138.81C248.769 138.558 248.503 138.194 248.279 137.97C250.015 137.578 251.835 136.85 252.759 135.884ZM251.429 134.582L252.409 134.988C251.541 135.856 250.141 136.556 248.839 136.976C248.671 136.752 248.377 136.416 248.125 136.22C249.329 135.884 250.701 135.282 251.429 134.582ZM253.935 137.438L255.055 137.9C253.655 139.552 251.107 140.518 248.209 141.036C248.069 140.728 247.789 140.28 247.537 140.014C250.239 139.622 252.717 138.81 253.935 137.438Z" fill="#182346"/>
<circle cx="37" cy="135" r="5" fill="#0050B5"/>
<path d="M336.262 128.87C336.612 129.374 337.102 130.242 337.382 130.788L336.472 131.18C336.192 130.62 335.73 129.78 335.352 129.248L336.262 128.87ZM337.844 128.282C338.208 128.8 338.74 129.668 338.992 130.186L338.082 130.578C337.788 129.976 337.34 129.178 336.948 128.66L337.844 128.282ZM330.074 129.388C330.032 129.766 329.99 130.27 329.99 130.676V133.602C331.642 133.196 333.742 132.538 335.1 131.964C335.562 131.782 335.996 131.572 336.458 131.278L337.074 132.692C336.612 132.874 336.052 133.126 335.604 133.294C334.106 133.896 331.754 134.596 329.99 135.058V137.914C329.99 138.586 330.284 138.754 330.942 138.894C331.362 138.964 332.02 138.992 332.692 138.992C334.162 138.992 336.36 138.838 337.522 138.53V140.14C336.248 140.322 334.148 140.42 332.608 140.42C331.74 140.42 330.9 140.378 330.312 140.28C329.178 140.07 328.534 139.51 328.534 138.334V130.676C328.534 130.34 328.506 129.766 328.436 129.388H330.074ZM350.108 129.416C350.486 129.962 351.074 130.942 351.396 131.6L350.416 132.02C350.052 131.222 349.646 130.494 349.156 129.822L350.108 129.416ZM351.984 128.744C352.376 129.262 352.964 130.228 353.314 130.872L352.334 131.306C351.942 130.508 351.508 129.808 351.018 129.15L351.984 128.744ZM344.088 129.178C344.956 129.668 346.524 130.704 347.196 131.18L346.356 132.384C345.642 131.866 344.144 130.886 343.29 130.396L344.088 129.178ZM341.764 139.16C343.318 138.894 345.026 138.376 346.496 137.564C348.834 136.234 350.738 134.358 351.858 132.37L352.712 133.854C351.452 135.758 349.506 137.55 347.238 138.88C345.824 139.692 343.864 140.364 342.59 140.602L341.764 139.16ZM341.946 132.356C342.828 132.832 344.424 133.812 345.082 134.274L344.27 135.52C343.542 134.988 342.044 134.036 341.162 133.56L341.946 132.356ZM361.882 128.688C361.84 129.01 361.798 129.542 361.798 129.948V130.774H363.842C364.206 130.774 364.57 130.732 364.836 130.662L365.76 131.544C365.466 131.852 365.102 132.244 364.85 132.524C364.136 133.35 363.002 134.484 361.77 135.366V139.034C361.77 139.552 361.812 140.252 361.84 140.686H360.244C360.3 140.28 360.342 139.552 360.342 139.034V136.276C359.04 136.99 357.528 137.606 355.806 138.11L354.952 136.808C357.626 136.192 359.404 135.254 360.65 134.442C361.826 133.686 362.834 132.72 363.282 132.09H357.794C357.29 132.09 356.464 132.118 356.03 132.146V130.69C356.506 130.746 357.29 130.774 357.766 130.774H360.37V129.948C360.37 129.528 360.342 129.01 360.286 128.688H361.882ZM366.222 138.278C365.004 137.354 364.122 136.78 362.862 136.094L363.772 135.044C365.074 135.744 365.816 136.164 367.146 137.06L366.222 138.278ZM379.41 130.578C379.312 130.718 379.102 131.068 379.004 131.306C378.514 132.454 377.688 134.036 376.708 135.296C378.15 136.528 379.844 138.334 380.712 139.398L379.48 140.49C378.556 139.23 377.156 137.69 375.77 136.402C374.272 137.998 372.382 139.496 370.38 140.434L369.246 139.244C371.514 138.376 373.614 136.696 375 135.142C375.952 134.078 376.89 132.538 377.226 131.446H372.088C371.542 131.446 370.786 131.516 370.562 131.53V129.948C370.842 129.99 371.654 130.046 372.088 130.046H377.282C377.8 130.046 378.262 129.99 378.5 129.906L379.41 130.578ZM394.722 131.152C394.568 131.334 394.414 131.502 394.316 131.642C393.308 133.294 391.516 135.562 389.374 137.242C390.2 138.068 391.11 139.048 391.67 139.72L390.382 140.756C389.822 140 388.688 138.74 387.792 137.816C386.952 136.99 385.426 135.646 384.642 135.1L385.79 134.162C386.322 134.554 387.372 135.408 388.31 136.234C390.158 134.82 391.628 132.944 392.314 131.74H384.446C383.886 131.74 383.228 131.796 382.934 131.824V130.256C383.312 130.312 383.97 130.368 384.446 130.368H392.538C392.986 130.368 393.378 130.326 393.616 130.242L394.722 131.152ZM396.64 134.778C399.09 134.12 401.19 133.168 402.744 132.202C404.2 131.306 405.684 130.004 406.636 128.87L407.812 129.99C406.748 131.068 405.432 132.146 404.046 133.056V138.866C404.046 139.44 404.074 140.21 404.144 140.518H402.408C402.45 140.21 402.492 139.44 402.492 138.866V133.994C401.022 134.792 399.174 135.604 397.326 136.164L396.64 134.778ZM412.838 129.57C413.818 130.228 415.638 131.684 416.422 132.496L415.316 133.63C414.588 132.888 412.852 131.362 411.816 130.662L412.838 129.57ZM411.396 138.936C413.734 138.586 415.554 137.802 416.898 136.976C419.152 135.59 420.902 133.49 421.756 131.698L422.61 133.224C421.602 135.044 419.88 136.948 417.696 138.292C416.282 139.16 414.504 139.986 412.334 140.378L411.396 138.936ZM432.914 129.78C433.292 130.326 433.88 131.236 434.188 131.894L433.208 132.328C432.844 131.53 432.452 130.858 431.976 130.186L432.914 129.78ZM434.678 129.052C435.056 129.57 435.658 130.48 435.994 131.11L435.028 131.586C434.622 130.788 434.23 130.144 433.74 129.486L434.678 129.052ZM427.72 138.908V130.816C427.72 130.368 427.678 129.71 427.594 129.248H429.316C429.274 129.71 429.204 130.312 429.204 130.816C429.204 131.334 429.204 132.118 429.204 133C431.052 133.546 433.74 134.554 435.126 135.24L434.51 136.752C433.026 135.968 430.744 135.086 429.204 134.582C429.218 136.514 429.218 138.446 429.218 138.908C429.218 139.342 429.26 140.196 429.316 140.7H427.608C427.678 140.21 427.72 139.44 427.72 138.908ZM441.93 138.236V134.386H440.306V138.236H441.93ZM438.304 130.144V128.968H443.26V130.144H441.16C440.95 131.208 440.684 132.244 440.348 133.224H443.05V139.384H440.306V140.462H439.214V135.73C439.004 136.08 438.794 136.402 438.556 136.696C438.5 136.36 438.234 135.576 438.038 135.226C438.962 133.98 439.564 132.132 439.928 130.144H438.304ZM446.27 133.952H448.244V130.2H446.27V133.952ZM451.002 133.952V135.184H449.49V141.106H448.244V135.184H446.256C446.186 137.284 445.822 139.608 444.31 141.176C444.086 140.966 443.61 140.588 443.316 140.42C444.646 139.034 444.968 136.976 445.038 135.184H443.596V133.952H445.052V130.2H443.974V128.982H450.722V130.2H449.49V133.952H451.002ZM454.74 128.324L455.944 128.66C455.636 129.57 455.272 130.494 454.866 131.39V141.092H453.634V133.672C453.27 134.246 452.906 134.764 452.514 135.226C452.402 134.904 452.052 134.176 451.856 133.854C453.018 132.496 454.096 130.424 454.74 128.324ZM457.022 132.132V134.246C458.17 133.966 459.22 133.56 460.116 133.014C459.598 132.58 459.178 132.118 458.828 131.642C458.492 132.062 458.142 132.426 457.792 132.748C457.624 132.594 457.288 132.328 457.022 132.132ZM462.398 130.774H459.458L459.444 130.788C459.822 131.348 460.34 131.894 461.012 132.384C461.572 131.922 462.034 131.39 462.398 130.774ZM464.848 130.774H463.756C463.308 131.642 462.72 132.384 462.02 133.014C462.93 133.504 464.022 133.882 465.296 134.106C465.072 134.372 464.736 134.848 464.582 135.17C463.21 134.862 462.048 134.344 461.082 133.728C460.102 134.4 458.954 134.904 457.708 135.282C457.582 135.044 457.26 134.624 457.022 134.358V138.796H455.888V129.948H457.022V131.81C458.03 130.914 458.912 129.612 459.416 128.24L460.606 128.534C460.452 128.94 460.27 129.332 460.06 129.724H464.848V130.774ZM462.608 135.884L463.574 136.276C462.496 137.466 460.648 138.306 458.772 138.81C458.618 138.558 458.352 138.194 458.128 137.97C459.864 137.578 461.684 136.85 462.608 135.884ZM461.278 134.582L462.258 134.988C461.39 135.856 459.99 136.556 458.688 136.976C458.52 136.752 458.226 136.416 457.974 136.22C459.178 135.884 460.55 135.282 461.278 134.582ZM463.784 137.438L464.904 137.9C463.504 139.552 460.956 140.518 458.058 141.036C457.918 140.728 457.638 140.28 457.386 140.014C460.088 139.622 462.566 138.81 463.784 137.438Z" fill="#182346"/>
<circle cx="317" cy="135" r="5" fill="#0050B5"/>
<path d="M56.262 158.87C56.612 159.374 57.102 160.242 57.382 160.788L56.472 161.18C56.192 160.62 55.73 159.78 55.352 159.248L56.262 158.87ZM57.844 158.282C58.208 158.8 58.74 159.668 58.992 160.186L58.082 160.578C57.788 159.976 57.34 159.178 56.948 158.66L57.844 158.282ZM50.074 159.388C50.032 159.766 49.99 160.27 49.99 160.676V163.602C51.642 163.196 53.742 162.538 55.1 161.964C55.562 161.782 55.996 161.572 56.458 161.278L57.074 162.692C56.612 162.874 56.052 163.126 55.604 163.294C54.106 163.896 51.754 164.596 49.99 165.058V167.914C49.99 168.586 50.284 168.754 50.942 168.894C51.362 168.964 52.02 168.992 52.692 168.992C54.162 168.992 56.36 168.838 57.522 168.53V170.14C56.248 170.322 54.148 170.42 52.608 170.42C51.74 170.42 50.9 170.378 50.312 170.28C49.178 170.07 48.534 169.51 48.534 168.334V160.676C48.534 160.34 48.506 159.766 48.436 159.388H50.074ZM70.108 159.416C70.486 159.962 71.074 160.942 71.396 161.6L70.416 162.02C70.052 161.222 69.646 160.494 69.156 159.822L70.108 159.416ZM71.984 158.744C72.376 159.262 72.964 160.228 73.314 160.872L72.334 161.306C71.942 160.508 71.508 159.808 71.018 159.15L71.984 158.744ZM64.088 159.178C64.956 159.668 66.524 160.704 67.196 161.18L66.356 162.384C65.642 161.866 64.144 160.886 63.29 160.396L64.088 159.178ZM61.764 169.16C63.318 168.894 65.026 168.376 66.496 167.564C68.834 166.234 70.738 164.358 71.858 162.37L72.712 163.854C71.452 165.758 69.506 167.55 67.238 168.88C65.824 169.692 63.864 170.364 62.59 170.602L61.764 169.16ZM61.946 162.356C62.828 162.832 64.424 163.812 65.082 164.274L64.27 165.52C63.542 164.988 62.044 164.036 61.162 163.56L61.946 162.356ZM81.882 158.688C81.84 159.01 81.798 159.542 81.798 159.948V160.774H83.842C84.206 160.774 84.57 160.732 84.836 160.662L85.76 161.544C85.466 161.852 85.102 162.244 84.85 162.524C84.136 163.35 83.002 164.484 81.77 165.366V169.034C81.77 169.552 81.812 170.252 81.84 170.686H80.244C80.3 170.28 80.342 169.552 80.342 169.034V166.276C79.04 166.99 77.528 167.606 75.806 168.11L74.952 166.808C77.626 166.192 79.404 165.254 80.65 164.442C81.826 163.686 82.834 162.72 83.282 162.09H77.794C77.29 162.09 76.464 162.118 76.03 162.146V160.69C76.506 160.746 77.29 160.774 77.766 160.774H80.37V159.948C80.37 159.528 80.342 159.01 80.286 158.688H81.882ZM86.222 168.278C85.004 167.354 84.122 166.78 82.862 166.094L83.772 165.044C85.074 165.744 85.816 166.164 87.146 167.06L86.222 168.278ZM99.41 160.578C99.312 160.718 99.102 161.068 99.004 161.306C98.514 162.454 97.688 164.036 96.708 165.296C98.15 166.528 99.844 168.334 100.712 169.398L99.48 170.49C98.556 169.23 97.156 167.69 95.77 166.402C94.272 167.998 92.382 169.496 90.38 170.434L89.246 169.244C91.514 168.376 93.614 166.696 95 165.142C95.952 164.078 96.89 162.538 97.226 161.446H92.088C91.542 161.446 90.786 161.516 90.562 161.53V159.948C90.842 159.99 91.654 160.046 92.088 160.046H97.282C97.8 160.046 98.262 159.99 98.5 159.906L99.41 160.578ZM108.958 161.222H114.698C114.698 161.222 114.684 161.684 114.67 161.866C114.362 167.536 114.096 169.608 113.48 170.322C113.102 170.77 112.738 170.91 112.192 170.966C111.688 171.022 110.792 171.008 109.966 170.966C109.938 170.588 109.756 170.014 109.504 169.622C110.428 169.706 111.282 169.706 111.632 169.706C111.94 169.706 112.108 169.664 112.276 169.496C112.752 169.048 113.046 167.13 113.284 162.552H108.902C108.692 165.436 107.74 168.824 103.764 171.176C103.554 170.854 103.064 170.364 102.756 170.126C106.396 168.04 107.306 165.072 107.516 162.552H103.176V161.222H107.586V160.872V158.282H108.958V160.872V161.222ZM121.138 170.182C118.856 170.182 117.302 168.936 117.302 165.576V159.682H118.926V165.688C118.926 168.012 119.85 168.768 121.138 168.768C122.44 168.768 123.392 168.012 123.392 165.688V159.682H124.96V165.576C124.96 168.936 123.42 170.182 121.138 170.182ZM127.626 170V159.682H130.748C133.044 159.682 134.682 160.48 134.682 162.804C134.682 165.058 133.044 166.094 130.804 166.094H129.25V170H127.626ZM129.25 164.792H130.65C132.302 164.792 133.086 164.162 133.086 162.804C133.086 161.446 132.232 160.998 130.594 160.998H129.25V164.792ZM139.686 168.236V164.386H138.062V168.236H139.686ZM136.06 160.144V158.968H141.016V160.144H138.916C138.706 161.208 138.44 162.244 138.104 163.224H140.806V169.384H138.062V170.462H136.97V165.73C136.76 166.08 136.55 166.402 136.312 166.696C136.256 166.36 135.99 165.576 135.794 165.226C136.718 163.98 137.32 162.132 137.684 160.144H136.06ZM144.026 163.952H146V160.2H144.026V163.952ZM148.758 163.952V165.184H147.246V171.106H146V165.184H144.012C143.942 167.284 143.578 169.608 142.066 171.176C141.842 170.966 141.366 170.588 141.072 170.42C142.402 169.034 142.724 166.976 142.794 165.184H141.352V163.952H142.808V160.2H141.73V158.982H148.478V160.2H147.246V163.952H148.758ZM152.496 158.324L153.7 158.66C153.392 159.57 153.028 160.494 152.622 161.39V171.092H151.39V163.672C151.026 164.246 150.662 164.764 150.27 165.226C150.158 164.904 149.808 164.176 149.612 163.854C150.774 162.496 151.852 160.424 152.496 158.324ZM154.778 162.132V164.246C155.926 163.966 156.976 163.56 157.872 163.014C157.354 162.58 156.934 162.118 156.584 161.642C156.248 162.062 155.898 162.426 155.548 162.748C155.38 162.594 155.044 162.328 154.778 162.132ZM160.154 160.774H157.214L157.2 160.788C157.578 161.348 158.096 161.894 158.768 162.384C159.328 161.922 159.79 161.39 160.154 160.774ZM162.604 160.774H161.512C161.064 161.642 160.476 162.384 159.776 163.014C160.686 163.504 161.778 163.882 163.052 164.106C162.828 164.372 162.492 164.848 162.338 165.17C160.966 164.862 159.804 164.344 158.838 163.728C157.858 164.4 156.71 164.904 155.464 165.282C155.338 165.044 155.016 164.624 154.778 164.358V168.796H153.644V159.948H154.778V161.81C155.786 160.914 156.668 159.612 157.172 158.24L158.362 158.534C158.208 158.94 158.026 159.332 157.816 159.724H162.604V160.774ZM160.364 165.884L161.33 166.276C160.252 167.466 158.404 168.306 156.528 168.81C156.374 168.558 156.108 168.194 155.884 167.97C157.62 167.578 159.44 166.85 160.364 165.884ZM159.034 164.582L160.014 164.988C159.146 165.856 157.746 166.556 156.444 166.976C156.276 166.752 155.982 166.416 155.73 166.22C156.934 165.884 158.306 165.282 159.034 164.582ZM161.54 167.438L162.66 167.9C161.26 169.552 158.712 170.518 155.814 171.036C155.674 170.728 155.394 170.28 155.142 170.014C157.844 169.622 160.322 168.81 161.54 167.438Z" fill="#182346"/>
<circle cx="37" cy="165" r="5" fill="#0050B5"/>
</svg>
