<svg width="680" height="326" viewBox="0 0 680 326" fill="none" xmlns="http://www.w3.org/2000/svg">
<path d="M0 257H272V325H0V257Z" fill="#0050B5"/>
<path d="M65.4407 288.234C62.1107 288.234 59.5547 285.75 59.5547 281.412C59.5547 277.092 62.1827 274.5 65.5307 274.5C67.1867 274.5 68.4827 275.292 69.2927 276.174L68.1587 277.506C67.4747 276.804 66.6467 276.318 65.5667 276.318C63.2807 276.318 61.6967 278.226 61.6967 281.34C61.6967 284.49 63.1727 286.416 65.5127 286.416C66.7367 286.416 67.6547 285.876 68.4467 285.012L69.5627 286.326C68.5007 287.55 67.1507 288.234 65.4407 288.234ZM77.2186 288.234C73.8166 288.234 71.4586 285.588 71.4586 281.322C71.4586 277.056 73.8166 274.5 77.2186 274.5C80.6206 274.5 82.9966 277.056 82.9966 281.322C82.9966 285.588 80.6206 288.234 77.2186 288.234ZM77.2186 286.416C79.4146 286.416 80.8546 284.418 80.8546 281.322C80.8546 278.208 79.4146 276.318 77.2186 276.318C75.0226 276.318 73.6006 278.208 73.6006 281.322C73.6006 284.418 75.0226 286.416 77.2186 286.416ZM86.6489 288V274.734H89.0429L91.4729 281.448C91.7789 282.33 92.0489 283.23 92.3549 284.112H92.4449C92.7509 283.23 93.0029 282.33 93.3089 281.448L95.7029 274.734H98.1149V288H96.1709V281.448C96.1709 280.26 96.3329 278.55 96.4409 277.344H96.3689L95.3069 280.404L93.0029 286.722H91.7069L89.3849 280.404L88.3409 277.344H88.2689C88.3589 278.55 88.5209 280.26 88.5209 281.448V288H86.6489ZM102.49 288V274.734H106.504C109.456 274.734 111.562 275.76 111.562 278.748C111.562 281.646 109.456 282.978 106.576 282.978H104.578V288H102.49ZM104.578 281.304H106.378C108.502 281.304 109.51 280.494 109.51 278.748C109.51 277.002 108.412 276.426 106.306 276.426H104.578V281.304ZM116.581 280.8L116.041 282.582H119.659L119.137 280.8C118.687 279.36 118.291 277.884 117.895 276.39H117.805C117.427 277.902 117.013 279.36 116.581 280.8ZM112.297 288L116.689 274.734H119.101L123.493 288H121.279L120.163 284.22H115.555L114.421 288H112.297ZM126.14 288V274.734H128.282L132.674 282.528L134.06 285.336H134.15C134.042 283.968 133.88 282.366 133.88 280.926V274.734H135.86V288H133.718L129.326 280.188L127.94 277.416H127.85C127.958 278.784 128.12 280.314 128.12 281.754V288H126.14ZM142.437 288V282.978L138.459 274.734H140.691L142.221 278.262C142.635 279.252 143.013 280.17 143.463 281.178H143.535C143.967 280.17 144.399 279.252 144.795 278.262L146.343 274.734H148.521L144.525 282.978V288H142.437ZM153.628 291.582C151.954 288.846 150.964 285.948 150.964 282.366C150.964 278.82 151.954 275.886 153.628 273.168L154.924 273.726C153.376 276.318 152.656 279.36 152.656 282.366C152.656 285.39 153.376 288.432 154.924 291.006L153.628 291.582ZM158.406 288V274.734H162.744C165.48 274.734 167.532 275.724 167.532 278.586C167.532 280.638 166.434 281.862 164.76 282.384L168 288H165.642L162.636 282.654H160.494V288H158.406ZM160.494 280.98H162.492C164.418 280.98 165.462 280.188 165.462 278.586C165.462 276.984 164.418 276.426 162.492 276.426H160.494V280.98ZM171.497 291.582L170.201 291.006C171.749 288.432 172.469 285.39 172.469 282.366C172.469 279.36 171.749 276.318 170.201 273.726L171.497 273.168C173.189 275.886 174.179 278.82 174.179 282.366C174.179 285.948 173.189 288.846 171.497 291.582ZM183.169 285.732V280.782H181.081V285.732H183.169ZM178.507 275.328V273.816H184.879V275.328H182.179C181.909 276.696 181.567 278.028 181.135 279.288H184.609V287.208H181.081V288.594H179.677V282.51C179.407 282.96 179.137 283.374 178.831 283.752C178.759 283.32 178.417 282.312 178.165 281.862C179.353 280.26 180.127 277.884 180.595 275.328H178.507ZM188.749 280.224H191.287V275.4H188.749V280.224ZM194.833 280.224V281.808H192.889V289.422H191.287V281.808H188.731C188.641 284.508 188.173 287.496 186.229 289.512C185.941 289.242 185.329 288.756 184.951 288.54C186.661 286.758 187.075 284.112 187.165 281.808H185.311V280.224H187.183V275.4H185.797V273.834H194.473V275.4H192.889V280.224H194.833ZM200.539 272.988L202.087 273.42C201.691 274.59 201.223 275.778 200.701 276.93V289.404H199.117V279.864C198.649 280.602 198.181 281.268 197.677 281.862C197.533 281.448 197.083 280.512 196.831 280.098C198.325 278.352 199.711 275.688 200.539 272.988ZM203.473 277.884V280.602C204.949 280.242 206.299 279.72 207.451 279.018C206.785 278.46 206.245 277.866 205.795 277.254C205.363 277.794 204.913 278.262 204.463 278.676C204.247 278.478 203.815 278.136 203.473 277.884ZM210.385 276.138H206.605L206.587 276.156C207.073 276.876 207.739 277.578 208.603 278.208C209.323 277.614 209.917 276.93 210.385 276.138ZM213.535 276.138H212.131C211.555 277.254 210.799 278.208 209.899 279.018C211.069 279.648 212.473 280.134 214.111 280.422C213.823 280.764 213.391 281.376 213.193 281.79C211.429 281.394 209.935 280.728 208.693 279.936C207.433 280.8 205.957 281.448 204.355 281.934C204.193 281.628 203.779 281.088 203.473 280.746V286.452H202.015V275.076H203.473V277.47C204.769 276.318 205.903 274.644 206.551 272.88L208.081 273.258C207.883 273.78 207.649 274.284 207.379 274.788H213.535V276.138ZM210.655 282.708L211.897 283.212C210.511 284.742 208.135 285.822 205.723 286.47C205.525 286.146 205.183 285.678 204.895 285.39C207.127 284.886 209.467 283.95 210.655 282.708ZM208.945 281.034L210.205 281.556C209.089 282.672 207.289 283.572 205.615 284.112C205.399 283.824 205.021 283.392 204.697 283.14C206.245 282.708 208.009 281.934 208.945 281.034ZM212.167 284.706L213.607 285.3C211.807 287.424 208.531 288.666 204.805 289.332C204.625 288.936 204.265 288.36 203.941 288.018C207.415 287.514 210.601 286.47 212.167 284.706Z" fill="white"/>
<path d="M98.8805 299.92C98.3885 299.92 97.9805 299.512 97.9805 299.02C97.9805 298.528 98.3885 298.12 98.8805 298.12C99.3725 298.12 99.7805 298.528 99.7805 299.02C99.7805 299.512 99.3725 299.92 98.8805 299.92ZM98.8805 302.092L102.84 298.132L103.188 298.48L99.2285 302.44L103.188 306.4L102.84 306.748L98.8805 302.788L94.9085 306.76L94.5605 306.412L98.5325 302.44L94.5725 298.48L94.9205 298.132L98.8805 302.092ZM96.3605 302.44C96.3605 302.932 95.9525 303.34 95.4605 303.34C94.9685 303.34 94.5605 302.932 94.5605 302.44C94.5605 301.948 94.9685 301.54 95.4605 301.54C95.9525 301.54 96.3605 301.948 96.3605 302.44ZM101.4 302.44C101.4 301.948 101.808 301.54 102.3 301.54C102.792 301.54 103.2 301.948 103.2 302.44C103.2 302.932 102.792 303.34 102.3 303.34C101.808 303.34 101.4 302.932 101.4 302.44ZM98.8805 304.96C99.3725 304.96 99.7805 305.368 99.7805 305.86C99.7805 306.352 99.3725 306.76 98.8805 306.76C98.3885 306.76 97.9805 306.352 97.9805 305.86C97.9805 305.368 98.3885 304.96 98.8805 304.96ZM109.164 307.156C107.952 307.156 106.824 306.676 106.02 305.86L106.836 304.9C107.472 305.536 108.336 305.944 109.188 305.944C110.256 305.944 110.856 305.44 110.856 304.696C110.856 303.892 110.256 303.64 109.44 303.28L108.216 302.752C107.364 302.392 106.416 301.72 106.416 300.436C106.416 299.044 107.64 298 109.32 298C110.352 298 111.324 298.432 111.996 299.116L111.264 300.004C110.712 299.512 110.1 299.212 109.32 299.212C108.42 299.212 107.832 299.644 107.832 300.34C107.832 301.108 108.54 301.396 109.26 301.684L110.472 302.2C111.516 302.644 112.272 303.292 112.272 304.588C112.272 306.004 111.096 307.156 109.164 307.156ZM117.905 306.016C119.369 306.016 120.329 304.684 120.329 302.548C120.329 300.472 119.369 299.212 117.905 299.212C116.441 299.212 115.493 300.472 115.493 302.548C115.493 304.684 116.441 306.016 117.905 306.016ZM120.677 309.292C118.961 309.292 117.785 308.368 117.245 307.108C115.337 306.784 114.065 305.104 114.065 302.548C114.065 299.704 115.637 298 117.905 298C120.173 298 121.757 299.704 121.757 302.548C121.757 305.032 120.545 306.688 118.733 307.072C119.129 307.816 119.945 308.152 120.833 308.152C121.217 308.152 121.529 308.092 121.769 308.02L122.033 309.064C121.745 309.196 121.253 309.292 120.677 309.292ZM124.192 307V298.156H125.584V305.824H129.328V307H124.192ZM134.052 305.488V302.188H132.66V305.488H134.052ZM130.944 298.552V297.544H135.192V298.552H133.392C133.212 299.464 132.984 300.352 132.696 301.192H135.012V306.472H132.66V307.396H131.724V303.34C131.544 303.64 131.364 303.916 131.16 304.168C131.112 303.88 130.884 303.208 130.716 302.908C131.508 301.84 132.024 300.256 132.336 298.552H130.944ZM137.772 301.816H139.464V298.6H137.772V301.816ZM141.828 301.816V302.872H140.532V307.948H139.464V302.872H137.76C137.7 304.672 137.388 306.664 136.092 308.008C135.9 307.828 135.492 307.504 135.24 307.36C136.38 306.172 136.656 304.408 136.716 302.872H135.48V301.816H136.728V298.6H135.804V297.556H141.588V298.6H140.532V301.816H141.828ZM145.632 296.992L146.664 297.28C146.4 298.06 146.088 298.852 145.74 299.62V307.936H144.684V301.576C144.372 302.068 144.06 302.512 143.724 302.908C143.628 302.632 143.328 302.008 143.16 301.732C144.156 300.568 145.08 298.792 145.632 296.992ZM147.588 300.256V302.068C148.572 301.828 149.472 301.48 150.24 301.012C149.796 300.64 149.436 300.244 149.136 299.836C148.848 300.196 148.548 300.508 148.248 300.784C148.104 300.652 147.816 300.424 147.588 300.256ZM152.196 299.092H149.676L149.664 299.104C149.988 299.584 150.432 300.052 151.008 300.472C151.488 300.076 151.884 299.62 152.196 299.092ZM154.296 299.092H153.36C152.976 299.836 152.472 300.472 151.872 301.012C152.652 301.432 153.588 301.756 154.68 301.948C154.488 302.176 154.2 302.584 154.068 302.86C152.892 302.596 151.896 302.152 151.068 301.624C150.228 302.2 149.244 302.632 148.176 302.956C148.068 302.752 147.792 302.392 147.588 302.164V305.968H146.616V298.384H147.588V299.98C148.452 299.212 149.208 298.096 149.64 296.92L150.66 297.172C150.528 297.52 150.372 297.856 150.192 298.192H154.296V299.092ZM152.376 303.472L153.204 303.808C152.28 304.828 150.696 305.548 149.088 305.98C148.956 305.764 148.728 305.452 148.536 305.26C150.024 304.924 151.584 304.3 152.376 303.472ZM151.236 302.356L152.076 302.704C151.332 303.448 150.132 304.048 149.016 304.408C148.872 304.216 148.62 303.928 148.404 303.76C149.436 303.472 150.612 302.956 151.236 302.356ZM153.384 304.804L154.344 305.2C153.144 306.616 150.96 307.444 148.476 307.888C148.356 307.624 148.116 307.24 147.9 307.012C150.216 306.676 152.34 305.98 153.384 304.804ZM164.208 306.556V304.696H158.868V306.556H164.208ZM164.292 301.096L165.156 301.408C164.784 302.164 164.316 302.98 163.848 303.712H165.348V307.96H164.208V307.516H158.868V307.96H157.776V303.712H162.528C162.84 303.22 163.188 302.644 163.464 302.14H157.584V301.156H164.112L164.292 301.096ZM159.624 299.368H163.416C162.66 298.888 161.976 298.36 161.472 297.832C161.016 298.336 160.368 298.864 159.624 299.368ZM160.872 296.908H161.964C163.296 298.3 165.3 299.416 167.136 299.968C166.896 300.22 166.644 300.616 166.476 300.916C165.648 300.604 164.724 300.16 163.86 299.644V300.292H159.252V299.608C158.412 300.136 157.476 300.616 156.54 300.988C156.432 300.736 156.156 300.316 155.928 300.1C157.932 299.38 159.9 298.096 160.872 296.908ZM172.728 297.4C172.68 297.7 172.632 298.144 172.632 298.696V298.996C173.364 298.912 174.132 298.78 174.876 298.576V299.728C174.144 299.896 173.352 300.004 172.632 300.076V301.78C172.848 302.068 172.956 302.464 172.956 302.908C172.956 303.616 172.788 304.408 172.332 304.936C172.32 305.164 172.32 305.392 172.32 305.584C172.32 306.184 172.476 306.448 174.072 306.448C174.72 306.448 175.584 306.364 176.016 306.232C176.64 306.04 176.964 305.668 176.964 304.948C176.964 304.48 176.952 304.048 176.892 303.544L178.188 303.94C178.2 304.48 178.212 304.78 178.188 305.284C178.128 306.388 177.744 306.976 176.532 307.324C176.004 307.48 174.792 307.576 173.988 307.576C171.408 307.576 171.168 306.868 171.168 306.004C171.168 305.86 171.168 305.704 171.168 305.56C171.072 305.572 170.976 305.584 170.868 305.584C170.112 305.584 169.224 305.032 169.224 303.58C169.224 302.26 170.076 301.168 171.312 301.168C171.384 301.168 171.456 301.168 171.516 301.18C171.516 300.856 171.516 300.508 171.516 300.148C171.384 300.16 171.264 300.16 171.144 300.16C170.628 300.16 169.956 300.124 169.212 300.04L169.152 298.936C169.848 299.032 170.484 299.092 171.072 299.092C171.216 299.092 171.36 299.092 171.504 299.08C171.504 298.936 171.504 298.804 171.504 298.696C171.504 298.108 171.48 297.7 171.408 297.4H172.728ZM176.856 298.564C177.588 299.044 178.776 300.148 179.328 300.808L178.476 301.684C177.852 300.904 176.748 299.836 176.076 299.356L176.856 298.564ZM170.988 304.456C171.636 304.456 171.876 303.724 171.876 302.968C171.876 302.44 171.624 302.128 171.24 302.128C170.688 302.128 170.232 302.692 170.232 303.496C170.232 304.108 170.592 304.456 170.988 304.456Z" fill="white"/>
<path d="M376 257H648V325H376V257Z" fill="#0050B5"/>
<path d="M441.441 288.234C438.111 288.234 435.555 285.75 435.555 281.412C435.555 277.092 438.183 274.5 441.531 274.5C443.187 274.5 444.483 275.292 445.293 276.174L444.159 277.506C443.475 276.804 442.647 276.318 441.567 276.318C439.281 276.318 437.697 278.226 437.697 281.34C437.697 284.49 439.173 286.416 441.513 286.416C442.737 286.416 443.655 285.876 444.447 285.012L445.563 286.326C444.501 287.55 443.151 288.234 441.441 288.234ZM453.219 288.234C449.817 288.234 447.459 285.588 447.459 281.322C447.459 277.056 449.817 274.5 453.219 274.5C456.621 274.5 458.997 277.056 458.997 281.322C458.997 285.588 456.621 288.234 453.219 288.234ZM453.219 286.416C455.415 286.416 456.855 284.418 456.855 281.322C456.855 278.208 455.415 276.318 453.219 276.318C451.023 276.318 449.601 278.208 449.601 281.322C449.601 284.418 451.023 286.416 453.219 286.416ZM462.649 288V274.734H465.043L467.473 281.448C467.779 282.33 468.049 283.23 468.355 284.112H468.445C468.751 283.23 469.003 282.33 469.309 281.448L471.703 274.734H474.115V288H472.171V281.448C472.171 280.26 472.333 278.55 472.441 277.344H472.369L471.307 280.404L469.003 286.722H467.707L465.385 280.404L464.341 277.344H464.269C464.359 278.55 464.521 280.26 464.521 281.448V288H462.649ZM478.49 288V274.734H482.504C485.456 274.734 487.562 275.76 487.562 278.748C487.562 281.646 485.456 282.978 482.576 282.978H480.578V288H478.49ZM480.578 281.304H482.378C484.502 281.304 485.51 280.494 485.51 278.748C485.51 277.002 484.412 276.426 482.306 276.426H480.578V281.304ZM492.581 280.8L492.041 282.582H495.659L495.137 280.8C494.687 279.36 494.291 277.884 493.895 276.39H493.805C493.427 277.902 493.013 279.36 492.581 280.8ZM488.297 288L492.689 274.734H495.101L499.493 288H497.279L496.163 284.22H491.555L490.421 288H488.297ZM502.14 288V274.734H504.282L508.674 282.528L510.06 285.336H510.15C510.042 283.968 509.88 282.366 509.88 280.926V274.734H511.86V288H509.718L505.326 280.188L503.94 277.416H503.85C503.958 278.784 504.12 280.314 504.12 281.754V288H502.14ZM518.437 288V282.978L514.459 274.734H516.691L518.221 278.262C518.635 279.252 519.013 280.17 519.463 281.178H519.535C519.967 280.17 520.399 279.252 520.795 278.262L522.343 274.734H524.521L520.525 282.978V288H518.437ZM529.628 291.582C527.954 288.846 526.964 285.948 526.964 282.366C526.964 278.82 527.954 275.886 529.628 273.168L530.924 273.726C529.376 276.318 528.656 279.36 528.656 282.366C528.656 285.39 529.376 288.432 530.924 291.006L529.628 291.582ZM534.406 288V274.734H538.744C541.48 274.734 543.532 275.724 543.532 278.586C543.532 280.638 542.434 281.862 540.76 282.384L544 288H541.642L538.636 282.654H536.494V288H534.406ZM536.494 280.98H538.492C540.418 280.98 541.462 280.188 541.462 278.586C541.462 276.984 540.418 276.426 538.492 276.426H536.494V280.98ZM547.497 291.582L546.201 291.006C547.749 288.432 548.469 285.39 548.469 282.366C548.469 279.36 547.749 276.318 546.201 273.726L547.497 273.168C549.189 275.886 550.179 278.82 550.179 282.366C550.179 285.948 549.189 288.846 547.497 291.582ZM559.169 285.732V280.782H557.081V285.732H559.169ZM554.507 275.328V273.816H560.879V275.328H558.179C557.909 276.696 557.567 278.028 557.135 279.288H560.609V287.208H557.081V288.594H555.677V282.51C555.407 282.96 555.137 283.374 554.831 283.752C554.759 283.32 554.417 282.312 554.165 281.862C555.353 280.26 556.127 277.884 556.595 275.328H554.507ZM564.749 280.224H567.287V275.4H564.749V280.224ZM570.833 280.224V281.808H568.889V289.422H567.287V281.808H564.731C564.641 284.508 564.173 287.496 562.229 289.512C561.941 289.242 561.329 288.756 560.951 288.54C562.661 286.758 563.075 284.112 563.165 281.808H561.311V280.224H563.183V275.4H561.797V273.834H570.473V275.4H568.889V280.224H570.833ZM576.539 272.988L578.087 273.42C577.691 274.59 577.223 275.778 576.701 276.93V289.404H575.117V279.864C574.649 280.602 574.181 281.268 573.677 281.862C573.533 281.448 573.083 280.512 572.831 280.098C574.325 278.352 575.711 275.688 576.539 272.988ZM579.473 277.884V280.602C580.949 280.242 582.299 279.72 583.451 279.018C582.785 278.46 582.245 277.866 581.795 277.254C581.363 277.794 580.913 278.262 580.463 278.676C580.247 278.478 579.815 278.136 579.473 277.884ZM586.385 276.138H582.605L582.587 276.156C583.073 276.876 583.739 277.578 584.603 278.208C585.323 277.614 585.917 276.93 586.385 276.138ZM589.535 276.138H588.131C587.555 277.254 586.799 278.208 585.899 279.018C587.069 279.648 588.473 280.134 590.111 280.422C589.823 280.764 589.391 281.376 589.193 281.79C587.429 281.394 585.935 280.728 584.693 279.936C583.433 280.8 581.957 281.448 580.355 281.934C580.193 281.628 579.779 281.088 579.473 280.746V286.452H578.015V275.076H579.473V277.47C580.769 276.318 581.903 274.644 582.551 272.88L584.081 273.258C583.883 273.78 583.649 274.284 583.379 274.788H589.535V276.138ZM586.655 282.708L587.897 283.212C586.511 284.742 584.135 285.822 581.723 286.47C581.525 286.146 581.183 285.678 580.895 285.39C583.127 284.886 585.467 283.95 586.655 282.708ZM584.945 281.034L586.205 281.556C585.089 282.672 583.289 283.572 581.615 284.112C581.399 283.824 581.021 283.392 580.697 283.14C582.245 282.708 584.009 281.934 584.945 281.034ZM588.167 284.706L589.607 285.3C587.807 287.424 584.531 288.666 580.805 289.332C580.625 288.936 580.265 288.36 579.941 288.018C583.415 287.514 586.601 286.47 588.167 284.706Z" fill="white"/>
<path d="M474.88 299.92C474.388 299.92 473.98 299.512 473.98 299.02C473.98 298.528 474.388 298.12 474.88 298.12C475.372 298.12 475.78 298.528 475.78 299.02C475.78 299.512 475.372 299.92 474.88 299.92ZM474.88 302.092L478.84 298.132L479.188 298.48L475.228 302.44L479.188 306.4L478.84 306.748L474.88 302.788L470.908 306.76L470.56 306.412L474.532 302.44L470.572 298.48L470.92 298.132L474.88 302.092ZM472.36 302.44C472.36 302.932 471.952 303.34 471.46 303.34C470.968 303.34 470.56 302.932 470.56 302.44C470.56 301.948 470.968 301.54 471.46 301.54C471.952 301.54 472.36 301.948 472.36 302.44ZM477.4 302.44C477.4 301.948 477.808 301.54 478.3 301.54C478.792 301.54 479.2 301.948 479.2 302.44C479.2 302.932 478.792 303.34 478.3 303.34C477.808 303.34 477.4 302.932 477.4 302.44ZM474.88 304.96C475.372 304.96 475.78 305.368 475.78 305.86C475.78 306.352 475.372 306.76 474.88 306.76C474.388 306.76 473.98 306.352 473.98 305.86C473.98 305.368 474.388 304.96 474.88 304.96ZM485.164 307.156C483.952 307.156 482.824 306.676 482.02 305.86L482.836 304.9C483.472 305.536 484.336 305.944 485.188 305.944C486.256 305.944 486.856 305.44 486.856 304.696C486.856 303.892 486.256 303.64 485.44 303.28L484.216 302.752C483.364 302.392 482.416 301.72 482.416 300.436C482.416 299.044 483.64 298 485.32 298C486.352 298 487.324 298.432 487.996 299.116L487.264 300.004C486.712 299.512 486.1 299.212 485.32 299.212C484.42 299.212 483.832 299.644 483.832 300.34C483.832 301.108 484.54 301.396 485.26 301.684L486.472 302.2C487.516 302.644 488.272 303.292 488.272 304.588C488.272 306.004 487.096 307.156 485.164 307.156ZM493.905 306.016C495.369 306.016 496.329 304.684 496.329 302.548C496.329 300.472 495.369 299.212 493.905 299.212C492.441 299.212 491.493 300.472 491.493 302.548C491.493 304.684 492.441 306.016 493.905 306.016ZM496.677 309.292C494.961 309.292 493.785 308.368 493.245 307.108C491.337 306.784 490.065 305.104 490.065 302.548C490.065 299.704 491.637 298 493.905 298C496.173 298 497.757 299.704 497.757 302.548C497.757 305.032 496.545 306.688 494.733 307.072C495.129 307.816 495.945 308.152 496.833 308.152C497.217 308.152 497.529 308.092 497.769 308.02L498.033 309.064C497.745 309.196 497.253 309.292 496.677 309.292ZM500.192 307V298.156H501.584V305.824H505.328V307H500.192ZM510.052 305.488V302.188H508.66V305.488H510.052ZM506.944 298.552V297.544H511.192V298.552H509.392C509.212 299.464 508.984 300.352 508.696 301.192H511.012V306.472H508.66V307.396H507.724V303.34C507.544 303.64 507.364 303.916 507.16 304.168C507.112 303.88 506.884 303.208 506.716 302.908C507.508 301.84 508.024 300.256 508.336 298.552H506.944ZM513.772 301.816H515.464V298.6H513.772V301.816ZM517.828 301.816V302.872H516.532V307.948H515.464V302.872H513.76C513.7 304.672 513.388 306.664 512.092 308.008C511.9 307.828 511.492 307.504 511.24 307.36C512.38 306.172 512.656 304.408 512.716 302.872H511.48V301.816H512.728V298.6H511.804V297.556H517.588V298.6H516.532V301.816H517.828ZM521.632 296.992L522.664 297.28C522.4 298.06 522.088 298.852 521.74 299.62V307.936H520.684V301.576C520.372 302.068 520.06 302.512 519.724 302.908C519.628 302.632 519.328 302.008 519.16 301.732C520.156 300.568 521.08 298.792 521.632 296.992ZM523.588 300.256V302.068C524.572 301.828 525.472 301.48 526.24 301.012C525.796 300.64 525.436 300.244 525.136 299.836C524.848 300.196 524.548 300.508 524.248 300.784C524.104 300.652 523.816 300.424 523.588 300.256ZM528.196 299.092H525.676L525.664 299.104C525.988 299.584 526.432 300.052 527.008 300.472C527.488 300.076 527.884 299.62 528.196 299.092ZM530.296 299.092H529.36C528.976 299.836 528.472 300.472 527.872 301.012C528.652 301.432 529.588 301.756 530.68 301.948C530.488 302.176 530.2 302.584 530.068 302.86C528.892 302.596 527.896 302.152 527.068 301.624C526.228 302.2 525.244 302.632 524.176 302.956C524.068 302.752 523.792 302.392 523.588 302.164V305.968H522.616V298.384H523.588V299.98C524.452 299.212 525.208 298.096 525.64 296.92L526.66 297.172C526.528 297.52 526.372 297.856 526.192 298.192H530.296V299.092ZM528.376 303.472L529.204 303.808C528.28 304.828 526.696 305.548 525.088 305.98C524.956 305.764 524.728 305.452 524.536 305.26C526.024 304.924 527.584 304.3 528.376 303.472ZM527.236 302.356L528.076 302.704C527.332 303.448 526.132 304.048 525.016 304.408C524.872 304.216 524.62 303.928 524.404 303.76C525.436 303.472 526.612 302.956 527.236 302.356ZM529.384 304.804L530.344 305.2C529.144 306.616 526.96 307.444 524.476 307.888C524.356 307.624 524.116 307.24 523.9 307.012C526.216 306.676 528.34 305.98 529.384 304.804ZM540.208 306.556V304.696H534.868V306.556H540.208ZM540.292 301.096L541.156 301.408C540.784 302.164 540.316 302.98 539.848 303.712H541.348V307.96H540.208V307.516H534.868V307.96H533.776V303.712H538.528C538.84 303.22 539.188 302.644 539.464 302.14H533.584V301.156H540.112L540.292 301.096ZM535.624 299.368H539.416C538.66 298.888 537.976 298.36 537.472 297.832C537.016 298.336 536.368 298.864 535.624 299.368ZM536.872 296.908H537.964C539.296 298.3 541.3 299.416 543.136 299.968C542.896 300.22 542.644 300.616 542.476 300.916C541.648 300.604 540.724 300.16 539.86 299.644V300.292H535.252V299.608C534.412 300.136 533.476 300.616 532.54 300.988C532.432 300.736 532.156 300.316 531.928 300.1C533.932 299.38 535.9 298.096 536.872 296.908ZM548.728 297.4C548.68 297.7 548.632 298.144 548.632 298.696V298.996C549.364 298.912 550.132 298.78 550.876 298.576V299.728C550.144 299.896 549.352 300.004 548.632 300.076V301.78C548.848 302.068 548.956 302.464 548.956 302.908C548.956 303.616 548.788 304.408 548.332 304.936C548.32 305.164 548.32 305.392 548.32 305.584C548.32 306.184 548.476 306.448 550.072 306.448C550.72 306.448 551.584 306.364 552.016 306.232C552.64 306.04 552.964 305.668 552.964 304.948C552.964 304.48 552.952 304.048 552.892 303.544L554.188 303.94C554.2 304.48 554.212 304.78 554.188 305.284C554.128 306.388 553.744 306.976 552.532 307.324C552.004 307.48 550.792 307.576 549.988 307.576C547.408 307.576 547.168 306.868 547.168 306.004C547.168 305.86 547.168 305.704 547.168 305.56C547.072 305.572 546.976 305.584 546.868 305.584C546.112 305.584 545.224 305.032 545.224 303.58C545.224 302.26 546.076 301.168 547.312 301.168C547.384 301.168 547.456 301.168 547.516 301.18C547.516 300.856 547.516 300.508 547.516 300.148C547.384 300.16 547.264 300.16 547.144 300.16C546.628 300.16 545.956 300.124 545.212 300.04L545.152 298.936C545.848 299.032 546.484 299.092 547.072 299.092C547.216 299.092 547.36 299.092 547.504 299.08C547.504 298.936 547.504 298.804 547.504 298.696C547.504 298.108 547.48 297.7 547.408 297.4H548.728ZM552.856 298.564C553.588 299.044 554.776 300.148 555.328 300.808L554.476 301.684C553.852 300.904 552.748 299.836 552.076 299.356L552.856 298.564ZM546.988 304.456C547.636 304.456 547.876 303.724 547.876 302.968C547.876 302.44 547.624 302.128 547.24 302.128C546.688 302.128 546.232 302.692 546.232 303.496C546.232 304.108 546.592 304.456 546.988 304.456Z" fill="white"/>
<path d="M0 149H272V217H0V149Z" fill="#0C3A7E"/>
<path d="M71.43 167.922L69.864 168.48C69.666 167.652 69.09 166.374 68.532 165.402L70.008 164.916C70.62 165.852 71.232 167.076 71.43 167.922ZM70.53 173.232H76.578C76.578 173.232 76.578 173.718 76.542 173.952C76.326 178.362 76.074 180.108 75.48 180.738C75.084 181.206 74.634 181.35 73.968 181.404C73.356 181.458 72.222 181.458 71.07 181.404C71.034 180.9 70.818 180.216 70.494 179.748C71.664 179.856 72.816 179.874 73.266 179.874C73.608 179.874 73.824 179.838 74.04 179.658C74.4 179.316 74.634 177.966 74.814 174.798H70.296C69.684 178.056 68.064 180.234 63.294 181.422C63.114 180.972 62.682 180.288 62.304 179.91C66.444 178.974 67.902 177.336 68.478 174.798H63.816V173.232H68.712C68.802 172.458 68.838 171.63 68.874 170.712H70.692C70.656 171.612 70.602 172.44 70.53 173.232ZM74.958 168.642H77.946V172.584H76.272V170.208H64.464V172.584H62.844V168.642H65.562C65.238 167.832 64.536 166.716 63.816 165.888L65.256 165.222C66.012 166.068 66.84 167.22 67.164 168.03L65.904 168.642H73.626L73.23 168.48C73.968 167.562 74.868 166.104 75.354 165.042L77.19 165.618C76.488 166.68 75.66 167.796 74.958 168.642ZM92.868 174.888H96.972C96.972 174.888 96.954 175.32 96.918 175.554C96.612 178.776 96.288 180.162 95.784 180.702C95.424 181.062 95.064 181.17 94.578 181.242C94.128 181.278 93.39 181.278 92.58 181.242C92.544 180.774 92.364 180.126 92.13 179.694C92.832 179.766 93.498 179.784 93.804 179.784C94.074 179.784 94.218 179.748 94.38 179.586C94.686 179.316 94.938 178.398 95.172 176.292H92.562C91.95 178.506 90.69 180.306 87.846 181.422C87.648 181.026 87.198 180.414 86.856 180.126C89.196 179.28 90.294 177.93 90.852 176.292H88.332V174.888H91.212C91.302 174.33 91.374 173.772 91.428 173.178H93.084C93.03 173.772 92.958 174.33 92.868 174.888ZM94.218 168.138H90.888C91.356 168.876 91.968 169.524 92.706 170.118C93.336 169.56 93.84 168.894 94.218 168.138ZM97.296 168.138H96.054C95.568 169.272 94.884 170.226 94.056 171.018C95.118 171.63 96.36 172.08 97.692 172.368C97.35 172.692 96.864 173.34 96.648 173.772C95.208 173.394 93.894 172.818 92.742 172.044C91.644 172.764 90.348 173.304 88.944 173.736C88.854 173.538 88.674 173.268 88.476 172.998C88.17 174.06 87.828 175.122 87.486 175.896L86.334 175.32C86.622 174.618 86.892 173.61 87.126 172.62H85.74V179.532C85.74 180.342 85.614 180.792 85.074 181.08C84.552 181.314 83.814 181.35 82.698 181.35C82.644 180.9 82.428 180.216 82.212 179.766C82.932 179.802 83.652 179.802 83.868 179.784C84.084 179.766 84.156 179.73 84.156 179.514V174.636C83.49 176.184 82.644 177.642 81.726 178.542C81.564 178.056 81.168 177.372 80.88 176.94C81.96 175.986 82.986 174.276 83.634 172.62H81.132V171.162H85.722C84.732 170.442 83.166 169.596 81.87 169.038L82.914 167.958C83.418 168.156 83.994 168.408 84.534 168.678C85.092 168.246 85.632 167.706 86.082 167.166H81.348V165.744H87.27L87.54 165.69L88.62 166.356C87.954 167.418 86.874 168.534 85.812 169.362C86.388 169.686 86.874 170.028 87.252 170.316L86.478 171.162H87.594L87.846 171.072L88.854 171.432C88.8 171.666 88.746 171.9 88.692 172.152C89.718 171.864 90.636 171.486 91.446 171.018C90.834 170.442 90.294 169.812 89.844 169.128C89.484 169.524 89.124 169.866 88.764 170.172C88.44 169.902 87.792 169.434 87.378 169.218C88.8 168.192 90.078 166.572 90.798 164.88L92.364 165.312C92.148 165.798 91.896 166.266 91.626 166.734H97.296V168.138ZM108.384 173.61H105.09C105.036 173.952 105 174.294 104.928 174.636C105.828 175.518 107.898 177.858 108.42 178.452L107.268 179.892C106.674 178.992 105.468 177.444 104.514 176.346C103.92 178.2 102.858 180 100.95 181.386C100.716 181.026 100.104 180.36 99.762 180.108C102.3 178.308 103.128 175.86 103.398 173.61H99.978V172.026H103.506V171.486V168.804H102.408C102.03 169.794 101.562 170.694 101.076 171.414C100.77 171.126 100.104 170.676 99.708 170.442C100.734 169.128 101.436 167.022 101.85 164.916L103.452 165.222C103.308 165.906 103.146 166.59 102.966 167.238H107.88V168.804H105.198V171.504C105.198 171.666 105.198 171.846 105.198 172.026H108.384V173.61ZM110.526 177.984H113.802V168.03H110.526V177.984ZM108.906 166.446H115.494V180.702H113.802V179.55H110.526V180.9H108.906V166.446ZM135.348 169.002L133.98 169.578C133.728 168.678 133.044 167.31 132.324 166.338L133.584 165.852C134.34 166.806 135.06 168.102 135.348 169.002ZM130.326 166.77V168.048H124.548V166.77H126.69V164.898H128.238V166.77H130.326ZM123.864 165.492V166.806H119.562V165.492H123.864ZM124.314 167.868V169.2H118.77V167.868H124.314ZM123.882 170.316V171.612H119.49V170.316H123.882ZM119.49 174.024V172.71H123.882V174.024H119.49ZM122.586 176.49H120.75V179.082H122.586V176.49ZM123.918 175.14V180.396H120.75V181.188H119.436V175.14H123.918ZM125.196 168.426L126.348 168.174C126.654 168.948 126.87 169.974 126.888 170.64L125.664 170.928C125.664 170.262 125.484 169.236 125.196 168.426ZM126.258 178.128H128.544V176.85H126.258V178.128ZM128.544 174.474H126.258V175.698H128.544V174.474ZM133.53 173.07L134.808 173.754C134.304 175.248 133.62 176.598 132.792 177.768C133.062 178.938 133.44 179.604 133.926 179.658C134.214 179.676 134.412 178.794 134.52 177.426C134.736 177.75 135.33 178.182 135.564 178.344C135.186 180.846 134.52 181.494 133.872 181.476C132.864 181.404 132.18 180.594 131.712 179.118C130.884 180.036 129.984 180.774 129.03 181.368C128.832 181.098 128.382 180.666 128.094 180.432C128.598 180.126 129.102 179.766 129.57 179.352H126.258V180.18H124.944V173.268H129.93V179.028C130.416 178.578 130.884 178.056 131.316 177.48C131.082 176.094 130.938 174.348 130.848 172.314H124.098V170.928H128.976L127.896 170.694C128.094 169.974 128.328 168.84 128.418 168.084L129.804 168.354C129.534 169.272 129.282 170.28 129.066 170.928H130.794C130.74 169.128 130.722 167.112 130.722 164.916H132.162C132.126 167.112 132.144 169.128 132.18 170.928H135.168V172.314H132.216C132.27 173.592 132.36 174.726 132.45 175.698C132.882 174.888 133.242 174.006 133.53 173.07ZM142.926 172.332V173.412H149.046V172.332H142.926ZM149.046 167.85H142.926V168.858H149.046V167.85ZM142.926 170.082V171.108H149.046V170.082H142.926ZM154.14 174.798H150.558C151.566 175.842 152.97 176.76 154.356 177.246C154.014 177.552 153.51 178.146 153.276 178.542C151.548 177.786 149.82 176.364 148.722 174.798H143.358C142.926 175.428 142.368 176.058 141.774 176.616H145.068V175.266H146.76V176.616H150.324V177.948H146.76V179.55H152.808V180.936H139.254V179.55H145.068V177.948H141.63V176.76C140.73 177.57 139.686 178.254 138.66 178.74C138.426 178.344 137.94 177.75 137.58 177.462C139.002 176.922 140.442 175.914 141.468 174.798H137.76V173.412H141.252V167.85H138.642V166.482H141.252V164.916H142.926V166.482H149.046V164.934H150.756V166.482H153.33V167.85H150.756V173.412H154.14V174.798ZM169.584 172.404V169.812C169.062 170.694 168.432 171.504 167.784 172.044C167.658 171.72 167.334 171.234 167.082 170.964C167.91 170.37 168.738 169.236 169.26 168.084H167.91V166.788H169.584V164.898H170.97V166.788H173.04V168.084H171.294C171.762 169.236 172.518 170.406 173.328 171C173.04 171.234 172.644 171.648 172.428 171.972C171.888 171.486 171.384 170.712 170.97 169.866V172.404H169.584ZM164.724 172.404V169.92C164.238 170.766 163.662 171.54 163.086 172.098C162.924 171.756 162.6 171.234 162.348 170.964C163.086 170.334 163.896 169.2 164.4 168.084H162.924V166.788H164.724V164.898H166.11V166.788H167.586V168.084H166.11V168.39C166.434 168.642 167.514 169.506 167.784 169.758L166.992 170.73C166.812 170.478 166.452 170.064 166.11 169.668V172.404H164.724ZM160.998 177.642V172.746H159.27V177.642H160.998ZM162.438 179.1H159.27V180.504H157.884V175.554C157.704 175.896 157.506 176.238 157.29 176.544C157.128 176.184 156.66 175.392 156.372 175.014C157.578 173.178 158.208 170.352 158.586 167.382H156.75V165.87H162.906V167.382H160.152C159.972 168.732 159.738 170.046 159.432 171.288H162.438V179.1ZM168.648 177.48V179.658C169.008 179.712 169.404 179.73 169.818 179.73C170.286 179.73 172.662 179.73 173.292 179.712C173.094 180.054 172.896 180.738 172.824 181.134H169.728C167.478 181.134 165.912 180.666 164.886 178.704C164.454 179.784 163.77 180.72 162.726 181.422C162.546 181.098 162.096 180.558 161.754 180.306C163.554 179.154 163.986 177.084 164.148 174.96H165.642C165.588 175.608 165.516 176.256 165.408 176.868C165.786 178.056 166.362 178.776 167.082 179.19V174.258H162.87V172.89H171.726L171.978 172.818L173.058 173.16C172.734 174.078 172.338 175.122 171.996 175.824L170.718 175.356C170.862 175.05 171.006 174.672 171.15 174.258H168.648V176.112H171.888V177.48H168.648ZM180.348 177.732V172.782H178.26V177.732H180.348ZM175.686 167.328V165.816H182.058V167.328H179.358C179.088 168.696 178.746 170.028 178.314 171.288H181.788V179.208H178.26V180.594H176.856V174.51C176.586 174.96 176.316 175.374 176.01 175.752C175.938 175.32 175.596 174.312 175.344 173.862C176.532 172.26 177.306 169.884 177.774 167.328H175.686ZM185.928 172.224H188.466V167.4H185.928V172.224ZM192.012 172.224V173.808H190.068V181.422H188.466V173.808H185.91C185.82 176.508 185.352 179.496 183.408 181.512C183.12 181.242 182.508 180.756 182.13 180.54C183.84 178.758 184.254 176.112 184.344 173.808H182.49V172.224H184.362V167.4H182.976V165.834H191.652V167.4H190.068V172.224H192.012ZM197.718 164.988L199.266 165.42C198.87 166.59 198.402 167.778 197.88 168.93V181.404H196.296V171.864C195.828 172.602 195.36 173.268 194.856 173.862C194.712 173.448 194.262 172.512 194.01 172.098C195.504 170.352 196.89 167.688 197.718 164.988ZM200.652 169.884V172.602C202.128 172.242 203.478 171.72 204.63 171.018C203.964 170.46 203.424 169.866 202.974 169.254C202.542 169.794 202.092 170.262 201.642 170.676C201.426 170.478 200.994 170.136 200.652 169.884ZM207.564 168.138H203.784L203.766 168.156C204.252 168.876 204.918 169.578 205.782 170.208C206.502 169.614 207.096 168.93 207.564 168.138ZM210.714 168.138H209.31C208.734 169.254 207.978 170.208 207.078 171.018C208.248 171.648 209.652 172.134 211.29 172.422C211.002 172.764 210.57 173.376 210.372 173.79C208.608 173.394 207.114 172.728 205.872 171.936C204.612 172.8 203.136 173.448 201.534 173.934C201.372 173.628 200.958 173.088 200.652 172.746V178.452H199.194V167.076H200.652V169.47C201.948 168.318 203.082 166.644 203.73 164.88L205.26 165.258C205.062 165.78 204.828 166.284 204.558 166.788H210.714V168.138ZM207.834 174.708L209.076 175.212C207.69 176.742 205.314 177.822 202.902 178.47C202.704 178.146 202.362 177.678 202.074 177.39C204.306 176.886 206.646 175.95 207.834 174.708ZM206.124 173.034L207.384 173.556C206.268 174.672 204.468 175.572 202.794 176.112C202.578 175.824 202.2 175.392 201.876 175.14C203.424 174.708 205.188 173.934 206.124 173.034ZM209.346 176.706L210.786 177.3C208.986 179.424 205.71 180.666 201.984 181.332C201.804 180.936 201.444 180.36 201.12 180.018C204.594 179.514 207.78 178.47 209.346 176.706Z" fill="white"/>
<path d="M92.4 191.92C91.908 191.92 91.5 191.512 91.5 191.02C91.5 190.528 91.908 190.12 92.4 190.12C92.892 190.12 93.3 190.528 93.3 191.02C93.3 191.512 92.892 191.92 92.4 191.92ZM92.4 194.092L96.36 190.132L96.708 190.48L92.748 194.44L96.708 198.4L96.36 198.748L92.4 194.788L88.428 198.76L88.08 198.412L92.052 194.44L88.092 190.48L88.44 190.132L92.4 194.092ZM89.88 194.44C89.88 194.932 89.472 195.34 88.98 195.34C88.488 195.34 88.08 194.932 88.08 194.44C88.08 193.948 88.488 193.54 88.98 193.54C89.472 193.54 89.88 193.948 89.88 194.44ZM94.92 194.44C94.92 193.948 95.328 193.54 95.82 193.54C96.312 193.54 96.72 193.948 96.72 194.44C96.72 194.932 96.312 195.34 95.82 195.34C95.328 195.34 94.92 194.932 94.92 194.44ZM92.4 196.96C92.892 196.96 93.3 197.368 93.3 197.86C93.3 198.352 92.892 198.76 92.4 198.76C91.908 198.76 91.5 198.352 91.5 197.86C91.5 197.368 91.908 196.96 92.4 196.96ZM103.932 193.18H108.804C107.604 192.808 106.98 192.244 106.608 191.608C106.152 192.34 105.36 192.844 103.932 193.18ZM107.88 194.56V193.888H102.252V194.56H107.88ZM107.88 195.916V195.232H102.252V195.916H107.88ZM107.88 197.296V196.6H102.252V197.296H107.88ZM105.984 190.576H104.892C104.604 190.936 104.268 191.272 103.872 191.572C103.668 191.38 103.296 191.14 103.032 191.032C103.92 190.432 104.508 189.628 104.808 188.932L105.816 189.088C105.708 189.316 105.588 189.544 105.444 189.772H109.296L109.464 189.736L110.208 189.928C109.896 190.552 109.452 191.248 109.044 191.668L108.168 191.392C108.372 191.176 108.576 190.876 108.768 190.576H107.112C107.376 191.44 108.048 192.208 110.484 192.532C110.28 192.748 110.016 193.168 109.92 193.444C109.584 193.384 109.272 193.312 108.996 193.24V198.004H101.172V193.18H103.584C103.476 192.94 103.26 192.616 103.092 192.448C105.024 192.136 105.708 191.56 105.984 190.576ZM103.116 190.048L102.624 190.9C102.06 190.6 100.956 190.168 100.116 189.916L100.608 189.16C101.424 189.364 102.54 189.76 103.116 190.048ZM102.936 191.368L103.044 192.244C102 192.592 100.884 192.916 99.996 193.192L99.552 192.208C100.428 192.028 101.7 191.692 102.936 191.368ZM103.128 198.028L104.148 198.496C103.176 199.084 101.676 199.66 100.476 199.984C100.284 199.768 99.888 199.348 99.636 199.156C100.872 198.916 102.3 198.496 103.128 198.028ZM105.864 198.616L106.776 198.052C108.06 198.484 109.5 199.036 110.364 199.444L109.08 199.972C108.372 199.588 107.112 199.048 105.864 198.616ZM117.984 195.556H121.476C120.816 195.22 120.216 194.8 119.7 194.356C119.172 194.812 118.596 195.22 117.984 195.556ZM118.164 198.508H121.128V196.504H118.164V198.508ZM116.472 194.656L115.992 195.316C117.048 194.944 118.068 194.368 118.944 193.624C118.512 193.156 118.152 192.664 117.852 192.172C117.504 192.592 117.156 192.964 116.796 193.288C116.616 193.084 116.184 192.712 115.932 192.544L116.016 192.472H114.984V192.88C115.308 193.228 116.244 194.38 116.472 194.656ZM120.912 191.164H118.584L118.476 191.332C118.764 191.872 119.172 192.424 119.676 192.94C120.168 192.412 120.588 191.812 120.912 191.164ZM121.62 190.156L122.316 190.48C121.908 191.716 121.248 192.76 120.444 193.636C121.224 194.26 122.184 194.788 123.3 195.112C123.072 195.328 122.76 195.772 122.604 196.048C122.472 196 122.34 195.952 122.208 195.892V199.912H121.128V199.48H118.164V199.948H117.132V195.988C116.868 196.108 116.604 196.216 116.328 196.312C116.196 196.048 115.92 195.64 115.692 195.412L115.764 195.388C115.584 195.052 115.272 194.572 114.984 194.14V199.936H113.94V194.752C113.544 195.94 113.04 197.056 112.512 197.776C112.416 197.464 112.14 197.032 111.972 196.78C112.728 195.784 113.472 194.02 113.832 192.472H112.248V191.44H113.94V188.932H114.984V191.44H116.448V192.088C117.324 191.248 118.068 190.12 118.524 188.92L119.592 189.208C119.46 189.544 119.304 189.88 119.136 190.204H121.416L121.62 190.156ZM129.888 190.684V198.88C130.776 198.412 131.556 197.704 132.216 196.792C131.436 195.412 130.896 193.744 130.512 191.86L131.592 191.644C131.868 193.132 132.288 194.512 132.888 195.7C133.488 194.56 133.932 193.18 134.184 191.608H130.38V190.684H129.888ZM126.756 197.128L128.808 196.84V195.544H126.756V197.128ZM128.808 190.684H126.756V192.076H128.808V190.684ZM126.756 193.072V194.536H128.808V193.072H126.756ZM134.688 190.48L135.408 190.672C135.132 193.252 134.496 195.268 133.572 196.816C134.196 197.704 134.964 198.424 135.9 198.916C135.648 199.132 135.288 199.552 135.132 199.828C134.244 199.312 133.5 198.64 132.876 197.812C132.228 198.64 131.448 199.288 130.584 199.804C130.428 199.54 130.128 199.156 129.888 198.94V199.924H128.808V197.872C127.356 198.112 125.88 198.352 124.764 198.532L124.56 197.416C124.896 197.38 125.268 197.32 125.688 197.272V190.684H124.812V189.652H130.692V190.516H134.496L134.688 190.48ZM146.352 190.912V190.108H142.776V190.912H146.352ZM146.352 192.484V191.68H142.776V192.484H146.352ZM147.48 189.292V193.312H141.696V189.292H147.48ZM139.74 188.968L140.82 189.388C140.076 190.444 138.9 191.572 137.82 192.28C137.7 192.028 137.424 191.584 137.244 191.356C138.18 190.756 139.236 189.784 139.74 188.968ZM140.004 191.572L140.988 191.968C140.712 192.46 140.352 192.964 139.98 193.456V199.936H138.9V194.692C138.492 195.136 138.048 195.52 137.64 195.856C137.544 195.604 137.256 195.004 137.076 194.728C138.144 193.972 139.296 192.772 140.004 191.572ZM141.66 197.356L142.452 196.828C142.98 197.308 143.628 197.992 143.928 198.448L143.088 199.048C142.812 198.592 142.188 197.872 141.66 197.356ZM148.188 195.796V196.756H146.472V198.784C146.472 199.336 146.364 199.612 145.968 199.768C145.572 199.936 144.996 199.948 144.144 199.948C144.084 199.648 143.928 199.228 143.784 198.94C144.384 198.964 144.96 198.964 145.128 198.952C145.308 198.94 145.356 198.904 145.356 198.76V196.756H140.736V195.796H145.356V194.92H141.024V193.996H147.96V194.92H146.472V195.796H148.188ZM151.92 198.58C152.04 198.34 152.052 198.16 152.052 197.908V191.2C152.052 190.816 152.004 190.264 151.944 189.988H153.432C153.372 190.36 153.336 190.792 153.336 191.188V197.752C155.484 197.176 158.208 195.616 159.72 193.72L160.404 194.776C158.808 196.732 156.324 198.184 153.408 199.084C153.264 199.132 153.036 199.192 152.808 199.336L151.92 198.58ZM170.388 190.78C170.7 191.248 171.24 192.136 171.516 192.688L170.652 193.072C170.328 192.388 169.956 191.716 169.548 191.14L170.388 190.78ZM171.96 190.156C172.284 190.6 172.848 191.476 173.124 192.028L172.272 192.436C171.936 191.752 171.552 191.092 171.12 190.54L171.96 190.156ZM162.54 195.724C162.876 195.448 163.116 195.22 163.452 194.884C164.016 194.32 165.012 193.048 165.792 192.112C166.464 191.32 167.1 191.188 167.964 192.016C168.72 192.724 169.704 193.756 170.412 194.512C171.228 195.376 172.44 196.684 173.364 197.68L172.32 198.784C171.48 197.776 170.448 196.54 169.704 195.676C169.008 194.872 167.916 193.696 167.436 193.228C167.004 192.808 166.764 192.844 166.392 193.312C165.864 193.96 164.928 195.22 164.4 195.88C164.148 196.228 163.872 196.612 163.68 196.888L162.54 195.724ZM180.78 198.736C180.828 198.532 180.864 198.256 180.864 197.98V190.876C180.864 190.384 180.792 189.988 180.792 189.916H182.184C182.172 189.988 182.124 190.384 182.124 190.876V197.512C183.168 197.044 184.524 196.024 185.388 194.752L186.12 195.784C185.1 197.14 183.408 198.4 182.028 199.096C181.812 199.216 181.668 199.324 181.572 199.396L180.78 198.736ZM175.248 198.628C176.292 197.908 176.976 196.816 177.324 195.712C177.672 194.644 177.672 192.304 177.672 190.924C177.672 190.516 177.648 190.228 177.576 189.952H178.968C178.956 190.048 178.908 190.492 178.908 190.912C178.908 192.28 178.86 194.836 178.536 196.036C178.176 197.356 177.42 198.532 176.4 199.396L175.248 198.628Z" fill="white"/>
<rect y="41" width="272" height="68" fill="#182346"/>
<path d="M74.544 67.69C74.994 68.338 75.624 69.454 75.984 70.156L74.814 70.66C74.454 69.94 73.86 68.86 73.374 68.176L74.544 67.69ZM76.578 66.934C77.046 67.6 77.73 68.716 78.054 69.382L76.884 69.886C76.506 69.112 75.93 68.086 75.426 67.42L76.578 66.934ZM66.588 68.356C66.534 68.842 66.48 69.49 66.48 70.012V73.774C68.604 73.252 71.304 72.406 73.05 71.668C73.644 71.434 74.202 71.164 74.796 70.786L75.588 72.604C74.994 72.838 74.274 73.162 73.698 73.378C71.772 74.152 68.748 75.052 66.48 75.646V79.318C66.48 80.182 66.858 80.398 67.704 80.578C68.244 80.668 69.09 80.704 69.954 80.704C71.844 80.704 74.67 80.506 76.164 80.11V82.18C74.526 82.414 71.826 82.54 69.846 82.54C68.73 82.54 67.65 82.486 66.894 82.36C65.436 82.09 64.608 81.37 64.608 79.858V70.012C64.608 69.58 64.572 68.842 64.482 68.356H66.588ZM93.246 68.392C93.732 69.094 94.488 70.354 94.902 71.2L93.642 71.74C93.174 70.714 92.652 69.778 92.022 68.914L93.246 68.392ZM95.658 67.528C96.162 68.194 96.918 69.436 97.368 70.264L96.108 70.822C95.604 69.796 95.046 68.896 94.416 68.05L95.658 67.528ZM85.506 68.086C86.622 68.716 88.638 70.048 89.502 70.66L88.422 72.208C87.504 71.542 85.578 70.282 84.48 69.652L85.506 68.086ZM82.518 80.92C84.516 80.578 86.712 79.912 88.602 78.868C91.608 77.158 94.056 74.746 95.496 72.19L96.594 74.098C94.974 76.546 92.472 78.85 89.556 80.56C87.738 81.604 85.218 82.468 83.58 82.774L82.518 80.92ZM82.752 72.172C83.886 72.784 85.938 74.044 86.784 74.638L85.74 76.24C84.804 75.556 82.878 74.332 81.744 73.72L82.752 72.172ZM109.284 67.456C109.23 67.87 109.176 68.554 109.176 69.076V70.138H111.804C112.272 70.138 112.74 70.084 113.082 69.994L114.27 71.128C113.892 71.524 113.424 72.028 113.1 72.388C112.182 73.45 110.724 74.908 109.14 76.042V80.758C109.14 81.424 109.194 82.324 109.23 82.882H107.178C107.25 82.36 107.304 81.424 107.304 80.758V77.212C105.63 78.13 103.686 78.922 101.472 79.57L100.374 77.896C103.812 77.104 106.098 75.898 107.7 74.854C109.212 73.882 110.508 72.64 111.084 71.83H104.028C103.38 71.83 102.318 71.866 101.76 71.902V70.03C102.372 70.102 103.38 70.138 103.992 70.138H107.34V69.076C107.34 68.536 107.304 67.87 107.232 67.456H109.284ZM114.864 79.786C113.298 78.598 112.164 77.86 110.544 76.978L111.714 75.628C113.388 76.528 114.342 77.068 116.052 78.22L114.864 79.786ZM132.72 69.886C132.594 70.066 132.324 70.516 132.198 70.822C131.568 72.298 130.506 74.332 129.246 75.952C131.1 77.536 133.278 79.858 134.394 81.226L132.81 82.63C131.622 81.01 129.822 79.03 128.04 77.374C126.114 79.426 123.684 81.352 121.11 82.558L119.652 81.028C122.568 79.912 125.268 77.752 127.05 75.754C128.274 74.386 129.48 72.406 129.912 71.002H123.306C122.604 71.002 121.632 71.092 121.344 71.11V69.076C121.704 69.13 122.748 69.202 123.306 69.202H129.984C130.65 69.202 131.244 69.13 131.55 69.022L132.72 69.886ZM142.926 74.332V75.412H149.046V74.332H142.926ZM149.046 69.85H142.926V70.858H149.046V69.85ZM142.926 72.082V73.108H149.046V72.082H142.926ZM154.14 76.798H150.558C151.566 77.842 152.97 78.76 154.356 79.246C154.014 79.552 153.51 80.146 153.276 80.542C151.548 79.786 149.82 78.364 148.722 76.798H143.358C142.926 77.428 142.368 78.058 141.774 78.616H145.068V77.266H146.76V78.616H150.324V79.948H146.76V81.55H152.808V82.936H139.254V81.55H145.068V79.948H141.63V78.76C140.73 79.57 139.686 80.254 138.66 80.74C138.426 80.344 137.94 79.75 137.58 79.462C139.002 78.922 140.442 77.914 141.468 76.798H137.76V75.412H141.252V69.85H138.642V68.482H141.252V66.916H142.926V68.482H149.046V66.934H150.756V68.482H153.33V69.85H150.756V75.412H154.14V76.798ZM169.584 74.404V71.812C169.062 72.694 168.432 73.504 167.784 74.044C167.658 73.72 167.334 73.234 167.082 72.964C167.91 72.37 168.738 71.236 169.26 70.084H167.91V68.788H169.584V66.898H170.97V68.788H173.04V70.084H171.294C171.762 71.236 172.518 72.406 173.328 73C173.04 73.234 172.644 73.648 172.428 73.972C171.888 73.486 171.384 72.712 170.97 71.866V74.404H169.584ZM164.724 74.404V71.92C164.238 72.766 163.662 73.54 163.086 74.098C162.924 73.756 162.6 73.234 162.348 72.964C163.086 72.334 163.896 71.2 164.4 70.084H162.924V68.788H164.724V66.898H166.11V68.788H167.586V70.084H166.11V70.39C166.434 70.642 167.514 71.506 167.784 71.758L166.992 72.73C166.812 72.478 166.452 72.064 166.11 71.668V74.404H164.724ZM160.998 79.642V74.746H159.27V79.642H160.998ZM162.438 81.1H159.27V82.504H157.884V77.554C157.704 77.896 157.506 78.238 157.29 78.544C157.128 78.184 156.66 77.392 156.372 77.014C157.578 75.178 158.208 72.352 158.586 69.382H156.75V67.87H162.906V69.382H160.152C159.972 70.732 159.738 72.046 159.432 73.288H162.438V81.1ZM168.648 79.48V81.658C169.008 81.712 169.404 81.73 169.818 81.73C170.286 81.73 172.662 81.73 173.292 81.712C173.094 82.054 172.896 82.738 172.824 83.134H169.728C167.478 83.134 165.912 82.666 164.886 80.704C164.454 81.784 163.77 82.72 162.726 83.422C162.546 83.098 162.096 82.558 161.754 82.306C163.554 81.154 163.986 79.084 164.148 76.96H165.642C165.588 77.608 165.516 78.256 165.408 78.868C165.786 80.056 166.362 80.776 167.082 81.19V76.258H162.87V74.89H171.726L171.978 74.818L173.058 75.16C172.734 76.078 172.338 77.122 171.996 77.824L170.718 77.356C170.862 77.05 171.006 76.672 171.15 76.258H168.648V78.112H171.888V79.48H168.648ZM180.348 79.732V74.782H178.26V79.732H180.348ZM175.686 69.328V67.816H182.058V69.328H179.358C179.088 70.696 178.746 72.028 178.314 73.288H181.788V81.208H178.26V82.594H176.856V76.51C176.586 76.96 176.316 77.374 176.01 77.752C175.938 77.32 175.596 76.312 175.344 75.862C176.532 74.26 177.306 71.884 177.774 69.328H175.686ZM185.928 74.224H188.466V69.4H185.928V74.224ZM192.012 74.224V75.808H190.068V83.422H188.466V75.808H185.91C185.82 78.508 185.352 81.496 183.408 83.512C183.12 83.242 182.508 82.756 182.13 82.54C183.84 80.758 184.254 78.112 184.344 75.808H182.49V74.224H184.362V69.4H182.976V67.834H191.652V69.4H190.068V74.224H192.012ZM197.718 66.988L199.266 67.42C198.87 68.59 198.402 69.778 197.88 70.93V83.404H196.296V73.864C195.828 74.602 195.36 75.268 194.856 75.862C194.712 75.448 194.262 74.512 194.01 74.098C195.504 72.352 196.89 69.688 197.718 66.988ZM200.652 71.884V74.602C202.128 74.242 203.478 73.72 204.63 73.018C203.964 72.46 203.424 71.866 202.974 71.254C202.542 71.794 202.092 72.262 201.642 72.676C201.426 72.478 200.994 72.136 200.652 71.884ZM207.564 70.138H203.784L203.766 70.156C204.252 70.876 204.918 71.578 205.782 72.208C206.502 71.614 207.096 70.93 207.564 70.138ZM210.714 70.138H209.31C208.734 71.254 207.978 72.208 207.078 73.018C208.248 73.648 209.652 74.134 211.29 74.422C211.002 74.764 210.57 75.376 210.372 75.79C208.608 75.394 207.114 74.728 205.872 73.936C204.612 74.8 203.136 75.448 201.534 75.934C201.372 75.628 200.958 75.088 200.652 74.746V80.452H199.194V69.076H200.652V71.47C201.948 70.318 203.082 68.644 203.73 66.88L205.26 67.258C205.062 67.78 204.828 68.284 204.558 68.788H210.714V70.138ZM207.834 76.708L209.076 77.212C207.69 78.742 205.314 79.822 202.902 80.47C202.704 80.146 202.362 79.678 202.074 79.39C204.306 78.886 206.646 77.95 207.834 76.708ZM206.124 75.034L207.384 75.556C206.268 76.672 204.468 77.572 202.794 78.112C202.578 77.824 202.2 77.392 201.876 77.14C203.424 76.708 205.188 75.934 206.124 75.034ZM209.346 78.706L210.786 79.3C208.986 81.424 205.71 82.666 201.984 83.332C201.804 82.936 201.444 82.36 201.12 82.018C204.594 81.514 207.78 80.47 209.346 78.706Z" fill="white"/>
<rect x="376" y="41" width="272" height="68" fill="#182346"/>
<path d="M450.544 67.69C450.994 68.338 451.624 69.454 451.984 70.156L450.814 70.66C450.454 69.94 449.86 68.86 449.374 68.176L450.544 67.69ZM452.578 66.934C453.046 67.6 453.73 68.716 454.054 69.382L452.884 69.886C452.506 69.112 451.93 68.086 451.426 67.42L452.578 66.934ZM442.588 68.356C442.534 68.842 442.48 69.49 442.48 70.012V73.774C444.604 73.252 447.304 72.406 449.05 71.668C449.644 71.434 450.202 71.164 450.796 70.786L451.588 72.604C450.994 72.838 450.274 73.162 449.698 73.378C447.772 74.152 444.748 75.052 442.48 75.646V79.318C442.48 80.182 442.858 80.398 443.704 80.578C444.244 80.668 445.09 80.704 445.954 80.704C447.844 80.704 450.67 80.506 452.164 80.11V82.18C450.526 82.414 447.826 82.54 445.846 82.54C444.73 82.54 443.65 82.486 442.894 82.36C441.436 82.09 440.608 81.37 440.608 79.858V70.012C440.608 69.58 440.572 68.842 440.482 68.356H442.588ZM469.246 68.392C469.732 69.094 470.488 70.354 470.902 71.2L469.642 71.74C469.174 70.714 468.652 69.778 468.022 68.914L469.246 68.392ZM471.658 67.528C472.162 68.194 472.918 69.436 473.368 70.264L472.108 70.822C471.604 69.796 471.046 68.896 470.416 68.05L471.658 67.528ZM461.506 68.086C462.622 68.716 464.638 70.048 465.502 70.66L464.422 72.208C463.504 71.542 461.578 70.282 460.48 69.652L461.506 68.086ZM458.518 80.92C460.516 80.578 462.712 79.912 464.602 78.868C467.608 77.158 470.056 74.746 471.496 72.19L472.594 74.098C470.974 76.546 468.472 78.85 465.556 80.56C463.738 81.604 461.218 82.468 459.58 82.774L458.518 80.92ZM458.752 72.172C459.886 72.784 461.938 74.044 462.784 74.638L461.74 76.24C460.804 75.556 458.878 74.332 457.744 73.72L458.752 72.172ZM485.284 67.456C485.23 67.87 485.176 68.554 485.176 69.076V70.138H487.804C488.272 70.138 488.74 70.084 489.082 69.994L490.27 71.128C489.892 71.524 489.424 72.028 489.1 72.388C488.182 73.45 486.724 74.908 485.14 76.042V80.758C485.14 81.424 485.194 82.324 485.23 82.882H483.178C483.25 82.36 483.304 81.424 483.304 80.758V77.212C481.63 78.13 479.686 78.922 477.472 79.57L476.374 77.896C479.812 77.104 482.098 75.898 483.7 74.854C485.212 73.882 486.508 72.64 487.084 71.83H480.028C479.38 71.83 478.318 71.866 477.76 71.902V70.03C478.372 70.102 479.38 70.138 479.992 70.138H483.34V69.076C483.34 68.536 483.304 67.87 483.232 67.456H485.284ZM490.864 79.786C489.298 78.598 488.164 77.86 486.544 76.978L487.714 75.628C489.388 76.528 490.342 77.068 492.052 78.22L490.864 79.786ZM508.72 69.886C508.594 70.066 508.324 70.516 508.198 70.822C507.568 72.298 506.506 74.332 505.246 75.952C507.1 77.536 509.278 79.858 510.394 81.226L508.81 82.63C507.622 81.01 505.822 79.03 504.04 77.374C502.114 79.426 499.684 81.352 497.11 82.558L495.652 81.028C498.568 79.912 501.268 77.752 503.05 75.754C504.274 74.386 505.48 72.406 505.912 71.002H499.306C498.604 71.002 497.632 71.092 497.344 71.11V69.076C497.704 69.13 498.748 69.202 499.306 69.202H505.984C506.65 69.202 507.244 69.13 507.55 69.022L508.72 69.886ZM518.926 74.332V75.412H525.046V74.332H518.926ZM525.046 69.85H518.926V70.858H525.046V69.85ZM518.926 72.082V73.108H525.046V72.082H518.926ZM530.14 76.798H526.558C527.566 77.842 528.97 78.76 530.356 79.246C530.014 79.552 529.51 80.146 529.276 80.542C527.548 79.786 525.82 78.364 524.722 76.798H519.358C518.926 77.428 518.368 78.058 517.774 78.616H521.068V77.266H522.76V78.616H526.324V79.948H522.76V81.55H528.808V82.936H515.254V81.55H521.068V79.948H517.63V78.76C516.73 79.57 515.686 80.254 514.66 80.74C514.426 80.344 513.94 79.75 513.58 79.462C515.002 78.922 516.442 77.914 517.468 76.798H513.76V75.412H517.252V69.85H514.642V68.482H517.252V66.916H518.926V68.482H525.046V66.934H526.756V68.482H529.33V69.85H526.756V75.412H530.14V76.798ZM545.584 74.404V71.812C545.062 72.694 544.432 73.504 543.784 74.044C543.658 73.72 543.334 73.234 543.082 72.964C543.91 72.37 544.738 71.236 545.26 70.084H543.91V68.788H545.584V66.898H546.97V68.788H549.04V70.084H547.294C547.762 71.236 548.518 72.406 549.328 73C549.04 73.234 548.644 73.648 548.428 73.972C547.888 73.486 547.384 72.712 546.97 71.866V74.404H545.584ZM540.724 74.404V71.92C540.238 72.766 539.662 73.54 539.086 74.098C538.924 73.756 538.6 73.234 538.348 72.964C539.086 72.334 539.896 71.2 540.4 70.084H538.924V68.788H540.724V66.898H542.11V68.788H543.586V70.084H542.11V70.39C542.434 70.642 543.514 71.506 543.784 71.758L542.992 72.73C542.812 72.478 542.452 72.064 542.11 71.668V74.404H540.724ZM536.998 79.642V74.746H535.27V79.642H536.998ZM538.438 81.1H535.27V82.504H533.884V77.554C533.704 77.896 533.506 78.238 533.29 78.544C533.128 78.184 532.66 77.392 532.372 77.014C533.578 75.178 534.208 72.352 534.586 69.382H532.75V67.87H538.906V69.382H536.152C535.972 70.732 535.738 72.046 535.432 73.288H538.438V81.1ZM544.648 79.48V81.658C545.008 81.712 545.404 81.73 545.818 81.73C546.286 81.73 548.662 81.73 549.292 81.712C549.094 82.054 548.896 82.738 548.824 83.134H545.728C543.478 83.134 541.912 82.666 540.886 80.704C540.454 81.784 539.77 82.72 538.726 83.422C538.546 83.098 538.096 82.558 537.754 82.306C539.554 81.154 539.986 79.084 540.148 76.96H541.642C541.588 77.608 541.516 78.256 541.408 78.868C541.786 80.056 542.362 80.776 543.082 81.19V76.258H538.87V74.89H547.726L547.978 74.818L549.058 75.16C548.734 76.078 548.338 77.122 547.996 77.824L546.718 77.356C546.862 77.05 547.006 76.672 547.15 76.258H544.648V78.112H547.888V79.48H544.648ZM556.348 79.732V74.782H554.26V79.732H556.348ZM551.686 69.328V67.816H558.058V69.328H555.358C555.088 70.696 554.746 72.028 554.314 73.288H557.788V81.208H554.26V82.594H552.856V76.51C552.586 76.96 552.316 77.374 552.01 77.752C551.938 77.32 551.596 76.312 551.344 75.862C552.532 74.26 553.306 71.884 553.774 69.328H551.686ZM561.928 74.224H564.466V69.4H561.928V74.224ZM568.012 74.224V75.808H566.068V83.422H564.466V75.808H561.91C561.82 78.508 561.352 81.496 559.408 83.512C559.12 83.242 558.508 82.756 558.13 82.54C559.84 80.758 560.254 78.112 560.344 75.808H558.49V74.224H560.362V69.4H558.976V67.834H567.652V69.4H566.068V74.224H568.012ZM573.718 66.988L575.266 67.42C574.87 68.59 574.402 69.778 573.88 70.93V83.404H572.296V73.864C571.828 74.602 571.36 75.268 570.856 75.862C570.712 75.448 570.262 74.512 570.01 74.098C571.504 72.352 572.89 69.688 573.718 66.988ZM576.652 71.884V74.602C578.128 74.242 579.478 73.72 580.63 73.018C579.964 72.46 579.424 71.866 578.974 71.254C578.542 71.794 578.092 72.262 577.642 72.676C577.426 72.478 576.994 72.136 576.652 71.884ZM583.564 70.138H579.784L579.766 70.156C580.252 70.876 580.918 71.578 581.782 72.208C582.502 71.614 583.096 70.93 583.564 70.138ZM586.714 70.138H585.31C584.734 71.254 583.978 72.208 583.078 73.018C584.248 73.648 585.652 74.134 587.29 74.422C587.002 74.764 586.57 75.376 586.372 75.79C584.608 75.394 583.114 74.728 581.872 73.936C580.612 74.8 579.136 75.448 577.534 75.934C577.372 75.628 576.958 75.088 576.652 74.746V80.452H575.194V69.076H576.652V71.47C577.948 70.318 579.082 68.644 579.73 66.88L581.26 67.258C581.062 67.78 580.828 68.284 580.558 68.788H586.714V70.138ZM583.834 76.708L585.076 77.212C583.69 78.742 581.314 79.822 578.902 80.47C578.704 80.146 578.362 79.678 578.074 79.39C580.306 78.886 582.646 77.95 583.834 76.708ZM582.124 75.034L583.384 75.556C582.268 76.672 580.468 77.572 578.794 78.112C578.578 77.824 578.2 77.392 577.876 77.14C579.424 76.708 581.188 75.934 582.124 75.034ZM585.346 78.706L586.786 79.3C584.986 81.424 581.71 82.666 577.984 83.332C577.804 82.936 577.444 82.36 577.12 82.018C580.594 81.514 583.78 80.47 585.346 78.706Z" fill="white"/>
<path d="M100.36 3.78H96.8C97.2 4.62 97.52 5.68 97.6 6.4L96.44 6.7H100.84L99.46 6.4C99.78 5.66 100.16 4.58 100.36 3.78ZM102.58 14.4L101.5 15.78C101.1 15.3 100.3 14.5 99.56 13.8V18.54H97.76V13.86C96.86 15.2 95.8 16.42 94.78 17.22C94.5 16.8 93.96 16.2 93.58 15.88C94.94 14.98 96.44 13.32 97.4 11.68H94.06V10.1H97.76V8.28H94V6.7H96.06C96 5.98 95.7 4.92 95.36 4.12L96.72 3.78H94.26V2.24H97.76V0.339999H99.56V2.24H103.06V3.78H100.64L102.04 4.1C101.66 5.04 101.28 6.02 100.94 6.7H103.28V8.28H99.56V10.1H103.1V11.68H99.56V12.02C100.28 12.52 102.12 14.02 102.58 14.4ZM112.18 6.84V8.56H110.08V18.46H108.28V8.56H105.7V8.74C105.7 11.7 105.34 15.86 102.58 18.64C102.36 18.24 101.68 17.6 101.26 17.36C103.68 14.9 103.92 11.48 103.92 8.72V1.8L105.16 2.16C107.12 1.7 109.24 1.08 110.48 0.439999L111.98 1.78C110.26 2.56 107.86 3.18 105.7 3.6V6.84H112.18ZM133.32 2.66V4.44H116.66V2.66H123.96V0.219999H125.88V2.66H133.32ZM124.36 8.72L123.24 10.04C122.74 9.54 121.84 8.8 121 8.18C120.1 9.56 119 10.74 117.8 11.6C117.5 11.28 116.72 10.64 116.3 10.36C118.34 9.1 119.9 6.98 120.66 4.5L122.54 4.92C122.32 5.56 122.08 6.18 121.78 6.78C122.7 7.4 123.78 8.18 124.36 8.72ZM133.9 12.18V13.96H125.88V18.56H123.96V13.96H116.14V12.18H123.96V10.86H125.24C124.88 10.5 124.34 10.06 124 9.84C126.06 8.7 127.62 6.84 128.34 4.54L130.22 4.9C129.98 5.64 129.68 6.34 129.32 6.98C130.76 7.94 132.52 9.22 133.42 10.08L132.12 11.46C131.32 10.66 129.76 9.44 128.36 8.44C127.64 9.4 126.78 10.2 125.86 10.86H125.88V12.18H133.9ZM154.2 0.46L155.44 1.9C152.56 2.72 148.26 3.2 144.64 3.4C144.58 2.96 144.36 2.3 144.16 1.88C147.68 1.66 151.82 1.16 154.2 0.46ZM153.28 8.68L151.84 8.08C152.66 6.8 153.7 4.72 154.28 3.22L156.02 3.86C155.2 5.54 154.14 7.46 153.28 8.68ZM150.9 7.14L149.24 7.5C149.2 6.56 148.84 5 148.38 3.8L149.94 3.52C150.42 4.68 150.84 6.18 150.9 7.14ZM147.36 7.7L145.76 8.2C145.6 7.2 145.06 5.6 144.44 4.42L145.92 4C146.56 5.16 147.18 6.7 147.36 7.7ZM143.74 8.58L143.98 10.28C143.3 10.5 142.6 10.72 141.92 10.94V16.52C141.92 17.44 141.74 17.94 141.2 18.24C140.66 18.52 139.88 18.58 138.6 18.58C138.56 18.14 138.34 17.34 138.1 16.86C138.9 16.88 139.64 16.88 139.86 16.86C140.12 16.86 140.22 16.8 140.22 16.52V11.46C139.44 11.7 138.7 11.92 138.04 12.14L137.62 10.34C138.34 10.16 139.24 9.9 140.22 9.62V5.82H137.9V4.1H140.22V0.239999H141.92V4.1H143.92V5.82H141.92V9.12L143.74 8.58ZM155.94 11.66H151.96C153.04 13.44 154.8 15.12 156.5 16.04C156.12 16.36 155.56 17 155.28 17.42C153.72 16.44 152.12 14.76 150.96 12.92V18.44H149.2V12.88C147.94 14.82 146.18 16.52 144.38 17.5C144.08 17.06 143.54 16.4 143.12 16.08C145.06 15.18 146.98 13.48 148.14 11.66H144.32V10.04H149.2V7.9H150.96V10.04H155.94V11.66ZM170.08 10.88H174.92V7.92H170.08V10.88ZM163.8 10.88H168.22V7.92H163.88V8.72C163.88 9.4 163.86 10.14 163.8 10.88ZM168.22 3.36H163.88V6.18H168.22V3.36ZM174.92 6.18V3.36H170.08V6.18H174.92ZM176.78 1.58V16.24C176.78 17.32 176.52 17.88 175.8 18.16C175.06 18.46 173.9 18.5 172.06 18.48C171.98 17.98 171.68 17.16 171.44 16.68C172.72 16.74 174.04 16.72 174.42 16.72C174.78 16.72 174.92 16.6 174.92 16.22V12.64H170.08V18.36H168.22V12.64H163.62C163.3 14.84 162.58 17.08 161.12 18.7C160.84 18.34 160.08 17.7 159.66 17.48C161.84 15.06 162.04 11.52 162.04 8.7V1.58H176.78Z" fill="#182346"/>
<path d="M479.92 10.38H485.12V5.54H479.92V10.38ZM472.8 10.38H477.98V5.54H472.8V10.38ZM479.92 3.72H487.06V13.28H485.12V12.2H479.92V18.56H477.98V12.2H472.8V13.38H470.94V3.72H477.98V0.239999H479.92V3.72ZM499.88 5.18H506.94C505.54 4.2 504.2 3.02 503.34 1.9C502.54 2.98 501.3 4.16 499.88 5.18ZM499.78 6.7V5.26C499.06 5.76 498.32 6.22 497.56 6.6C497.36 6.14 496.9 5.44 496.58 5.02C498.9 3.96 501.2 2 502.36 0.26H504.16C505.72 2.18 508.04 3.94 510.26 4.84C509.86 5.3 509.44 6 509.18 6.54C508.52 6.2 507.82 5.78 507.12 5.3V6.7H504.34V8.2H509.64V9.74H504.34V13.82C504.34 14.68 504.18 15.1 503.58 15.38C503 15.62 502.16 15.62 500.92 15.62C500.86 15.16 500.62 14.52 500.44 14.06C501.2 14.1 501.98 14.1 502.22 14.08C502.46 14.08 502.52 14.02 502.52 13.78V9.74H497.52V8.2H502.52V6.7H499.78ZM509.64 13.98L508.08 14.76C507.6 13.74 506.5 12.2 505.5 11.06L506.98 10.38C507.96 11.46 509.14 12.96 509.64 13.98ZM499.42 10.46L501.04 10.84C500.38 12.34 499.3 13.84 498.24 14.8C497.92 14.52 497.24 14.08 496.82 13.86C497.9 13 498.84 11.72 499.42 10.46ZM496.78 3.8L495.3 5.02C494.7 4.06 493.34 2.68 492.14 1.78L493.52 0.679999C494.72 1.56 496.14 2.84 496.78 3.8ZM496.24 7.98V14.3C497.14 15.7 498.8 16.32 501.06 16.4C503.3 16.48 507.78 16.42 510.28 16.26C510.06 16.7 509.76 17.58 509.66 18.16C507.38 18.26 503.32 18.3 501.04 18.2C498.48 18.1 496.7 17.46 495.42 15.9C494.56 16.72 493.64 17.52 492.64 18.38L491.68 16.48C492.54 15.92 493.54 15.18 494.42 14.42V9.7H492.04V7.98H496.24ZM530.2 0.46L531.44 1.9C528.56 2.72 524.26 3.2 520.64 3.4C520.58 2.96 520.36 2.3 520.16 1.88C523.68 1.66 527.82 1.16 530.2 0.46ZM529.28 8.68L527.84 8.08C528.66 6.8 529.7 4.72 530.28 3.22L532.02 3.86C531.2 5.54 530.14 7.46 529.28 8.68ZM526.9 7.14L525.24 7.5C525.2 6.56 524.84 5 524.38 3.8L525.94 3.52C526.42 4.68 526.84 6.18 526.9 7.14ZM523.36 7.7L521.76 8.2C521.6 7.2 521.06 5.6 520.44 4.42L521.92 4C522.56 5.16 523.18 6.7 523.36 7.7ZM519.74 8.58L519.98 10.28C519.3 10.5 518.6 10.72 517.92 10.94V16.52C517.92 17.44 517.74 17.94 517.2 18.24C516.66 18.52 515.88 18.58 514.6 18.58C514.56 18.14 514.34 17.34 514.1 16.86C514.9 16.88 515.64 16.88 515.86 16.86C516.12 16.86 516.22 16.8 516.22 16.52V11.46C515.44 11.7 514.7 11.92 514.04 12.14L513.62 10.34C514.34 10.16 515.24 9.9 516.22 9.62V5.82H513.9V4.1H516.22V0.239999H517.92V4.1H519.92V5.82H517.92V9.12L519.74 8.58ZM531.94 11.66H527.96C529.04 13.44 530.8 15.12 532.5 16.04C532.12 16.36 531.56 17 531.28 17.42C529.72 16.44 528.12 14.76 526.96 12.92V18.44H525.2V12.88C523.94 14.82 522.18 16.52 520.38 17.5C520.08 17.06 519.54 16.4 519.12 16.08C521.06 15.18 522.98 13.48 524.14 11.66H520.32V10.04H525.2V7.9H526.96V10.04H531.94V11.66ZM546.08 10.88H550.92V7.92H546.08V10.88ZM539.8 10.88H544.22V7.92H539.88V8.72C539.88 9.4 539.86 10.14 539.8 10.88ZM544.22 3.36H539.88V6.18H544.22V3.36ZM550.92 6.18V3.36H546.08V6.18H550.92ZM552.78 1.58V16.24C552.78 17.32 552.52 17.88 551.8 18.16C551.06 18.46 549.9 18.5 548.06 18.48C547.98 17.98 547.68 17.16 547.44 16.68C548.72 16.74 550.04 16.72 550.42 16.72C550.78 16.72 550.92 16.6 550.92 16.22V12.64H546.08V18.36H544.22V12.64H539.62C539.3 14.84 538.58 17.08 537.12 18.7C536.84 18.34 536.08 17.7 535.66 17.48C537.84 15.06 538.04 11.52 538.04 8.7V1.58H552.78Z" fill="#182346"/>
<path d="M136 139L138.887 134L133.113 134L136 139ZM135.5 119L135.5 134.5L136.5 134.5L136.5 119L135.5 119Z" fill="#182346"/>
<path d="M512 247L514.887 242L509.113 242L512 247ZM511.5 119L511.5 242.5L512.5 242.5L512.5 119L511.5 119Z" fill="#182346"/>
<path d="M136 247L138.887 242L133.113 242L136 247ZM135.5 227L135.5 242.5L136.5 242.5L136.5 227L135.5 227Z" fill="#182346"/>
<line x1="660" y1="41.5" x2="680" y2="41.5" stroke="#182346"/>
<line x1="284" y1="41.5" x2="304" y2="41.5" stroke="#182346"/>
<line x1="660" y1="324.5" x2="680" y2="324.5" stroke="#182346"/>
<line x1="284" y1="324.5" x2="304" y2="324.5" stroke="#182346"/>
<path d="M663.376 142.728L664.64 142.952C664.432 144.456 664.064 146.008 663.568 147.032C663.328 146.856 662.736 146.584 662.432 146.472C662.912 145.512 663.216 144.104 663.376 142.728ZM666.88 143.016L668 142.648C668.432 143.608 668.864 144.856 669.04 145.672L667.856 146.088C667.712 145.256 667.28 143.992 666.88 143.016ZM666.528 139.144L667.6 138.68C668.256 139.72 668.912 141.08 669.136 141.96L668 142.504C667.936 142.248 667.84 141.944 667.712 141.608L666.528 141.688V148.28H665.2V141.768C664.288 141.816 663.44 141.864 662.704 141.912L662.576 140.6L663.696 140.568C664 140.184 664.304 139.768 664.624 139.32C664.128 138.616 663.312 137.752 662.608 137.08L663.328 136.088C663.472 136.216 663.616 136.344 663.76 136.472C664.256 135.592 664.784 134.44 665.072 133.576L666.416 134.056C665.84 135.144 665.168 136.408 664.592 137.272C664.896 137.592 665.168 137.912 665.376 138.2C666 137.24 666.576 136.248 666.992 135.416L668.256 135.96C667.344 137.416 666.144 139.176 665.072 140.504L667.2 140.424C666.992 139.976 666.768 139.544 666.528 139.144ZM677.024 136.36V137.08C676.752 144.136 676.544 146.632 675.872 147.448C675.488 147.976 675.088 148.12 674.464 148.184C673.92 148.264 672.944 148.248 672 148.2C671.968 147.768 671.792 147.128 671.504 146.712C672.544 146.792 673.504 146.808 673.888 146.808C674.224 146.808 674.4 146.744 674.576 146.536C675.088 146.024 675.344 143.656 675.552 137.784H670.672C670.24 138.6 669.76 139.336 669.264 139.928C668.976 139.672 668.304 139.24 667.952 139.032C669.168 137.736 670.16 135.656 670.72 133.56L672.24 133.912C672 134.744 671.696 135.576 671.36 136.36H677.024ZM673.424 143.528L672.112 144.2C671.792 143.224 670.912 141.672 670.064 140.52L671.264 139.928C672.128 141.016 673.072 142.536 673.424 143.528ZM666.142 168V166.928C669.614 163.856 671.406 161.568 671.406 159.632C671.406 158.352 670.734 157.472 669.406 157.472C668.478 157.472 667.71 158.064 667.086 158.784L666.046 157.76C667.054 156.656 668.094 156 669.63 156C671.79 156 673.182 157.408 673.182 159.536C673.182 161.808 671.374 164.16 668.878 166.544C669.486 166.48 670.222 166.432 670.798 166.432H673.742V168H666.142ZM671.008 178.008C670.864 178.344 670.768 178.6 670.656 178.872C670.544 179.192 670.384 179.592 670.224 179.992H675.648C675.984 179.992 676.56 179.976 676.944 179.912V181.448C676.512 181.416 675.968 181.416 675.648 181.416H673.824C673.552 184.744 672.352 186.856 670.032 188.296L668.48 187.256C668.864 187.096 669.456 186.76 669.792 186.488C671.04 185.48 672.016 184.056 672.256 181.416H669.568C669.024 182.392 668.176 183.464 667.504 184.04L666.08 183.176C667.072 182.44 667.792 181.48 668.288 180.616C668.688 179.944 668.912 179.272 669.072 178.68C669.168 178.36 669.232 177.992 669.248 177.672L671.008 178.008ZM666.608 204.976H673.632V202.608H666.752C666.752 203.344 666.704 204.144 666.608 204.976ZM673.632 198.816H666.752V201.184H673.632V198.816ZM675.2 197.376V209.248C675.2 210.208 674.944 210.672 674.304 210.912C673.632 211.184 672.544 211.216 670.88 211.216C670.784 210.784 670.496 210.064 670.24 209.648C671.488 209.712 672.768 209.696 673.152 209.68C673.504 209.68 673.632 209.552 673.632 209.216V206.416H666.368C665.952 208.208 665.152 209.984 663.632 211.28C663.408 210.96 662.832 210.416 662.496 210.192C664.992 208.048 665.232 204.912 665.232 202.4V197.376H675.2ZM667.936 219.336H664.912V220.44H667.936V219.336ZM664.912 222.68H667.936V221.496H664.912V222.68ZM669.344 223.784H664.912V232.264H663.44V218.216H669.344V223.784ZM672.032 222.712H675.152V221.496H672.032V222.712ZM675.152 219.336H672.032V220.44H675.152V219.336ZM668.336 229.672H671.584V228.344H668.336V229.672ZM671.584 226.008H668.336V227.256H671.584V226.008ZM676.656 218.216V230.408C676.656 231.256 676.48 231.736 675.904 231.992C675.344 232.232 674.464 232.248 673.12 232.248C673.056 231.848 672.848 231.208 672.656 230.792H668.336V231.592H666.976V224.888H672.976V230.744C673.76 230.776 674.528 230.76 674.784 230.76C675.072 230.744 675.152 230.664 675.152 230.392V223.816H670.608V218.216H676.656Z" fill="#182346"/>
<path d="M287.376 142.728L288.64 142.952C288.432 144.456 288.064 146.008 287.568 147.032C287.328 146.856 286.736 146.584 286.432 146.472C286.912 145.512 287.216 144.104 287.376 142.728ZM290.88 143.016L292 142.648C292.432 143.608 292.864 144.856 293.04 145.672L291.856 146.088C291.712 145.256 291.28 143.992 290.88 143.016ZM290.528 139.144L291.6 138.68C292.256 139.72 292.912 141.08 293.136 141.96L292 142.504C291.936 142.248 291.84 141.944 291.712 141.608L290.528 141.688V148.28H289.2V141.768C288.288 141.816 287.44 141.864 286.704 141.912L286.576 140.6L287.696 140.568C288 140.184 288.304 139.768 288.624 139.32C288.128 138.616 287.312 137.752 286.608 137.08L287.328 136.088C287.472 136.216 287.616 136.344 287.76 136.472C288.256 135.592 288.784 134.44 289.072 133.576L290.416 134.056C289.84 135.144 289.168 136.408 288.592 137.272C288.896 137.592 289.168 137.912 289.376 138.2C290 137.24 290.576 136.248 290.992 135.416L292.256 135.96C291.344 137.416 290.144 139.176 289.072 140.504L291.2 140.424C290.992 139.976 290.768 139.544 290.528 139.144ZM301.024 136.36V137.08C300.752 144.136 300.544 146.632 299.872 147.448C299.488 147.976 299.088 148.12 298.464 148.184C297.92 148.264 296.944 148.248 296 148.2C295.968 147.768 295.792 147.128 295.504 146.712C296.544 146.792 297.504 146.808 297.888 146.808C298.224 146.808 298.4 146.744 298.576 146.536C299.088 146.024 299.344 143.656 299.552 137.784H294.672C294.24 138.6 293.76 139.336 293.264 139.928C292.976 139.672 292.304 139.24 291.952 139.032C293.168 137.736 294.16 135.656 294.72 133.56L296.24 133.912C296 134.744 295.696 135.576 295.36 136.36H301.024ZM297.424 143.528L296.112 144.2C295.792 143.224 294.912 141.672 294.064 140.52L295.264 139.928C296.128 141.016 297.072 142.536 297.424 143.528ZM293.726 168.208C291.87 168.208 290.67 167.472 289.886 166.592L290.782 165.408C291.47 166.112 292.35 166.704 293.566 166.704C294.894 166.704 295.806 165.968 295.806 164.736C295.806 163.44 294.974 162.592 292.318 162.592V161.232C294.638 161.232 295.406 160.352 295.406 159.168C295.406 158.128 294.718 157.488 293.598 157.472C292.686 157.488 291.918 157.92 291.246 158.576L290.286 157.424C291.214 156.592 292.302 156 293.661 156C295.774 156 297.262 157.104 297.262 159.04C297.262 160.4 296.478 161.344 295.23 161.808V161.888C296.59 162.224 297.661 163.248 297.661 164.832C297.661 166.96 295.886 168.208 293.726 168.208ZM295.008 178.008C294.864 178.344 294.768 178.6 294.656 178.872C294.544 179.192 294.384 179.592 294.224 179.992H299.648C299.984 179.992 300.56 179.976 300.944 179.912V181.448C300.512 181.416 299.968 181.416 299.648 181.416H297.824C297.552 184.744 296.352 186.856 294.032 188.296L292.48 187.256C292.864 187.096 293.456 186.76 293.792 186.488C295.04 185.48 296.016 184.056 296.256 181.416H293.568C293.024 182.392 292.176 183.464 291.504 184.04L290.08 183.176C291.072 182.44 291.792 181.48 292.288 180.616C292.688 179.944 292.912 179.272 293.072 178.68C293.168 178.36 293.232 177.992 293.248 177.672L295.008 178.008ZM290.608 204.976H297.632V202.608H290.752C290.752 203.344 290.704 204.144 290.608 204.976ZM297.632 198.816H290.752V201.184H297.632V198.816ZM299.2 197.376V209.248C299.2 210.208 298.944 210.672 298.304 210.912C297.632 211.184 296.544 211.216 294.88 211.216C294.784 210.784 294.496 210.064 294.24 209.648C295.488 209.712 296.768 209.696 297.152 209.68C297.504 209.68 297.632 209.552 297.632 209.216V206.416H290.368C289.952 208.208 289.152 209.984 287.632 211.28C287.408 210.96 286.832 210.416 286.496 210.192C288.992 208.048 289.232 204.912 289.232 202.4V197.376H299.2ZM291.936 219.336H288.912V220.44H291.936V219.336ZM288.912 222.68H291.936V221.496H288.912V222.68ZM293.344 223.784H288.912V232.264H287.44V218.216H293.344V223.784ZM296.032 222.712H299.152V221.496H296.032V222.712ZM299.152 219.336H296.032V220.44H299.152V219.336ZM292.336 229.672H295.584V228.344H292.336V229.672ZM295.584 226.008H292.336V227.256H295.584V226.008ZM300.656 218.216V230.408C300.656 231.256 300.48 231.736 299.904 231.992C299.344 232.232 298.464 232.248 297.12 232.248C297.056 231.848 296.848 231.208 296.656 230.792H292.336V231.592H290.976V224.888H296.976V230.744C297.76 230.776 298.528 230.76 298.784 230.76C299.072 230.744 299.152 230.664 299.152 230.392V223.816H294.608V218.216H300.656Z" fill="#182346"/>
<path d="M670.354 41.6464C670.158 41.4512 669.842 41.4512 669.646 41.6464L666.464 44.8284C666.269 45.0237 666.269 45.3403 666.464 45.5355C666.66 45.7308 666.976 45.7308 667.172 45.5355L670 42.7071L672.828 45.5355C673.024 45.7308 673.34 45.7308 673.536 45.5355C673.731 45.3403 673.731 45.0237 673.536 44.8284L670.354 41.6464ZM669.5 42L669.5 42.9706L670.5 42.9706L670.5 42L669.5 42ZM669.5 44.9118L669.5 46.8529L670.5 46.8529L670.5 44.9118L669.5 44.9118ZM669.5 48.7941L669.5 50.7353L670.5 50.7353L670.5 48.7941L669.5 48.7941ZM669.5 52.6765L669.5 54.6176L670.5 54.6176L670.5 52.6765L669.5 52.6765ZM669.5 56.5588L669.5 58.5L670.5 58.5L670.5 56.5588L669.5 56.5588ZM669.5 60.4412L669.5 62.3824L670.5 62.3824L670.5 60.4412L669.5 60.4412ZM669.5 64.3235L669.5 66.2647L670.5 66.2647L670.5 64.3235L669.5 64.3235ZM669.5 68.2059L669.5 70.1471L670.5 70.1471L670.5 68.2059L669.5 68.2059ZM669.5 72.0882L669.5 74.0294L670.5 74.0294L670.5 72.0882L669.5 72.0882ZM669.5 75.9706L669.5 77.9118L670.5 77.9118L670.5 75.9706L669.5 75.9706ZM669.5 79.853L669.5 81.7941L670.5 81.7941L670.5 79.853L669.5 79.853ZM669.5 83.7353L669.5 85.6765L670.5 85.6765L670.5 83.7353L669.5 83.7353ZM669.5 87.6177L669.5 89.5588L670.5 89.5588L670.5 87.6177L669.5 87.6177ZM669.5 91.5L669.5 93.4412L670.5 93.4412L670.5 91.5L669.5 91.5ZM669.5 95.3824L669.5 97.3235L670.5 97.3235L670.5 95.3824L669.5 95.3824ZM669.5 99.2647L669.5 101.206L670.5 101.206L670.5 99.2647L669.5 99.2647ZM669.5 103.147L669.5 105.088L670.5 105.088L670.5 103.147L669.5 103.147ZM669.5 107.029L669.5 108L670.5 108L670.5 107.029L669.5 107.029Z" fill="#182346"/>
<path d="M294.354 41.6464C294.158 41.4512 293.842 41.4512 293.646 41.6464L290.464 44.8284C290.269 45.0237 290.269 45.3403 290.464 45.5355C290.66 45.7308 290.976 45.7308 291.172 45.5355L294 42.7071L296.828 45.5355C297.024 45.7308 297.34 45.7308 297.536 45.5355C297.731 45.3403 297.731 45.0237 297.536 44.8284L294.354 41.6464ZM293.5 42L293.5 42.9706L294.5 42.9706L294.5 42L293.5 42ZM293.5 44.9118L293.5 46.8529L294.5 46.8529L294.5 44.9118L293.5 44.9118ZM293.5 48.7941L293.5 50.7353L294.5 50.7353L294.5 48.7941L293.5 48.7941ZM293.5 52.6765L293.5 54.6176L294.5 54.6176L294.5 52.6765L293.5 52.6765ZM293.5 56.5588L293.5 58.5L294.5 58.5L294.5 56.5588L293.5 56.5588ZM293.5 60.4412L293.5 62.3824L294.5 62.3824L294.5 60.4412L293.5 60.4412ZM293.5 64.3235L293.5 66.2647L294.5 66.2647L294.5 64.3235L293.5 64.3235ZM293.5 68.2059L293.5 70.1471L294.5 70.1471L294.5 68.2059L293.5 68.2059ZM293.5 72.0882L293.5 74.0294L294.5 74.0294L294.5 72.0882L293.5 72.0882ZM293.5 75.9706L293.5 77.9118L294.5 77.9118L294.5 75.9706L293.5 75.9706ZM293.5 79.853L293.5 81.7941L294.5 81.7941L294.5 79.853L293.5 79.853ZM293.5 83.7353L293.5 85.6765L294.5 85.6765L294.5 83.7353L293.5 83.7353ZM293.5 87.6177L293.5 89.5588L294.5 89.5588L294.5 87.6177L293.5 87.6177ZM293.5 91.5L293.5 93.4412L294.5 93.4412L294.5 91.5L293.5 91.5ZM293.5 95.3824L293.5 97.3235L294.5 97.3235L294.5 95.3824L293.5 95.3824ZM293.5 99.2647L293.5 101.206L294.5 101.206L294.5 99.2647L293.5 99.2647ZM293.5 103.147L293.5 105.088L294.5 105.088L294.5 103.147L293.5 103.147ZM293.5 107.029L293.5 108L294.5 108L294.5 107.029L293.5 107.029Z" fill="#182346"/>
<path d="M669.646 325.354C669.842 325.549 670.158 325.549 670.354 325.354L673.536 322.172C673.731 321.976 673.731 321.66 673.536 321.464C673.34 321.269 673.024 321.269 672.828 321.464L670 324.293L667.172 321.464C666.976 321.269 666.66 321.269 666.464 321.464C666.269 321.66 666.269 321.976 666.464 322.172L669.646 325.354ZM670.5 325L670.5 324.029L669.5 324.029L669.5 325L670.5 325ZM670.5 322.088L670.5 320.147L669.5 320.147L669.5 322.088L670.5 322.088ZM670.5 318.206L670.5 316.265L669.5 316.265L669.5 318.206L670.5 318.206ZM670.5 314.324L670.5 312.382L669.5 312.382L669.5 314.324L670.5 314.324ZM670.5 310.441L670.5 308.5L669.5 308.5L669.5 310.441L670.5 310.441ZM670.5 306.559L670.5 304.618L669.5 304.618L669.5 306.559L670.5 306.559ZM670.5 302.676L670.5 300.735L669.5 300.735L669.5 302.676L670.5 302.676ZM670.5 298.794L670.5 296.853L669.5 296.853L669.5 298.794L670.5 298.794ZM670.5 294.912L670.5 292.971L669.5 292.971L669.5 294.912L670.5 294.912ZM670.5 291.029L670.5 289.088L669.5 289.088L669.5 291.029L670.5 291.029ZM670.5 287.147L670.5 285.206L669.5 285.206L669.5 287.147L670.5 287.147ZM670.5 283.265L670.5 281.324L669.5 281.324L669.5 283.265L670.5 283.265ZM670.5 279.382L670.5 277.441L669.5 277.441L669.5 279.382L670.5 279.382ZM670.5 275.5L670.5 273.559L669.5 273.559L669.5 275.5L670.5 275.5ZM670.5 271.618L670.5 269.676L669.5 269.676L669.5 271.618L670.5 271.618ZM670.5 267.735L670.5 265.794L669.5 265.794L669.5 267.735L670.5 267.735ZM670.5 263.853L670.5 261.912L669.5 261.912L669.5 263.853L670.5 263.853ZM670.5 259.971L670.5 259L669.5 259L669.5 259.971L670.5 259.971Z" fill="#182346"/>
<path d="M293.646 325.354C293.842 325.549 294.158 325.549 294.354 325.354L297.536 322.172C297.731 321.976 297.731 321.66 297.536 321.464C297.34 321.269 297.024 321.269 296.828 321.464L294 324.293L291.172 321.464C290.976 321.269 290.66 321.269 290.464 321.464C290.269 321.66 290.269 321.976 290.464 322.172L293.646 325.354ZM294.5 325L294.5 324.029L293.5 324.029L293.5 325L294.5 325ZM294.5 322.088L294.5 320.147L293.5 320.147L293.5 322.088L294.5 322.088ZM294.5 318.206L294.5 316.265L293.5 316.265L293.5 318.206L294.5 318.206ZM294.5 314.324L294.5 312.382L293.5 312.382L293.5 314.324L294.5 314.324ZM294.5 310.441L294.5 308.5L293.5 308.5L293.5 310.441L294.5 310.441ZM294.5 306.559L294.5 304.618L293.5 304.618L293.5 306.559L294.5 306.559ZM294.5 302.676L294.5 300.735L293.5 300.735L293.5 302.676L294.5 302.676ZM294.5 298.794L294.5 296.853L293.5 296.853L293.5 298.794L294.5 298.794ZM294.5 294.912L294.5 292.971L293.5 292.971L293.5 294.912L294.5 294.912ZM294.5 291.029L294.5 289.088L293.5 289.088L293.5 291.029L294.5 291.029ZM294.5 287.147L294.5 285.206L293.5 285.206L293.5 287.147L294.5 287.147ZM294.5 283.265L294.5 281.324L293.5 281.324L293.5 283.265L294.5 283.265ZM294.5 279.382L294.5 277.441L293.5 277.441L293.5 279.382L294.5 279.382ZM294.5 275.5L294.5 273.559L293.5 273.559L293.5 275.5L294.5 275.5ZM294.5 271.618L294.5 269.676L293.5 269.676L293.5 271.618L294.5 271.618ZM294.5 267.735L294.5 265.794L293.5 265.794L293.5 267.735L294.5 267.735ZM294.5 263.853L294.5 261.912L293.5 261.912L293.5 263.853L294.5 263.853ZM294.5 259.971L294.5 259L293.5 259L293.5 259.971L294.5 259.971Z" fill="#182346"/>
</svg>

