<svg width="338" height="447" viewBox="0 0 338 447" fill="none" xmlns="http://www.w3.org/2000/svg">
<rect x="1" y="45" width="98" height="126" fill="#182346"/>
<rect width="151" height="81" transform="matrix(1 0 0 -1 1 403)" fill="#182346"/>
<path d="M186 403H337V322H186V403Z" fill="#0050B5"/>
<path d="M120 45H218V171H120V45Z" fill="#0C3A7E"/>
<path d="M239 45H337V171H239V45Z" fill="#0050B5"/>
<path d="M32.554 92.665C32.879 93.133 33.334 93.939 33.594 94.446L32.749 94.81C32.489 94.29 32.06 93.51 31.709 93.016L32.554 92.665ZM34.023 92.119C34.361 92.6 34.855 93.406 35.089 93.887L34.244 94.251C33.971 93.692 33.555 92.951 33.191 92.47L34.023 92.119ZM26.808 93.146C26.769 93.497 26.73 93.965 26.73 94.342V97.059C28.264 96.682 30.214 96.071 31.475 95.538C31.904 95.369 32.307 95.174 32.736 94.901L33.308 96.214C32.879 96.383 32.359 96.617 31.943 96.773C30.552 97.332 28.368 97.982 26.73 98.411V101.063C26.73 101.687 27.003 101.843 27.614 101.973C28.004 102.038 28.615 102.064 29.239 102.064C30.604 102.064 32.645 101.921 33.724 101.635V103.13C32.541 103.299 30.591 103.39 29.161 103.39C28.355 103.39 27.575 103.351 27.029 103.26C25.976 103.065 25.378 102.545 25.378 101.453V94.342C25.378 94.03 25.352 93.497 25.287 93.146H26.808ZM46.061 93.172C46.412 93.679 46.958 94.589 47.257 95.2L46.347 95.59C46.009 94.849 45.632 94.173 45.177 93.549L46.061 93.172ZM47.803 92.548C48.167 93.029 48.713 93.926 49.038 94.524L48.128 94.927C47.764 94.186 47.361 93.536 46.906 92.925L47.803 92.548ZM40.471 92.951C41.277 93.406 42.733 94.368 43.357 94.81L42.577 95.928C41.914 95.447 40.523 94.537 39.73 94.082L40.471 92.951ZM38.313 102.22C39.756 101.973 41.342 101.492 42.707 100.738C44.878 99.503 46.646 97.761 47.686 95.915L48.479 97.293C47.309 99.061 45.502 100.725 43.396 101.96C42.083 102.714 40.263 103.338 39.08 103.559L38.313 102.22ZM38.482 95.902C39.301 96.344 40.783 97.254 41.394 97.683L40.64 98.84C39.964 98.346 38.573 97.462 37.754 97.02L38.482 95.902ZM57.644 92.496C57.605 92.795 57.566 93.289 57.566 93.666V94.433H59.464C59.802 94.433 60.14 94.394 60.387 94.329L61.245 95.148C60.972 95.434 60.634 95.798 60.4 96.058C59.737 96.825 58.684 97.878 57.54 98.697V102.103C57.54 102.584 57.579 103.234 57.605 103.637H56.123C56.175 103.26 56.214 102.584 56.214 102.103V99.542C55.005 100.205 53.601 100.777 52.002 101.245L51.209 100.036C53.692 99.464 55.343 98.593 56.5 97.839C57.592 97.137 58.528 96.24 58.944 95.655H53.848C53.38 95.655 52.613 95.681 52.21 95.707V94.355C52.652 94.407 53.38 94.433 53.822 94.433H56.24V93.666C56.24 93.276 56.214 92.795 56.162 92.496H57.644ZM61.674 101.401C60.543 100.543 59.724 100.01 58.554 99.373L59.399 98.398C60.608 99.048 61.297 99.438 62.532 100.27L61.674 101.401ZM74.57 94.251C74.479 94.381 74.284 94.706 74.193 94.927C73.738 95.993 72.971 97.462 72.061 98.632C73.4 99.776 74.973 101.453 75.779 102.441L74.635 103.455C73.777 102.285 72.477 100.855 71.19 99.659C69.799 101.141 68.044 102.532 66.185 103.403L65.132 102.298C67.238 101.492 69.188 99.932 70.475 98.489C71.359 97.501 72.23 96.071 72.542 95.057H67.771C67.264 95.057 66.562 95.122 66.354 95.135V93.666C66.614 93.705 67.368 93.757 67.771 93.757H72.594C73.075 93.757 73.504 93.705 73.725 93.627L74.57 94.251ZM27.341 118.462V119.242H31.761V118.462H27.341ZM31.761 115.225H27.341V115.953H31.761V115.225ZM27.341 116.837V117.578H31.761V116.837H27.341ZM35.44 120.243H32.853C33.581 120.997 34.595 121.66 35.596 122.011C35.349 122.232 34.985 122.661 34.816 122.947C33.568 122.401 32.32 121.374 31.527 120.243H27.653C27.341 120.698 26.938 121.153 26.509 121.556H28.888V120.581H30.11V121.556H32.684V122.518H30.11V123.675H34.478V124.676H24.689V123.675H28.888V122.518H26.405V121.66C25.755 122.245 25.001 122.739 24.26 123.09C24.091 122.804 23.74 122.375 23.48 122.167C24.507 121.777 25.547 121.049 26.288 120.243H23.61V119.242H26.132V115.225H24.247V114.237H26.132V113.106H27.341V114.237H31.761V113.119H32.996V114.237H34.855V115.225H32.996V119.242H35.44V120.243ZM46.594 118.514V116.642C46.217 117.279 45.762 117.864 45.294 118.254C45.203 118.02 44.969 117.669 44.787 117.474C45.385 117.045 45.983 116.226 46.36 115.394H45.385V114.458H46.594V113.093H47.595V114.458H49.09V115.394H47.829C48.167 116.226 48.713 117.071 49.298 117.5C49.09 117.669 48.804 117.968 48.648 118.202C48.258 117.851 47.894 117.292 47.595 116.681V118.514H46.594ZM43.084 118.514V116.72C42.733 117.331 42.317 117.89 41.901 118.293C41.784 118.046 41.55 117.669 41.368 117.474C41.901 117.019 42.486 116.2 42.85 115.394H41.784V114.458H43.084V113.093H44.085V114.458H45.151V115.394H44.085V115.615C44.319 115.797 45.099 116.421 45.294 116.603L44.722 117.305C44.592 117.123 44.332 116.824 44.085 116.538V118.514H43.084ZM40.393 122.297V118.761H39.145V122.297H40.393ZM41.433 123.35H39.145V124.364H38.144V120.789C38.014 121.036 37.871 121.283 37.715 121.504C37.598 121.244 37.26 120.672 37.052 120.399C37.923 119.073 38.378 117.032 38.651 114.887H37.325V113.795H41.771V114.887H39.782C39.652 115.862 39.483 116.811 39.262 117.708H41.433V123.35ZM45.918 122.18V123.753C46.178 123.792 46.464 123.805 46.763 123.805C47.101 123.805 48.817 123.805 49.272 123.792C49.129 124.039 48.986 124.533 48.934 124.819H46.698C45.073 124.819 43.942 124.481 43.201 123.064C42.889 123.844 42.395 124.52 41.641 125.027C41.511 124.793 41.186 124.403 40.939 124.221C42.239 123.389 42.551 121.894 42.668 120.36H43.747C43.708 120.828 43.656 121.296 43.578 121.738C43.851 122.596 44.267 123.116 44.787 123.415V119.853H41.745V118.865H48.141L48.323 118.813L49.103 119.06C48.869 119.723 48.583 120.477 48.336 120.984L47.413 120.646C47.517 120.425 47.621 120.152 47.725 119.853H45.918V121.192H48.258V122.18H45.918ZM54.368 122.362V118.787H52.86V122.362H54.368ZM51.001 114.848V113.756H55.603V114.848H53.653C53.458 115.836 53.211 116.798 52.899 117.708H55.408V123.428H52.86V124.429H51.846V120.035C51.651 120.36 51.456 120.659 51.235 120.932C51.183 120.62 50.936 119.892 50.754 119.567C51.612 118.41 52.171 116.694 52.509 114.848H51.001ZM58.398 118.384H60.231V114.9H58.398V118.384ZM62.792 118.384V119.528H61.388V125.027H60.231V119.528H58.385C58.32 121.478 57.982 123.636 56.578 125.092C56.37 124.897 55.928 124.546 55.655 124.39C56.89 123.103 57.189 121.192 57.254 119.528H55.915V118.384H57.267V114.9H56.266V113.769H62.532V114.9H61.388V118.384H62.792ZM66.913 113.158L68.031 113.47C67.745 114.315 67.407 115.173 67.03 116.005V125.014H65.886V118.124C65.548 118.657 65.21 119.138 64.846 119.567C64.742 119.268 64.417 118.592 64.235 118.293C65.314 117.032 66.315 115.108 66.913 113.158ZM69.032 116.694V118.657C70.098 118.397 71.073 118.02 71.905 117.513C71.424 117.11 71.034 116.681 70.709 116.239C70.397 116.629 70.072 116.967 69.747 117.266C69.591 117.123 69.279 116.876 69.032 116.694ZM74.024 115.433H71.294L71.281 115.446C71.632 115.966 72.113 116.473 72.737 116.928C73.257 116.499 73.686 116.005 74.024 115.433ZM76.299 115.433H75.285C74.869 116.239 74.323 116.928 73.673 117.513C74.518 117.968 75.532 118.319 76.715 118.527C76.507 118.774 76.195 119.216 76.052 119.515C74.778 119.229 73.699 118.748 72.802 118.176C71.892 118.8 70.826 119.268 69.669 119.619C69.552 119.398 69.253 119.008 69.032 118.761V122.882H67.979V114.666H69.032V116.395C69.968 115.563 70.787 114.354 71.255 113.08L72.36 113.353C72.217 113.73 72.048 114.094 71.853 114.458H76.299V115.433ZM74.219 120.178L75.116 120.542C74.115 121.647 72.399 122.427 70.657 122.895C70.514 122.661 70.267 122.323 70.059 122.115C71.671 121.751 73.361 121.075 74.219 120.178ZM72.984 118.969L73.894 119.346C73.088 120.152 71.788 120.802 70.579 121.192C70.423 120.984 70.15 120.672 69.916 120.49C71.034 120.178 72.308 119.619 72.984 118.969ZM75.311 121.621L76.351 122.05C75.051 123.584 72.685 124.481 69.994 124.962C69.864 124.676 69.604 124.26 69.37 124.013C71.879 123.649 74.18 122.895 75.311 121.621Z" fill="white"/>
<path d="M31.754 357.665C32.079 358.133 32.534 358.939 32.794 359.446L31.949 359.81C31.689 359.29 31.26 358.51 30.909 358.016L31.754 357.665ZM33.223 357.119C33.561 357.6 34.055 358.406 34.289 358.887L33.444 359.251C33.171 358.692 32.755 357.951 32.391 357.47L33.223 357.119ZM26.008 358.146C25.969 358.497 25.93 358.965 25.93 359.342V362.059C27.464 361.682 29.414 361.071 30.675 360.538C31.104 360.369 31.507 360.174 31.936 359.901L32.508 361.214C32.079 361.383 31.559 361.617 31.143 361.773C29.752 362.332 27.568 362.982 25.93 363.411V366.063C25.93 366.687 26.203 366.843 26.814 366.973C27.204 367.038 27.815 367.064 28.439 367.064C29.804 367.064 31.845 366.921 32.924 366.635V368.13C31.741 368.299 29.791 368.39 28.361 368.39C27.555 368.39 26.775 368.351 26.229 368.26C25.176 368.065 24.578 367.545 24.578 366.453V359.342C24.578 359.03 24.552 358.497 24.487 358.146H26.008ZM45.261 358.172C45.612 358.679 46.158 359.589 46.457 360.2L45.547 360.59C45.209 359.849 44.832 359.173 44.377 358.549L45.261 358.172ZM47.003 357.548C47.367 358.029 47.913 358.926 48.238 359.524L47.328 359.927C46.964 359.186 46.561 358.536 46.106 357.925L47.003 357.548ZM39.671 357.951C40.477 358.406 41.933 359.368 42.557 359.81L41.777 360.928C41.114 360.447 39.723 359.537 38.93 359.082L39.671 357.951ZM37.513 367.22C38.956 366.973 40.542 366.492 41.907 365.738C44.078 364.503 45.846 362.761 46.886 360.915L47.679 362.293C46.509 364.061 44.702 365.725 42.596 366.96C41.283 367.714 39.463 368.338 38.28 368.559L37.513 367.22ZM37.682 360.902C38.501 361.344 39.983 362.254 40.594 362.683L39.84 363.84C39.164 363.346 37.773 362.462 36.954 362.02L37.682 360.902ZM56.844 357.496C56.805 357.795 56.766 358.289 56.766 358.666V359.433H58.664C59.002 359.433 59.34 359.394 59.587 359.329L60.445 360.148C60.172 360.434 59.834 360.798 59.6 361.058C58.937 361.825 57.884 362.878 56.74 363.697V367.103C56.74 367.584 56.779 368.234 56.805 368.637H55.323C55.375 368.26 55.414 367.584 55.414 367.103V364.542C54.205 365.205 52.801 365.777 51.202 366.245L50.409 365.036C52.892 364.464 54.543 363.593 55.7 362.839C56.792 362.137 57.728 361.24 58.144 360.655H53.048C52.58 360.655 51.813 360.681 51.41 360.707V359.355C51.852 359.407 52.58 359.433 53.022 359.433H55.44V358.666C55.44 358.276 55.414 357.795 55.362 357.496H56.844ZM60.874 366.401C59.743 365.543 58.924 365.01 57.754 364.373L58.599 363.398C59.808 364.048 60.497 364.438 61.732 365.27L60.874 366.401ZM73.77 359.251C73.679 359.381 73.484 359.706 73.393 359.927C72.938 360.993 72.171 362.462 71.261 363.632C72.6 364.776 74.173 366.453 74.979 367.441L73.835 368.455C72.977 367.285 71.677 365.855 70.39 364.659C68.999 366.141 67.244 367.532 65.385 368.403L64.332 367.298C66.438 366.492 68.388 364.932 69.675 363.489C70.559 362.501 71.43 361.071 71.742 360.057H66.971C66.464 360.057 65.762 360.122 65.554 360.135V358.666C65.814 358.705 66.568 358.757 66.971 358.757H71.794C72.275 358.757 72.704 358.705 72.925 358.627L73.77 359.251ZM81.141 362.462V363.242H85.561V362.462H81.141ZM85.561 359.225H81.141V359.953H85.561V359.225ZM81.141 360.837V361.578H85.561V360.837H81.141ZM89.24 364.243H86.653C87.381 364.997 88.395 365.66 89.396 366.011C89.149 366.232 88.785 366.661 88.616 366.947C87.368 366.401 86.12 365.374 85.327 364.243H81.453C81.141 364.698 80.738 365.153 80.309 365.556H82.688V364.581H83.91V365.556H86.484V366.518H83.91V367.675H88.278V368.676H78.489V367.675H82.688V366.518H80.205V365.66C79.555 366.245 78.801 366.739 78.06 367.09C77.891 366.804 77.54 366.375 77.28 366.167C78.307 365.777 79.347 365.049 80.088 364.243H77.41V363.242H79.932V359.225H78.047V358.237H79.932V357.106H81.141V358.237H85.561V357.119H86.796V358.237H88.655V359.225H86.796V363.242H89.24V364.243ZM100.394 362.514V360.642C100.017 361.279 99.562 361.864 99.094 362.254C99.003 362.02 98.769 361.669 98.587 361.474C99.185 361.045 99.783 360.226 100.16 359.394H99.185V358.458H100.394V357.093H101.395V358.458H102.89V359.394H101.629C101.967 360.226 102.513 361.071 103.098 361.5C102.89 361.669 102.604 361.968 102.448 362.202C102.058 361.851 101.694 361.292 101.395 360.681V362.514H100.394ZM96.884 362.514V360.72C96.533 361.331 96.117 361.89 95.701 362.293C95.584 362.046 95.35 361.669 95.168 361.474C95.701 361.019 96.286 360.2 96.65 359.394H95.584V358.458H96.884V357.093H97.885V358.458H98.951V359.394H97.885V359.615C98.119 359.797 98.899 360.421 99.094 360.603L98.522 361.305C98.392 361.123 98.132 360.824 97.885 360.538V362.514H96.884ZM94.193 366.297V362.761H92.945V366.297H94.193ZM95.233 367.35H92.945V368.364H91.944V364.789C91.814 365.036 91.671 365.283 91.515 365.504C91.398 365.244 91.06 364.672 90.852 364.399C91.723 363.073 92.178 361.032 92.451 358.887H91.125V357.795H95.571V358.887H93.582C93.452 359.862 93.283 360.811 93.062 361.708H95.233V367.35ZM99.718 366.18V367.753C99.978 367.792 100.264 367.805 100.563 367.805C100.901 367.805 102.617 367.805 103.072 367.792C102.929 368.039 102.786 368.533 102.734 368.819H100.498C98.873 368.819 97.742 368.481 97.001 367.064C96.689 367.844 96.195 368.52 95.441 369.027C95.311 368.793 94.986 368.403 94.739 368.221C96.039 367.389 96.351 365.894 96.468 364.36H97.547C97.508 364.828 97.456 365.296 97.378 365.738C97.651 366.596 98.067 367.116 98.587 367.415V363.853H95.545V362.865H101.941L102.123 362.813L102.903 363.06C102.669 363.723 102.383 364.477 102.136 364.984L101.213 364.646C101.317 364.425 101.421 364.152 101.525 363.853H99.718V365.192H102.058V366.18H99.718ZM108.168 366.362V362.787H106.66V366.362H108.168ZM104.801 358.848V357.756H109.403V358.848H107.453C107.258 359.836 107.011 360.798 106.699 361.708H109.208V367.428H106.66V368.429H105.646V364.035C105.451 364.36 105.256 364.659 105.035 364.932C104.983 364.62 104.736 363.892 104.554 363.567C105.412 362.41 105.971 360.694 106.309 358.848H104.801ZM112.198 362.384H114.031V358.9H112.198V362.384ZM116.592 362.384V363.528H115.188V369.027H114.031V363.528H112.185C112.12 365.478 111.782 367.636 110.378 369.092C110.17 368.897 109.728 368.546 109.455 368.39C110.69 367.103 110.989 365.192 111.054 363.528H109.715V362.384H111.067V358.9H110.066V357.769H116.332V358.9H115.188V362.384H116.592ZM120.713 357.158L121.831 357.47C121.545 358.315 121.207 359.173 120.83 360.005V369.014H119.686V362.124C119.348 362.657 119.01 363.138 118.646 363.567C118.542 363.268 118.217 362.592 118.035 362.293C119.114 361.032 120.115 359.108 120.713 357.158ZM122.832 360.694V362.657C123.898 362.397 124.873 362.02 125.705 361.513C125.224 361.11 124.834 360.681 124.509 360.239C124.197 360.629 123.872 360.967 123.547 361.266C123.391 361.123 123.079 360.876 122.832 360.694ZM127.824 359.433H125.094L125.081 359.446C125.432 359.966 125.913 360.473 126.537 360.928C127.057 360.499 127.486 360.005 127.824 359.433ZM130.099 359.433H129.085C128.669 360.239 128.123 360.928 127.473 361.513C128.318 361.968 129.332 362.319 130.515 362.527C130.307 362.774 129.995 363.216 129.852 363.515C128.578 363.229 127.499 362.748 126.602 362.176C125.692 362.8 124.626 363.268 123.469 363.619C123.352 363.398 123.053 363.008 122.832 362.761V366.882H121.779V358.666H122.832V360.395C123.768 359.563 124.587 358.354 125.055 357.08L126.16 357.353C126.017 357.73 125.848 358.094 125.653 358.458H130.099V359.433ZM128.019 364.178L128.916 364.542C127.915 365.647 126.199 366.427 124.457 366.895C124.314 366.661 124.067 366.323 123.859 366.115C125.471 365.751 127.161 365.075 128.019 364.178ZM126.784 362.969L127.694 363.346C126.888 364.152 125.588 364.802 124.379 365.192C124.223 364.984 123.95 364.672 123.716 364.49C124.834 364.178 126.108 363.619 126.784 362.969ZM129.111 365.621L130.151 366.05C128.851 367.584 126.485 368.481 123.794 368.962C123.664 368.676 123.404 368.26 123.17 368.013C125.679 367.649 127.98 366.895 129.111 365.621Z" fill="white"/>
<path d="M210.179 356.169C207.774 356.169 205.928 354.375 205.928 351.242C205.928 348.122 207.826 346.25 210.244 346.25C211.44 346.25 212.376 346.822 212.961 347.459L212.142 348.421C211.648 347.914 211.05 347.563 210.27 347.563C208.619 347.563 207.475 348.941 207.475 351.19C207.475 353.465 208.541 354.856 210.231 354.856C211.115 354.856 211.778 354.466 212.35 353.842L213.156 354.791C212.389 355.675 211.414 356.169 210.179 356.169ZM218.686 356.169C216.229 356.169 214.526 354.258 214.526 351.177C214.526 348.096 216.229 346.25 218.686 346.25C221.143 346.25 222.859 348.096 222.859 351.177C222.859 354.258 221.143 356.169 218.686 356.169ZM218.686 354.856C220.272 354.856 221.312 353.413 221.312 351.177C221.312 348.928 220.272 347.563 218.686 347.563C217.1 347.563 216.073 348.928 216.073 351.177C216.073 353.413 217.1 354.856 218.686 354.856ZM225.496 356V346.419H227.225L228.98 351.268C229.201 351.905 229.396 352.555 229.617 353.192H229.682C229.903 352.555 230.085 351.905 230.306 351.268L232.035 346.419H233.777V356H232.373V351.268C232.373 350.41 232.49 349.175 232.568 348.304H232.516L231.749 350.514L230.085 355.077H229.149L227.472 350.514L226.718 348.304H226.666C226.731 349.175 226.848 350.41 226.848 351.268V356H225.496ZM236.937 356V346.419H239.836C241.968 346.419 243.489 347.16 243.489 349.318C243.489 351.411 241.968 352.373 239.888 352.373H238.445V356H236.937ZM238.445 351.164H239.745C241.279 351.164 242.007 350.579 242.007 349.318C242.007 348.057 241.214 347.641 239.693 347.641H238.445V351.164ZM247.114 350.8L246.724 352.087H249.337L248.96 350.8C248.635 349.76 248.349 348.694 248.063 347.615H247.998C247.725 348.707 247.426 349.76 247.114 350.8ZM244.02 356L247.192 346.419H248.934L252.106 356H250.507L249.701 353.27H246.373L245.554 356H244.02ZM254.018 356V346.419H255.565L258.737 352.048L259.738 354.076H259.803C259.725 353.088 259.608 351.931 259.608 350.891V346.419H261.038V356H259.491L256.319 350.358L255.318 348.356H255.253C255.331 349.344 255.448 350.449 255.448 351.489V356H254.018ZM265.788 356V352.373L262.915 346.419H264.527L265.632 348.967C265.931 349.682 266.204 350.345 266.529 351.073H266.581C266.893 350.345 267.205 349.682 267.491 348.967L268.609 346.419H270.182L267.296 352.373V356H265.788ZM273.87 358.587C272.661 356.611 271.946 354.518 271.946 351.931C271.946 349.37 272.661 347.251 273.87 345.288L274.806 345.691C273.688 347.563 273.168 349.76 273.168 351.931C273.168 354.115 273.688 356.312 274.806 358.171L273.87 358.587ZM277.321 356V346.419H280.454C282.43 346.419 283.912 347.134 283.912 349.201C283.912 350.683 283.119 351.567 281.91 351.944L284.25 356H282.547L280.376 352.139H278.829V356H277.321ZM278.829 350.93H280.272C281.663 350.93 282.417 350.358 282.417 349.201C282.417 348.044 281.663 347.641 280.272 347.641H278.829V350.93ZM286.776 358.587L285.84 358.171C286.958 356.312 287.478 354.115 287.478 351.931C287.478 349.76 286.958 347.563 285.84 345.691L286.776 345.288C287.998 347.251 288.713 349.37 288.713 351.931C288.713 354.518 287.998 356.611 286.776 358.587ZM295.206 354.362V350.787H293.698V354.362H295.206ZM291.839 346.848V345.756H296.441V346.848H294.491C294.296 347.836 294.049 348.798 293.737 349.708H296.246V355.428H293.698V356.429H292.684V352.035C292.489 352.36 292.294 352.659 292.073 352.932C292.021 352.62 291.774 351.892 291.592 351.567C292.45 350.41 293.009 348.694 293.347 346.848H291.839ZM299.236 350.384H301.069V346.9H299.236V350.384ZM303.63 350.384V351.528H302.226V357.027H301.069V351.528H299.223C299.158 353.478 298.82 355.636 297.416 357.092C297.208 356.897 296.766 356.546 296.493 356.39C297.728 355.103 298.027 353.192 298.092 351.528H296.753V350.384H298.105V346.9H297.104V345.769H303.37V346.9H302.226V350.384H303.63ZM307.751 345.158L308.869 345.47C308.583 346.315 308.245 347.173 307.868 348.005V357.014H306.724V350.124C306.386 350.657 306.048 351.138 305.684 351.567C305.58 351.268 305.255 350.592 305.073 350.293C306.152 349.032 307.153 347.108 307.751 345.158ZM309.87 348.694V350.657C310.936 350.397 311.911 350.02 312.743 349.513C312.262 349.11 311.872 348.681 311.547 348.239C311.235 348.629 310.91 348.967 310.585 349.266C310.429 349.123 310.117 348.876 309.87 348.694ZM314.862 347.433H312.132L312.119 347.446C312.47 347.966 312.951 348.473 313.575 348.928C314.095 348.499 314.524 348.005 314.862 347.433ZM317.137 347.433H316.123C315.707 348.239 315.161 348.928 314.511 349.513C315.356 349.968 316.37 350.319 317.553 350.527C317.345 350.774 317.033 351.216 316.89 351.515C315.616 351.229 314.537 350.748 313.64 350.176C312.73 350.8 311.664 351.268 310.507 351.619C310.39 351.398 310.091 351.008 309.87 350.761V354.882H308.817V346.666H309.87V348.395C310.806 347.563 311.625 346.354 312.093 345.08L313.198 345.353C313.055 345.73 312.886 346.094 312.691 346.458H317.137V347.433ZM315.057 352.178L315.954 352.542C314.953 353.647 313.237 354.427 311.495 354.895C311.352 354.661 311.105 354.323 310.897 354.115C312.509 353.751 314.199 353.075 315.057 352.178ZM313.822 350.969L314.732 351.346C313.926 352.152 312.626 352.802 311.417 353.192C311.261 352.984 310.988 352.672 310.754 352.49C311.872 352.178 313.146 351.619 313.822 350.969ZM316.149 353.621L317.189 354.05C315.889 355.584 313.523 356.481 310.832 356.962C310.702 356.676 310.442 356.26 310.208 356.013C312.717 355.649 315.018 354.895 316.149 353.621Z" fill="white"/>
<path d="M230.15 373.1C229.74 373.1 229.4 372.76 229.4 372.35C229.4 371.94 229.74 371.6 230.15 371.6C230.56 371.6 230.9 371.94 230.9 372.35C230.9 372.76 230.56 373.1 230.15 373.1ZM230.15 374.91L233.45 371.61L233.74 371.9L230.44 375.2L233.74 378.5L233.45 378.79L230.15 375.49L226.84 378.8L226.55 378.51L229.86 375.2L226.56 371.9L226.85 371.61L230.15 374.91ZM228.05 375.2C228.05 375.61 227.71 375.95 227.3 375.95C226.89 375.95 226.55 375.61 226.55 375.2C226.55 374.79 226.89 374.45 227.3 374.45C227.71 374.45 228.05 374.79 228.05 375.2ZM232.25 375.2C232.25 374.79 232.59 374.45 233 374.45C233.41 374.45 233.75 374.79 233.75 375.2C233.75 375.61 233.41 375.95 233 375.95C232.59 375.95 232.25 375.61 232.25 375.2ZM230.15 377.3C230.56 377.3 230.9 377.64 230.9 378.05C230.9 378.46 230.56 378.8 230.15 378.8C229.74 378.8 229.4 378.46 229.4 378.05C229.4 377.64 229.74 377.3 230.15 377.3ZM238.72 379.13C237.71 379.13 236.77 378.73 236.1 378.05L236.78 377.25C237.31 377.78 238.03 378.12 238.74 378.12C239.63 378.12 240.13 377.7 240.13 377.08C240.13 376.41 239.63 376.2 238.95 375.9L237.93 375.46C237.22 375.16 236.43 374.6 236.43 373.53C236.43 372.37 237.45 371.5 238.85 371.5C239.71 371.5 240.52 371.86 241.08 372.43L240.47 373.17C240.01 372.76 239.5 372.51 238.85 372.51C238.1 372.51 237.61 372.87 237.61 373.45C237.61 374.09 238.2 374.33 238.8 374.57L239.81 375C240.68 375.37 241.31 375.91 241.31 376.99C241.31 378.17 240.33 379.13 238.72 379.13ZM246.004 378.18C247.224 378.18 248.024 377.07 248.024 375.29C248.024 373.56 247.224 372.51 246.004 372.51C244.784 372.51 243.994 373.56 243.994 375.29C243.994 377.07 244.784 378.18 246.004 378.18ZM248.314 380.91C246.884 380.91 245.904 380.14 245.454 379.09C243.864 378.82 242.804 377.42 242.804 375.29C242.804 372.92 244.114 371.5 246.004 371.5C247.894 371.5 249.214 372.92 249.214 375.29C249.214 377.36 248.204 378.74 246.694 379.06C247.024 379.68 247.704 379.96 248.444 379.96C248.764 379.96 249.024 379.91 249.224 379.85L249.444 380.72C249.204 380.83 248.794 380.91 248.314 380.91ZM251.243 379V371.63H252.403V378.02H255.523V379H251.243ZM259.46 377.74V374.99H258.3V377.74H259.46ZM256.87 371.96V371.12H260.41V371.96H258.91C258.76 372.72 258.57 373.46 258.33 374.16H260.26V378.56H258.3V379.33H257.52V375.95C257.37 376.2 257.22 376.43 257.05 376.64C257.01 376.4 256.82 375.84 256.68 375.59C257.34 374.7 257.77 373.38 258.03 371.96H256.87ZM262.56 374.68H263.97V372H262.56V374.68ZM265.94 374.68V375.56H264.86V379.79H263.97V375.56H262.55C262.5 377.06 262.24 378.72 261.16 379.84C261 379.69 260.66 379.42 260.45 379.3C261.4 378.31 261.63 376.84 261.68 375.56H260.65V374.68H261.69V372H260.92V371.13H265.74V372H264.86V374.68H265.94ZM269.11 370.66L269.97 370.9C269.75 371.55 269.49 372.21 269.2 372.85V379.78H268.32V374.48C268.06 374.89 267.8 375.26 267.52 375.59C267.44 375.36 267.19 374.84 267.05 374.61C267.88 373.64 268.65 372.16 269.11 370.66ZM270.74 373.38V374.89C271.56 374.69 272.31 374.4 272.95 374.01C272.58 373.7 272.28 373.37 272.03 373.03C271.79 373.33 271.54 373.59 271.29 373.82C271.17 373.71 270.93 373.52 270.74 373.38ZM274.58 372.41H272.48L272.47 372.42C272.74 372.82 273.11 373.21 273.59 373.56C273.99 373.23 274.32 372.85 274.58 372.41ZM276.33 372.41H275.55C275.23 373.03 274.81 373.56 274.31 374.01C274.96 374.36 275.74 374.63 276.65 374.79C276.49 374.98 276.25 375.32 276.14 375.55C275.16 375.33 274.33 374.96 273.64 374.52C272.94 375 272.12 375.36 271.23 375.63C271.14 375.46 270.91 375.16 270.74 374.97V378.14H269.93V371.82H270.74V373.15C271.46 372.51 272.09 371.58 272.45 370.6L273.3 370.81C273.19 371.1 273.06 371.38 272.91 371.66H276.33V372.41ZM274.73 376.06L275.42 376.34C274.65 377.19 273.33 377.79 271.99 378.15C271.88 377.97 271.69 377.71 271.53 377.55C272.77 377.27 274.07 376.75 274.73 376.06ZM273.78 375.13L274.48 375.42C273.86 376.04 272.86 376.54 271.93 376.84C271.81 376.68 271.6 376.44 271.42 376.3C272.28 376.06 273.26 375.63 273.78 375.13ZM275.57 377.17L276.37 377.5C275.37 378.68 273.55 379.37 271.48 379.74C271.38 379.52 271.18 379.2 271 379.01C272.93 378.73 274.7 378.15 275.57 377.17ZM284.59 378.63V377.08H280.14V378.63H284.59ZM284.66 374.08L285.38 374.34C285.07 374.97 284.68 375.65 284.29 376.26H285.54V379.8H284.59V379.43H280.14V379.8H279.23V376.26H283.19C283.45 375.85 283.74 375.37 283.97 374.95H279.07V374.13H284.51L284.66 374.08ZM280.77 372.64H283.93C283.3 372.24 282.73 371.8 282.31 371.36C281.93 371.78 281.39 372.22 280.77 372.64ZM281.81 370.59H282.72C283.83 371.75 285.5 372.68 287.03 373.14C286.83 373.35 286.62 373.68 286.48 373.93C285.79 373.67 285.02 373.3 284.3 372.87V373.41H280.46V372.84C279.76 373.28 278.98 373.68 278.2 373.99C278.11 373.78 277.88 373.43 277.69 373.25C279.36 372.65 281 371.58 281.81 370.59ZM291.69 371C291.65 371.25 291.61 371.62 291.61 372.08V372.33C292.22 372.26 292.86 372.15 293.48 371.98V372.94C292.87 373.08 292.21 373.17 291.61 373.23V374.65C291.79 374.89 291.88 375.22 291.88 375.59C291.88 376.18 291.74 376.84 291.36 377.28C291.35 377.47 291.35 377.66 291.35 377.82C291.35 378.32 291.48 378.54 292.81 378.54C293.35 378.54 294.07 378.47 294.43 378.36C294.95 378.2 295.22 377.89 295.22 377.29C295.22 376.9 295.21 376.54 295.16 376.12L296.24 376.45C296.25 376.9 296.26 377.15 296.24 377.57C296.19 378.49 295.87 378.98 294.86 379.27C294.42 379.4 293.41 379.48 292.74 379.48C290.59 379.48 290.39 378.89 290.39 378.17C290.39 378.05 290.39 377.92 290.39 377.8C290.31 377.81 290.23 377.82 290.14 377.82C289.51 377.82 288.77 377.36 288.77 376.15C288.77 375.05 289.48 374.14 290.51 374.14C290.57 374.14 290.63 374.14 290.68 374.15C290.68 373.88 290.68 373.59 290.68 373.29C290.57 373.3 290.47 373.3 290.37 373.3C289.94 373.3 289.38 373.27 288.76 373.2L288.71 372.28C289.29 372.36 289.82 372.41 290.31 372.41C290.43 372.41 290.55 372.41 290.67 372.4C290.67 372.28 290.67 372.17 290.67 372.08C290.67 371.59 290.65 371.25 290.59 371H291.69ZM295.13 371.97C295.74 372.37 296.73 373.29 297.19 373.84L296.48 374.57C295.96 373.92 295.04 373.03 294.48 372.63L295.13 371.97ZM290.24 376.88C290.78 376.88 290.98 376.27 290.98 375.64C290.98 375.2 290.77 374.94 290.45 374.94C289.99 374.94 289.61 375.41 289.61 376.08C289.61 376.59 289.91 376.88 290.24 376.88Z" fill="white"/>
<path d="M149.305 82.277L148.174 82.68C148.031 82.082 147.615 81.159 147.212 80.457L148.278 80.106C148.72 80.782 149.162 81.666 149.305 82.277ZM148.655 86.112H153.023C153.023 86.112 153.023 86.463 152.997 86.632C152.841 89.817 152.659 91.078 152.23 91.533C151.944 91.871 151.619 91.975 151.138 92.014C150.696 92.053 149.877 92.053 149.045 92.014C149.019 91.65 148.863 91.156 148.629 90.818C149.474 90.896 150.306 90.909 150.631 90.909C150.878 90.909 151.034 90.883 151.19 90.753C151.45 90.506 151.619 89.531 151.749 87.243H148.486C148.044 89.596 146.874 91.169 143.429 92.027C143.299 91.702 142.987 91.208 142.714 90.935C145.704 90.259 146.757 89.076 147.173 87.243H143.806V86.112H147.342C147.407 85.553 147.433 84.955 147.459 84.292H148.772C148.746 84.942 148.707 85.54 148.655 86.112ZM151.853 82.797H154.011V85.644H152.802V83.928H144.274V85.644H143.104V82.797H145.067C144.833 82.212 144.326 81.406 143.806 80.808L144.846 80.327C145.392 80.938 145.99 81.77 146.224 82.355L145.314 82.797H150.891L150.605 82.68C151.138 82.017 151.788 80.964 152.139 80.197L153.465 80.613C152.958 81.38 152.36 82.186 151.853 82.797ZM164.788 87.308H167.752C167.752 87.308 167.739 87.62 167.713 87.789C167.492 90.116 167.258 91.117 166.894 91.507C166.634 91.767 166.374 91.845 166.023 91.897C165.698 91.923 165.165 91.923 164.58 91.897C164.554 91.559 164.424 91.091 164.255 90.779C164.762 90.831 165.243 90.844 165.464 90.844C165.659 90.844 165.763 90.818 165.88 90.701C166.101 90.506 166.283 89.843 166.452 88.322H164.567C164.125 89.921 163.215 91.221 161.161 92.027C161.018 91.741 160.693 91.299 160.446 91.091C162.136 90.48 162.929 89.505 163.332 88.322H161.512V87.308H163.592C163.657 86.905 163.709 86.502 163.748 86.073H164.944C164.905 86.502 164.853 86.905 164.788 87.308ZM165.763 82.433H163.358C163.696 82.966 164.138 83.434 164.671 83.863C165.126 83.46 165.49 82.979 165.763 82.433ZM167.986 82.433H167.089C166.738 83.252 166.244 83.941 165.646 84.513C166.413 84.955 167.31 85.28 168.272 85.488C168.025 85.722 167.674 86.19 167.518 86.502C166.478 86.229 165.529 85.813 164.697 85.254C163.904 85.774 162.968 86.164 161.954 86.476C161.889 86.333 161.759 86.138 161.616 85.943C161.395 86.71 161.148 87.477 160.901 88.036L160.069 87.62C160.277 87.113 160.472 86.385 160.641 85.67H159.64V90.662C159.64 91.247 159.549 91.572 159.159 91.78C158.782 91.949 158.249 91.975 157.443 91.975C157.404 91.65 157.248 91.156 157.092 90.831C157.612 90.857 158.132 90.857 158.288 90.844C158.444 90.831 158.496 90.805 158.496 90.649V87.126C158.015 88.244 157.404 89.297 156.741 89.947C156.624 89.596 156.338 89.102 156.13 88.79C156.91 88.101 157.651 86.866 158.119 85.67H156.312V84.617H159.627C158.912 84.097 157.781 83.486 156.845 83.083L157.599 82.303C157.963 82.446 158.379 82.628 158.769 82.823C159.172 82.511 159.562 82.121 159.887 81.731H156.468V80.704H160.745L160.94 80.665L161.72 81.146C161.239 81.913 160.459 82.719 159.692 83.317C160.108 83.551 160.459 83.798 160.732 84.006L160.173 84.617H160.979L161.161 84.552L161.889 84.812C161.85 84.981 161.811 85.15 161.772 85.332C162.513 85.124 163.176 84.851 163.761 84.513C163.319 84.097 162.929 83.642 162.604 83.148C162.344 83.434 162.084 83.681 161.824 83.902C161.59 83.707 161.122 83.369 160.823 83.213C161.85 82.472 162.773 81.302 163.293 80.08L164.424 80.392C164.268 80.743 164.086 81.081 163.891 81.419H167.986V82.433ZM175.994 86.385H173.615C173.576 86.632 173.55 86.879 173.498 87.126C174.148 87.763 175.643 89.453 176.02 89.882L175.188 90.922C174.759 90.272 173.888 89.154 173.199 88.361C172.77 89.7 172.003 91 170.625 92.001C170.456 91.741 170.014 91.26 169.767 91.078C171.6 89.778 172.198 88.01 172.393 86.385H169.923V85.241H172.471V84.851V82.914H171.678C171.405 83.629 171.067 84.279 170.716 84.799C170.495 84.591 170.014 84.266 169.728 84.097C170.469 83.148 170.976 81.627 171.275 80.106L172.432 80.327C172.328 80.821 172.211 81.315 172.081 81.783H175.63V82.914H173.693V84.864C173.693 84.981 173.693 85.111 173.693 85.241H175.994V86.385ZM177.541 89.544H179.907V82.355H177.541V89.544ZM176.371 81.211H181.129V91.507H179.907V90.675H177.541V91.65H176.371V81.211ZM195.468 83.057L194.48 83.473C194.298 82.823 193.804 81.835 193.284 81.133L194.194 80.782C194.74 81.471 195.26 82.407 195.468 83.057ZM191.841 81.445V82.368H187.668V81.445H189.215V80.093H190.333V81.445H191.841ZM187.174 80.522V81.471H184.067V80.522H187.174ZM187.499 82.238V83.2H183.495V82.238H187.499ZM187.187 84.006V84.942H184.015V84.006H187.187ZM184.015 86.684V85.735H187.187V86.684H184.015ZM186.251 88.465H184.925V90.337H186.251V88.465ZM187.213 87.49V91.286H184.925V91.858H183.976V87.49H187.213ZM188.136 82.641L188.968 82.459C189.189 83.018 189.345 83.759 189.358 84.24L188.474 84.448C188.474 83.967 188.344 83.226 188.136 82.641ZM188.903 89.648H190.554V88.725H188.903V89.648ZM190.554 87.009H188.903V87.893H190.554V87.009ZM194.155 85.995L195.078 86.489C194.714 87.568 194.22 88.543 193.622 89.388C193.817 90.233 194.09 90.714 194.441 90.753C194.649 90.766 194.792 90.129 194.87 89.141C195.026 89.375 195.455 89.687 195.624 89.804C195.351 91.611 194.87 92.079 194.402 92.066C193.674 92.014 193.18 91.429 192.842 90.363C192.244 91.026 191.594 91.559 190.905 91.988C190.762 91.793 190.437 91.481 190.229 91.312C190.593 91.091 190.957 90.831 191.295 90.532H188.903V91.13H187.954V86.138H191.555V90.298C191.906 89.973 192.244 89.596 192.556 89.18C192.387 88.179 192.283 86.918 192.218 85.449H187.343V84.448H190.866L190.086 84.279C190.229 83.759 190.398 82.94 190.463 82.394L191.464 82.589C191.269 83.252 191.087 83.98 190.931 84.448H192.179C192.14 83.148 192.127 81.692 192.127 80.106H193.167C193.141 81.692 193.154 83.148 193.18 84.448H195.338V85.449H193.206C193.245 86.372 193.31 87.191 193.375 87.893C193.687 87.308 193.947 86.671 194.155 85.995ZM146.341 106.462V107.242H150.761V106.462H146.341ZM150.761 103.225H146.341V103.953H150.761V103.225ZM146.341 104.837V105.578H150.761V104.837H146.341ZM154.44 108.243H151.853C152.581 108.997 153.595 109.66 154.596 110.011C154.349 110.232 153.985 110.661 153.816 110.947C152.568 110.401 151.32 109.374 150.527 108.243H146.653C146.341 108.698 145.938 109.153 145.509 109.556H147.888V108.581H149.11V109.556H151.684V110.518H149.11V111.675H153.478V112.676H143.689V111.675H147.888V110.518H145.405V109.66C144.755 110.245 144.001 110.739 143.26 111.09C143.091 110.804 142.74 110.375 142.48 110.167C143.507 109.777 144.547 109.049 145.288 108.243H142.61V107.242H145.132V103.225H143.247V102.237H145.132V101.106H146.341V102.237H150.761V101.119H151.996V102.237H153.855V103.225H151.996V107.242H154.44V108.243ZM165.594 106.514V104.642C165.217 105.279 164.762 105.864 164.294 106.254C164.203 106.02 163.969 105.669 163.787 105.474C164.385 105.045 164.983 104.226 165.36 103.394H164.385V102.458H165.594V101.093H166.595V102.458H168.09V103.394H166.829C167.167 104.226 167.713 105.071 168.298 105.5C168.09 105.669 167.804 105.968 167.648 106.202C167.258 105.851 166.894 105.292 166.595 104.681V106.514H165.594ZM162.084 106.514V104.72C161.733 105.331 161.317 105.89 160.901 106.293C160.784 106.046 160.55 105.669 160.368 105.474C160.901 105.019 161.486 104.2 161.85 103.394H160.784V102.458H162.084V101.093H163.085V102.458H164.151V103.394H163.085V103.615C163.319 103.797 164.099 104.421 164.294 104.603L163.722 105.305C163.592 105.123 163.332 104.824 163.085 104.538V106.514H162.084ZM159.393 110.297V106.761H158.145V110.297H159.393ZM160.433 111.35H158.145V112.364H157.144V108.789C157.014 109.036 156.871 109.283 156.715 109.504C156.598 109.244 156.26 108.672 156.052 108.399C156.923 107.073 157.378 105.032 157.651 102.887H156.325V101.795H160.771V102.887H158.782C158.652 103.862 158.483 104.811 158.262 105.708H160.433V111.35ZM164.918 110.18V111.753C165.178 111.792 165.464 111.805 165.763 111.805C166.101 111.805 167.817 111.805 168.272 111.792C168.129 112.039 167.986 112.533 167.934 112.819H165.698C164.073 112.819 162.942 112.481 162.201 111.064C161.889 111.844 161.395 112.52 160.641 113.027C160.511 112.793 160.186 112.403 159.939 112.221C161.239 111.389 161.551 109.894 161.668 108.36H162.747C162.708 108.828 162.656 109.296 162.578 109.738C162.851 110.596 163.267 111.116 163.787 111.415V107.853H160.745V106.865H167.141L167.323 106.813L168.103 107.06C167.869 107.723 167.583 108.477 167.336 108.984L166.413 108.646C166.517 108.425 166.621 108.152 166.725 107.853H164.918V109.192H167.258V110.18H164.918ZM173.368 110.362V106.787H171.86V110.362H173.368ZM170.001 102.848V101.756H174.603V102.848H172.653C172.458 103.836 172.211 104.798 171.899 105.708H174.408V111.428H171.86V112.429H170.846V108.035C170.651 108.36 170.456 108.659 170.235 108.932C170.183 108.62 169.936 107.892 169.754 107.567C170.612 106.41 171.171 104.694 171.509 102.848H170.001ZM177.398 106.384H179.231V102.9H177.398V106.384ZM181.792 106.384V107.528H180.388V113.027H179.231V107.528H177.385C177.32 109.478 176.982 111.636 175.578 113.092C175.37 112.897 174.928 112.546 174.655 112.39C175.89 111.103 176.189 109.192 176.254 107.528H174.915V106.384H176.267V102.9H175.266V101.769H181.532V102.9H180.388V106.384H181.792ZM185.913 101.158L187.031 101.47C186.745 102.315 186.407 103.173 186.03 104.005V113.014H184.886V106.124C184.548 106.657 184.21 107.138 183.846 107.567C183.742 107.268 183.417 106.592 183.235 106.293C184.314 105.032 185.315 103.108 185.913 101.158ZM188.032 104.694V106.657C189.098 106.397 190.073 106.02 190.905 105.513C190.424 105.11 190.034 104.681 189.709 104.239C189.397 104.629 189.072 104.967 188.747 105.266C188.591 105.123 188.279 104.876 188.032 104.694ZM193.024 103.433H190.294L190.281 103.446C190.632 103.966 191.113 104.473 191.737 104.928C192.257 104.499 192.686 104.005 193.024 103.433ZM195.299 103.433H194.285C193.869 104.239 193.323 104.928 192.673 105.513C193.518 105.968 194.532 106.319 195.715 106.527C195.507 106.774 195.195 107.216 195.052 107.515C193.778 107.229 192.699 106.748 191.802 106.176C190.892 106.8 189.826 107.268 188.669 107.619C188.552 107.398 188.253 107.008 188.032 106.761V110.882H186.979V102.666H188.032V104.395C188.968 103.563 189.787 102.354 190.255 101.08L191.36 101.353C191.217 101.73 191.048 102.094 190.853 102.458H195.299V103.433ZM193.219 108.178L194.116 108.542C193.115 109.647 191.399 110.427 189.657 110.895C189.514 110.661 189.267 110.323 189.059 110.115C190.671 109.751 192.361 109.075 193.219 108.178ZM191.984 106.969L192.894 107.346C192.088 108.152 190.788 108.802 189.579 109.192C189.423 108.984 189.15 108.672 188.916 108.49C190.034 108.178 191.308 107.619 191.984 106.969ZM194.311 109.621L195.351 110.05C194.051 111.584 191.685 112.481 188.994 112.962C188.864 112.676 188.604 112.26 188.37 112.013C190.879 111.649 193.18 110.895 194.311 109.621Z" fill="white"/>
<path d="M132.25 130.1C131.84 130.1 131.5 129.76 131.5 129.35C131.5 128.94 131.84 128.6 132.25 128.6C132.66 128.6 133 128.94 133 129.35C133 129.76 132.66 130.1 132.25 130.1ZM132.25 131.91L135.55 128.61L135.84 128.9L132.54 132.2L135.84 135.5L135.55 135.79L132.25 132.49L128.94 135.8L128.65 135.51L131.96 132.2L128.66 128.9L128.95 128.61L132.25 131.91ZM130.15 132.2C130.15 132.61 129.81 132.95 129.4 132.95C128.99 132.95 128.65 132.61 128.65 132.2C128.65 131.79 128.99 131.45 129.4 131.45C129.81 131.45 130.15 131.79 130.15 132.2ZM134.35 132.2C134.35 131.79 134.69 131.45 135.1 131.45C135.51 131.45 135.85 131.79 135.85 132.2C135.85 132.61 135.51 132.95 135.1 132.95C134.69 132.95 134.35 132.61 134.35 132.2ZM132.25 134.3C132.66 134.3 133 134.64 133 135.05C133 135.46 132.66 135.8 132.25 135.8C131.84 135.8 131.5 135.46 131.5 135.05C131.5 134.64 131.84 134.3 132.25 134.3ZM141.86 131.15H145.92C144.92 130.84 144.4 130.37 144.09 129.84C143.71 130.45 143.05 130.87 141.86 131.15ZM145.15 132.3V131.74H140.46V132.3H145.15ZM145.15 133.43V132.86H140.46V133.43H145.15ZM145.15 134.58V134H140.46V134.58H145.15ZM143.57 128.98H142.66C142.42 129.28 142.14 129.56 141.81 129.81C141.64 129.65 141.33 129.45 141.11 129.36C141.85 128.86 142.34 128.19 142.59 127.61L143.43 127.74C143.34 127.93 143.24 128.12 143.12 128.31H146.33L146.47 128.28L147.09 128.44C146.83 128.96 146.46 129.54 146.12 129.89L145.39 129.66C145.56 129.48 145.73 129.23 145.89 128.98H144.51C144.73 129.7 145.29 130.34 147.32 130.61C147.15 130.79 146.93 131.14 146.85 131.37C146.57 131.32 146.31 131.26 146.08 131.2V135.17H139.56V131.15H141.57C141.48 130.95 141.3 130.68 141.16 130.54C142.77 130.28 143.34 129.8 143.57 128.98ZM141.18 128.54L140.77 129.25C140.3 129 139.38 128.64 138.68 128.43L139.09 127.8C139.77 127.97 140.7 128.3 141.18 128.54ZM141.03 129.64L141.12 130.37C140.25 130.66 139.32 130.93 138.58 131.16L138.21 130.34C138.94 130.19 140 129.91 141.03 129.64ZM141.19 135.19L142.04 135.58C141.23 136.07 139.98 136.55 138.98 136.82C138.82 136.64 138.49 136.29 138.28 136.13C139.31 135.93 140.5 135.58 141.19 135.19ZM143.47 135.68L144.23 135.21C145.3 135.57 146.5 136.03 147.22 136.37L146.15 136.81C145.56 136.49 144.51 136.04 143.47 135.68ZM153.57 133.13H156.48C155.93 132.85 155.43 132.5 155 132.13C154.56 132.51 154.08 132.85 153.57 133.13ZM153.72 135.59H156.19V133.92H153.72V135.59ZM152.31 132.38L151.91 132.93C152.79 132.62 153.64 132.14 154.37 131.52C154.01 131.13 153.71 130.72 153.46 130.31C153.17 130.66 152.88 130.97 152.58 131.24C152.43 131.07 152.07 130.76 151.86 130.62L151.93 130.56H151.07V130.9C151.34 131.19 152.12 132.15 152.31 132.38ZM156.01 129.47H154.07L153.98 129.61C154.22 130.06 154.56 130.52 154.98 130.95C155.39 130.51 155.74 130.01 156.01 129.47ZM156.6 128.63L157.18 128.9C156.84 129.93 156.29 130.8 155.62 131.53C156.27 132.05 157.07 132.49 158 132.76C157.81 132.94 157.55 133.31 157.42 133.54C157.31 133.5 157.2 133.46 157.09 133.41V136.76H156.19V136.4H153.72V136.79H152.86V133.49C152.64 133.59 152.42 133.68 152.19 133.76C152.08 133.54 151.85 133.2 151.66 133.01L151.72 132.99C151.57 132.71 151.31 132.31 151.07 131.95V136.78H150.2V132.46C149.87 133.45 149.45 134.38 149.01 134.98C148.93 134.72 148.7 134.36 148.56 134.15C149.19 133.32 149.81 131.85 150.11 130.56H148.79V129.7H150.2V127.61H151.07V129.7H152.29V130.24C153.02 129.54 153.64 128.6 154.02 127.6L154.91 127.84C154.8 128.12 154.67 128.4 154.53 128.67H156.43L156.6 128.63ZM163.49 129.07V135.9C164.23 135.51 164.88 134.92 165.43 134.16C164.78 133.01 164.33 131.62 164.01 130.05L164.91 129.87C165.14 131.11 165.49 132.26 165.99 133.25C166.49 132.3 166.86 131.15 167.07 129.84H163.9V129.07H163.49ZM160.88 134.44L162.59 134.2V133.12H160.88V134.44ZM162.59 129.07H160.88V130.23H162.59V129.07ZM160.88 131.06V132.28H162.59V131.06H160.88ZM167.49 128.9L168.09 129.06C167.86 131.21 167.33 132.89 166.56 134.18C167.08 134.92 167.72 135.52 168.5 135.93C168.29 136.11 167.99 136.46 167.86 136.69C167.12 136.26 166.5 135.7 165.98 135.01C165.44 135.7 164.79 136.24 164.07 136.67C163.94 136.45 163.69 136.13 163.49 135.95V136.77H162.59V135.06C161.38 135.26 160.15 135.46 159.22 135.61L159.05 134.68C159.33 134.65 159.64 134.6 159.99 134.56V129.07H159.26V128.21H164.16V128.93H167.33L167.49 128.9ZM177.21 129.26V128.59H174.23V129.26H177.21ZM177.21 130.57V129.9H174.23V130.57H177.21ZM178.15 127.91V131.26H173.33V127.91H178.15ZM171.7 127.64L172.6 127.99C171.98 128.87 171 129.81 170.1 130.4C170 130.19 169.77 129.82 169.62 129.63C170.4 129.13 171.28 128.32 171.7 127.64ZM171.92 129.81L172.74 130.14C172.51 130.55 172.21 130.97 171.9 131.38V136.78H171V132.41C170.66 132.78 170.29 133.1 169.95 133.38C169.87 133.17 169.63 132.67 169.48 132.44C170.37 131.81 171.33 130.81 171.92 129.81ZM173.3 134.63L173.96 134.19C174.4 134.59 174.94 135.16 175.19 135.54L174.49 136.04C174.26 135.66 173.74 135.06 173.3 134.63ZM178.74 133.33V134.13H177.31V135.82C177.31 136.28 177.22 136.51 176.89 136.64C176.56 136.78 176.08 136.79 175.37 136.79C175.32 136.54 175.19 136.19 175.07 135.95C175.57 135.97 176.05 135.97 176.19 135.96C176.34 135.95 176.38 135.92 176.38 135.8V134.13H172.53V133.33H176.38V132.6H172.77V131.83H178.55V132.6H177.31V133.33H178.74ZM181.85 135.65C181.95 135.45 181.96 135.3 181.96 135.09V129.5C181.96 129.18 181.92 128.72 181.87 128.49H183.11C183.06 128.8 183.03 129.16 183.03 129.49V134.96C184.82 134.48 187.09 133.18 188.35 131.6L188.92 132.48C187.59 134.11 185.52 135.32 183.09 136.07C182.97 136.11 182.78 136.16 182.59 136.28L181.85 135.65ZM197.24 129.15C197.5 129.54 197.95 130.28 198.18 130.74L197.46 131.06C197.19 130.49 196.88 129.93 196.54 129.45L197.24 129.15ZM198.55 128.63C198.82 129 199.29 129.73 199.52 130.19L198.81 130.53C198.53 129.96 198.21 129.41 197.85 128.95L198.55 128.63ZM190.7 133.27C190.98 133.04 191.18 132.85 191.46 132.57C191.93 132.1 192.76 131.04 193.41 130.26C193.97 129.6 194.5 129.49 195.22 130.18C195.85 130.77 196.67 131.63 197.26 132.26C197.94 132.98 198.95 134.07 199.72 134.9L198.85 135.82C198.15 134.98 197.29 133.95 196.67 133.23C196.09 132.56 195.18 131.58 194.78 131.19C194.42 130.84 194.22 130.87 193.91 131.26C193.47 131.8 192.69 132.85 192.25 133.4C192.04 133.69 191.81 134.01 191.65 134.24L190.7 133.27ZM205.9 135.78C205.94 135.61 205.97 135.38 205.97 135.15V129.23C205.97 128.82 205.91 128.49 205.91 128.43H207.07C207.06 128.49 207.02 128.82 207.02 129.23V134.76C207.89 134.37 209.02 133.52 209.74 132.46L210.35 133.32C209.5 134.45 208.09 135.5 206.94 136.08C206.76 136.18 206.64 136.27 206.56 136.33L205.9 135.78ZM201.29 135.69C202.16 135.09 202.73 134.18 203.02 133.26C203.31 132.37 203.31 130.42 203.31 129.27C203.31 128.93 203.29 128.69 203.23 128.46H204.39C204.38 128.54 204.34 128.91 204.34 129.26C204.34 130.4 204.3 132.53 204.03 133.53C203.73 134.63 203.1 135.61 202.25 136.33L201.29 135.69Z" fill="white"/>
<path d="M250.329 91.169C247.924 91.169 246.078 89.375 246.078 86.242C246.078 83.122 247.976 81.25 250.394 81.25C251.59 81.25 252.526 81.822 253.111 82.459L252.292 83.421C251.798 82.914 251.2 82.563 250.42 82.563C248.769 82.563 247.625 83.941 247.625 86.19C247.625 88.465 248.691 89.856 250.381 89.856C251.265 89.856 251.928 89.466 252.5 88.842L253.306 89.791C252.539 90.675 251.564 91.169 250.329 91.169ZM258.836 91.169C256.379 91.169 254.676 89.258 254.676 86.177C254.676 83.096 256.379 81.25 258.836 81.25C261.293 81.25 263.009 83.096 263.009 86.177C263.009 89.258 261.293 91.169 258.836 91.169ZM258.836 89.856C260.422 89.856 261.462 88.413 261.462 86.177C261.462 83.928 260.422 82.563 258.836 82.563C257.25 82.563 256.223 83.928 256.223 86.177C256.223 88.413 257.25 89.856 258.836 89.856ZM265.646 91V81.419H267.375L269.13 86.268C269.351 86.905 269.546 87.555 269.767 88.192H269.832C270.053 87.555 270.235 86.905 270.456 86.268L272.185 81.419H273.927V91H272.523V86.268C272.523 85.41 272.64 84.175 272.718 83.304H272.666L271.899 85.514L270.235 90.077H269.299L267.622 85.514L266.868 83.304H266.816C266.881 84.175 266.998 85.41 266.998 86.268V91H265.646ZM277.087 91V81.419H279.986C282.118 81.419 283.639 82.16 283.639 84.318C283.639 86.411 282.118 87.373 280.038 87.373H278.595V91H277.087ZM278.595 86.164H279.895C281.429 86.164 282.157 85.579 282.157 84.318C282.157 83.057 281.364 82.641 279.843 82.641H278.595V86.164ZM287.264 85.8L286.874 87.087H289.487L289.11 85.8C288.785 84.76 288.499 83.694 288.213 82.615H288.148C287.875 83.707 287.576 84.76 287.264 85.8ZM284.17 91L287.342 81.419H289.084L292.256 91H290.657L289.851 88.27H286.523L285.704 91H284.17ZM294.168 91V81.419H295.715L298.887 87.048L299.888 89.076H299.953C299.875 88.088 299.758 86.931 299.758 85.891V81.419H301.188V91H299.641L296.469 85.358L295.468 83.356H295.403C295.481 84.344 295.598 85.449 295.598 86.489V91H294.168ZM305.938 91V87.373L303.065 81.419H304.677L305.782 83.967C306.081 84.682 306.354 85.345 306.679 86.073H306.731C307.043 85.345 307.355 84.682 307.641 83.967L308.759 81.419H310.332L307.446 87.373V91H305.938ZM314.02 93.587C312.811 91.611 312.096 89.518 312.096 86.931C312.096 84.37 312.811 82.251 314.02 80.288L314.956 80.691C313.838 82.563 313.318 84.76 313.318 86.931C313.318 89.115 313.838 91.312 314.956 93.171L314.02 93.587ZM317.471 91V81.419H320.604C322.58 81.419 324.062 82.134 324.062 84.201C324.062 85.683 323.269 86.567 322.06 86.944L324.4 91H322.697L320.526 87.139H318.979V91H317.471ZM318.979 85.93H320.422C321.813 85.93 322.567 85.358 322.567 84.201C322.567 83.044 321.813 82.641 320.422 82.641H318.979V85.93ZM326.926 93.587L325.99 93.171C327.108 91.312 327.628 89.115 327.628 86.931C327.628 84.76 327.108 82.563 325.99 80.691L326.926 80.288C328.148 82.251 328.863 84.37 328.863 86.931C328.863 89.518 328.148 91.611 326.926 93.587ZM278.718 110.362V106.787H277.21V110.362H278.718ZM275.351 102.848V101.756H279.953V102.848H278.003C277.808 103.836 277.561 104.798 277.249 105.708H279.758V111.428H277.21V112.429H276.196V108.035C276.001 108.36 275.806 108.659 275.585 108.932C275.533 108.62 275.286 107.892 275.104 107.567C275.962 106.41 276.521 104.694 276.859 102.848H275.351ZM282.748 106.384H284.581V102.9H282.748V106.384ZM287.142 106.384V107.528H285.738V113.027H284.581V107.528H282.735C282.67 109.478 282.332 111.636 280.928 113.092C280.72 112.897 280.278 112.546 280.005 112.39C281.24 111.103 281.539 109.192 281.604 107.528H280.265V106.384H281.617V102.9H280.616V101.769H286.882V102.9H285.738V106.384H287.142ZM291.263 101.158L292.381 101.47C292.095 102.315 291.757 103.173 291.38 104.005V113.014H290.236V106.124C289.898 106.657 289.56 107.138 289.196 107.567C289.092 107.268 288.767 106.592 288.585 106.293C289.664 105.032 290.665 103.108 291.263 101.158ZM293.382 104.694V106.657C294.448 106.397 295.423 106.02 296.255 105.513C295.774 105.11 295.384 104.681 295.059 104.239C294.747 104.629 294.422 104.967 294.097 105.266C293.941 105.123 293.629 104.876 293.382 104.694ZM298.374 103.433H295.644L295.631 103.446C295.982 103.966 296.463 104.473 297.087 104.928C297.607 104.499 298.036 104.005 298.374 103.433ZM300.649 103.433H299.635C299.219 104.239 298.673 104.928 298.023 105.513C298.868 105.968 299.882 106.319 301.065 106.527C300.857 106.774 300.545 107.216 300.402 107.515C299.128 107.229 298.049 106.748 297.152 106.176C296.242 106.8 295.176 107.268 294.019 107.619C293.902 107.398 293.603 107.008 293.382 106.761V110.882H292.329V102.666H293.382V104.395C294.318 103.563 295.137 102.354 295.605 101.08L296.71 101.353C296.567 101.73 296.398 102.094 296.203 102.458H300.649V103.433ZM298.569 108.178L299.466 108.542C298.465 109.647 296.749 110.427 295.007 110.895C294.864 110.661 294.617 110.323 294.409 110.115C296.021 109.751 297.711 109.075 298.569 108.178ZM297.334 106.969L298.244 107.346C297.438 108.152 296.138 108.802 294.929 109.192C294.773 108.984 294.5 108.672 294.266 108.49C295.384 108.178 296.658 107.619 297.334 106.969ZM299.661 109.621L300.701 110.05C299.401 111.584 297.035 112.481 294.344 112.962C294.214 112.676 293.954 112.26 293.72 112.013C296.229 111.649 298.53 110.895 299.661 109.621Z" fill="white"/>
<path d="M256.65 130.1C256.24 130.1 255.9 129.76 255.9 129.35C255.9 128.94 256.24 128.6 256.65 128.6C257.06 128.6 257.4 128.94 257.4 129.35C257.4 129.76 257.06 130.1 256.65 130.1ZM256.65 131.91L259.95 128.61L260.24 128.9L256.94 132.2L260.24 135.5L259.95 135.79L256.65 132.49L253.34 135.8L253.05 135.51L256.36 132.2L253.06 128.9L253.35 128.61L256.65 131.91ZM254.55 132.2C254.55 132.61 254.21 132.95 253.8 132.95C253.39 132.95 253.05 132.61 253.05 132.2C253.05 131.79 253.39 131.45 253.8 131.45C254.21 131.45 254.55 131.79 254.55 132.2ZM258.75 132.2C258.75 131.79 259.09 131.45 259.5 131.45C259.91 131.45 260.25 131.79 260.25 132.2C260.25 132.61 259.91 132.95 259.5 132.95C259.09 132.95 258.75 132.61 258.75 132.2ZM256.65 134.3C257.06 134.3 257.4 134.64 257.4 135.05C257.4 135.46 257.06 135.8 256.65 135.8C256.24 135.8 255.9 135.46 255.9 135.05C255.9 134.64 256.24 134.3 256.65 134.3ZM265.22 136.13C264.21 136.13 263.27 135.73 262.6 135.05L263.28 134.25C263.81 134.78 264.53 135.12 265.24 135.12C266.13 135.12 266.63 134.7 266.63 134.08C266.63 133.41 266.13 133.2 265.45 132.9L264.43 132.46C263.72 132.16 262.93 131.6 262.93 130.53C262.93 129.37 263.95 128.5 265.35 128.5C266.21 128.5 267.02 128.86 267.58 129.43L266.97 130.17C266.51 129.76 266 129.51 265.35 129.51C264.6 129.51 264.11 129.87 264.11 130.45C264.11 131.09 264.7 131.33 265.3 131.57L266.31 132C267.18 132.37 267.81 132.91 267.81 133.99C267.81 135.17 266.83 136.13 265.22 136.13ZM272.504 135.18C273.724 135.18 274.524 134.07 274.524 132.29C274.524 130.56 273.724 129.51 272.504 129.51C271.284 129.51 270.494 130.56 270.494 132.29C270.494 134.07 271.284 135.18 272.504 135.18ZM274.814 137.91C273.384 137.91 272.404 137.14 271.954 136.09C270.364 135.82 269.304 134.42 269.304 132.29C269.304 129.92 270.614 128.5 272.504 128.5C274.394 128.5 275.714 129.92 275.714 132.29C275.714 134.36 274.704 135.74 273.194 136.06C273.524 136.68 274.204 136.96 274.944 136.96C275.264 136.96 275.524 136.91 275.724 136.85L275.944 137.72C275.704 137.83 275.294 137.91 274.814 137.91ZM277.743 136V128.63H278.903V135.02H282.023V136H277.743ZM285.96 134.74V131.99H284.8V134.74H285.96ZM283.37 128.96V128.12H286.91V128.96H285.41C285.26 129.72 285.07 130.46 284.83 131.16H286.76V135.56H284.8V136.33H284.02V132.95C283.87 133.2 283.72 133.43 283.55 133.64C283.51 133.4 283.32 132.84 283.18 132.59C283.84 131.7 284.27 130.38 284.53 128.96H283.37ZM289.06 131.68H290.47V129H289.06V131.68ZM292.44 131.68V132.56H291.36V136.79H290.47V132.56H289.05C289 134.06 288.74 135.72 287.66 136.84C287.5 136.69 287.16 136.42 286.95 136.3C287.9 135.31 288.13 133.84 288.18 132.56H287.15V131.68H288.19V129H287.42V128.13H292.24V129H291.36V131.68H292.44ZM295.61 127.66L296.47 127.9C296.25 128.55 295.99 129.21 295.7 129.85V136.78H294.82V131.48C294.56 131.89 294.3 132.26 294.02 132.59C293.94 132.36 293.69 131.84 293.55 131.61C294.38 130.64 295.15 129.16 295.61 127.66ZM297.24 130.38V131.89C298.06 131.69 298.81 131.4 299.45 131.01C299.08 130.7 298.78 130.37 298.53 130.03C298.29 130.33 298.04 130.59 297.79 130.82C297.67 130.71 297.43 130.52 297.24 130.38ZM301.08 129.41H298.98L298.97 129.42C299.24 129.82 299.61 130.21 300.09 130.56C300.49 130.23 300.82 129.85 301.08 129.41ZM302.83 129.41H302.05C301.73 130.03 301.31 130.56 300.81 131.01C301.46 131.36 302.24 131.63 303.15 131.79C302.99 131.98 302.75 132.32 302.64 132.55C301.66 132.33 300.83 131.96 300.14 131.52C299.44 132 298.62 132.36 297.73 132.63C297.64 132.46 297.41 132.16 297.24 131.97V135.14H296.43V128.82H297.24V130.15C297.96 129.51 298.59 128.58 298.95 127.6L299.8 127.81C299.69 128.1 299.56 128.38 299.41 128.66H302.83V129.41ZM301.23 133.06L301.92 133.34C301.15 134.19 299.83 134.79 298.49 135.15C298.38 134.97 298.19 134.71 298.03 134.55C299.27 134.27 300.57 133.75 301.23 133.06ZM300.28 132.13L300.98 132.42C300.36 133.04 299.36 133.54 298.43 133.84C298.31 133.68 298.1 133.44 297.92 133.3C298.78 133.06 299.76 132.63 300.28 132.13ZM302.07 134.17L302.87 134.5C301.87 135.68 300.05 136.37 297.98 136.74C297.88 136.52 297.68 136.2 297.5 136.01C299.43 135.73 301.2 135.15 302.07 134.17ZM311.09 135.63V134.08H306.64V135.63H311.09ZM311.16 131.08L311.88 131.34C311.57 131.97 311.18 132.65 310.79 133.26H312.04V136.8H311.09V136.43H306.64V136.8H305.73V133.26H309.69C309.95 132.85 310.24 132.37 310.47 131.95H305.57V131.13H311.01L311.16 131.08ZM307.27 129.64H310.43C309.8 129.24 309.23 128.8 308.81 128.36C308.43 128.78 307.89 129.22 307.27 129.64ZM308.31 127.59H309.22C310.33 128.75 312 129.68 313.53 130.14C313.33 130.35 313.12 130.68 312.98 130.93C312.29 130.67 311.52 130.3 310.8 129.87V130.41H306.96V129.84C306.26 130.28 305.48 130.68 304.7 130.99C304.61 130.78 304.38 130.43 304.19 130.25C305.86 129.65 307.5 128.58 308.31 127.59ZM318.19 128C318.15 128.25 318.11 128.62 318.11 129.08V129.33C318.72 129.26 319.36 129.15 319.98 128.98V129.94C319.37 130.08 318.71 130.17 318.11 130.23V131.65C318.29 131.89 318.38 132.22 318.38 132.59C318.38 133.18 318.24 133.84 317.86 134.28C317.85 134.47 317.85 134.66 317.85 134.82C317.85 135.32 317.98 135.54 319.31 135.54C319.85 135.54 320.57 135.47 320.93 135.36C321.45 135.2 321.72 134.89 321.72 134.29C321.72 133.9 321.71 133.54 321.66 133.12L322.74 133.45C322.75 133.9 322.76 134.15 322.74 134.57C322.69 135.49 322.37 135.98 321.36 136.27C320.92 136.4 319.91 136.48 319.24 136.48C317.09 136.48 316.89 135.89 316.89 135.17C316.89 135.05 316.89 134.92 316.89 134.8C316.81 134.81 316.73 134.82 316.64 134.82C316.01 134.82 315.27 134.36 315.27 133.15C315.27 132.05 315.98 131.14 317.01 131.14C317.07 131.14 317.13 131.14 317.18 131.15C317.18 130.88 317.18 130.59 317.18 130.29C317.07 130.3 316.97 130.3 316.87 130.3C316.44 130.3 315.88 130.27 315.26 130.2L315.21 129.28C315.79 129.36 316.32 129.41 316.81 129.41C316.93 129.41 317.05 129.41 317.17 129.4C317.17 129.28 317.17 129.17 317.17 129.08C317.17 128.59 317.15 128.25 317.09 128H318.19ZM321.63 128.97C322.24 129.37 323.23 130.29 323.69 130.84L322.98 131.57C322.46 130.92 321.54 130.03 320.98 129.63L321.63 128.97ZM316.74 133.88C317.28 133.88 317.48 133.27 317.48 132.64C317.48 132.2 317.27 131.94 316.95 131.94C316.49 131.94 316.11 132.41 316.11 133.08C316.11 133.59 316.41 133.88 316.74 133.88Z" fill="white"/>
<path d="M133.36 3.78H129.8C130.2 4.62 130.52 5.68 130.6 6.4L129.44 6.7H133.84L132.46 6.4C132.78 5.66 133.16 4.58 133.36 3.78ZM135.58 14.4L134.5 15.78C134.1 15.3 133.3 14.5 132.56 13.8V18.54H130.76V13.86C129.86 15.2 128.8 16.42 127.78 17.22C127.5 16.8 126.96 16.2 126.58 15.88C127.94 14.98 129.44 13.32 130.4 11.68H127.06V10.1H130.76V8.28H127V6.7H129.06C129 5.98 128.7 4.92 128.36 4.12L129.72 3.78H127.26V2.24H130.76V0.339999H132.56V2.24H136.06V3.78H133.64L135.04 4.1C134.66 5.04 134.28 6.02 133.94 6.7H136.28V8.28H132.56V10.1H136.1V11.68H132.56V12.02C133.28 12.52 135.12 14.02 135.58 14.4ZM145.18 6.84V8.56H143.08V18.46H141.28V8.56H138.7V8.74C138.7 11.7 138.34 15.86 135.58 18.64C135.36 18.24 134.68 17.6 134.26 17.36C136.68 14.9 136.92 11.48 136.92 8.72V1.8L138.16 2.16C140.12 1.7 142.24 1.08 143.48 0.439999L144.98 1.78C143.26 2.56 140.86 3.18 138.7 3.6V6.84H145.18ZM166.32 2.66V4.44H149.66V2.66H156.96V0.219999H158.88V2.66H166.32ZM157.36 8.72L156.24 10.04C155.74 9.54 154.84 8.8 154 8.18C153.1 9.56 152 10.74 150.8 11.6C150.5 11.28 149.72 10.64 149.3 10.36C151.34 9.1 152.9 6.98 153.66 4.5L155.54 4.92C155.32 5.56 155.08 6.18 154.78 6.78C155.7 7.4 156.78 8.18 157.36 8.72ZM166.9 12.18V13.96H158.88V18.56H156.96V13.96H149.14V12.18H156.96V10.86H158.24C157.88 10.5 157.34 10.06 157 9.84C159.06 8.7 160.62 6.84 161.34 4.54L163.22 4.9C162.98 5.64 162.68 6.34 162.32 6.98C163.76 7.94 165.52 9.22 166.42 10.08L165.12 11.46C164.32 10.66 162.76 9.44 161.36 8.44C160.64 9.4 159.78 10.2 158.86 10.86H158.88V12.18H166.9ZM187.2 0.46L188.44 1.9C185.56 2.72 181.26 3.2 177.64 3.4C177.58 2.96 177.36 2.3 177.16 1.88C180.68 1.66 184.82 1.16 187.2 0.46ZM186.28 8.68L184.84 8.08C185.66 6.8 186.7 4.72 187.28 3.22L189.02 3.86C188.2 5.54 187.14 7.46 186.28 8.68ZM183.9 7.14L182.24 7.5C182.2 6.56 181.84 5 181.38 3.8L182.94 3.52C183.42 4.68 183.84 6.18 183.9 7.14ZM180.36 7.7L178.76 8.2C178.6 7.2 178.06 5.6 177.44 4.42L178.92 4C179.56 5.16 180.18 6.7 180.36 7.7ZM176.74 8.58L176.98 10.28C176.3 10.5 175.6 10.72 174.92 10.94V16.52C174.92 17.44 174.74 17.94 174.2 18.24C173.66 18.52 172.88 18.58 171.6 18.58C171.56 18.14 171.34 17.34 171.1 16.86C171.9 16.88 172.64 16.88 172.86 16.86C173.12 16.86 173.22 16.8 173.22 16.52V11.46C172.44 11.7 171.7 11.92 171.04 12.14L170.62 10.34C171.34 10.16 172.24 9.9 173.22 9.62V5.82H170.9V4.1H173.22V0.239999H174.92V4.1H176.92V5.82H174.92V9.12L176.74 8.58ZM188.94 11.66H184.96C186.04 13.44 187.8 15.12 189.5 16.04C189.12 16.36 188.56 17 188.28 17.42C186.72 16.44 185.12 14.76 183.96 12.92V18.44H182.2V12.88C180.94 14.82 179.18 16.52 177.38 17.5C177.08 17.06 176.54 16.4 176.12 16.08C178.06 15.18 179.98 13.48 181.14 11.66H177.32V10.04H182.2V7.9H183.96V10.04H188.94V11.66ZM203.08 10.88H207.92V7.92H203.08V10.88ZM196.8 10.88H201.22V7.92H196.88V8.72C196.88 9.4 196.86 10.14 196.8 10.88ZM201.22 3.36H196.88V6.18H201.22V3.36ZM207.92 6.18V3.36H203.08V6.18H207.92ZM209.78 1.58V16.24C209.78 17.32 209.52 17.88 208.8 18.16C208.06 18.46 206.9 18.5 205.06 18.48C204.98 17.98 204.68 17.16 204.44 16.68C205.72 16.74 207.04 16.72 207.42 16.72C207.78 16.72 207.92 16.6 207.92 16.22V12.64H203.08V18.36H201.22V12.64H196.62C196.3 14.84 195.58 17.08 194.12 18.7C193.84 18.34 193.08 17.7 192.66 17.48C194.84 15.06 195.04 11.52 195.04 8.7V1.58H209.78Z" fill="#182346"/>
<path d="M136.92 287.38H142.12V282.54H136.92V287.38ZM129.8 287.38H134.98V282.54H129.8V287.38ZM136.92 280.72H144.06V290.28H142.12V289.2H136.92V295.56H134.98V289.2H129.8V290.38H127.94V280.72H134.98V277.24H136.92V280.72ZM156.88 282.18H163.94C162.54 281.2 161.2 280.02 160.34 278.9C159.54 279.98 158.3 281.16 156.88 282.18ZM156.78 283.7V282.26C156.06 282.76 155.32 283.22 154.56 283.6C154.36 283.14 153.9 282.44 153.58 282.02C155.9 280.96 158.2 279 159.36 277.26H161.16C162.72 279.18 165.04 280.94 167.26 281.84C166.86 282.3 166.44 283 166.18 283.54C165.52 283.2 164.82 282.78 164.12 282.3V283.7H161.34V285.2H166.64V286.74H161.34V290.82C161.34 291.68 161.18 292.1 160.58 292.38C160 292.62 159.16 292.62 157.92 292.62C157.86 292.16 157.62 291.52 157.44 291.06C158.2 291.1 158.98 291.1 159.22 291.08C159.46 291.08 159.52 291.02 159.52 290.78V286.74H154.52V285.2H159.52V283.7H156.78ZM166.64 290.98L165.08 291.76C164.6 290.74 163.5 289.2 162.5 288.06L163.98 287.38C164.96 288.46 166.14 289.96 166.64 290.98ZM156.42 287.46L158.04 287.84C157.38 289.34 156.3 290.84 155.24 291.8C154.92 291.52 154.24 291.08 153.82 290.86C154.9 290 155.84 288.72 156.42 287.46ZM153.78 280.8L152.3 282.02C151.7 281.06 150.34 279.68 149.14 278.78L150.52 277.68C151.72 278.56 153.14 279.84 153.78 280.8ZM153.24 284.98V291.3C154.14 292.7 155.8 293.32 158.06 293.4C160.3 293.48 164.78 293.42 167.28 293.26C167.06 293.7 166.76 294.58 166.66 295.16C164.38 295.26 160.32 295.3 158.04 295.2C155.48 295.1 153.7 294.46 152.42 292.9C151.56 293.72 150.64 294.52 149.64 295.38L148.68 293.48C149.54 292.92 150.54 292.18 151.42 291.42V286.7H149.04V284.98H153.24ZM187.2 277.46L188.44 278.9C185.56 279.72 181.26 280.2 177.64 280.4C177.58 279.96 177.36 279.3 177.16 278.88C180.68 278.66 184.82 278.16 187.2 277.46ZM186.28 285.68L184.84 285.08C185.66 283.8 186.7 281.72 187.28 280.22L189.02 280.86C188.2 282.54 187.14 284.46 186.28 285.68ZM183.9 284.14L182.24 284.5C182.2 283.56 181.84 282 181.38 280.8L182.94 280.52C183.42 281.68 183.84 283.18 183.9 284.14ZM180.36 284.7L178.76 285.2C178.6 284.2 178.06 282.6 177.44 281.42L178.92 281C179.56 282.16 180.18 283.7 180.36 284.7ZM176.74 285.58L176.98 287.28C176.3 287.5 175.6 287.72 174.92 287.94V293.52C174.92 294.44 174.74 294.94 174.2 295.24C173.66 295.52 172.88 295.58 171.6 295.58C171.56 295.14 171.34 294.34 171.1 293.86C171.9 293.88 172.64 293.88 172.86 293.86C173.12 293.86 173.22 293.8 173.22 293.52V288.46C172.44 288.7 171.7 288.92 171.04 289.14L170.62 287.34C171.34 287.16 172.24 286.9 173.22 286.62V282.82H170.9V281.1H173.22V277.24H174.92V281.1H176.92V282.82H174.92V286.12L176.74 285.58ZM188.94 288.66H184.96C186.04 290.44 187.8 292.12 189.5 293.04C189.12 293.36 188.56 294 188.28 294.42C186.72 293.44 185.12 291.76 183.96 289.92V295.44H182.2V289.88C180.94 291.82 179.18 293.52 177.38 294.5C177.08 294.06 176.54 293.4 176.12 293.08C178.06 292.18 179.98 290.48 181.14 288.66H177.32V287.04H182.2V284.9H183.96V287.04H188.94V288.66ZM203.08 287.88H207.92V284.92H203.08V287.88ZM196.8 287.88H201.22V284.92H196.88V285.72C196.88 286.4 196.86 287.14 196.8 287.88ZM201.22 280.36H196.88V283.18H201.22V280.36ZM207.92 283.18V280.36H203.08V283.18H207.92ZM209.78 278.58V293.24C209.78 294.32 209.52 294.88 208.8 295.16C208.06 295.46 206.9 295.5 205.06 295.48C204.98 294.98 204.68 294.16 204.44 293.68C205.72 293.74 207.04 293.72 207.42 293.72C207.78 293.72 207.92 293.6 207.92 293.22V289.64H203.08V295.36H201.22V289.64H196.62C196.3 291.84 195.58 294.08 194.12 295.7C193.84 295.34 193.08 294.7 192.66 294.48C194.84 292.06 195.04 288.52 195.04 285.7V278.58H209.78Z" fill="#182346"/>
<path d="M135.412 200.262L136.518 200.458C136.336 201.774 136.014 203.132 135.58 204.028C135.37 203.874 134.852 203.636 134.586 203.538C135.006 202.698 135.272 201.466 135.412 200.262ZM138.478 200.514L139.458 200.192C139.836 201.032 140.214 202.124 140.368 202.838L139.332 203.202C139.206 202.474 138.828 201.368 138.478 200.514ZM138.17 197.126L139.108 196.72C139.682 197.63 140.256 198.82 140.452 199.59L139.458 200.066C139.402 199.842 139.318 199.576 139.206 199.282L138.17 199.352V205.12H137.008V199.422C136.21 199.464 135.468 199.506 134.824 199.548L134.712 198.4L135.692 198.372C135.958 198.036 136.224 197.672 136.504 197.28C136.07 196.664 135.356 195.908 134.74 195.32L135.37 194.452C135.496 194.564 135.622 194.676 135.748 194.788C136.182 194.018 136.644 193.01 136.896 192.254L138.072 192.674C137.568 193.626 136.98 194.732 136.476 195.488C136.742 195.768 136.98 196.048 137.162 196.3C137.708 195.46 138.212 194.592 138.576 193.864L139.682 194.34C138.884 195.614 137.834 197.154 136.896 198.316L138.758 198.246C138.576 197.854 138.38 197.476 138.17 197.126ZM147.354 194.69V195.32C147.116 201.494 146.934 203.678 146.346 204.392C146.01 204.854 145.66 204.98 145.114 205.036C144.638 205.106 143.784 205.092 142.958 205.05C142.93 204.672 142.776 204.112 142.524 203.748C143.434 203.818 144.274 203.832 144.61 203.832C144.904 203.832 145.058 203.776 145.212 203.594C145.66 203.146 145.884 201.074 146.066 195.936H141.796C141.418 196.65 140.998 197.294 140.564 197.812C140.312 197.588 139.724 197.21 139.416 197.028C140.48 195.894 141.348 194.074 141.838 192.24L143.168 192.548C142.958 193.276 142.692 194.004 142.398 194.69H147.354ZM144.204 200.962L143.056 201.55C142.776 200.696 142.006 199.338 141.264 198.33L142.314 197.812C143.07 198.764 143.896 200.094 144.204 200.962ZM153.36 204.182C151.736 204.182 150.686 203.538 150 202.768L150.784 201.732C151.386 202.348 152.156 202.866 153.22 202.866C154.382 202.866 155.18 202.222 155.18 201.144C155.18 200.01 154.452 199.268 152.128 199.268V198.078C154.158 198.078 154.83 197.308 154.83 196.272C154.83 195.362 154.228 194.802 153.248 194.788C152.45 194.802 151.778 195.18 151.19 195.754L150.35 194.746C151.162 194.018 152.114 193.5 153.304 193.5C155.152 193.5 156.454 194.466 156.454 196.16C156.454 197.35 155.768 198.176 154.676 198.582V198.652C155.866 198.946 156.804 199.842 156.804 201.228C156.804 203.09 155.25 204.182 153.36 204.182ZM165.18 195.67C165.068 195.95 164.984 196.188 164.9 196.44C164.788 196.748 164.634 197.14 164.452 197.518H169.842C170.15 197.518 170.654 197.518 171.004 197.462V198.82C170.612 198.792 170.122 198.778 169.842 198.778H167.952C167.728 201.886 166.524 203.93 164.368 205.246L162.996 204.322C163.332 204.182 163.85 203.874 164.158 203.636C165.292 202.726 166.356 201.312 166.566 198.778H163.822C163.29 199.646 162.45 200.696 161.862 201.214L160.574 200.458C161.456 199.8 162.226 198.792 162.688 198.036C163.066 197.434 163.304 196.804 163.458 196.244C163.542 195.964 163.612 195.628 163.64 195.334L165.18 195.67ZM178.424 199.604H184.57V197.532H178.55C178.55 198.176 178.508 198.876 178.424 199.604ZM184.57 194.214H178.55V196.286H184.57V194.214ZM185.942 192.954V203.342C185.942 204.182 185.718 204.588 185.158 204.798C184.57 205.036 183.618 205.064 182.162 205.064C182.078 204.686 181.826 204.056 181.602 203.692C182.694 203.748 183.814 203.734 184.15 203.72C184.458 203.72 184.57 203.608 184.57 203.314V200.864H178.214C177.85 202.432 177.15 203.986 175.82 205.12C175.624 204.84 175.12 204.364 174.826 204.168C177.01 202.292 177.22 199.548 177.22 197.35V192.954H185.942ZM194.986 193.794H192.34V194.76H194.986V193.794ZM192.34 196.72H194.986V195.684H192.34V196.72ZM196.218 197.686H192.34V205.106H191.052V192.814H196.218V197.686ZM198.57 196.748H201.3V195.684H198.57V196.748ZM201.3 193.794H198.57V194.76H201.3V193.794ZM195.336 202.838H198.178V201.676H195.336V202.838ZM198.178 199.632H195.336V200.724H198.178V199.632ZM202.616 192.814V203.482C202.616 204.224 202.462 204.644 201.958 204.868C201.468 205.078 200.698 205.092 199.522 205.092C199.466 204.742 199.284 204.182 199.116 203.818H195.336V204.518H194.146V198.652H199.396V203.776C200.082 203.804 200.754 203.79 200.978 203.79C201.23 203.776 201.3 203.706 201.3 203.468V197.714H197.324V192.814H202.616Z" fill="#182346"/>
<path d="M135.412 432.262L136.518 432.458C136.336 433.774 136.014 435.132 135.58 436.028C135.37 435.874 134.852 435.636 134.586 435.538C135.006 434.698 135.272 433.466 135.412 432.262ZM138.478 432.514L139.458 432.192C139.836 433.032 140.214 434.124 140.368 434.838L139.332 435.202C139.206 434.474 138.828 433.368 138.478 432.514ZM138.17 429.126L139.108 428.72C139.682 429.63 140.256 430.82 140.452 431.59L139.458 432.066C139.402 431.842 139.318 431.576 139.206 431.282L138.17 431.352V437.12H137.008V431.422C136.21 431.464 135.468 431.506 134.824 431.548L134.712 430.4L135.692 430.372C135.958 430.036 136.224 429.672 136.504 429.28C136.07 428.664 135.356 427.908 134.74 427.32L135.37 426.452C135.496 426.564 135.622 426.676 135.748 426.788C136.182 426.018 136.644 425.01 136.896 424.254L138.072 424.674C137.568 425.626 136.98 426.732 136.476 427.488C136.742 427.768 136.98 428.048 137.162 428.3C137.708 427.46 138.212 426.592 138.576 425.864L139.682 426.34C138.884 427.614 137.834 429.154 136.896 430.316L138.758 430.246C138.576 429.854 138.38 429.476 138.17 429.126ZM147.354 426.69V427.32C147.116 433.494 146.934 435.678 146.346 436.392C146.01 436.854 145.66 436.98 145.114 437.036C144.638 437.106 143.784 437.092 142.958 437.05C142.93 436.672 142.776 436.112 142.524 435.748C143.434 435.818 144.274 435.832 144.61 435.832C144.904 435.832 145.058 435.776 145.212 435.594C145.66 435.146 145.884 433.074 146.066 427.936H141.796C141.418 428.65 140.998 429.294 140.564 429.812C140.312 429.588 139.724 429.21 139.416 429.028C140.48 427.894 141.348 426.074 141.838 424.24L143.168 424.548C142.958 425.276 142.692 426.004 142.398 426.69H147.354ZM144.204 432.962L143.056 433.55C142.776 432.696 142.006 431.338 141.264 430.33L142.314 429.812C143.07 430.764 143.896 432.094 144.204 432.962ZM150.224 436V435.062C153.262 432.374 154.83 430.372 154.83 428.678C154.83 427.558 154.242 426.788 153.08 426.788C152.268 426.788 151.596 427.306 151.05 427.936L150.14 427.04C151.022 426.074 151.932 425.5 153.276 425.5C155.166 425.5 156.384 426.732 156.384 428.594C156.384 430.582 154.802 432.64 152.618 434.726C153.15 434.67 153.794 434.628 154.298 434.628H156.874V436H150.224ZM165.18 427.67C165.068 427.95 164.984 428.188 164.9 428.44C164.788 428.748 164.634 429.14 164.452 429.518H169.842C170.15 429.518 170.654 429.518 171.004 429.462V430.82C170.612 430.792 170.122 430.778 169.842 430.778H167.952C167.728 433.886 166.524 435.93 164.368 437.246L162.996 436.322C163.332 436.182 163.85 435.874 164.158 435.636C165.292 434.726 166.356 433.312 166.566 430.778H163.822C163.29 431.646 162.45 432.696 161.862 433.214L160.574 432.458C161.456 431.8 162.226 430.792 162.688 430.036C163.066 429.434 163.304 428.804 163.458 428.244C163.542 427.964 163.612 427.628 163.64 427.334L165.18 427.67ZM178.424 431.604H184.57V429.532H178.55C178.55 430.176 178.508 430.876 178.424 431.604ZM184.57 426.214H178.55V428.286H184.57V426.214ZM185.942 424.954V435.342C185.942 436.182 185.718 436.588 185.158 436.798C184.57 437.036 183.618 437.064 182.162 437.064C182.078 436.686 181.826 436.056 181.602 435.692C182.694 435.748 183.814 435.734 184.15 435.72C184.458 435.72 184.57 435.608 184.57 435.314V432.864H178.214C177.85 434.432 177.15 435.986 175.82 437.12C175.624 436.84 175.12 436.364 174.826 436.168C177.01 434.292 177.22 431.548 177.22 429.35V424.954H185.942ZM194.986 425.794H192.34V426.76H194.986V425.794ZM192.34 428.72H194.986V427.684H192.34V428.72ZM196.218 429.686H192.34V437.106H191.052V424.814H196.218V429.686ZM198.57 428.748H201.3V427.684H198.57V428.748ZM201.3 425.794H198.57V426.76H201.3V425.794ZM195.336 434.838H198.178V433.676H195.336V434.838ZM198.178 431.632H195.336V432.724H198.178V431.632ZM202.616 424.814V435.482C202.616 436.224 202.462 436.644 201.958 436.868C201.468 437.078 200.698 437.092 199.522 437.092C199.466 436.742 199.284 436.182 199.116 435.818H195.336V436.518H194.146V430.652H199.396V435.776C200.082 435.804 200.754 435.79 200.978 435.79C201.23 435.776 201.3 435.706 201.3 435.468V429.714H197.324V424.814H202.616Z" fill="#182346"/>
<line x1="0.5" y1="215" x2="0.499999" y2="183" stroke="#182346"/>
<line x1="0.5" y1="447" x2="0.499999" y2="415" stroke="#182346"/>
<path d="M0.646447 198.646C0.451184 198.842 0.451184 199.158 0.646447 199.354L3.82843 202.536C4.02369 202.731 4.34027 202.731 4.53553 202.536C4.7308 202.34 4.7308 202.024 4.53553 201.828L1.70711 199L4.53553 196.172C4.7308 195.976 4.7308 195.66 4.53553 195.464C4.34027 195.269 4.02369 195.269 3.82843 195.464L0.646447 198.646ZM1 199.5L1.99167 199.5L1.99167 198.5L1 198.5L1 199.5ZM3.975 199.5L5.95833 199.5L5.95833 198.5L3.975 198.5L3.975 199.5ZM7.94167 199.5L9.925 199.5L9.925 198.5L7.94167 198.5L7.94167 199.5ZM11.9083 199.5L13.8917 199.5L13.8917 198.5L11.9083 198.5L11.9083 199.5ZM15.875 199.5L17.8583 199.5L17.8583 198.5L15.875 198.5L15.875 199.5ZM19.8417 199.5L21.825 199.5L21.825 198.5L19.8417 198.5L19.8417 199.5ZM23.8083 199.5L25.7917 199.5L25.7917 198.5L23.8083 198.5L23.8083 199.5ZM27.775 199.5L29.7583 199.5L29.7583 198.5L27.775 198.5L27.775 199.5ZM31.7417 199.5L33.725 199.5L33.725 198.5L31.7417 198.5L31.7417 199.5ZM35.7083 199.5L37.6917 199.5L37.6917 198.5L35.7083 198.5L35.7083 199.5ZM39.675 199.5L41.6583 199.5L41.6583 198.5L39.675 198.5L39.675 199.5ZM43.6417 199.5L45.625 199.5L45.625 198.5L43.6417 198.5L43.6417 199.5ZM47.6083 199.5L49.5917 199.5L49.5917 198.5L47.6083 198.5L47.6083 199.5ZM51.575 199.5L53.5583 199.5L53.5583 198.5L51.575 198.5L51.575 199.5ZM55.5417 199.5L57.525 199.5L57.525 198.5L55.5417 198.5L55.5417 199.5ZM59.5083 199.5L61.4917 199.5L61.4917 198.5L59.5083 198.5L59.5083 199.5ZM63.475 199.5L65.4583 199.5L65.4583 198.5L63.475 198.5L63.475 199.5ZM67.4417 199.5L69.425 199.5L69.425 198.5L67.4417 198.5L67.4417 199.5ZM71.4083 199.5L73.3917 199.5L73.3917 198.5L71.4083 198.5L71.4083 199.5ZM75.375 199.5L77.3583 199.5L77.3583 198.5L75.375 198.5L75.375 199.5ZM79.3416 199.5L81.325 199.5L81.325 198.5L79.3416 198.5L79.3416 199.5ZM83.3083 199.5L85.2916 199.5L85.2916 198.5L83.3083 198.5L83.3083 199.5ZM87.275 199.5L89.2583 199.5L89.2583 198.5L87.275 198.5L87.275 199.5ZM91.2416 199.5L93.225 199.5L93.225 198.5L91.2416 198.5L91.2416 199.5ZM95.2083 199.5L97.1916 199.5L97.1916 198.5L95.2083 198.5L95.2083 199.5ZM99.1749 199.5L101.158 199.5L101.158 198.5L99.1749 198.5L99.1749 199.5ZM103.142 199.5L105.125 199.5L105.125 198.5L103.142 198.5L103.142 199.5ZM107.108 199.5L109.092 199.5L109.092 198.5L107.108 198.5L107.108 199.5ZM111.075 199.5L113.058 199.5L113.058 198.5L111.075 198.5L111.075 199.5ZM115.042 199.5L117.025 199.5L117.025 198.5L115.042 198.5L115.042 199.5ZM119.008 199.5L120 199.5L120 198.5L119.008 198.5L119.008 199.5Z" fill="#182346"/>
<path d="M0.646447 430.646C0.451184 430.842 0.451184 431.158 0.646447 431.354L3.82843 434.536C4.02369 434.731 4.34027 434.731 4.53553 434.536C4.7308 434.34 4.7308 434.024 4.53553 433.828L1.70711 431L4.53553 428.172C4.7308 427.976 4.7308 427.66 4.53553 427.464C4.34027 427.269 4.02369 427.269 3.82843 427.464L0.646447 430.646ZM1 431.5L1.99167 431.5L1.99167 430.5L1 430.5L1 431.5ZM3.975 431.5L5.95833 431.5L5.95833 430.5L3.975 430.5L3.975 431.5ZM7.94167 431.5L9.925 431.5L9.925 430.5L7.94167 430.5L7.94167 431.5ZM11.9083 431.5L13.8917 431.5L13.8917 430.5L11.9083 430.5L11.9083 431.5ZM15.875 431.5L17.8583 431.5L17.8583 430.5L15.875 430.5L15.875 431.5ZM19.8417 431.5L21.825 431.5L21.825 430.5L19.8417 430.5L19.8417 431.5ZM23.8083 431.5L25.7917 431.5L25.7917 430.5L23.8083 430.5L23.8083 431.5ZM27.775 431.5L29.7583 431.5L29.7583 430.5L27.775 430.5L27.775 431.5ZM31.7417 431.5L33.725 431.5L33.725 430.5L31.7417 430.5L31.7417 431.5ZM35.7083 431.5L37.6917 431.5L37.6917 430.5L35.7083 430.5L35.7083 431.5ZM39.675 431.5L41.6583 431.5L41.6583 430.5L39.675 430.5L39.675 431.5ZM43.6417 431.5L45.625 431.5L45.625 430.5L43.6417 430.5L43.6417 431.5ZM47.6083 431.5L49.5917 431.5L49.5917 430.5L47.6083 430.5L47.6083 431.5ZM51.575 431.5L53.5583 431.5L53.5583 430.5L51.575 430.5L51.575 431.5ZM55.5417 431.5L57.525 431.5L57.525 430.5L55.5417 430.5L55.5417 431.5ZM59.5083 431.5L61.4917 431.5L61.4917 430.5L59.5083 430.5L59.5083 431.5ZM63.475 431.5L65.4583 431.5L65.4583 430.5L63.475 430.5L63.475 431.5ZM67.4417 431.5L69.425 431.5L69.425 430.5L67.4417 430.5L67.4417 431.5ZM71.4083 431.5L73.3917 431.5L73.3917 430.5L71.4083 430.5L71.4083 431.5ZM75.375 431.5L77.3583 431.5L77.3583 430.5L75.375 430.5L75.375 431.5ZM79.3416 431.5L81.325 431.5L81.325 430.5L79.3416 430.5L79.3416 431.5ZM83.3083 431.5L85.2916 431.5L85.2916 430.5L83.3083 430.5L83.3083 431.5ZM87.275 431.5L89.2583 431.5L89.2583 430.5L87.275 430.5L87.275 431.5ZM91.2416 431.5L93.225 431.5L93.225 430.5L91.2416 430.5L91.2416 431.5ZM95.2083 431.5L97.1916 431.5L97.1916 430.5L95.2083 430.5L95.2083 431.5ZM99.1749 431.5L101.158 431.5L101.158 430.5L99.1749 430.5L99.1749 431.5ZM103.142 431.5L105.125 431.5L105.125 430.5L103.142 430.5L103.142 431.5ZM107.108 431.5L109.092 431.5L109.092 430.5L107.108 430.5L107.108 431.5ZM111.075 431.5L113.058 431.5L113.058 430.5L111.075 430.5L111.075 431.5ZM115.042 431.5L117.025 431.5L117.025 430.5L115.042 430.5L115.042 431.5ZM119.008 431.5L120 431.5L120 430.5L119.008 430.5L119.008 431.5Z" fill="#182346"/>
<line y1="-0.5" x2="32" y2="-0.5" transform="matrix(4.37114e-08 -1 -1 -3.94596e-07 337 215)" stroke="#182346"/>
<line y1="-0.5" x2="32" y2="-0.5" transform="matrix(4.37114e-08 -1 -1 -3.94596e-07 337 447)" stroke="#182346"/>
<path d="M337.354 198.646C337.549 198.842 337.549 199.158 337.354 199.354L334.172 202.536C333.976 202.731 333.66 202.731 333.464 202.536C333.269 202.34 333.269 202.024 333.464 201.828L336.293 199L333.464 196.172C333.269 195.976 333.269 195.66 333.464 195.464C333.66 195.269 333.976 195.269 334.172 195.464L337.354 198.646ZM337 199.5L336.008 199.5L336.008 198.5L337 198.5L337 199.5ZM334.025 199.5L332.042 199.5L332.042 198.5L334.025 198.5L334.025 199.5ZM330.058 199.5L328.075 199.5L328.075 198.5L330.058 198.5L330.058 199.5ZM326.092 199.5L324.108 199.5L324.108 198.5L326.092 198.5L326.092 199.5ZM322.125 199.5L320.142 199.5L320.142 198.5L322.125 198.5L322.125 199.5ZM318.158 199.5L316.175 199.5L316.175 198.5L318.158 198.5L318.158 199.5ZM314.192 199.5L312.208 199.5L312.208 198.5L314.192 198.5L314.192 199.5ZM310.225 199.5L308.242 199.5L308.242 198.5L310.225 198.5L310.225 199.5ZM306.258 199.5L304.275 199.5L304.275 198.5L306.258 198.5L306.258 199.5ZM302.292 199.5L300.308 199.5L300.308 198.5L302.292 198.5L302.292 199.5ZM298.325 199.5L296.342 199.5L296.342 198.5L298.325 198.5L298.325 199.5ZM294.358 199.5L292.375 199.5L292.375 198.5L294.358 198.5L294.358 199.5ZM290.392 199.5L288.408 199.5L288.408 198.5L290.392 198.5L290.392 199.5ZM286.425 199.5L284.442 199.5L284.442 198.5L286.425 198.5L286.425 199.5ZM282.458 199.5L280.475 199.5L280.475 198.5L282.458 198.5L282.458 199.5ZM278.492 199.5L276.508 199.5L276.508 198.5L278.492 198.5L278.492 199.5ZM274.525 199.5L272.542 199.5L272.542 198.5L274.525 198.5L274.525 199.5ZM270.558 199.5L268.575 199.5L268.575 198.5L270.558 198.5L270.558 199.5ZM266.592 199.5L264.608 199.5L264.608 198.5L266.592 198.5L266.592 199.5ZM262.625 199.5L260.642 199.5L260.642 198.5L262.625 198.5L262.625 199.5ZM258.658 199.5L256.675 199.5L256.675 198.5L258.658 198.5L258.658 199.5ZM254.692 199.5L252.708 199.5L252.708 198.5L254.692 198.5L254.692 199.5ZM250.725 199.5L248.742 199.5L248.742 198.5L250.725 198.5L250.725 199.5ZM246.758 199.5L244.775 199.5L244.775 198.5L246.758 198.5L246.758 199.5ZM242.792 199.5L240.808 199.5L240.808 198.5L242.792 198.5L242.792 199.5ZM238.825 199.5L236.842 199.5L236.842 198.5L238.825 198.5L238.825 199.5ZM234.858 199.5L232.875 199.5L232.875 198.5L234.858 198.5L234.858 199.5ZM230.892 199.5L228.908 199.5L228.908 198.5L230.892 198.5L230.892 199.5ZM226.925 199.5L224.942 199.5L224.942 198.5L226.925 198.5L226.925 199.5ZM222.958 199.5L220.975 199.5L220.975 198.5L222.958 198.5L222.958 199.5ZM218.992 199.5L218 199.5L218 198.5L218.992 198.5L218.992 199.5Z" fill="#182346"/>
<path d="M337.354 430.646C337.549 430.842 337.549 431.158 337.354 431.354L334.172 434.536C333.976 434.731 333.66 434.731 333.464 434.536C333.269 434.34 333.269 434.024 333.464 433.828L336.293 431L333.464 428.172C333.269 427.976 333.269 427.66 333.464 427.464C333.66 427.269 333.976 427.269 334.172 427.464L337.354 430.646ZM337 431.5L336.008 431.5L336.008 430.5L337 430.5L337 431.5ZM334.025 431.5L332.042 431.5L332.042 430.5L334.025 430.5L334.025 431.5ZM330.058 431.5L328.075 431.5L328.075 430.5L330.058 430.5L330.058 431.5ZM326.092 431.5L324.108 431.5L324.108 430.5L326.092 430.5L326.092 431.5ZM322.125 431.5L320.142 431.5L320.142 430.5L322.125 430.5L322.125 431.5ZM318.158 431.5L316.175 431.5L316.175 430.5L318.158 430.5L318.158 431.5ZM314.192 431.5L312.208 431.5L312.208 430.5L314.192 430.5L314.192 431.5ZM310.225 431.5L308.242 431.5L308.242 430.5L310.225 430.5L310.225 431.5ZM306.258 431.5L304.275 431.5L304.275 430.5L306.258 430.5L306.258 431.5ZM302.292 431.5L300.308 431.5L300.308 430.5L302.292 430.5L302.292 431.5ZM298.325 431.5L296.342 431.5L296.342 430.5L298.325 430.5L298.325 431.5ZM294.358 431.5L292.375 431.5L292.375 430.5L294.358 430.5L294.358 431.5ZM290.392 431.5L288.408 431.5L288.408 430.5L290.392 430.5L290.392 431.5ZM286.425 431.5L284.442 431.5L284.442 430.5L286.425 430.5L286.425 431.5ZM282.458 431.5L280.475 431.5L280.475 430.5L282.458 430.5L282.458 431.5ZM278.492 431.5L276.508 431.5L276.508 430.5L278.492 430.5L278.492 431.5ZM274.525 431.5L272.542 431.5L272.542 430.5L274.525 430.5L274.525 431.5ZM270.558 431.5L268.575 431.5L268.575 430.5L270.558 430.5L270.558 431.5ZM266.592 431.5L264.608 431.5L264.608 430.5L266.592 430.5L266.592 431.5ZM262.625 431.5L260.642 431.5L260.642 430.5L262.625 430.5L262.625 431.5ZM258.658 431.5L256.675 431.5L256.675 430.5L258.658 430.5L258.658 431.5ZM254.692 431.5L252.708 431.5L252.708 430.5L254.692 430.5L254.692 431.5ZM250.725 431.5L248.742 431.5L248.742 430.5L250.725 430.5L250.725 431.5ZM246.758 431.5L244.775 431.5L244.775 430.5L246.758 430.5L246.758 431.5ZM242.792 431.5L240.808 431.5L240.808 430.5L242.792 430.5L242.792 431.5ZM238.825 431.5L236.842 431.5L236.842 430.5L238.825 430.5L238.825 431.5ZM234.858 431.5L232.875 431.5L232.875 430.5L234.858 430.5L234.858 431.5ZM230.892 431.5L228.908 431.5L228.908 430.5L230.892 430.5L230.892 431.5ZM226.925 431.5L224.942 431.5L224.942 430.5L226.925 430.5L226.925 431.5ZM222.958 431.5L220.975 431.5L220.975 430.5L222.958 430.5L222.958 431.5ZM218.992 431.5L218 431.5L218 430.5L218.992 430.5L218.992 431.5Z" fill="#182346"/>
<path d="M118 108L113 105.113L113 110.887L118 108ZM101 108.5L113.5 108.5L113.5 107.5L101 107.5L101 108.5Z" fill="#182346"/>
<path d="M177 362L172 359.113L172 364.887L177 362ZM160 362.5L172.5 362.5L172.5 361.5L160 361.5L160 362.5Z" fill="#182346"/>
<path d="M237 108L232 105.113L232 110.887L237 108ZM220 108.5L232.5 108.5L232.5 107.5L220 107.5L220 108.5Z" fill="#182346"/>
</svg>
