<svg width="272" height="68" viewBox="0 0 272 68" fill="none" xmlns="http://www.w3.org/2000/svg">
<rect width="272" height="68" fill="#182346"/>
<path d="M102.194 26.69C102.644 27.338 103.274 28.454 103.634 29.156L102.464 29.66C102.104 28.94 101.51 27.86 101.024 27.176L102.194 26.69ZM104.228 25.934C104.696 26.6 105.38 27.716 105.704 28.382L104.534 28.886C104.156 28.112 103.58 27.086 103.076 26.42L104.228 25.934ZM94.238 27.356C94.184 27.842 94.13 28.49 94.13 29.012V32.774C96.254 32.252 98.954 31.406 100.7 30.668C101.294 30.434 101.852 30.164 102.446 29.786L103.238 31.604C102.644 31.838 101.924 32.162 101.348 32.378C99.422 33.152 96.398 34.052 94.13 34.646V38.318C94.13 39.182 94.508 39.398 95.354 39.578C95.894 39.668 96.74 39.704 97.604 39.704C99.494 39.704 102.32 39.506 103.814 39.11V41.18C102.176 41.414 99.476 41.54 97.496 41.54C96.38 41.54 95.3 41.486 94.544 41.36C93.086 41.09 92.258 40.37 92.258 38.858V29.012C92.258 28.58 92.222 27.842 92.132 27.356H94.238ZM120.896 27.392C121.382 28.094 122.138 29.354 122.552 30.2L121.292 30.74C120.824 29.714 120.302 28.778 119.672 27.914L120.896 27.392ZM123.308 26.528C123.812 27.194 124.568 28.436 125.018 29.264L123.758 29.822C123.254 28.796 122.696 27.896 122.066 27.05L123.308 26.528ZM113.156 27.086C114.272 27.716 116.288 29.048 117.152 29.66L116.072 31.208C115.154 30.542 113.228 29.282 112.13 28.652L113.156 27.086ZM110.168 39.92C112.166 39.578 114.362 38.912 116.252 37.868C119.258 36.158 121.706 33.746 123.146 31.19L124.244 33.098C122.624 35.546 120.122 37.85 117.206 39.56C115.388 40.604 112.868 41.468 111.23 41.774L110.168 39.92ZM110.402 31.172C111.536 31.784 113.588 33.044 114.434 33.638L113.39 35.24C112.454 34.556 110.528 33.332 109.394 32.72L110.402 31.172ZM136.934 26.456C136.88 26.87 136.826 27.554 136.826 28.076V29.138H139.454C139.922 29.138 140.39 29.084 140.732 28.994L141.92 30.128C141.542 30.524 141.074 31.028 140.75 31.388C139.832 32.45 138.374 33.908 136.79 35.042V39.758C136.79 40.424 136.844 41.324 136.88 41.882H134.828C134.9 41.36 134.954 40.424 134.954 39.758V36.212C133.28 37.13 131.336 37.922 129.122 38.57L128.024 36.896C131.462 36.104 133.748 34.898 135.35 33.854C136.862 32.882 138.158 31.64 138.734 30.83H131.678C131.03 30.83 129.968 30.866 129.41 30.902V29.03C130.022 29.102 131.03 29.138 131.642 29.138H134.99V28.076C134.99 27.536 134.954 26.87 134.882 26.456H136.934ZM142.514 38.786C140.948 37.598 139.814 36.86 138.194 35.978L139.364 34.628C141.038 35.528 141.992 36.068 143.702 37.22L142.514 38.786ZM160.37 28.886C160.244 29.066 159.974 29.516 159.848 29.822C159.218 31.298 158.156 33.332 156.896 34.952C158.75 36.536 160.928 38.858 162.044 40.226L160.46 41.63C159.272 40.01 157.472 38.03 155.69 36.374C153.764 38.426 151.334 40.352 148.76 41.558L147.302 40.028C150.218 38.912 152.918 36.752 154.7 34.754C155.924 33.386 157.13 31.406 157.562 30.002H150.956C150.254 30.002 149.282 30.092 148.994 30.11V28.076C149.354 28.13 150.398 28.202 150.956 28.202H157.634C158.3 28.202 158.894 28.13 159.2 28.022L160.37 28.886ZM170.576 33.332V34.412H176.696V33.332H170.576ZM176.696 28.85H170.576V29.858H176.696V28.85ZM170.576 31.082V32.108H176.696V31.082H170.576ZM181.79 35.798H178.208C179.216 36.842 180.62 37.76 182.006 38.246C181.664 38.552 181.16 39.146 180.926 39.542C179.198 38.786 177.47 37.364 176.372 35.798H171.008C170.576 36.428 170.018 37.058 169.424 37.616H172.718V36.266H174.41V37.616H177.974V38.948H174.41V40.55H180.458V41.936H166.904V40.55H172.718V38.948H169.28V37.76C168.38 38.57 167.336 39.254 166.31 39.74C166.076 39.344 165.59 38.75 165.23 38.462C166.652 37.922 168.092 36.914 169.118 35.798H165.41V34.412H168.902V28.85H166.292V27.482H168.902V25.916H170.576V27.482H176.696V25.934H178.406V27.482H180.98V28.85H178.406V34.412H181.79V35.798ZM197.234 33.404V30.812C196.712 31.694 196.082 32.504 195.434 33.044C195.308 32.72 194.984 32.234 194.732 31.964C195.56 31.37 196.388 30.236 196.91 29.084H195.56V27.788H197.234V25.898H198.62V27.788H200.69V29.084H198.944C199.412 30.236 200.168 31.406 200.978 32C200.69 32.234 200.294 32.648 200.078 32.972C199.538 32.486 199.034 31.712 198.62 30.866V33.404H197.234ZM192.374 33.404V30.92C191.888 31.766 191.312 32.54 190.736 33.098C190.574 32.756 190.25 32.234 189.998 31.964C190.736 31.334 191.546 30.2 192.05 29.084H190.574V27.788H192.374V25.898H193.76V27.788H195.236V29.084H193.76V29.39C194.084 29.642 195.164 30.506 195.434 30.758L194.642 31.73C194.462 31.478 194.102 31.064 193.76 30.668V33.404H192.374ZM188.648 38.642V33.746H186.92V38.642H188.648ZM190.088 40.1H186.92V41.504H185.534V36.554C185.354 36.896 185.156 37.238 184.94 37.544C184.778 37.184 184.31 36.392 184.022 36.014C185.228 34.178 185.858 31.352 186.236 28.382H184.4V26.87H190.556V28.382H187.802C187.622 29.732 187.388 31.046 187.082 32.288H190.088V40.1ZM196.298 38.48V40.658C196.658 40.712 197.054 40.73 197.468 40.73C197.936 40.73 200.312 40.73 200.942 40.712C200.744 41.054 200.546 41.738 200.474 42.134H197.378C195.128 42.134 193.562 41.666 192.536 39.704C192.104 40.784 191.42 41.72 190.376 42.422C190.196 42.098 189.746 41.558 189.404 41.306C191.204 40.154 191.636 38.084 191.798 35.96H193.292C193.238 36.608 193.166 37.256 193.058 37.868C193.436 39.056 194.012 39.776 194.732 40.19V35.258H190.52V33.89H199.376L199.628 33.818L200.708 34.16C200.384 35.078 199.988 36.122 199.646 36.824L198.368 36.356C198.512 36.05 198.656 35.672 198.8 35.258H196.298V37.112H199.538V38.48H196.298ZM207.998 38.732V33.782H205.91V38.732H207.998ZM203.336 28.328V26.816H209.708V28.328H207.008C206.738 29.696 206.396 31.028 205.964 32.288H209.438V40.208H205.91V41.594H204.506V35.51C204.236 35.96 203.966 36.374 203.66 36.752C203.588 36.32 203.246 35.312 202.994 34.862C204.182 33.26 204.956 30.884 205.424 28.328H203.336ZM213.578 33.224H216.116V28.4H213.578V33.224ZM219.662 33.224V34.808H217.718V42.422H216.116V34.808H213.56C213.47 37.508 213.002 40.496 211.058 42.512C210.77 42.242 210.158 41.756 209.78 41.54C211.49 39.758 211.904 37.112 211.994 34.808H210.14V33.224H212.012V28.4H210.626V26.834H219.302V28.4H217.718V33.224H219.662ZM225.368 25.988L226.916 26.42C226.52 27.59 226.052 28.778 225.53 29.93V42.404H223.946V32.864C223.478 33.602 223.01 34.268 222.506 34.862C222.362 34.448 221.912 33.512 221.66 33.098C223.154 31.352 224.54 28.688 225.368 25.988ZM228.302 30.884V33.602C229.778 33.242 231.128 32.72 232.28 32.018C231.614 31.46 231.074 30.866 230.624 30.254C230.192 30.794 229.742 31.262 229.292 31.676C229.076 31.478 228.644 31.136 228.302 30.884ZM235.214 29.138H231.434L231.416 29.156C231.902 29.876 232.568 30.578 233.432 31.208C234.152 30.614 234.746 29.93 235.214 29.138ZM238.364 29.138H236.96C236.384 30.254 235.628 31.208 234.728 32.018C235.898 32.648 237.302 33.134 238.94 33.422C238.652 33.764 238.22 34.376 238.022 34.79C236.258 34.394 234.764 33.728 233.522 32.936C232.262 33.8 230.786 34.448 229.184 34.934C229.022 34.628 228.608 34.088 228.302 33.746V39.452H226.844V28.076H228.302V30.47C229.598 29.318 230.732 27.644 231.38 25.88L232.91 26.258C232.712 26.78 232.478 27.284 232.208 27.788H238.364V29.138ZM235.484 35.708L236.726 36.212C235.34 37.742 232.964 38.822 230.552 39.47C230.354 39.146 230.012 38.678 229.724 38.39C231.956 37.886 234.296 36.95 235.484 35.708ZM233.774 34.034L235.034 34.556C233.918 35.672 232.118 36.572 230.444 37.112C230.228 36.824 229.85 36.392 229.526 36.14C231.074 35.708 232.838 34.934 233.774 34.034ZM236.996 37.706L238.436 38.3C236.636 40.424 233.36 41.666 229.634 42.332C229.454 41.936 229.094 41.36 228.77 41.018C232.244 40.514 235.43 39.47 236.996 37.706Z" fill="white"/>
<path d="M19.732 40.232C18.964 39.48 18.364 38.524 17.932 37.364C17.508 36.204 17.296 34.952 17.296 33.608C17.296 32.232 17.52 30.948 17.968 29.756C18.424 28.556 19.072 27.568 19.912 26.792H21.052V26.9C20.156 27.74 19.48 28.752 19.024 29.936C18.576 31.112 18.352 32.336 18.352 33.608C18.352 34.848 18.564 36.032 18.988 37.16C19.42 38.288 20.048 39.276 20.872 40.124V40.232H19.732ZM25.6252 38.084C25.0732 38.084 24.5772 37.988 24.1372 37.796C23.7052 37.596 23.3652 37.324 23.1172 36.98C22.8692 36.628 22.7412 36.224 22.7332 35.768H23.8972C23.9372 36.16 24.0972 36.492 24.3772 36.764C24.6652 37.028 25.0812 37.16 25.6252 37.16C26.1452 37.16 26.5532 37.032 26.8492 36.776C27.1532 36.512 27.3052 36.176 27.3052 35.768C27.3052 35.448 27.2172 35.188 27.0412 34.988C26.8652 34.788 26.6452 34.636 26.3812 34.532C26.1172 34.428 25.7612 34.316 25.3132 34.196C24.7612 34.052 24.3172 33.908 23.9812 33.764C23.6532 33.62 23.3692 33.396 23.1292 33.092C22.8972 32.78 22.7812 32.364 22.7812 31.844C22.7812 31.388 22.8972 30.984 23.1292 30.632C23.3612 30.28 23.6852 30.008 24.1012 29.816C24.5252 29.624 25.0092 29.528 25.5532 29.528C26.3372 29.528 26.9772 29.724 27.4732 30.116C27.9772 30.508 28.2612 31.028 28.3252 31.676H27.1252C27.0852 31.356 26.9172 31.076 26.6212 30.836C26.3252 30.588 25.9332 30.464 25.4452 30.464C24.9892 30.464 24.6172 30.584 24.3292 30.824C24.0412 31.056 23.8972 31.384 23.8972 31.808C23.8972 32.112 23.9812 32.36 24.1492 32.552C24.3252 32.744 24.5372 32.892 24.7852 32.996C25.0412 33.092 25.3972 33.204 25.8532 33.332C26.4052 33.484 26.8492 33.636 27.1852 33.788C27.5212 33.932 27.8092 34.16 28.0492 34.472C28.2892 34.776 28.4092 35.192 28.4092 35.72C28.4092 36.128 28.3012 36.512 28.0852 36.872C27.8692 37.232 27.5492 37.524 27.1252 37.748C26.7012 37.972 26.2012 38.084 25.6252 38.084ZM35.7642 29.636V30.524H33.4842V38H32.3922V30.524H30.1002V29.636H35.7642ZM38.8004 30.524V33.32H41.8484V34.22H38.8004V37.1H42.2084V38H37.7084V29.624H42.2084V30.524H38.8004ZM50.0527 32.084C50.0527 32.78 49.8127 33.36 49.3327 33.824C48.8607 34.28 48.1367 34.508 47.1607 34.508H45.5527V38H44.4607V29.636H47.1607C48.1047 29.636 48.8207 29.864 49.3087 30.32C49.8047 30.776 50.0527 31.364 50.0527 32.084ZM47.1607 33.608C47.7687 33.608 48.2167 33.476 48.5047 33.212C48.7927 32.948 48.9367 32.572 48.9367 32.084C48.9367 31.052 48.3447 30.536 47.1607 30.536H45.5527V33.608H47.1607ZM55.6292 33.572C55.6292 32.196 55.8532 31.124 56.3012 30.356C56.7492 29.58 57.5332 29.192 58.6532 29.192C59.7652 29.192 60.5452 29.58 60.9932 30.356C61.4412 31.124 61.6652 32.196 61.6652 33.572C61.6652 34.972 61.4412 36.06 60.9932 36.836C60.5452 37.612 59.7652 38 58.6532 38C57.5332 38 56.7492 37.612 56.3012 36.836C55.8532 36.06 55.6292 34.972 55.6292 33.572ZM60.5852 33.572C60.5852 32.876 60.5372 32.288 60.4412 31.808C60.3532 31.32 60.1652 30.928 59.8772 30.632C59.5972 30.336 59.1892 30.188 58.6532 30.188C58.1092 30.188 57.6932 30.336 57.4052 30.632C57.1252 30.928 56.9372 31.32 56.8412 31.808C56.7532 32.288 56.7092 32.876 56.7092 33.572C56.7092 34.292 56.7532 34.896 56.8412 35.384C56.9372 35.872 57.1252 36.264 57.4052 36.56C57.6932 36.856 58.1092 37.004 58.6532 37.004C59.1892 37.004 59.5972 36.856 59.8772 36.56C60.1652 36.264 60.3532 35.872 60.4412 35.384C60.5372 34.896 60.5852 34.292 60.5852 33.572ZM63.4763 30.32V29.324H65.7323V38H64.6283V30.32H63.4763ZM68.0401 40.232V40.124C68.8641 39.276 69.4881 38.288 69.9121 37.16C70.3441 36.032 70.5601 34.848 70.5601 33.608C70.5601 32.336 70.3321 31.112 69.8761 29.936C69.4281 28.752 68.7561 27.74 67.8601 26.9V26.792H69.0001C69.8401 27.568 70.4841 28.556 70.9321 29.756C71.3881 30.948 71.6161 32.232 71.6161 33.608C71.6161 34.952 71.4001 36.204 70.9681 37.364C70.5441 38.524 69.9481 39.48 69.1801 40.232H68.0401Z" fill="white"/>
</svg>
